<?xml version="1.0" encoding="utf-8"?>
<svg xmlns="http://www.w3.org/2000/svg" xmlns:xlink="http://www.w3.org/1999/xlink" width="576" height="384" viewBox="0 0 2304 1536">
<defs>
  <clipPath id="clip380">
    <rect x="0" y="0" width="2304" height="1536"/>
  </clipPath>
</defs>
<path clip-path="url(#clip380)" d="
M0 1536 L2304 1536 L2304 0 L0 0  Z
  " fill="#ffffff" fill-rule="evenodd" fill-opacity="1"/>
<defs>
  <clipPath id="clip381">
    <rect x="460" y="0" width="1614" height="1536"/>
  </clipPath>
</defs>
<path clip-path="url(#clip380)" d="
M224.763 1359.82 L2256.76 1359.82 L2256.76 47.2441 L224.763 47.2441  Z
  " fill="#ffffff" fill-rule="evenodd" fill-opacity="1"/>
<defs>
  <clipPath id="clip382">
    <rect x="224" y="47" width="2033" height="1314"/>
  </clipPath>
</defs>
<polyline clip-path="url(#clip382)" style="stroke:#000000; stroke-width:2; stroke-opacity:0.1; fill:none" points="
  282.272,1359.82 282.272,47.2441 
  "/>
<polyline clip-path="url(#clip382)" style="stroke:#000000; stroke-width:2; stroke-opacity:0.1; fill:none" points="
  761.516,1359.82 761.516,47.2441 
  "/>
<polyline clip-path="url(#clip382)" style="stroke:#000000; stroke-width:2; stroke-opacity:0.1; fill:none" points="
  1240.76,1359.82 1240.76,47.2441 
  "/>
<polyline clip-path="url(#clip382)" style="stroke:#000000; stroke-width:2; stroke-opacity:0.1; fill:none" points="
  1720,1359.82 1720,47.2441 
  "/>
<polyline clip-path="url(#clip382)" style="stroke:#000000; stroke-width:2; stroke-opacity:0.1; fill:none" points="
  2199.25,1359.82 2199.25,47.2441 
  "/>
<polyline clip-path="url(#clip382)" style="stroke:#000000; stroke-width:2; stroke-opacity:0.1; fill:none" points="
  224.763,1350.64 2256.76,1350.64 
  "/>
<polyline clip-path="url(#clip382)" style="stroke:#000000; stroke-width:2; stroke-opacity:0.1; fill:none" points="
  224.763,1034.08 2256.76,1034.08 
  "/>
<polyline clip-path="url(#clip382)" style="stroke:#000000; stroke-width:2; stroke-opacity:0.1; fill:none" points="
  224.763,717.517 2256.76,717.517 
  "/>
<polyline clip-path="url(#clip382)" style="stroke:#000000; stroke-width:2; stroke-opacity:0.1; fill:none" points="
  224.763,400.955 2256.76,400.955 
  "/>
<polyline clip-path="url(#clip382)" style="stroke:#000000; stroke-width:2; stroke-opacity:0.1; fill:none" points="
  224.763,84.3925 2256.76,84.3925 
  "/>
<polyline clip-path="url(#clip380)" style="stroke:#000000; stroke-width:4; stroke-opacity:1; fill:none" points="
  224.763,1359.82 2256.76,1359.82 
  "/>
<polyline clip-path="url(#clip380)" style="stroke:#000000; stroke-width:4; stroke-opacity:1; fill:none" points="
  224.763,1359.82 224.763,47.2441 
  "/>
<polyline clip-path="url(#clip380)" style="stroke:#000000; stroke-width:4; stroke-opacity:1; fill:none" points="
  282.272,1359.82 282.272,1344.07 
  "/>
<polyline clip-path="url(#clip380)" style="stroke:#000000; stroke-width:4; stroke-opacity:1; fill:none" points="
  761.516,1359.82 761.516,1344.07 
  "/>
<polyline clip-path="url(#clip380)" style="stroke:#000000; stroke-width:4; stroke-opacity:1; fill:none" points="
  1240.76,1359.82 1240.76,1344.07 
  "/>
<polyline clip-path="url(#clip380)" style="stroke:#000000; stroke-width:4; stroke-opacity:1; fill:none" points="
  1720,1359.82 1720,1344.07 
  "/>
<polyline clip-path="url(#clip380)" style="stroke:#000000; stroke-width:4; stroke-opacity:1; fill:none" points="
  2199.25,1359.82 2199.25,1344.07 
  "/>
<polyline clip-path="url(#clip380)" style="stroke:#000000; stroke-width:4; stroke-opacity:1; fill:none" points="
  224.763,1350.64 249.147,1350.64 
  "/>
<polyline clip-path="url(#clip380)" style="stroke:#000000; stroke-width:4; stroke-opacity:1; fill:none" points="
  224.763,1034.08 249.147,1034.08 
  "/>
<polyline clip-path="url(#clip380)" style="stroke:#000000; stroke-width:4; stroke-opacity:1; fill:none" points="
  224.763,717.517 249.147,717.517 
  "/>
<polyline clip-path="url(#clip380)" style="stroke:#000000; stroke-width:4; stroke-opacity:1; fill:none" points="
  224.763,400.955 249.147,400.955 
  "/>
<polyline clip-path="url(#clip380)" style="stroke:#000000; stroke-width:4; stroke-opacity:1; fill:none" points="
  224.763,84.3925 249.147,84.3925 
  "/>
<path clip-path="url(#clip380)" d="M 0 0 M263.788 1381.33 Q260.177 1381.33 258.348 1384.9 Q256.543 1388.44 256.543 1395.57 Q256.543 1402.67 258.348 1406.24 Q260.177 1409.78 263.788 1409.78 Q267.422 1409.78 269.228 1406.24 Q271.057 1402.67 271.057 1395.57 Q271.057 1388.44 269.228 1384.9 Q267.422 1381.33 263.788 1381.33 M263.788 1377.63 Q269.598 1377.63 272.654 1382.23 Q275.733 1386.82 275.733 1395.57 Q275.733 1404.29 272.654 1408.9 Q269.598 1413.48 263.788 1413.48 Q257.978 1413.48 254.899 1408.9 Q251.844 1404.29 251.844 1395.57 Q251.844 1386.82 254.899 1382.23 Q257.978 1377.63 263.788 1377.63 Z" fill="#000000" fill-rule="evenodd" fill-opacity="1" /><path clip-path="url(#clip380)" d="M 0 0 M280.802 1406.93 L285.686 1406.93 L285.686 1412.81 L280.802 1412.81 L280.802 1406.93 Z" fill="#000000" fill-rule="evenodd" fill-opacity="1" /><path clip-path="url(#clip380)" d="M 0 0 M300.756 1381.33 Q297.145 1381.33 295.316 1384.9 Q293.51 1388.44 293.51 1395.57 Q293.51 1402.67 295.316 1406.24 Q297.145 1409.78 300.756 1409.78 Q304.39 1409.78 306.195 1406.24 Q308.024 1402.67 308.024 1395.57 Q308.024 1388.44 306.195 1384.9 Q304.39 1381.33 300.756 1381.33 M300.756 1377.63 Q306.566 1377.63 309.621 1382.23 Q312.7 1386.82 312.7 1395.57 Q312.7 1404.29 309.621 1408.9 Q306.566 1413.48 300.756 1413.48 Q294.946 1413.48 291.867 1408.9 Q288.811 1404.29 288.811 1395.57 Q288.811 1386.82 291.867 1382.23 Q294.946 1377.63 300.756 1377.63 Z" fill="#000000" fill-rule="evenodd" fill-opacity="1" /><path clip-path="url(#clip380)" d="M 0 0 M738.182 1408.88 L754.502 1408.88 L754.502 1412.81 L732.557 1412.81 L732.557 1408.88 Q735.219 1406.12 739.803 1401.49 Q744.409 1396.84 745.59 1395.5 Q747.835 1392.97 748.715 1391.24 Q749.618 1389.48 749.618 1387.79 Q749.618 1385.03 747.673 1383.3 Q745.752 1381.56 742.65 1381.56 Q740.451 1381.56 737.997 1382.33 Q735.567 1383.09 732.789 1384.64 L732.789 1379.92 Q735.613 1378.78 738.067 1378.21 Q740.52 1377.63 742.557 1377.63 Q747.928 1377.63 751.122 1380.31 Q754.317 1383 754.317 1387.49 Q754.317 1389.62 753.506 1391.54 Q752.719 1393.44 750.613 1396.03 Q750.034 1396.7 746.932 1399.92 Q743.831 1403.11 738.182 1408.88 Z" fill="#000000" fill-rule="evenodd" fill-opacity="1" /><path clip-path="url(#clip380)" d="M 0 0 M759.571 1406.93 L764.455 1406.93 L764.455 1412.81 L759.571 1412.81 L759.571 1406.93 Z" fill="#000000" fill-rule="evenodd" fill-opacity="1" /><path clip-path="url(#clip380)" d="M 0 0 M769.571 1378.25 L787.928 1378.25 L787.928 1382.19 L773.854 1382.19 L773.854 1390.66 Q774.872 1390.31 775.891 1390.15 Q776.909 1389.96 777.928 1389.96 Q783.715 1389.96 787.094 1393.14 Q790.474 1396.31 790.474 1401.72 Q790.474 1407.3 787.002 1410.4 Q783.529 1413.48 777.21 1413.48 Q775.034 1413.48 772.766 1413.11 Q770.52 1412.74 768.113 1412 L768.113 1407.3 Q770.196 1408.44 772.418 1408.99 Q774.641 1409.55 777.117 1409.55 Q781.122 1409.55 783.46 1407.44 Q785.798 1405.34 785.798 1401.72 Q785.798 1398.11 783.46 1396.01 Q781.122 1393.9 777.117 1393.9 Q775.242 1393.9 773.367 1394.32 Q771.516 1394.73 769.571 1395.61 L769.571 1378.25 Z" fill="#000000" fill-rule="evenodd" fill-opacity="1" /><path clip-path="url(#clip380)" d="M 0 0 M1212.55 1378.25 L1230.91 1378.25 L1230.91 1382.19 L1216.84 1382.19 L1216.84 1390.66 Q1217.85 1390.31 1218.87 1390.15 Q1219.89 1389.96 1220.91 1389.96 Q1226.7 1389.96 1230.08 1393.14 Q1233.46 1396.31 1233.46 1401.72 Q1233.46 1407.3 1229.98 1410.4 Q1226.51 1413.48 1220.19 1413.48 Q1218.02 1413.48 1215.75 1413.11 Q1213.5 1412.74 1211.1 1412 L1211.1 1407.3 Q1213.18 1408.44 1215.4 1408.99 Q1217.62 1409.55 1220.1 1409.55 Q1224.1 1409.55 1226.44 1407.44 Q1228.78 1405.34 1228.78 1401.72 Q1228.78 1398.11 1226.44 1396.01 Q1224.1 1393.9 1220.1 1393.9 Q1218.22 1393.9 1216.35 1394.32 Q1214.5 1394.73 1212.55 1395.61 L1212.55 1378.25 Z" fill="#000000" fill-rule="evenodd" fill-opacity="1" /><path clip-path="url(#clip380)" d="M 0 0 M1238.53 1406.93 L1243.41 1406.93 L1243.41 1412.81 L1238.53 1412.81 L1238.53 1406.93 Z" fill="#000000" fill-rule="evenodd" fill-opacity="1" /><path clip-path="url(#clip380)" d="M 0 0 M1258.48 1381.33 Q1254.87 1381.33 1253.04 1384.9 Q1251.23 1388.44 1251.23 1395.57 Q1251.23 1402.67 1253.04 1406.24 Q1254.87 1409.78 1258.48 1409.78 Q1262.11 1409.78 1263.92 1406.24 Q1265.75 1402.67 1265.75 1395.57 Q1265.75 1388.44 1263.92 1384.9 Q1262.11 1381.33 1258.48 1381.33 M1258.48 1377.63 Q1264.29 1377.63 1267.34 1382.23 Q1270.42 1386.82 1270.42 1395.57 Q1270.42 1404.29 1267.34 1408.9 Q1264.29 1413.48 1258.48 1413.48 Q1252.67 1413.48 1249.59 1408.9 Q1246.53 1404.29 1246.53 1395.57 Q1246.53 1386.82 1249.59 1382.23 Q1252.67 1377.63 1258.48 1377.63 Z" fill="#000000" fill-rule="evenodd" fill-opacity="1" /><path clip-path="url(#clip380)" d="M 0 0 M1690.91 1378.25 L1713.13 1378.25 L1713.13 1380.24 L1700.58 1412.81 L1695.7 1412.81 L1707.5 1382.19 L1690.91 1382.19 L1690.91 1378.25 Z" fill="#000000" fill-rule="evenodd" fill-opacity="1" /><path clip-path="url(#clip380)" d="M 0 0 M1718.2 1406.93 L1723.08 1406.93 L1723.08 1412.81 L1718.2 1412.81 L1718.2 1406.93 Z" fill="#000000" fill-rule="evenodd" fill-opacity="1" /><path clip-path="url(#clip380)" d="M 0 0 M1728.2 1378.25 L1746.55 1378.25 L1746.55 1382.19 L1732.48 1382.19 L1732.48 1390.66 Q1733.5 1390.31 1734.52 1390.15 Q1735.54 1389.96 1736.55 1389.96 Q1742.34 1389.96 1745.72 1393.14 Q1749.1 1396.31 1749.1 1401.72 Q1749.1 1407.3 1745.63 1410.4 Q1742.16 1413.48 1735.84 1413.48 Q1733.66 1413.48 1731.39 1413.11 Q1729.15 1412.74 1726.74 1412 L1726.74 1407.3 Q1728.82 1408.44 1731.04 1408.99 Q1733.27 1409.55 1735.74 1409.55 Q1739.75 1409.55 1742.09 1407.44 Q1744.42 1405.34 1744.42 1401.72 Q1744.42 1398.11 1742.09 1396.01 Q1739.75 1393.9 1735.74 1393.9 Q1733.87 1393.9 1731.99 1394.32 Q1730.14 1394.73 1728.2 1395.61 L1728.2 1378.25 Z" fill="#000000" fill-rule="evenodd" fill-opacity="1" /><path clip-path="url(#clip380)" d="M 0 0 M2157.64 1408.88 L2165.28 1408.88 L2165.28 1382.51 L2156.97 1384.18 L2156.97 1379.92 L2165.23 1378.25 L2169.91 1378.25 L2169.91 1408.88 L2177.55 1408.88 L2177.55 1412.81 L2157.64 1412.81 L2157.64 1408.88 Z" fill="#000000" fill-rule="evenodd" fill-opacity="1" /><path clip-path="url(#clip380)" d="M 0 0 M2192.61 1381.33 Q2189 1381.33 2187.17 1384.9 Q2185.37 1388.44 2185.37 1395.57 Q2185.37 1402.67 2187.17 1406.24 Q2189 1409.78 2192.61 1409.78 Q2196.25 1409.78 2198.05 1406.24 Q2199.88 1402.67 2199.88 1395.57 Q2199.88 1388.44 2198.05 1384.9 Q2196.25 1381.33 2192.61 1381.33 M2192.61 1377.63 Q2198.42 1377.63 2201.48 1382.23 Q2204.56 1386.82 2204.56 1395.57 Q2204.56 1404.29 2201.48 1408.9 Q2198.42 1413.48 2192.61 1413.48 Q2186.8 1413.48 2183.73 1408.9 Q2180.67 1404.29 2180.67 1395.57 Q2180.67 1386.82 2183.73 1382.23 Q2186.8 1377.63 2192.61 1377.63 Z" fill="#000000" fill-rule="evenodd" fill-opacity="1" /><path clip-path="url(#clip380)" d="M 0 0 M2209.63 1406.93 L2214.51 1406.93 L2214.51 1412.81 L2209.63 1412.81 L2209.63 1406.93 Z" fill="#000000" fill-rule="evenodd" fill-opacity="1" /><path clip-path="url(#clip380)" d="M 0 0 M2229.58 1381.33 Q2225.97 1381.33 2224.14 1384.9 Q2222.34 1388.44 2222.34 1395.57 Q2222.34 1402.67 2224.14 1406.24 Q2225.97 1409.78 2229.58 1409.78 Q2233.22 1409.78 2235.02 1406.24 Q2236.85 1402.67 2236.85 1395.57 Q2236.85 1388.44 2235.02 1384.9 Q2233.22 1381.33 2229.58 1381.33 M2229.58 1377.63 Q2235.39 1377.63 2238.45 1382.23 Q2241.53 1386.82 2241.53 1395.57 Q2241.53 1404.29 2238.45 1408.9 Q2235.39 1413.48 2229.58 1413.48 Q2223.77 1413.48 2220.69 1408.9 Q2217.64 1404.29 2217.64 1395.57 Q2217.64 1386.82 2220.69 1382.23 Q2223.77 1377.63 2229.58 1377.63 Z" fill="#000000" fill-rule="evenodd" fill-opacity="1" /><path clip-path="url(#clip380)" d="M 0 0 M126.492 1353.04 L138.968 1353.04 L138.968 1356.83 L126.492 1356.83 L126.492 1353.04 Z" fill="#000000" fill-rule="evenodd" fill-opacity="1" /><path clip-path="url(#clip380)" d="M 0 0 M144.848 1363.99 L152.487 1363.99 L152.487 1337.62 L144.177 1339.29 L144.177 1335.03 L152.441 1333.36 L157.116 1333.36 L157.116 1363.99 L164.755 1363.99 L164.755 1367.92 L144.848 1367.92 L144.848 1363.99 Z" fill="#000000" fill-rule="evenodd" fill-opacity="1" /><path clip-path="url(#clip380)" d="M 0 0 M169.825 1362.04 L174.709 1362.04 L174.709 1367.92 L169.825 1367.92 L169.825 1362.04 Z" fill="#000000" fill-rule="evenodd" fill-opacity="1" /><path clip-path="url(#clip380)" d="M 0 0 M189.778 1336.44 Q186.167 1336.44 184.339 1340.01 Q182.533 1343.55 182.533 1350.68 Q182.533 1357.78 184.339 1361.35 Q186.167 1364.89 189.778 1364.89 Q193.413 1364.89 195.218 1361.35 Q197.047 1357.78 197.047 1350.68 Q197.047 1343.55 195.218 1340.01 Q193.413 1336.44 189.778 1336.44 M189.778 1332.74 Q195.588 1332.74 198.644 1337.34 Q201.723 1341.93 201.723 1350.68 Q201.723 1359.4 198.644 1364.01 Q195.588 1368.59 189.778 1368.59 Q183.968 1368.59 180.889 1364.01 Q177.834 1359.4 177.834 1350.68 Q177.834 1341.93 180.889 1337.34 Q183.968 1332.74 189.778 1332.74 Z" fill="#000000" fill-rule="evenodd" fill-opacity="1" /><path clip-path="url(#clip380)" d="M 0 0 M126.26 1036.48 L138.737 1036.48 L138.737 1040.27 L126.26 1040.27 L126.26 1036.48 Z" fill="#000000" fill-rule="evenodd" fill-opacity="1" /><path clip-path="url(#clip380)" d="M 0 0 M153.806 1019.88 Q150.195 1019.88 148.367 1023.44 Q146.561 1026.98 146.561 1034.11 Q146.561 1041.22 148.367 1044.79 Q150.195 1048.33 153.806 1048.33 Q157.441 1048.33 159.246 1044.79 Q161.075 1041.22 161.075 1034.11 Q161.075 1026.98 159.246 1023.44 Q157.441 1019.88 153.806 1019.88 M153.806 1016.17 Q159.616 1016.17 162.672 1020.78 Q165.751 1025.36 165.751 1034.11 Q165.751 1042.84 162.672 1047.45 Q159.616 1052.03 153.806 1052.03 Q147.996 1052.03 144.917 1047.45 Q141.862 1042.84 141.862 1034.11 Q141.862 1025.36 144.917 1020.78 Q147.996 1016.17 153.806 1016.17 Z" fill="#000000" fill-rule="evenodd" fill-opacity="1" /><path clip-path="url(#clip380)" d="M 0 0 M170.82 1045.48 L175.704 1045.48 L175.704 1051.36 L170.82 1051.36 L170.82 1045.48 Z" fill="#000000" fill-rule="evenodd" fill-opacity="1" /><path clip-path="url(#clip380)" d="M 0 0 M180.82 1016.8 L199.176 1016.8 L199.176 1020.73 L185.102 1020.73 L185.102 1029.21 Q186.121 1028.86 187.139 1028.7 Q188.158 1028.51 189.176 1028.51 Q194.963 1028.51 198.343 1031.68 Q201.723 1034.86 201.723 1040.27 Q201.723 1045.85 198.251 1048.95 Q194.778 1052.03 188.459 1052.03 Q186.283 1052.03 184.014 1051.66 Q181.769 1051.29 179.362 1050.55 L179.362 1045.85 Q181.445 1046.98 183.667 1047.54 Q185.889 1048.1 188.366 1048.1 Q192.371 1048.1 194.709 1045.99 Q197.047 1043.88 197.047 1040.27 Q197.047 1036.66 194.709 1034.55 Q192.371 1032.45 188.366 1032.45 Q186.491 1032.45 184.616 1032.86 Q182.764 1033.28 180.82 1034.16 L180.82 1016.8 Z" fill="#000000" fill-rule="evenodd" fill-opacity="1" /><path clip-path="url(#clip380)" d="M 0 0 M152.811 703.316 Q149.2 703.316 147.371 706.881 Q145.566 710.422 145.566 717.552 Q145.566 724.659 147.371 728.223 Q149.2 731.765 152.811 731.765 Q156.445 731.765 158.251 728.223 Q160.079 724.659 160.079 717.552 Q160.079 710.422 158.251 706.881 Q156.445 703.316 152.811 703.316 M152.811 699.612 Q158.621 699.612 161.677 704.219 Q164.755 708.802 164.755 717.552 Q164.755 726.279 161.677 730.885 Q158.621 735.469 152.811 735.469 Q147.001 735.469 143.922 730.885 Q140.867 726.279 140.867 717.552 Q140.867 708.802 143.922 704.219 Q147.001 699.612 152.811 699.612 Z" fill="#000000" fill-rule="evenodd" fill-opacity="1" /><path clip-path="url(#clip380)" d="M 0 0 M169.825 728.918 L174.709 728.918 L174.709 734.797 L169.825 734.797 L169.825 728.918 Z" fill="#000000" fill-rule="evenodd" fill-opacity="1" /><path clip-path="url(#clip380)" d="M 0 0 M189.778 703.316 Q186.167 703.316 184.339 706.881 Q182.533 710.422 182.533 717.552 Q182.533 724.659 184.339 728.223 Q186.167 731.765 189.778 731.765 Q193.413 731.765 195.218 728.223 Q197.047 724.659 197.047 717.552 Q197.047 710.422 195.218 706.881 Q193.413 703.316 189.778 703.316 M189.778 699.612 Q195.588 699.612 198.644 704.219 Q201.723 708.802 201.723 717.552 Q201.723 726.279 198.644 730.885 Q195.588 735.469 189.778 735.469 Q183.968 735.469 180.889 730.885 Q177.834 726.279 177.834 717.552 Q177.834 708.802 180.889 704.219 Q183.968 699.612 189.778 699.612 Z" fill="#000000" fill-rule="evenodd" fill-opacity="1" /><path clip-path="url(#clip380)" d="M 0 0 M153.806 386.754 Q150.195 386.754 148.367 390.318 Q146.561 393.86 146.561 400.99 Q146.561 408.096 148.367 411.661 Q150.195 415.203 153.806 415.203 Q157.441 415.203 159.246 411.661 Q161.075 408.096 161.075 400.99 Q161.075 393.86 159.246 390.318 Q157.441 386.754 153.806 386.754 M153.806 383.05 Q159.616 383.05 162.672 387.656 Q165.751 392.24 165.751 400.99 Q165.751 409.716 162.672 414.323 Q159.616 418.906 153.806 418.906 Q147.996 418.906 144.917 414.323 Q141.862 409.716 141.862 400.99 Q141.862 392.24 144.917 387.656 Q147.996 383.05 153.806 383.05 Z" fill="#000000" fill-rule="evenodd" fill-opacity="1" /><path clip-path="url(#clip380)" d="M 0 0 M170.82 412.355 L175.704 412.355 L175.704 418.235 L170.82 418.235 L170.82 412.355 Z" fill="#000000" fill-rule="evenodd" fill-opacity="1" /><path clip-path="url(#clip380)" d="M 0 0 M180.82 383.675 L199.176 383.675 L199.176 387.61 L185.102 387.61 L185.102 396.082 Q186.121 395.735 187.139 395.573 Q188.158 395.388 189.176 395.388 Q194.963 395.388 198.343 398.559 Q201.723 401.73 201.723 407.147 Q201.723 412.726 198.251 415.828 Q194.778 418.906 188.459 418.906 Q186.283 418.906 184.014 418.536 Q181.769 418.165 179.362 417.425 L179.362 412.726 Q181.445 413.86 183.667 414.415 Q185.889 414.971 188.366 414.971 Q192.371 414.971 194.709 412.865 Q197.047 410.758 197.047 407.147 Q197.047 403.536 194.709 401.429 Q192.371 399.323 188.366 399.323 Q186.491 399.323 184.616 399.74 Q182.764 400.156 180.82 401.036 L180.82 383.675 Z" fill="#000000" fill-rule="evenodd" fill-opacity="1" /><path clip-path="url(#clip380)" d="M 0 0 M144.848 97.7373 L152.487 97.7373 L152.487 71.3717 L144.177 73.0384 L144.177 68.7791 L152.441 67.1125 L157.116 67.1125 L157.116 97.7373 L164.755 97.7373 L164.755 101.672 L144.848 101.672 L144.848 97.7373 Z" fill="#000000" fill-rule="evenodd" fill-opacity="1" /><path clip-path="url(#clip380)" d="M 0 0 M169.825 95.7929 L174.709 95.7929 L174.709 101.672 L169.825 101.672 L169.825 95.7929 Z" fill="#000000" fill-rule="evenodd" fill-opacity="1" /><path clip-path="url(#clip380)" d="M 0 0 M189.778 70.1912 Q186.167 70.1912 184.339 73.7559 Q182.533 77.2976 182.533 84.4272 Q182.533 91.5336 184.339 95.0984 Q186.167 98.6401 189.778 98.6401 Q193.413 98.6401 195.218 95.0984 Q197.047 91.5336 197.047 84.4272 Q197.047 77.2976 195.218 73.7559 Q193.413 70.1912 189.778 70.1912 M189.778 66.4875 Q195.588 66.4875 198.644 71.0939 Q201.723 75.6772 201.723 84.4272 Q201.723 93.154 198.644 97.7604 Q195.588 102.344 189.778 102.344 Q183.968 102.344 180.889 97.7604 Q177.834 93.154 177.834 84.4272 Q177.834 75.6772 180.889 71.0939 Q183.968 66.4875 189.778 66.4875 Z" fill="#000000" fill-rule="evenodd" fill-opacity="1" /><path clip-path="url(#clip380)" d="M 0 0 M1252.47 1457.13 L1252.47 1462.66 Q1249.99 1461.39 1247.32 1460.75 Q1244.64 1460.12 1241.78 1460.12 Q1237.42 1460.12 1235.22 1461.45 Q1233.06 1462.79 1233.06 1465.47 Q1233.06 1467.5 1234.62 1468.68 Q1236.18 1469.83 1240.89 1470.88 L1242.89 1471.32 Q1249.13 1472.66 1251.74 1475.11 Q1254.38 1477.53 1254.38 1481.89 Q1254.38 1486.85 1250.44 1489.75 Q1246.52 1492.65 1239.65 1492.65 Q1236.78 1492.65 1233.66 1492.07 Q1230.57 1491.53 1227.14 1490.42 L1227.14 1484.37 Q1230.38 1486.06 1233.53 1486.92 Q1236.69 1487.75 1239.77 1487.75 Q1243.91 1487.75 1246.14 1486.34 Q1248.37 1484.91 1248.37 1482.33 Q1248.37 1479.95 1246.74 1478.67 Q1245.15 1477.4 1239.71 1476.22 L1237.67 1475.75 Q1232.23 1474.6 1229.81 1472.24 Q1227.39 1469.86 1227.39 1465.72 Q1227.39 1460.69 1230.96 1457.95 Q1234.52 1455.22 1241.08 1455.22 Q1244.32 1455.22 1247.19 1455.69 Q1250.05 1456.17 1252.47 1457.13 Z" fill="#000000" fill-rule="evenodd" fill-opacity="1" /><path clip-path="url(#clip380)" d="M 0 0 M56.881 728.295 L68.5621 761.142 L80.1795 728.295 L85.9723 728.295 L71.172 769.099 L65.8885 769.099 L51.0882 728.295 L56.881 728.295 Z" fill="#000000" fill-rule="evenodd" fill-opacity="1" /><path clip-path="url(#clip380)" d="M 0 0 M41.4442 724.189 L41.4442 717.282 L59.109 705.474 L41.4442 693.601 L41.4442 686.695 L64.2652 701.972 L88.9642 685.676 L88.9642 692.583 L68.753 705.951 L88.9642 719.414 L88.9642 726.353 L63.5968 709.388 L41.4442 724.189 Z" fill="#000000" fill-rule="evenodd" fill-opacity="1" /><path clip-path="url(#clip380)" d="M 0 0 M56.881 678.769 L51.0882 678.769 L65.8885 637.965 L71.172 637.965 L85.9723 678.769 L80.1795 678.769 L68.5621 645.986 L56.881 678.769 Z" fill="#000000" fill-rule="evenodd" fill-opacity="1" /><polyline clip-path="url(#clip382)" style="stroke:#009af9; stroke-width:8; stroke-opacity:1; fill:none" points="
  282.272,84.3925 291.905,87.5819 301.538,97.0796 311.171,112.734 320.804,134.345 330.437,161.658 340.07,194.37 349.703,232.124 359.336,274.518 368.969,321.105 
  378.602,371.399 388.235,424.879 397.868,480.997 407.501,539.178 417.134,598.834 426.768,659.361 436.401,720.151 446.034,780.599 455.667,840.102 465.3,898.072 
  474.933,953.94 484.566,1007.16 494.199,1057.21 503.832,1103.62 513.465,1145.94 523.098,1183.76 532.731,1216.74 542.364,1244.56 551.997,1266.99 561.63,1283.82 
  571.263,1294.92 580.896,1300.2 590.529,1299.64 600.162,1293.28 609.795,1281.21 619.428,1263.58 629.061,1240.6 638.694,1212.51 648.327,1179.64 657.96,1142.33 
  667.594,1100.98 677.227,1056.01 686.86,1007.9 696.493,957.145 706.126,904.261 715.759,849.788 725.392,794.277 735.025,738.288 744.658,682.379 754.291,627.11 
  763.924,573.028 773.557,520.665 783.19,470.536 792.823,423.128 802.456,378.9 812.089,338.276 821.722,301.644 831.355,269.347 840.988,241.685 850.621,218.911 
  860.254,201.226 869.887,188.78 879.52,181.669 889.153,179.939 898.786,183.577 908.419,192.52 918.053,206.651 927.686,225.802 937.319,249.758 946.952,278.253 
  956.585,310.98 966.218,347.592 975.851,387.702 985.484,430.894 995.117,476.72 1004.75,524.71 1014.38,574.374 1024.02,625.208 1033.65,676.7 1043.28,728.332 
  1052.92,779.589 1062.55,829.962 1072.18,878.954 1081.81,926.082 1091.45,970.886 1101.08,1012.93 1110.71,1051.82 1120.35,1087.16 1129.98,1118.65 1139.61,1145.96 
  1149.25,1168.87 1158.88,1187.15 1168.51,1200.66 1178.14,1209.28 1187.78,1212.95 1197.41,1211.67 1207.04,1205.46 1216.68,1194.42 1226.31,1178.68 1235.94,1158.42 
  1245.58,1133.87 1255.21,1105.3 1264.84,1073.01 1274.47,1037.34 1284.11,998.667 1293.74,957.39 1303.37,913.934 1313.01,868.744 1322.64,822.28 1332.27,775.011 
  1341.91,727.414 1351.54,679.963 1361.17,633.133 1370.81,587.386 1380.44,543.172 1390.07,500.926 1399.7,461.058 1409.34,423.952 1418.97,389.966 1428.6,359.421 
  1438.24,332.605 1447.87,309.766 1457.5,291.11 1467.14,276.802 1476.77,266.962 1486.4,261.666 1496.03,260.942 1505.67,264.775 1515.3,273.102 1524.93,285.817 
  1534.57,302.77 1544.2,323.772 1553.83,348.591 1563.47,376.96 1573.1,408.578 1582.73,443.113 1592.37,480.205 1602,519.472 1611.63,560.511 1621.26,602.903 
  1630.9,646.218 1640.53,690.02 1650.16,733.87 1659.8,777.331 1669.43,819.969 1679.06,861.366 1688.7,901.115 1698.33,938.827 1707.96,974.138 1717.59,1006.71 
  1727.23,1036.22 1736.86,1062.41 1746.49,1085.02 1756.13,1103.85 1765.76,1118.74 1775.39,1129.54 1785.03,1136.18 1794.66,1138.61 1804.29,1136.83 1813.93,1130.88 
  1823.56,1120.83 1833.19,1106.82 1842.82,1089 1852.46,1067.57 1862.09,1042.75 1871.72,1014.82 1881.36,984.075 1890.99,950.827 1900.62,915.426 1910.26,878.233 
  1919.89,839.631 1929.52,800.01 1939.15,759.772 1948.79,719.321 1958.42,679.06 1968.05,639.391 1977.69,600.707 1987.32,563.386 1996.95,527.796 2006.59,494.281 
  2016.22,463.166 2025.85,434.747 2035.49,409.295 2045.12,387.048 2054.75,368.211 2064.38,352.954 2074.02,341.411 2083.65,333.678 2093.28,329.812 2102.92,329.832 
  2112.55,333.717 2122.18,341.409 2131.82,352.812 2141.45,367.792 2151.08,386.182 2160.71,407.78 2170.35,432.355 2179.98,459.646 2189.61,489.368 2199.25,521.21 
  
  "/>
<polyline clip-path="url(#clip382)" style="stroke:#e26f46; stroke-width:8; stroke-opacity:1; fill:none" points="
  282.272,84.3925 291.905,87.6208 301.538,97.2716 311.171,113.242 320.804,135.362 330.437,163.397 340.07,197.05 349.703,235.962 359.336,279.723 368.969,327.869 
  378.602,379.892 388.235,435.245 397.868,493.346 407.501,553.586 417.134,615.336 426.768,677.953 436.401,740.786 446.034,803.185 455.667,864.508 465.3,924.126 
  474.933,981.43 484.566,1035.84 494.199,1086.8 503.832,1133.82 513.465,1176.41 523.098,1214.16 532.731,1246.71 542.364,1273.75 551.997,1295.02 561.63,1310.34 
  571.263,1319.58 580.896,1322.67 590.529,1319.62 600.162,1310.49 609.795,1295.41 619.428,1274.56 629.061,1248.19 638.694,1216.6 648.327,1180.15 657.96,1139.23 
  667.594,1094.28 677.227,1045.8 686.86,994.287 696.493,940.297 706.126,884.391 715.759,827.15 725.392,769.166 735.025,711.033 744.658,653.343 754.291,596.679 
  763.924,541.611 773.557,488.688 783.19,438.432 792.823,391.335 802.456,347.854 812.089,308.406 821.722,273.362 831.355,243.047 840.988,217.735 850.621,197.646 
  860.254,182.949 869.887,173.751 879.52,170.107 889.153,172.013 898.786,179.409 908.419,192.18 918.053,210.155 927.686,233.115 937.319,260.79 946.952,292.863 
  956.585,328.977 966.218,368.735 975.851,411.707 985.484,457.435 995.117,505.433 1004.75,555.198 1014.38,606.215 1024.02,657.956 1033.65,709.892 1043.28,761.498 
  1052.92,812.253 1062.55,861.652 1072.18,909.206 1081.81,954.448 1091.45,996.94 1101.08,1036.27 1110.71,1072.08 1120.35,1104.02 1129.98,1131.81 1139.61,1155.2 
  1149.25,1173.98 1158.88,1188.01 1168.51,1197.18 1178.14,1201.45 1187.78,1200.8 1197.41,1195.28 1207.04,1185 1216.68,1170.09 1226.31,1150.75 1235.94,1127.19 
  1245.58,1099.71 1255.21,1068.61 1264.84,1034.23 1274.47,996.945 1284.11,957.161 1293.74,915.298 1303.37,871.797 1313.01,827.109 1322.64,781.698 1332.27,736.026 
  1341.91,690.557 1351.54,645.749 1361.17,602.047 1370.81,559.883 1380.44,519.67 1390.07,481.797 1399.7,446.624 1409.34,414.484 1418.97,385.676 1428.6,360.46 
  1438.24,339.059 1447.87,321.658 1457.5,308.396 1467.14,299.37 1476.77,294.636 1486.4,294.204 1496.03,298.039 1505.67,306.066 1515.3,318.168 1524.93,334.185 
  1534.57,353.923 1544.2,377.15 1553.83,403.599 1563.47,432.978 1573.1,464.962 1582.73,499.206 1592.37,535.346 1602,572.999 1611.63,611.774 1621.26,651.268 
  1630.9,691.077 1640.53,730.797 1650.16,770.028 1659.8,808.38 1669.43,845.473 1679.06,880.945 1688.7,914.452 1698.33,945.675 1707.96,974.319 1717.59,1000.12 
  1727.23,1022.84 1736.86,1042.28 1746.49,1058.28 1756.13,1070.69 1765.76,1079.44 1775.39,1084.47 1785.03,1085.75 1794.66,1083.31 1804.29,1077.22 1813.93,1067.55 
  1823.56,1054.45 1833.19,1038.07 1842.82,1018.61 1852.46,996.304 1862.09,971.389 1871.72,944.145 1881.36,914.868 1890.99,883.871 1900.62,851.483 1910.26,818.043 
  1919.89,783.897 1929.52,749.396 1939.15,714.89 1948.79,680.728 1958.42,647.252 1968.05,614.79 1977.69,583.662 1987.32,554.17 1996.95,526.594 2006.59,501.195 
  2016.22,478.209 2025.85,457.846 2035.49,440.286 2045.12,425.68 2054.75,414.148 2064.38,405.778 2074.02,400.625 2083.65,398.711 2093.28,400.025 2102.92,404.523 
  2112.55,412.132 2122.18,422.745 2131.82,436.228 2141.45,452.417 2151.08,471.125 2160.71,492.14 2170.35,515.228 2179.98,540.137 2189.61,566.6 2199.25,594.336 
  
  "/>
<polyline clip-path="url(#clip382)" style="stroke:#3da44d; stroke-width:8; stroke-opacity:1; fill:none" points="
  282.272,84.3925 291.905,87.6154 301.538,97.2117 311.171,113.024 320.804,134.84 330.437,162.395 340.07,195.366 349.703,233.378 359.336,276.009 368.969,322.788 
  378.602,373.206 388.235,426.721 397.868,482.76 407.501,540.732 417.134,600.027 426.768,660.028 436.401,720.117 446.034,779.679 455.667,838.11 465.3,894.824 
  474.933,949.258 484.566,1000.88 494.199,1049.18 503.832,1093.71 513.465,1134.05 523.098,1169.83 532.731,1200.72 542.364,1226.47 551.997,1246.86 561.63,1261.74 
  571.263,1271.01 580.896,1274.64 590.529,1272.66 600.162,1265.13 609.795,1252.2 619.428,1234.04 629.061,1210.91 638.694,1183.09 648.327,1150.92 657.96,1114.75 
  667.594,1075.01 677.227,1032.14 686.86,986.598 696.493,938.878 706.126,889.485 715.759,838.936 725.392,787.754 735.025,736.461 744.658,685.574 754.291,635.602 
  763.924,587.035 773.557,540.346 783.19,495.982 792.823,454.361 802.456,415.868 812.089,380.852 821.722,349.623 831.355,322.449 840.988,299.553 850.621,281.112 
  860.254,267.257 869.887,258.071 879.52,253.587 889.153,253.792 898.786,258.625 908.419,267.981 918.053,281.709 927.686,299.616 937.319,321.47 946.952,347.002 
  956.585,375.909 966.218,407.859 975.851,442.493 985.484,479.429 995.117,518.268 1004.75,558.597 1014.38,599.992 1024.02,642.025 1033.65,684.267 1043.28,726.292 
  1052.92,767.683 1062.55,808.033 1072.18,846.952 1081.81,884.07 1091.45,919.038 1101.08,951.535 1110.71,981.268 1120.35,1007.98 1129.98,1031.43 1139.61,1051.44 
  1149.25,1067.86 1158.88,1080.56 1168.51,1089.47 1178.14,1094.54 1187.78,1095.79 1197.41,1093.25 1207.04,1086.99 1216.68,1077.12 1226.31,1063.81 1235.94,1047.21 
  1245.58,1027.55 1255.21,1005.06 1264.84,980.009 1274.47,952.675 1284.11,923.365 1293.74,892.399 1303.37,860.109 1313.01,826.836 1322.64,792.926 1332.27,758.725 
  1341.91,724.58 1351.54,690.832 1361.17,657.811 1370.81,625.839 1380.44,595.219 1390.07,566.241 1399.7,539.169 1409.34,514.25 1418.97,491.701 1428.6,471.716 
  1438.24,454.459 1447.87,440.065 1457.5,428.637 1467.14,420.249 1476.77,414.943 1486.4,412.728 1496.03,413.585 1505.67,417.462 1515.3,424.277 1524.93,433.923 
  1534.57,446.264 1544.2,461.138 1553.83,478.361 1563.47,497.73 1573.1,519.021 1582.73,541.993 1592.37,566.395 1602,591.962 1611.63,618.424 1621.26,645.502 
  1630.9,672.918 1640.53,700.394 1650.16,727.655 1659.8,754.431 1669.43,780.461 1679.06,805.497 1688.7,829.303 1698.33,851.658 1707.96,872.359 1717.59,891.223 
  1727.23,908.088 1736.86,922.813 1746.49,935.283 1756.13,945.404 1765.76,953.109 1775.39,958.354 1785.03,961.123 1794.66,961.423 1804.29,959.286 1813.93,954.768 
  1823.56,947.948 1833.19,938.927 1842.82,927.826 1852.46,914.785 1862.09,899.963 1871.72,883.532 1881.36,865.68 1890.99,846.605 1900.62,826.515 1910.26,805.625 
  1919.89,784.154 1929.52,762.326 1939.15,740.364 1948.79,718.488 1958.42,696.915 1968.05,675.857 1977.69,655.517 1987.32,636.086 1996.95,617.746 2006.59,600.665 
  2016.22,584.994 2025.85,570.87 2035.49,558.412 2045.12,547.719 2054.75,538.874 2064.38,531.937 2074.02,526.952 2083.65,523.938 2093.28,522.899 2102.92,523.815 
  2112.55,526.65 2122.18,531.348 2131.82,537.834 2141.45,546.019 2151.08,555.796 2160.71,567.045 2170.35,579.632 2179.98,593.412 2189.61,608.23 2199.25,623.923 
  
  "/>
<path clip-path="url(#clip380)" d="
M1681.51 332.917 L2189.02 332.917 L2189.02 90.9966 L1681.51 90.9966  Z
  " fill="#ffffff" fill-rule="evenodd" fill-opacity="1"/>
<polyline clip-path="url(#clip380)" style="stroke:#000000; stroke-width:4; stroke-opacity:1; fill:none" points="
  1681.51,332.917 2189.02,332.917 2189.02,90.9966 1681.51,90.9966 1681.51,332.917 
  "/>
<polyline clip-path="url(#clip380)" style="stroke:#009af9; stroke-width:4; stroke-opacity:1; fill:none" points="
  1704.09,151.477 1839.56,151.477 
  "/>
<path clip-path="url(#clip380)" d="M 0 0 M1863.71 134.197 L1868.73 134.197 L1877.32 147.044 L1885.95 134.197 L1890.98 134.197 L1879.86 150.794 L1891.72 168.757 L1886.69 168.757 L1876.97 154.058 L1867.18 168.757 L1862.13 168.757 L1874.47 150.308 L1863.71 134.197 Z" fill="#000000" fill-rule="evenodd" fill-opacity="1" /><path clip-path="url(#clip380)" d="M 0 0 M1929.91 143.826 L1929.91 147.808 Q1928.1 146.812 1926.28 146.326 Q1924.47 145.817 1922.62 145.817 Q1918.48 145.817 1916.18 148.456 Q1913.89 151.072 1913.89 155.817 Q1913.89 160.562 1916.18 163.201 Q1918.48 165.817 1922.62 165.817 Q1924.47 165.817 1926.28 165.331 Q1928.1 164.821 1929.91 163.826 L1929.91 167.761 Q1928.13 168.595 1926.21 169.011 Q1924.31 169.428 1922.16 169.428 Q1916.3 169.428 1912.85 165.747 Q1909.4 162.067 1909.4 155.817 Q1909.4 149.474 1912.87 145.84 Q1916.37 142.206 1922.43 142.206 Q1924.4 142.206 1926.28 142.623 Q1928.15 143.016 1929.91 143.826 Z" fill="#000000" fill-rule="evenodd" fill-opacity="1" /><path clip-path="url(#clip380)" d="M 0 0 M1944.42 145.817 Q1941 145.817 1939.01 148.502 Q1937.02 151.164 1937.02 155.817 Q1937.02 160.47 1938.98 163.155 Q1940.97 165.817 1944.42 165.817 Q1947.83 165.817 1949.82 163.132 Q1951.81 160.446 1951.81 155.817 Q1951.81 151.21 1949.82 148.525 Q1947.83 145.817 1944.42 145.817 M1944.42 142.206 Q1949.98 142.206 1953.15 145.817 Q1956.32 149.428 1956.32 155.817 Q1956.32 162.183 1953.15 165.817 Q1949.98 169.428 1944.42 169.428 Q1938.85 169.428 1935.67 165.817 Q1932.53 162.183 1932.53 155.817 Q1932.53 149.428 1935.67 145.817 Q1938.85 142.206 1944.42 142.206 Z" fill="#000000" fill-rule="evenodd" fill-opacity="1" /><path clip-path="url(#clip380)" d="M 0 0 M1960.35 158.525 L1960.35 142.831 L1964.61 142.831 L1964.61 158.363 Q1964.61 162.044 1966.04 163.896 Q1967.48 165.724 1970.35 165.724 Q1973.8 165.724 1975.79 163.525 Q1977.8 161.326 1977.8 157.53 L1977.8 142.831 L1982.06 142.831 L1982.06 168.757 L1977.8 168.757 L1977.8 164.775 Q1976.25 167.136 1974.19 168.294 Q1972.16 169.428 1969.45 169.428 Q1964.98 169.428 1962.66 166.65 Q1960.35 163.872 1960.35 158.525 M1971.07 142.206 L1971.07 142.206 Z" fill="#000000" fill-rule="evenodd" fill-opacity="1" /><path clip-path="url(#clip380)" d="M 0 0 M1990.65 164.868 L1990.65 178.618 L1986.37 178.618 L1986.37 142.831 L1990.65 142.831 L1990.65 146.766 Q1991.99 144.451 1994.03 143.34 Q1996.09 142.206 1998.94 142.206 Q2003.66 142.206 2006.6 145.956 Q2009.56 149.706 2009.56 155.817 Q2009.56 161.928 2006.6 165.678 Q2003.66 169.428 1998.94 169.428 Q1996.09 169.428 1994.03 168.317 Q1991.99 167.183 1990.65 164.868 M2005.14 155.817 Q2005.14 151.118 2003.2 148.456 Q2001.28 145.771 1997.9 145.771 Q1994.52 145.771 1992.57 148.456 Q1990.65 151.118 1990.65 155.817 Q1990.65 160.516 1992.57 163.201 Q1994.52 165.863 1997.9 165.863 Q2001.28 165.863 2003.2 163.201 Q2005.14 160.516 2005.14 155.817 Z" fill="#000000" fill-rule="evenodd" fill-opacity="1" /><path clip-path="url(#clip380)" d="M 0 0 M2014.03 132.738 L2018.29 132.738 L2018.29 168.757 L2014.03 168.757 L2014.03 132.738 Z" fill="#000000" fill-rule="evenodd" fill-opacity="1" /><path clip-path="url(#clip380)" d="M 0 0 M2022.76 142.831 L2027.02 142.831 L2027.02 168.757 L2022.76 168.757 L2022.76 142.831 M2022.76 132.738 L2027.02 132.738 L2027.02 138.132 L2022.76 138.132 L2022.76 132.738 Z" fill="#000000" fill-rule="evenodd" fill-opacity="1" /><path clip-path="url(#clip380)" d="M 0 0 M2053.03 153.109 L2053.03 168.757 L2048.78 168.757 L2048.78 153.247 Q2048.78 149.567 2047.34 147.738 Q2045.9 145.91 2043.03 145.91 Q2039.59 145.91 2037.59 148.109 Q2035.6 150.308 2035.6 154.104 L2035.6 168.757 L2031.32 168.757 L2031.32 142.831 L2035.6 142.831 L2035.6 146.859 Q2037.13 144.521 2039.19 143.363 Q2041.28 142.206 2043.98 142.206 Q2048.45 142.206 2050.74 144.984 Q2053.03 147.738 2053.03 153.109 Z" fill="#000000" fill-rule="evenodd" fill-opacity="1" /><path clip-path="url(#clip380)" d="M 0 0 M2074.56 155.493 Q2074.56 150.863 2072.64 148.317 Q2070.74 145.771 2067.29 145.771 Q2063.87 145.771 2061.95 148.317 Q2060.05 150.863 2060.05 155.493 Q2060.05 160.099 2061.95 162.646 Q2063.87 165.192 2067.29 165.192 Q2070.74 165.192 2072.64 162.646 Q2074.56 160.099 2074.56 155.493 M2078.82 165.539 Q2078.82 172.159 2075.88 175.377 Q2072.94 178.618 2066.88 178.618 Q2064.63 178.618 2062.64 178.27 Q2060.65 177.946 2058.78 177.252 L2058.78 173.108 Q2060.65 174.127 2062.48 174.613 Q2064.31 175.099 2066.21 175.099 Q2070.4 175.099 2072.48 172.9 Q2074.56 170.724 2074.56 166.303 L2074.56 164.196 Q2073.24 166.488 2071.18 167.622 Q2069.12 168.757 2066.25 168.757 Q2061.48 168.757 2058.57 165.122 Q2055.65 161.488 2055.65 155.493 Q2055.65 149.474 2058.57 145.84 Q2061.48 142.206 2066.25 142.206 Q2069.12 142.206 2071.18 143.34 Q2073.24 144.474 2074.56 146.766 L2074.56 142.831 L2078.82 142.831 L2078.82 165.539 Z" fill="#000000" fill-rule="evenodd" fill-opacity="1" /><polyline clip-path="url(#clip380)" style="stroke:#e26f46; stroke-width:4; stroke-opacity:1; fill:none" points="
  1704.09,211.957 1839.56,211.957 
  "/>
<path clip-path="url(#clip380)" d="M 0 0 M1862.67 194.677 L1889.82 194.677 L1889.82 198.241 L1867.97 225.301 L1890.35 225.301 L1890.35 229.237 L1862.13 229.237 L1862.13 225.672 L1883.98 198.612 L1862.67 198.612 L1862.67 194.677 Z" fill="#000000" fill-rule="evenodd" fill-opacity="1" /><path clip-path="url(#clip380)" d="M 0 0 M1928.54 204.306 L1928.54 208.288 Q1926.74 207.292 1924.91 206.806 Q1923.1 206.297 1921.25 206.297 Q1917.11 206.297 1914.82 208.936 Q1912.53 211.552 1912.53 216.297 Q1912.53 221.042 1914.82 223.681 Q1917.11 226.297 1921.25 226.297 Q1923.1 226.297 1924.91 225.811 Q1926.74 225.301 1928.54 224.306 L1928.54 228.241 Q1926.76 229.075 1924.84 229.491 Q1922.94 229.908 1920.79 229.908 Q1914.93 229.908 1911.48 226.227 Q1908.04 222.547 1908.04 216.297 Q1908.04 209.954 1911.51 206.32 Q1915 202.686 1921.07 202.686 Q1923.04 202.686 1924.91 203.103 Q1926.79 203.496 1928.54 204.306 Z" fill="#000000" fill-rule="evenodd" fill-opacity="1" /><path clip-path="url(#clip380)" d="M 0 0 M1943.06 206.297 Q1939.63 206.297 1937.64 208.982 Q1935.65 211.644 1935.65 216.297 Q1935.65 220.95 1937.62 223.635 Q1939.61 226.297 1943.06 226.297 Q1946.46 226.297 1948.45 223.612 Q1950.44 220.926 1950.44 216.297 Q1950.44 211.69 1948.45 209.005 Q1946.46 206.297 1943.06 206.297 M1943.06 202.686 Q1948.61 202.686 1951.79 206.297 Q1954.96 209.908 1954.96 216.297 Q1954.96 222.663 1951.79 226.297 Q1948.61 229.908 1943.06 229.908 Q1937.48 229.908 1934.31 226.297 Q1931.16 222.663 1931.16 216.297 Q1931.16 209.908 1934.31 206.297 Q1937.48 202.686 1943.06 202.686 Z" fill="#000000" fill-rule="evenodd" fill-opacity="1" /><path clip-path="url(#clip380)" d="M 0 0 M1958.98 219.005 L1958.98 203.311 L1963.24 203.311 L1963.24 218.843 Q1963.24 222.524 1964.68 224.376 Q1966.11 226.204 1968.98 226.204 Q1972.43 226.204 1974.42 224.005 Q1976.44 221.806 1976.44 218.01 L1976.44 203.311 L1980.7 203.311 L1980.7 229.237 L1976.44 229.237 L1976.44 225.255 Q1974.89 227.616 1972.83 228.774 Q1970.79 229.908 1968.08 229.908 Q1963.61 229.908 1961.3 227.13 Q1958.98 224.352 1958.98 219.005 M1969.7 202.686 L1969.7 202.686 Z" fill="#000000" fill-rule="evenodd" fill-opacity="1" /><path clip-path="url(#clip380)" d="M 0 0 M1989.28 225.348 L1989.28 239.098 L1985 239.098 L1985 203.311 L1989.28 203.311 L1989.28 207.246 Q1990.63 204.931 1992.66 203.82 Q1994.72 202.686 1997.57 202.686 Q2002.29 202.686 2005.23 206.436 Q2008.2 210.186 2008.2 216.297 Q2008.2 222.408 2005.23 226.158 Q2002.29 229.908 1997.57 229.908 Q1994.72 229.908 1992.66 228.797 Q1990.63 227.663 1989.28 225.348 M2003.78 216.297 Q2003.78 211.598 2001.83 208.936 Q1999.91 206.251 1996.53 206.251 Q1993.15 206.251 1991.21 208.936 Q1989.28 211.598 1989.28 216.297 Q1989.28 220.996 1991.21 223.681 Q1993.15 226.343 1996.53 226.343 Q1999.91 226.343 2001.83 223.681 Q2003.78 220.996 2003.78 216.297 Z" fill="#000000" fill-rule="evenodd" fill-opacity="1" /><path clip-path="url(#clip380)" d="M 0 0 M2012.66 193.218 L2016.92 193.218 L2016.92 229.237 L2012.66 229.237 L2012.66 193.218 Z" fill="#000000" fill-rule="evenodd" fill-opacity="1" /><path clip-path="url(#clip380)" d="M 0 0 M2021.39 203.311 L2025.65 203.311 L2025.65 229.237 L2021.39 229.237 L2021.39 203.311 M2021.39 193.218 L2025.65 193.218 L2025.65 198.612 L2021.39 198.612 L2021.39 193.218 Z" fill="#000000" fill-rule="evenodd" fill-opacity="1" /><path clip-path="url(#clip380)" d="M 0 0 M2051.67 213.589 L2051.67 229.237 L2047.41 229.237 L2047.41 213.727 Q2047.41 210.047 2045.97 208.218 Q2044.54 206.39 2041.67 206.39 Q2038.22 206.39 2036.23 208.589 Q2034.24 210.788 2034.24 214.584 L2034.24 229.237 L2029.96 229.237 L2029.96 203.311 L2034.24 203.311 L2034.24 207.339 Q2035.77 205.001 2037.83 203.843 Q2039.91 202.686 2042.62 202.686 Q2047.09 202.686 2049.38 205.464 Q2051.67 208.218 2051.67 213.589 Z" fill="#000000" fill-rule="evenodd" fill-opacity="1" /><path clip-path="url(#clip380)" d="M 0 0 M2073.2 215.973 Q2073.2 211.343 2071.28 208.797 Q2069.38 206.251 2065.93 206.251 Q2062.5 206.251 2060.58 208.797 Q2058.68 211.343 2058.68 215.973 Q2058.68 220.579 2060.58 223.126 Q2062.5 225.672 2065.93 225.672 Q2069.38 225.672 2071.28 223.126 Q2073.2 220.579 2073.2 215.973 M2077.46 226.019 Q2077.46 232.639 2074.52 235.857 Q2071.58 239.098 2065.51 239.098 Q2063.27 239.098 2061.28 238.75 Q2059.28 238.426 2057.41 237.732 L2057.41 233.588 Q2059.28 234.607 2061.11 235.093 Q2062.94 235.579 2064.84 235.579 Q2069.03 235.579 2071.11 233.38 Q2073.2 231.204 2073.2 226.783 L2073.2 224.676 Q2071.88 226.968 2069.82 228.102 Q2067.76 229.237 2064.89 229.237 Q2060.12 229.237 2057.2 225.602 Q2054.28 221.968 2054.28 215.973 Q2054.28 209.954 2057.2 206.32 Q2060.12 202.686 2064.89 202.686 Q2067.76 202.686 2069.82 203.82 Q2071.88 204.954 2073.2 207.246 L2073.2 203.311 L2077.46 203.311 L2077.46 226.019 Z" fill="#000000" fill-rule="evenodd" fill-opacity="1" /><polyline clip-path="url(#clip380)" style="stroke:#3da44d; stroke-width:4; stroke-opacity:1; fill:none" points="
  1704.09,272.437 1839.56,272.437 
  "/>
<path clip-path="url(#clip380)" d="M 0 0 M1863.71 255.157 L1868.73 255.157 L1877.32 268.004 L1885.95 255.157 L1890.98 255.157 L1879.86 271.754 L1891.72 289.717 L1886.69 289.717 L1876.97 275.018 L1867.18 289.717 L1862.13 289.717 L1874.47 271.268 L1863.71 255.157 Z" fill="#000000" fill-rule="evenodd" fill-opacity="1" /><path clip-path="url(#clip380)" d="M 0 0 M1913.52 259.995 L1913.52 272.888 L1926.41 272.888 L1926.41 276.823 L1913.52 276.823 L1913.52 289.717 L1909.63 289.717 L1909.63 276.823 L1896.74 276.823 L1896.74 272.888 L1909.63 272.888 L1909.63 259.995 L1913.52 259.995 Z" fill="#000000" fill-rule="evenodd" fill-opacity="1" /><path clip-path="url(#clip380)" d="M 0 0 M1929.08 255.157 L1956.23 255.157 L1956.23 258.721 L1934.38 285.781 L1956.76 285.781 L1956.76 289.717 L1928.54 289.717 L1928.54 286.152 L1950.4 259.092 L1929.08 259.092 L1929.08 255.157 Z" fill="#000000" fill-rule="evenodd" fill-opacity="1" /><path clip-path="url(#clip380)" d="M 0 0 M1994.96 264.786 L1994.96 268.768 Q1993.15 267.772 1991.32 267.286 Q1989.52 266.777 1987.66 266.777 Q1983.52 266.777 1981.23 269.416 Q1978.94 272.032 1978.94 276.777 Q1978.94 281.522 1981.23 284.161 Q1983.52 286.777 1987.66 286.777 Q1989.52 286.777 1991.32 286.291 Q1993.15 285.781 1994.96 284.786 L1994.96 288.721 Q1993.17 289.555 1991.25 289.971 Q1989.35 290.388 1987.2 290.388 Q1981.35 290.388 1977.9 286.707 Q1974.45 283.027 1974.45 276.777 Q1974.45 270.434 1977.92 266.8 Q1981.41 263.166 1987.48 263.166 Q1989.45 263.166 1991.32 263.583 Q1993.2 263.976 1994.96 264.786 Z" fill="#000000" fill-rule="evenodd" fill-opacity="1" /><path clip-path="url(#clip380)" d="M 0 0 M2009.47 266.777 Q2006.04 266.777 2004.05 269.462 Q2002.06 272.124 2002.06 276.777 Q2002.06 281.43 2004.03 284.115 Q2006.02 286.777 2009.47 286.777 Q2012.87 286.777 2014.86 284.092 Q2016.85 281.406 2016.85 276.777 Q2016.85 272.17 2014.86 269.485 Q2012.87 266.777 2009.47 266.777 M2009.47 263.166 Q2015.03 263.166 2018.2 266.777 Q2021.37 270.388 2021.37 276.777 Q2021.37 283.143 2018.2 286.777 Q2015.03 290.388 2009.47 290.388 Q2003.89 290.388 2000.72 286.777 Q1997.57 283.143 1997.57 276.777 Q1997.57 270.388 2000.72 266.777 Q2003.89 263.166 2009.47 263.166 Z" fill="#000000" fill-rule="evenodd" fill-opacity="1" /><path clip-path="url(#clip380)" d="M 0 0 M2025.4 279.485 L2025.4 263.791 L2029.66 263.791 L2029.66 279.323 Q2029.66 283.004 2031.09 284.856 Q2032.53 286.684 2035.4 286.684 Q2038.84 286.684 2040.84 284.485 Q2042.85 282.286 2042.85 278.49 L2042.85 263.791 L2047.11 263.791 L2047.11 289.717 L2042.85 289.717 L2042.85 285.735 Q2041.3 288.096 2039.24 289.254 Q2037.2 290.388 2034.49 290.388 Q2030.03 290.388 2027.71 287.61 Q2025.4 284.832 2025.4 279.485 M2036.11 263.166 L2036.11 263.166 Z" fill="#000000" fill-rule="evenodd" fill-opacity="1" /><path clip-path="url(#clip380)" d="M 0 0 M2055.7 285.828 L2055.7 299.578 L2051.41 299.578 L2051.41 263.791 L2055.7 263.791 L2055.7 267.726 Q2057.04 265.411 2059.08 264.3 Q2061.14 263.166 2063.98 263.166 Q2068.71 263.166 2071.65 266.916 Q2074.61 270.666 2074.61 276.777 Q2074.61 282.888 2071.65 286.638 Q2068.71 290.388 2063.98 290.388 Q2061.14 290.388 2059.08 289.277 Q2057.04 288.143 2055.7 285.828 M2070.19 276.777 Q2070.19 272.078 2068.24 269.416 Q2066.32 266.731 2062.94 266.731 Q2059.56 266.731 2057.62 269.416 Q2055.7 272.078 2055.7 276.777 Q2055.7 281.476 2057.62 284.161 Q2059.56 286.823 2062.94 286.823 Q2066.32 286.823 2068.24 284.161 Q2070.19 281.476 2070.19 276.777 Z" fill="#000000" fill-rule="evenodd" fill-opacity="1" /><path clip-path="url(#clip380)" d="M 0 0 M2079.08 253.698 L2083.34 253.698 L2083.34 289.717 L2079.08 289.717 L2079.08 253.698 Z" fill="#000000" fill-rule="evenodd" fill-opacity="1" /><path clip-path="url(#clip380)" d="M 0 0 M2087.8 263.791 L2092.06 263.791 L2092.06 289.717 L2087.8 289.717 L2087.8 263.791 M2087.8 253.698 L2092.06 253.698 L2092.06 259.092 L2087.8 259.092 L2087.8 253.698 Z" fill="#000000" fill-rule="evenodd" fill-opacity="1" /><path clip-path="url(#clip380)" d="M 0 0 M2118.08 274.069 L2118.08 289.717 L2113.82 289.717 L2113.82 274.207 Q2113.82 270.527 2112.39 268.698 Q2110.95 266.87 2108.08 266.87 Q2104.63 266.87 2102.64 269.069 Q2100.65 271.268 2100.65 275.064 L2100.65 289.717 L2096.37 289.717 L2096.37 263.791 L2100.65 263.791 L2100.65 267.819 Q2102.18 265.481 2104.24 264.323 Q2106.32 263.166 2109.03 263.166 Q2113.5 263.166 2115.79 265.944 Q2118.08 268.698 2118.08 274.069 Z" fill="#000000" fill-rule="evenodd" fill-opacity="1" /><path clip-path="url(#clip380)" d="M 0 0 M2139.61 276.453 Q2139.61 271.823 2137.69 269.277 Q2135.79 266.731 2132.34 266.731 Q2128.91 266.731 2126.99 269.277 Q2125.09 271.823 2125.09 276.453 Q2125.09 281.059 2126.99 283.606 Q2128.91 286.152 2132.34 286.152 Q2135.79 286.152 2137.69 283.606 Q2139.61 281.059 2139.61 276.453 M2143.87 286.499 Q2143.87 293.119 2140.93 296.337 Q2137.99 299.578 2131.92 299.578 Q2129.68 299.578 2127.69 299.23 Q2125.7 298.906 2123.82 298.212 L2123.82 294.068 Q2125.7 295.087 2127.52 295.573 Q2129.35 296.059 2131.25 296.059 Q2135.44 296.059 2137.52 293.86 Q2139.61 291.684 2139.61 287.263 L2139.61 285.156 Q2138.29 287.448 2136.23 288.582 Q2134.17 289.717 2131.3 289.717 Q2126.53 289.717 2123.61 286.082 Q2120.7 282.448 2120.7 276.453 Q2120.7 270.434 2123.61 266.8 Q2126.53 263.166 2131.3 263.166 Q2134.17 263.166 2136.23 264.3 Q2138.29 265.434 2139.61 267.726 L2139.61 263.791 L2143.87 263.791 L2143.87 286.499 Z" fill="#000000" fill-rule="evenodd" fill-opacity="1" /></svg>
