<?xml version="1.0" encoding="utf-8"?>
<svg xmlns="http://www.w3.org/2000/svg" xmlns:xlink="http://www.w3.org/1999/xlink" width="576" height="384" viewBox="0 0 2304 1536">
<defs>
  <clipPath id="clip420">
    <rect x="0" y="0" width="2304" height="1536"/>
  </clipPath>
</defs>
<path clip-path="url(#clip420)" d="
M0 1536 L2304 1536 L2304 0 L0 0  Z
  " fill="#ffffff" fill-rule="evenodd" fill-opacity="1"/>
<defs>
  <clipPath id="clip421">
    <rect x="460" y="0" width="1614" height="1536"/>
  </clipPath>
</defs>
<path clip-path="url(#clip420)" d="
M224.763 1359.82 L2256.76 1359.82 L2256.76 47.2441 L224.763 47.2441  Z
  " fill="#ffffff" fill-rule="evenodd" fill-opacity="1"/>
<defs>
  <clipPath id="clip422">
    <rect x="224" y="47" width="2033" height="1314"/>
  </clipPath>
</defs>
<polyline clip-path="url(#clip422)" style="stroke:#000000; stroke-width:2; stroke-opacity:0.1; fill:none" points="
  282.272,1359.82 282.272,47.2441 
  "/>
<polyline clip-path="url(#clip422)" style="stroke:#000000; stroke-width:2; stroke-opacity:0.1; fill:none" points="
  761.516,1359.82 761.516,47.2441 
  "/>
<polyline clip-path="url(#clip422)" style="stroke:#000000; stroke-width:2; stroke-opacity:0.1; fill:none" points="
  1240.76,1359.82 1240.76,47.2441 
  "/>
<polyline clip-path="url(#clip422)" style="stroke:#000000; stroke-width:2; stroke-opacity:0.1; fill:none" points="
  1720,1359.82 1720,47.2441 
  "/>
<polyline clip-path="url(#clip422)" style="stroke:#000000; stroke-width:2; stroke-opacity:0.1; fill:none" points="
  2199.25,1359.82 2199.25,47.2441 
  "/>
<polyline clip-path="url(#clip422)" style="stroke:#000000; stroke-width:2; stroke-opacity:0.1; fill:none" points="
  224.763,1350.64 2256.76,1350.64 
  "/>
<polyline clip-path="url(#clip422)" style="stroke:#000000; stroke-width:2; stroke-opacity:0.1; fill:none" points="
  224.763,1034.08 2256.76,1034.08 
  "/>
<polyline clip-path="url(#clip422)" style="stroke:#000000; stroke-width:2; stroke-opacity:0.1; fill:none" points="
  224.763,717.517 2256.76,717.517 
  "/>
<polyline clip-path="url(#clip422)" style="stroke:#000000; stroke-width:2; stroke-opacity:0.1; fill:none" points="
  224.763,400.955 2256.76,400.955 
  "/>
<polyline clip-path="url(#clip422)" style="stroke:#000000; stroke-width:2; stroke-opacity:0.1; fill:none" points="
  224.763,84.3925 2256.76,84.3925 
  "/>
<polyline clip-path="url(#clip420)" style="stroke:#000000; stroke-width:4; stroke-opacity:1; fill:none" points="
  224.763,1359.82 2256.76,1359.82 
  "/>
<polyline clip-path="url(#clip420)" style="stroke:#000000; stroke-width:4; stroke-opacity:1; fill:none" points="
  224.763,1359.82 224.763,47.2441 
  "/>
<polyline clip-path="url(#clip420)" style="stroke:#000000; stroke-width:4; stroke-opacity:1; fill:none" points="
  282.272,1359.82 282.272,1344.07 
  "/>
<polyline clip-path="url(#clip420)" style="stroke:#000000; stroke-width:4; stroke-opacity:1; fill:none" points="
  761.516,1359.82 761.516,1344.07 
  "/>
<polyline clip-path="url(#clip420)" style="stroke:#000000; stroke-width:4; stroke-opacity:1; fill:none" points="
  1240.76,1359.82 1240.76,1344.07 
  "/>
<polyline clip-path="url(#clip420)" style="stroke:#000000; stroke-width:4; stroke-opacity:1; fill:none" points="
  1720,1359.82 1720,1344.07 
  "/>
<polyline clip-path="url(#clip420)" style="stroke:#000000; stroke-width:4; stroke-opacity:1; fill:none" points="
  2199.25,1359.82 2199.25,1344.07 
  "/>
<polyline clip-path="url(#clip420)" style="stroke:#000000; stroke-width:4; stroke-opacity:1; fill:none" points="
  224.763,1350.64 249.147,1350.64 
  "/>
<polyline clip-path="url(#clip420)" style="stroke:#000000; stroke-width:4; stroke-opacity:1; fill:none" points="
  224.763,1034.08 249.147,1034.08 
  "/>
<polyline clip-path="url(#clip420)" style="stroke:#000000; stroke-width:4; stroke-opacity:1; fill:none" points="
  224.763,717.517 249.147,717.517 
  "/>
<polyline clip-path="url(#clip420)" style="stroke:#000000; stroke-width:4; stroke-opacity:1; fill:none" points="
  224.763,400.955 249.147,400.955 
  "/>
<polyline clip-path="url(#clip420)" style="stroke:#000000; stroke-width:4; stroke-opacity:1; fill:none" points="
  224.763,84.3925 249.147,84.3925 
  "/>
<path clip-path="url(#clip420)" d="M 0 0 M263.788 1381.33 Q260.177 1381.33 258.348 1384.9 Q256.543 1388.44 256.543 1395.57 Q256.543 1402.67 258.348 1406.24 Q260.177 1409.78 263.788 1409.78 Q267.422 1409.78 269.228 1406.24 Q271.057 1402.67 271.057 1395.57 Q271.057 1388.44 269.228 1384.9 Q267.422 1381.33 263.788 1381.33 M263.788 1377.63 Q269.598 1377.63 272.654 1382.23 Q275.733 1386.82 275.733 1395.57 Q275.733 1404.29 272.654 1408.9 Q269.598 1413.48 263.788 1413.48 Q257.978 1413.48 254.899 1408.9 Q251.844 1404.29 251.844 1395.57 Q251.844 1386.82 254.899 1382.23 Q257.978 1377.63 263.788 1377.63 Z" fill="#000000" fill-rule="evenodd" fill-opacity="1" /><path clip-path="url(#clip420)" d="M 0 0 M280.802 1406.93 L285.686 1406.93 L285.686 1412.81 L280.802 1412.81 L280.802 1406.93 Z" fill="#000000" fill-rule="evenodd" fill-opacity="1" /><path clip-path="url(#clip420)" d="M 0 0 M300.756 1381.33 Q297.145 1381.33 295.316 1384.9 Q293.51 1388.44 293.51 1395.57 Q293.51 1402.67 295.316 1406.24 Q297.145 1409.78 300.756 1409.78 Q304.39 1409.78 306.195 1406.24 Q308.024 1402.67 308.024 1395.57 Q308.024 1388.44 306.195 1384.9 Q304.39 1381.33 300.756 1381.33 M300.756 1377.63 Q306.566 1377.63 309.621 1382.23 Q312.7 1386.82 312.7 1395.57 Q312.7 1404.29 309.621 1408.9 Q306.566 1413.48 300.756 1413.48 Q294.946 1413.48 291.867 1408.9 Q288.811 1404.29 288.811 1395.57 Q288.811 1386.82 291.867 1382.23 Q294.946 1377.63 300.756 1377.63 Z" fill="#000000" fill-rule="evenodd" fill-opacity="1" /><path clip-path="url(#clip420)" d="M 0 0 M738.182 1408.88 L754.502 1408.88 L754.502 1412.81 L732.557 1412.81 L732.557 1408.88 Q735.219 1406.12 739.803 1401.49 Q744.409 1396.84 745.59 1395.5 Q747.835 1392.97 748.715 1391.24 Q749.618 1389.48 749.618 1387.79 Q749.618 1385.03 747.673 1383.3 Q745.752 1381.56 742.65 1381.56 Q740.451 1381.56 737.997 1382.33 Q735.567 1383.09 732.789 1384.64 L732.789 1379.92 Q735.613 1378.78 738.067 1378.21 Q740.52 1377.63 742.557 1377.63 Q747.928 1377.63 751.122 1380.31 Q754.317 1383 754.317 1387.49 Q754.317 1389.62 753.506 1391.54 Q752.719 1393.44 750.613 1396.03 Q750.034 1396.7 746.932 1399.92 Q743.831 1403.11 738.182 1408.88 Z" fill="#000000" fill-rule="evenodd" fill-opacity="1" /><path clip-path="url(#clip420)" d="M 0 0 M759.571 1406.93 L764.455 1406.93 L764.455 1412.81 L759.571 1412.81 L759.571 1406.93 Z" fill="#000000" fill-rule="evenodd" fill-opacity="1" /><path clip-path="url(#clip420)" d="M 0 0 M769.571 1378.25 L787.928 1378.25 L787.928 1382.19 L773.854 1382.19 L773.854 1390.66 Q774.872 1390.31 775.891 1390.15 Q776.909 1389.96 777.928 1389.96 Q783.715 1389.96 787.094 1393.14 Q790.474 1396.31 790.474 1401.72 Q790.474 1407.3 787.002 1410.4 Q783.529 1413.48 777.21 1413.48 Q775.034 1413.48 772.766 1413.11 Q770.52 1412.74 768.113 1412 L768.113 1407.3 Q770.196 1408.44 772.418 1408.99 Q774.641 1409.55 777.117 1409.55 Q781.122 1409.55 783.46 1407.44 Q785.798 1405.34 785.798 1401.72 Q785.798 1398.11 783.46 1396.01 Q781.122 1393.9 777.117 1393.9 Q775.242 1393.9 773.367 1394.32 Q771.516 1394.73 769.571 1395.61 L769.571 1378.25 Z" fill="#000000" fill-rule="evenodd" fill-opacity="1" /><path clip-path="url(#clip420)" d="M 0 0 M1212.55 1378.25 L1230.91 1378.25 L1230.91 1382.19 L1216.84 1382.19 L1216.84 1390.66 Q1217.85 1390.31 1218.87 1390.15 Q1219.89 1389.96 1220.91 1389.96 Q1226.7 1389.96 1230.08 1393.14 Q1233.46 1396.31 1233.46 1401.72 Q1233.46 1407.3 1229.98 1410.4 Q1226.51 1413.48 1220.19 1413.48 Q1218.02 1413.48 1215.75 1413.11 Q1213.5 1412.74 1211.1 1412 L1211.1 1407.3 Q1213.18 1408.44 1215.4 1408.99 Q1217.62 1409.55 1220.1 1409.55 Q1224.1 1409.55 1226.44 1407.44 Q1228.78 1405.34 1228.78 1401.72 Q1228.78 1398.11 1226.44 1396.01 Q1224.1 1393.9 1220.1 1393.9 Q1218.22 1393.9 1216.35 1394.32 Q1214.5 1394.73 1212.55 1395.61 L1212.55 1378.25 Z" fill="#000000" fill-rule="evenodd" fill-opacity="1" /><path clip-path="url(#clip420)" d="M 0 0 M1238.53 1406.93 L1243.41 1406.93 L1243.41 1412.81 L1238.53 1412.81 L1238.53 1406.93 Z" fill="#000000" fill-rule="evenodd" fill-opacity="1" /><path clip-path="url(#clip420)" d="M 0 0 M1258.48 1381.33 Q1254.87 1381.33 1253.04 1384.9 Q1251.23 1388.44 1251.23 1395.57 Q1251.23 1402.67 1253.04 1406.24 Q1254.87 1409.78 1258.48 1409.78 Q1262.11 1409.78 1263.92 1406.24 Q1265.75 1402.67 1265.75 1395.57 Q1265.75 1388.44 1263.92 1384.9 Q1262.11 1381.33 1258.48 1381.33 M1258.48 1377.63 Q1264.29 1377.63 1267.34 1382.23 Q1270.42 1386.82 1270.42 1395.57 Q1270.42 1404.29 1267.34 1408.9 Q1264.29 1413.48 1258.48 1413.48 Q1252.67 1413.48 1249.59 1408.9 Q1246.53 1404.29 1246.53 1395.57 Q1246.53 1386.82 1249.59 1382.23 Q1252.67 1377.63 1258.48 1377.63 Z" fill="#000000" fill-rule="evenodd" fill-opacity="1" /><path clip-path="url(#clip420)" d="M 0 0 M1690.91 1378.25 L1713.13 1378.25 L1713.13 1380.24 L1700.58 1412.81 L1695.7 1412.81 L1707.5 1382.19 L1690.91 1382.19 L1690.91 1378.25 Z" fill="#000000" fill-rule="evenodd" fill-opacity="1" /><path clip-path="url(#clip420)" d="M 0 0 M1718.2 1406.93 L1723.08 1406.93 L1723.08 1412.81 L1718.2 1412.81 L1718.2 1406.93 Z" fill="#000000" fill-rule="evenodd" fill-opacity="1" /><path clip-path="url(#clip420)" d="M 0 0 M1728.2 1378.25 L1746.55 1378.25 L1746.55 1382.19 L1732.48 1382.19 L1732.48 1390.66 Q1733.5 1390.31 1734.52 1390.15 Q1735.54 1389.96 1736.55 1389.96 Q1742.34 1389.96 1745.72 1393.14 Q1749.1 1396.31 1749.1 1401.72 Q1749.1 1407.3 1745.63 1410.4 Q1742.16 1413.48 1735.84 1413.48 Q1733.66 1413.48 1731.39 1413.11 Q1729.15 1412.74 1726.74 1412 L1726.74 1407.3 Q1728.82 1408.44 1731.04 1408.99 Q1733.27 1409.55 1735.74 1409.55 Q1739.75 1409.55 1742.09 1407.44 Q1744.42 1405.34 1744.42 1401.72 Q1744.42 1398.11 1742.09 1396.01 Q1739.75 1393.9 1735.74 1393.9 Q1733.87 1393.9 1731.99 1394.32 Q1730.14 1394.73 1728.2 1395.61 L1728.2 1378.25 Z" fill="#000000" fill-rule="evenodd" fill-opacity="1" /><path clip-path="url(#clip420)" d="M 0 0 M2157.64 1408.88 L2165.28 1408.88 L2165.28 1382.51 L2156.97 1384.18 L2156.97 1379.92 L2165.23 1378.25 L2169.91 1378.25 L2169.91 1408.88 L2177.55 1408.88 L2177.55 1412.81 L2157.64 1412.81 L2157.64 1408.88 Z" fill="#000000" fill-rule="evenodd" fill-opacity="1" /><path clip-path="url(#clip420)" d="M 0 0 M2192.61 1381.33 Q2189 1381.33 2187.17 1384.9 Q2185.37 1388.44 2185.37 1395.57 Q2185.37 1402.67 2187.17 1406.24 Q2189 1409.78 2192.61 1409.78 Q2196.25 1409.78 2198.05 1406.24 Q2199.88 1402.67 2199.88 1395.57 Q2199.88 1388.44 2198.05 1384.9 Q2196.25 1381.33 2192.61 1381.33 M2192.61 1377.63 Q2198.42 1377.63 2201.48 1382.23 Q2204.56 1386.82 2204.56 1395.57 Q2204.56 1404.29 2201.48 1408.9 Q2198.42 1413.48 2192.61 1413.48 Q2186.8 1413.48 2183.73 1408.9 Q2180.67 1404.29 2180.67 1395.57 Q2180.67 1386.82 2183.73 1382.23 Q2186.8 1377.63 2192.61 1377.63 Z" fill="#000000" fill-rule="evenodd" fill-opacity="1" /><path clip-path="url(#clip420)" d="M 0 0 M2209.63 1406.93 L2214.51 1406.93 L2214.51 1412.81 L2209.63 1412.81 L2209.63 1406.93 Z" fill="#000000" fill-rule="evenodd" fill-opacity="1" /><path clip-path="url(#clip420)" d="M 0 0 M2229.58 1381.33 Q2225.97 1381.33 2224.14 1384.9 Q2222.34 1388.44 2222.34 1395.57 Q2222.34 1402.67 2224.14 1406.24 Q2225.97 1409.78 2229.58 1409.78 Q2233.22 1409.78 2235.02 1406.24 Q2236.85 1402.67 2236.85 1395.57 Q2236.85 1388.44 2235.02 1384.9 Q2233.22 1381.33 2229.58 1381.33 M2229.58 1377.63 Q2235.39 1377.63 2238.45 1382.23 Q2241.53 1386.82 2241.53 1395.57 Q2241.53 1404.29 2238.45 1408.9 Q2235.39 1413.48 2229.58 1413.48 Q2223.77 1413.48 2220.69 1408.9 Q2217.64 1404.29 2217.64 1395.57 Q2217.64 1386.82 2220.69 1382.23 Q2223.77 1377.63 2229.58 1377.63 Z" fill="#000000" fill-rule="evenodd" fill-opacity="1" /><path clip-path="url(#clip420)" d="M 0 0 M126.492 1353.04 L138.968 1353.04 L138.968 1356.83 L126.492 1356.83 L126.492 1353.04 Z" fill="#000000" fill-rule="evenodd" fill-opacity="1" /><path clip-path="url(#clip420)" d="M 0 0 M144.848 1363.99 L152.487 1363.99 L152.487 1337.62 L144.177 1339.29 L144.177 1335.03 L152.441 1333.36 L157.116 1333.36 L157.116 1363.99 L164.755 1363.99 L164.755 1367.92 L144.848 1367.92 L144.848 1363.99 Z" fill="#000000" fill-rule="evenodd" fill-opacity="1" /><path clip-path="url(#clip420)" d="M 0 0 M169.825 1362.04 L174.709 1362.04 L174.709 1367.92 L169.825 1367.92 L169.825 1362.04 Z" fill="#000000" fill-rule="evenodd" fill-opacity="1" /><path clip-path="url(#clip420)" d="M 0 0 M189.778 1336.44 Q186.167 1336.44 184.339 1340.01 Q182.533 1343.55 182.533 1350.68 Q182.533 1357.78 184.339 1361.35 Q186.167 1364.89 189.778 1364.89 Q193.413 1364.89 195.218 1361.35 Q197.047 1357.78 197.047 1350.68 Q197.047 1343.55 195.218 1340.01 Q193.413 1336.44 189.778 1336.44 M189.778 1332.74 Q195.588 1332.74 198.644 1337.34 Q201.723 1341.93 201.723 1350.68 Q201.723 1359.4 198.644 1364.01 Q195.588 1368.59 189.778 1368.59 Q183.968 1368.59 180.889 1364.01 Q177.834 1359.4 177.834 1350.68 Q177.834 1341.93 180.889 1337.34 Q183.968 1332.74 189.778 1332.74 Z" fill="#000000" fill-rule="evenodd" fill-opacity="1" /><path clip-path="url(#clip420)" d="M 0 0 M126.26 1036.48 L138.737 1036.48 L138.737 1040.27 L126.26 1040.27 L126.26 1036.48 Z" fill="#000000" fill-rule="evenodd" fill-opacity="1" /><path clip-path="url(#clip420)" d="M 0 0 M153.806 1019.88 Q150.195 1019.88 148.367 1023.44 Q146.561 1026.98 146.561 1034.11 Q146.561 1041.22 148.367 1044.79 Q150.195 1048.33 153.806 1048.33 Q157.441 1048.33 159.246 1044.79 Q161.075 1041.22 161.075 1034.11 Q161.075 1026.98 159.246 1023.44 Q157.441 1019.88 153.806 1019.88 M153.806 1016.17 Q159.616 1016.17 162.672 1020.78 Q165.751 1025.36 165.751 1034.11 Q165.751 1042.84 162.672 1047.45 Q159.616 1052.03 153.806 1052.03 Q147.996 1052.03 144.917 1047.45 Q141.862 1042.84 141.862 1034.11 Q141.862 1025.36 144.917 1020.78 Q147.996 1016.17 153.806 1016.17 Z" fill="#000000" fill-rule="evenodd" fill-opacity="1" /><path clip-path="url(#clip420)" d="M 0 0 M170.82 1045.48 L175.704 1045.48 L175.704 1051.36 L170.82 1051.36 L170.82 1045.48 Z" fill="#000000" fill-rule="evenodd" fill-opacity="1" /><path clip-path="url(#clip420)" d="M 0 0 M180.82 1016.8 L199.176 1016.8 L199.176 1020.73 L185.102 1020.73 L185.102 1029.21 Q186.121 1028.86 187.139 1028.7 Q188.158 1028.51 189.176 1028.51 Q194.963 1028.51 198.343 1031.68 Q201.723 1034.86 201.723 1040.27 Q201.723 1045.85 198.251 1048.95 Q194.778 1052.03 188.459 1052.03 Q186.283 1052.03 184.014 1051.66 Q181.769 1051.29 179.362 1050.55 L179.362 1045.85 Q181.445 1046.98 183.667 1047.54 Q185.889 1048.1 188.366 1048.1 Q192.371 1048.1 194.709 1045.99 Q197.047 1043.88 197.047 1040.27 Q197.047 1036.66 194.709 1034.55 Q192.371 1032.45 188.366 1032.45 Q186.491 1032.45 184.616 1032.86 Q182.764 1033.28 180.82 1034.16 L180.82 1016.8 Z" fill="#000000" fill-rule="evenodd" fill-opacity="1" /><path clip-path="url(#clip420)" d="M 0 0 M152.811 703.316 Q149.2 703.316 147.371 706.881 Q145.566 710.422 145.566 717.552 Q145.566 724.659 147.371 728.223 Q149.2 731.765 152.811 731.765 Q156.445 731.765 158.251 728.223 Q160.079 724.659 160.079 717.552 Q160.079 710.422 158.251 706.881 Q156.445 703.316 152.811 703.316 M152.811 699.612 Q158.621 699.612 161.677 704.219 Q164.755 708.802 164.755 717.552 Q164.755 726.279 161.677 730.885 Q158.621 735.469 152.811 735.469 Q147.001 735.469 143.922 730.885 Q140.867 726.279 140.867 717.552 Q140.867 708.802 143.922 704.219 Q147.001 699.612 152.811 699.612 Z" fill="#000000" fill-rule="evenodd" fill-opacity="1" /><path clip-path="url(#clip420)" d="M 0 0 M169.825 728.918 L174.709 728.918 L174.709 734.797 L169.825 734.797 L169.825 728.918 Z" fill="#000000" fill-rule="evenodd" fill-opacity="1" /><path clip-path="url(#clip420)" d="M 0 0 M189.778 703.316 Q186.167 703.316 184.339 706.881 Q182.533 710.422 182.533 717.552 Q182.533 724.659 184.339 728.223 Q186.167 731.765 189.778 731.765 Q193.413 731.765 195.218 728.223 Q197.047 724.659 197.047 717.552 Q197.047 710.422 195.218 706.881 Q193.413 703.316 189.778 703.316 M189.778 699.612 Q195.588 699.612 198.644 704.219 Q201.723 708.802 201.723 717.552 Q201.723 726.279 198.644 730.885 Q195.588 735.469 189.778 735.469 Q183.968 735.469 180.889 730.885 Q177.834 726.279 177.834 717.552 Q177.834 708.802 180.889 704.219 Q183.968 699.612 189.778 699.612 Z" fill="#000000" fill-rule="evenodd" fill-opacity="1" /><path clip-path="url(#clip420)" d="M 0 0 M153.806 386.754 Q150.195 386.754 148.367 390.318 Q146.561 393.86 146.561 400.99 Q146.561 408.096 148.367 411.661 Q150.195 415.203 153.806 415.203 Q157.441 415.203 159.246 411.661 Q161.075 408.096 161.075 400.99 Q161.075 393.86 159.246 390.318 Q157.441 386.754 153.806 386.754 M153.806 383.05 Q159.616 383.05 162.672 387.656 Q165.751 392.24 165.751 400.99 Q165.751 409.716 162.672 414.323 Q159.616 418.906 153.806 418.906 Q147.996 418.906 144.917 414.323 Q141.862 409.716 141.862 400.99 Q141.862 392.24 144.917 387.656 Q147.996 383.05 153.806 383.05 Z" fill="#000000" fill-rule="evenodd" fill-opacity="1" /><path clip-path="url(#clip420)" d="M 0 0 M170.82 412.355 L175.704 412.355 L175.704 418.235 L170.82 418.235 L170.82 412.355 Z" fill="#000000" fill-rule="evenodd" fill-opacity="1" /><path clip-path="url(#clip420)" d="M 0 0 M180.82 383.675 L199.176 383.675 L199.176 387.61 L185.102 387.61 L185.102 396.082 Q186.121 395.735 187.139 395.573 Q188.158 395.388 189.176 395.388 Q194.963 395.388 198.343 398.559 Q201.723 401.73 201.723 407.147 Q201.723 412.726 198.251 415.828 Q194.778 418.906 188.459 418.906 Q186.283 418.906 184.014 418.536 Q181.769 418.165 179.362 417.425 L179.362 412.726 Q181.445 413.86 183.667 414.415 Q185.889 414.971 188.366 414.971 Q192.371 414.971 194.709 412.865 Q197.047 410.758 197.047 407.147 Q197.047 403.536 194.709 401.429 Q192.371 399.323 188.366 399.323 Q186.491 399.323 184.616 399.74 Q182.764 400.156 180.82 401.036 L180.82 383.675 Z" fill="#000000" fill-rule="evenodd" fill-opacity="1" /><path clip-path="url(#clip420)" d="M 0 0 M144.848 97.7373 L152.487 97.7373 L152.487 71.3717 L144.177 73.0384 L144.177 68.7791 L152.441 67.1125 L157.116 67.1125 L157.116 97.7373 L164.755 97.7373 L164.755 101.672 L144.848 101.672 L144.848 97.7373 Z" fill="#000000" fill-rule="evenodd" fill-opacity="1" /><path clip-path="url(#clip420)" d="M 0 0 M169.825 95.7929 L174.709 95.7929 L174.709 101.672 L169.825 101.672 L169.825 95.7929 Z" fill="#000000" fill-rule="evenodd" fill-opacity="1" /><path clip-path="url(#clip420)" d="M 0 0 M189.778 70.1912 Q186.167 70.1912 184.339 73.7559 Q182.533 77.2976 182.533 84.4272 Q182.533 91.5336 184.339 95.0984 Q186.167 98.6401 189.778 98.6401 Q193.413 98.6401 195.218 95.0984 Q197.047 91.5336 197.047 84.4272 Q197.047 77.2976 195.218 73.7559 Q193.413 70.1912 189.778 70.1912 M189.778 66.4875 Q195.588 66.4875 198.644 71.0939 Q201.723 75.6772 201.723 84.4272 Q201.723 93.154 198.644 97.7604 Q195.588 102.344 189.778 102.344 Q183.968 102.344 180.889 97.7604 Q177.834 93.154 177.834 84.4272 Q177.834 75.6772 180.889 71.0939 Q183.968 66.4875 189.778 66.4875 Z" fill="#000000" fill-rule="evenodd" fill-opacity="1" /><path clip-path="url(#clip420)" d="M 0 0 M1252.47 1457.13 L1252.47 1462.66 Q1249.99 1461.39 1247.32 1460.75 Q1244.64 1460.12 1241.78 1460.12 Q1237.42 1460.12 1235.22 1461.45 Q1233.06 1462.79 1233.06 1465.47 Q1233.06 1467.5 1234.62 1468.68 Q1236.18 1469.83 1240.89 1470.88 L1242.89 1471.32 Q1249.13 1472.66 1251.74 1475.11 Q1254.38 1477.53 1254.38 1481.89 Q1254.38 1486.85 1250.44 1489.75 Q1246.52 1492.65 1239.65 1492.65 Q1236.78 1492.65 1233.66 1492.07 Q1230.57 1491.53 1227.14 1490.42 L1227.14 1484.37 Q1230.38 1486.06 1233.53 1486.92 Q1236.69 1487.75 1239.77 1487.75 Q1243.91 1487.75 1246.14 1486.34 Q1248.37 1484.91 1248.37 1482.33 Q1248.37 1479.95 1246.74 1478.67 Q1245.15 1477.4 1239.71 1476.22 L1237.67 1475.75 Q1232.23 1474.6 1229.81 1472.24 Q1227.39 1469.86 1227.39 1465.72 Q1227.39 1460.69 1230.96 1457.95 Q1234.52 1455.22 1241.08 1455.22 Q1244.32 1455.22 1247.19 1455.69 Q1250.05 1456.17 1252.47 1457.13 Z" fill="#000000" fill-rule="evenodd" fill-opacity="1" /><path clip-path="url(#clip420)" d="M 0 0 M56.881 728.295 L68.5621 761.142 L80.1795 728.295 L85.9723 728.295 L71.172 769.099 L65.8885 769.099 L51.0882 728.295 L56.881 728.295 Z" fill="#000000" fill-rule="evenodd" fill-opacity="1" /><path clip-path="url(#clip420)" d="M 0 0 M41.4442 724.189 L41.4442 717.282 L59.109 705.474 L41.4442 693.601 L41.4442 686.695 L64.2652 701.972 L88.9642 685.676 L88.9642 692.583 L68.753 705.951 L88.9642 719.414 L88.9642 726.353 L63.5968 709.388 L41.4442 724.189 Z" fill="#000000" fill-rule="evenodd" fill-opacity="1" /><path clip-path="url(#clip420)" d="M 0 0 M56.881 678.769 L51.0882 678.769 L65.8885 637.965 L71.172 637.965 L85.9723 678.769 L80.1795 678.769 L68.5621 645.986 L56.881 678.769 Z" fill="#000000" fill-rule="evenodd" fill-opacity="1" /><polyline clip-path="url(#clip422)" style="stroke:#009af9; stroke-width:8; stroke-opacity:1; fill:none" points="
  282.272,84.3925 291.905,87.5819 301.538,97.0796 311.171,112.734 320.804,134.345 330.437,161.658 340.07,194.37 349.703,232.124 359.336,274.518 368.969,321.105 
  378.602,371.399 388.235,424.879 397.868,480.997 407.501,539.178 417.134,598.834 426.768,659.361 436.401,720.151 446.034,780.599 455.667,840.102 465.3,898.072 
  474.933,953.94 484.566,1007.16 494.199,1057.21 503.832,1103.62 513.465,1145.94 523.098,1183.76 532.731,1216.74 542.364,1244.56 551.997,1266.99 561.63,1283.82 
  571.263,1294.92 580.896,1300.2 590.529,1299.64 600.162,1293.28 609.795,1281.21 619.428,1263.58 629.061,1240.6 638.694,1212.51 648.327,1179.64 657.96,1142.33 
  667.594,1100.98 677.227,1056.01 686.86,1007.9 696.493,957.145 706.126,904.261 715.759,849.788 725.392,794.277 735.025,738.288 744.658,682.379 754.291,627.11 
  763.924,573.028 773.557,520.665 783.19,470.536 792.823,423.128 802.456,378.9 812.089,338.276 821.722,301.644 831.355,269.347 840.988,241.685 850.621,218.911 
  860.254,201.226 869.887,188.78 879.52,181.669 889.153,179.939 898.786,183.577 908.419,192.52 918.053,206.651 927.686,225.802 937.319,249.758 946.952,278.253 
  956.585,310.98 966.218,347.592 975.851,387.702 985.484,430.894 995.117,476.72 1004.75,524.71 1014.38,574.374 1024.02,625.208 1033.65,676.7 1043.28,728.332 
  1052.92,779.589 1062.55,829.962 1072.18,878.954 1081.81,926.082 1091.45,970.886 1101.08,1012.93 1110.71,1051.82 1120.35,1087.16 1129.98,1118.65 1139.61,1145.96 
  1149.25,1168.87 1158.88,1187.15 1168.51,1200.66 1178.14,1209.28 1187.78,1212.95 1197.41,1211.67 1207.04,1205.46 1216.68,1194.42 1226.31,1178.68 1235.94,1158.42 
  1245.58,1158.38 1255.21,1178.34 1264.84,1193.55 1274.47,1203.93 1284.11,1209.4 1293.74,1209.94 1303.37,1205.57 1313.01,1196.36 1322.64,1182.44 1332.27,1163.96 
  1341.91,1141.12 1351.54,1114.19 1361.17,1083.45 1370.81,1049.23 1380.44,1011.87 1390.07,971.785 1399.7,929.372 1409.34,885.07 1418.97,839.33 1428.6,792.615 
  1438.24,745.395 1447.87,698.145 1457.5,651.335 1467.14,605.429 1476.77,560.881 1486.4,518.127 1496.03,477.584 1505.67,439.645 1515.3,404.675 1524.93,373.007 
  1534.57,344.94 1544.2,320.734 1553.83,300.611 1563.47,284.751 1573.1,273.289 1582.73,266.317 1592.37,263.881 1602,265.983 1611.63,272.577 1621.26,283.575 
  1630.9,298.843 1640.53,318.209 1650.16,341.456 1659.8,368.335 1669.43,398.557 1679.06,431.803 1688.7,467.728 1698.33,505.959 1707.96,546.102 1717.59,587.747 
  1727.23,630.472 1736.86,673.844 1746.49,717.428 1756.13,760.789 1765.76,803.495 1775.39,845.123 1785.03,885.264 1794.66,923.525 1804.29,959.535 1813.93,992.947 
  1823.56,1023.44 1833.19,1050.72 1842.82,1074.55 1852.46,1094.69 1862.09,1110.96 1871.72,1123.23 1881.36,1131.39 1890.99,1135.38 1900.62,1135.19 1910.26,1130.83 
  1919.89,1122.37 1929.52,1109.92 1939.15,1093.62 1948.79,1073.66 1958.42,1050.25 1968.05,1023.64 1977.69,994.123 1987.32,961.996 1996.95,927.599 2006.59,891.285 
  2016.22,853.426 2025.85,814.408 2035.49,774.626 2045.12,734.48 2054.75,694.374 2064.38,654.705 2074.02,615.868 2083.65,578.246 2093.28,542.207 2102.92,508.103 
  2112.55,476.264 2122.18,446.994 2131.82,420.574 2141.45,397.252 2151.08,377.243 2160.71,360.731 2170.35,347.862 2179.98,338.746 2189.61,333.454 2199.25,332.019 
  
  "/>
<polyline clip-path="url(#clip422)" style="stroke:#e26f46; stroke-width:8; stroke-opacity:1; fill:none" points="
  282.272,84.3925 291.905,87.6208 301.538,97.2716 311.171,113.242 320.804,135.362 330.437,163.397 340.07,197.05 349.703,235.962 359.336,279.723 368.969,327.869 
  378.602,379.892 388.235,435.245 397.868,493.346 407.501,553.586 417.134,615.336 426.768,677.953 436.401,740.786 446.034,803.185 455.667,864.508 465.3,924.126 
  474.933,981.43 484.566,1035.84 494.199,1086.8 503.832,1133.82 513.465,1176.41 523.098,1214.16 532.731,1246.71 542.364,1273.75 551.997,1295.02 561.63,1310.34 
  571.263,1319.58 580.896,1322.67 590.529,1319.62 600.162,1310.49 609.795,1295.41 619.428,1274.56 629.061,1248.19 638.694,1216.6 648.327,1180.15 657.96,1139.23 
  667.594,1094.28 677.227,1045.8 686.86,994.287 696.493,940.297 706.126,884.391 715.759,827.15 725.392,769.166 735.025,711.033 744.658,653.343 754.291,596.679 
  763.924,541.611 773.557,488.688 783.19,438.432 792.823,391.335 802.456,347.854 812.089,308.406 821.722,273.362 831.355,243.047 840.988,217.735 850.621,197.646 
  860.254,182.949 869.887,173.751 879.52,170.107 889.153,172.013 898.786,179.409 908.419,192.18 918.053,210.155 927.686,233.115 937.319,260.79 946.952,292.863 
  956.585,328.977 966.218,368.735 975.851,411.707 985.484,457.435 995.117,505.433 1004.75,555.198 1014.38,606.215 1024.02,657.956 1033.65,709.892 1043.28,761.498 
  1052.92,812.253 1062.55,861.652 1072.18,909.206 1081.81,954.448 1091.45,996.94 1101.08,1036.27 1110.71,1072.08 1120.35,1104.02 1129.98,1131.81 1139.61,1155.2 
  1149.25,1173.98 1158.88,1188.01 1168.51,1197.18 1178.14,1201.45 1187.78,1200.8 1197.41,1195.28 1207.04,1185 1216.68,1170.09 1226.31,1150.75 1235.94,1127.19 
  1245.58,1127.08 1255.21,1150.54 1264.84,1169.7 1274.47,1184.33 1284.11,1194.23 1293.74,1199.27 1303.37,1199.37 1313.01,1194.49 1322.64,1184.66 1332.27,1169.96 
  1341.91,1150.53 1351.54,1126.56 1361.17,1098.29 1370.81,1065.99 1380.44,1030.01 1390.07,990.719 1399.7,948.519 1409.34,903.854 1418.97,857.193 1428.6,809.025 
  1438.24,759.856 1447.87,710.203 1457.5,660.587 1467.14,611.53 1476.77,563.545 1486.4,517.135 1496.03,472.784 1505.67,430.953 1515.3,392.076 1524.93,356.555 
  1534.57,324.755 1544.2,297 1553.83,273.572 1563.47,254.704 1573.1,240.583 1582.73,231.343 1592.37,227.068 1602,227.79 1611.63,233.485 1621.26,244.082 
  1630.9,259.455 1640.53,279.43 1650.16,303.786 1659.8,332.257 1669.43,364.536 1679.06,400.275 1688.7,439.095 1698.33,480.584 1707.96,524.307 1717.59,569.805 
  1727.23,616.604 1736.86,664.22 1746.49,712.162 1756.13,759.937 1765.76,807.058 1775.39,853.047 1785.03,897.438 1794.66,939.786 1804.29,979.673 1813.93,1016.71 
  1823.56,1050.52 1833.19,1080.78 1842.82,1107.2 1852.46,1129.54 1862.09,1147.59 1871.72,1161.19 1881.36,1170.22 1890.99,1174.63 1900.62,1174.4 1910.26,1169.55 
  1919.89,1160.16 1929.52,1146.36 1939.15,1128.31 1948.79,1106.22 1958.42,1080.35 1968.05,1050.97 1977.69,1018.41 1987.32,983.023 1996.95,945.183 2006.59,905.29 
  2016.22,863.763 2025.85,821.034 2035.49,777.544 2045.12,733.74 2054.75,690.068 2064.38,646.97 2074.02,604.878 2083.65,564.212 2093.28,525.375 2102.92,488.747 
  2112.55,454.684 2122.18,423.513 2131.82,395.529 2141.45,370.992 2151.08,350.126 2160.71,333.117 2170.35,320.108 2179.98,311.202 2189.61,306.46 2199.25,305.899 
  
  "/>
<polyline clip-path="url(#clip422)" style="stroke:#3da44d; stroke-width:8; stroke-opacity:1; fill:none" points="
  282.272,84.3925 291.905,87.6154 301.538,97.2117 311.171,113.024 320.804,134.84 330.437,162.395 340.07,195.366 349.703,233.378 359.336,276.009 368.969,322.788 
  378.602,373.206 388.235,426.721 397.868,482.76 407.501,540.732 417.134,600.027 426.768,660.028 436.401,720.117 446.034,779.679 455.667,838.11 465.3,894.824 
  474.933,949.258 484.566,1000.88 494.199,1049.18 503.832,1093.71 513.465,1134.05 523.098,1169.83 532.731,1200.72 542.364,1226.47 551.997,1246.86 561.63,1261.74 
  571.263,1271.01 580.896,1274.64 590.529,1272.66 600.162,1265.13 609.795,1252.2 619.428,1234.04 629.061,1210.91 638.694,1183.09 648.327,1150.92 657.96,1114.75 
  667.594,1075.01 677.227,1032.14 686.86,986.598 696.493,938.878 706.126,889.485 715.759,838.936 725.392,787.754 735.025,736.461 744.658,685.574 754.291,635.602 
  763.924,587.035 773.557,540.346 783.19,495.982 792.823,454.361 802.456,415.868 812.089,380.852 821.722,349.623 831.355,322.449 840.988,299.553 850.621,281.112 
  860.254,267.257 869.887,258.071 879.52,253.587 889.153,253.792 898.786,258.625 908.419,267.981 918.053,281.709 927.686,299.616 937.319,321.47 946.952,347.002 
  956.585,375.909 966.218,407.859 975.851,442.493 985.484,479.429 995.117,518.268 1004.75,558.597 1014.38,599.992 1024.02,642.025 1033.65,684.267 1043.28,726.292 
  1052.92,767.683 1062.55,808.033 1072.18,846.952 1081.81,884.07 1091.45,919.038 1101.08,951.535 1110.71,981.268 1120.35,1007.98 1129.98,1031.43 1139.61,1051.44 
  1149.25,1067.86 1158.88,1080.56 1168.51,1089.47 1178.14,1094.54 1187.78,1095.79 1197.41,1093.25 1207.04,1086.99 1216.68,1077.12 1226.31,1063.81 1235.94,1047.21 
  1245.58,1047.09 1255.21,1063.38 1264.84,1076.16 1274.47,1085.29 1284.11,1090.69 1293.74,1092.29 1303.37,1090.08 1313.01,1084.08 1322.64,1074.34 1332.27,1060.99 
  1341.91,1044.15 1351.54,1024.01 1361.17,1000.78 1370.81,974.722 1380.44,946.106 1390.07,915.241 1399.7,882.455 1409.34,848.097 1418.97,812.532 1428.6,776.134 
  1438.24,739.286 1447.87,702.373 1457.5,665.778 1467.14,629.88 1476.77,595.046 1486.4,561.632 1496.03,529.974 1505.67,500.388 1515.3,473.169 1524.93,448.579 
  1534.57,426.856 1544.2,408.204 1553.83,392.792 1563.47,380.757 1573.1,372.196 1582.73,367.17 1592.37,365.705 1602,367.788 1611.63,373.369 1621.26,382.364 
  1630.9,394.652 1640.53,410.079 1650.16,428.464 1659.8,449.592 1669.43,473.224 1679.06,499.099 1688.7,526.933 1698.33,556.426 1707.96,587.263 1717.59,619.118 
  1727.23,651.659 1736.86,684.551 1746.49,717.456 1756.13,750.041 1765.76,781.98 1775.39,812.956 1785.03,842.666 1794.66,870.823 1804.29,897.157 1813.93,921.423 
  1823.56,943.397 1833.19,962.88 1842.82,979.704 1852.46,993.726 1862.09,1004.84 1871.72,1012.95 1881.36,1018.03 1890.99,1020.04 1900.62,1019.01 1910.26,1014.97 
  1919.89,1008.01 1929.52,998.216 1939.15,985.731 1948.79,970.706 1958.42,953.321 1968.05,933.778 1977.69,912.299 1987.32,889.122 1996.95,864.498 2006.59,838.693 
  2016.22,811.979 2025.85,784.635 2035.49,756.943 2045.12,729.186 2054.75,701.641 2064.38,674.584 2074.02,648.28 2083.65,622.984 2093.28,598.937 2102.92,576.365 
  2112.55,555.478 2122.18,536.463 2131.82,519.488 2141.45,504.699 2151.08,492.217 2160.71,482.139 2170.35,474.536 2179.98,469.454 2189.61,466.908 2199.25,466.897 
  
  "/>
<polyline clip-path="url(#clip422)" style="stroke:#c271d2; stroke-width:8; stroke-opacity:1; fill:none" stroke-dasharray="32, 20" points="
  282.272,84.3925 291.905,87.5819 301.538,97.0796 311.171,112.734 320.804,134.345 330.437,161.658 340.07,194.37 349.703,232.124 359.336,274.518 368.969,321.105 
  378.602,371.399 388.235,424.879 397.868,480.997 407.501,539.178 417.134,598.834 426.768,659.361 436.401,720.151 446.034,780.599 455.667,840.102 465.3,898.072 
  474.933,953.94 484.566,1007.16 494.199,1057.21 503.832,1103.62 513.465,1145.94 523.098,1183.76 532.731,1216.74 542.364,1244.56 551.997,1266.99 561.63,1283.82 
  571.263,1294.92 580.896,1300.2 590.529,1299.64 600.162,1293.28 609.795,1281.21 619.428,1263.58 629.061,1240.6 638.694,1212.51 648.327,1179.64 657.96,1142.33 
  667.594,1100.98 677.227,1056.01 686.86,1007.9 696.493,957.145 706.126,904.261 715.759,849.788 725.392,794.277 735.025,738.288 744.658,682.379 754.291,627.11 
  763.924,573.028 773.557,520.665 783.19,470.536 792.823,423.128 802.456,378.9 812.089,338.276 821.722,301.644 831.355,269.347 840.988,241.685 850.621,218.911 
  860.254,201.226 869.887,188.78 879.52,181.669 889.153,179.939 898.786,183.577 908.419,192.52 918.053,206.651 927.686,225.802 937.319,249.758 946.952,278.253 
  956.585,310.98 966.218,347.592 975.851,387.702 985.484,430.894 995.117,476.72 1004.75,524.71 1014.38,574.374 1024.02,625.208 1033.65,676.7 1043.28,728.332 
  1052.92,779.589 1062.55,829.962 1072.18,878.954 1081.81,926.082 1091.45,970.886 1101.08,1012.93 1110.71,1051.82 1120.35,1087.16 1129.98,1118.65 1139.61,1145.96 
  1149.25,1168.87 1158.88,1187.15 1168.51,1200.66 1178.14,1209.28 1187.78,1212.95 1197.41,1211.67 1207.04,1205.46 1216.68,1194.42 1226.31,1178.68 1235.94,1158.42 
  1245.58,1133.87 1255.21,1105.3 1264.84,1073.01 1274.47,1037.34 1284.11,998.667 1293.74,957.39 1303.37,913.934 1313.01,868.744 1322.64,822.28 1332.27,775.011 
  1341.91,727.414 1351.54,679.963 1361.17,633.133 1370.81,587.386 1380.44,543.172 1390.07,500.926 1399.7,461.058 1409.34,423.952 1418.97,389.966 1428.6,359.421 
  1438.24,332.605 1447.87,309.766 1457.5,291.11 1467.14,276.802 1476.77,266.962 1486.4,261.666 1496.03,260.942 1505.67,264.775 1515.3,273.102 1524.93,285.817 
  1534.57,302.77 1544.2,323.772 1553.83,348.591 1563.47,376.96 1573.1,408.578 1582.73,443.113 1592.37,480.205 1602,519.472 1611.63,560.511 1621.26,602.903 
  1630.9,646.218 1640.53,690.02 1650.16,733.87 1659.8,777.331 1669.43,819.969 1679.06,861.366 1688.7,901.115 1698.33,938.827 1707.96,974.138 1717.59,1006.71 
  1727.23,1036.22 1736.86,1062.41 1746.49,1085.02 1756.13,1103.85 1765.76,1118.74 1775.39,1129.54 1785.03,1136.18 1794.66,1138.61 1804.29,1136.83 1813.93,1130.88 
  1823.56,1120.83 1833.19,1106.82 1842.82,1089 1852.46,1067.57 1862.09,1042.75 1871.72,1014.82 1881.36,984.075 1890.99,950.827 1900.62,915.426 1910.26,878.233 
  1919.89,839.631 1929.52,800.01 1939.15,759.772 1948.79,719.321 1958.42,679.06 1968.05,639.391 1977.69,600.707 1987.32,563.386 1996.95,527.796 2006.59,494.281 
  2016.22,463.166 2025.85,434.747 2035.49,409.295 2045.12,387.048 2054.75,368.211 2064.38,352.954 2074.02,341.411 2083.65,333.678 2093.28,329.812 2102.92,329.832 
  2112.55,333.717 2122.18,341.409 2131.82,352.812 2141.45,367.792 2151.08,386.182 2160.71,407.78 2170.35,432.355 2179.98,459.646 2189.61,489.368 2199.25,521.21 
  
  "/>
<path clip-path="url(#clip420)" d="
M292.496 393.397 L1032.58 393.397 L1032.58 90.9966 L292.496 90.9966  Z
  " fill="#ffffff" fill-rule="evenodd" fill-opacity="1"/>
<polyline clip-path="url(#clip420)" style="stroke:#000000; stroke-width:4; stroke-opacity:1; fill:none" points="
  292.496,393.397 1032.58,393.397 1032.58,90.9966 292.496,90.9966 292.496,393.397 
  "/>
<polyline clip-path="url(#clip420)" style="stroke:#009af9; stroke-width:4; stroke-opacity:1; fill:none" points="
  315.074,151.477 450.54,151.477 
  "/>
<path clip-path="url(#clip420)" d="M 0 0 M474.692 134.197 L479.715 134.197 L488.303 147.044 L496.937 134.197 L501.96 134.197 L490.849 150.794 L502.701 168.757 L497.677 168.757 L487.955 154.058 L478.164 168.757 L473.117 168.757 L485.455 150.308 L474.692 134.197 Z" fill="#000000" fill-rule="evenodd" fill-opacity="1" /><path clip-path="url(#clip420)" d="M 0 0 M540.895 143.826 L540.895 147.808 Q539.089 146.812 537.261 146.326 Q535.455 145.817 533.603 145.817 Q529.46 145.817 527.168 148.456 Q524.876 151.072 524.876 155.817 Q524.876 160.562 527.168 163.201 Q529.46 165.817 533.603 165.817 Q535.455 165.817 537.261 165.331 Q539.089 164.821 540.895 163.826 L540.895 167.761 Q539.112 168.595 537.191 169.011 Q535.293 169.428 533.14 169.428 Q527.284 169.428 523.835 165.747 Q520.386 162.067 520.386 155.817 Q520.386 149.474 523.858 145.84 Q527.353 142.206 533.418 142.206 Q535.386 142.206 537.261 142.623 Q539.136 143.016 540.895 143.826 Z" fill="#000000" fill-rule="evenodd" fill-opacity="1" /><path clip-path="url(#clip420)" d="M 0 0 M555.409 145.817 Q551.983 145.817 549.992 148.502 Q548.001 151.164 548.001 155.817 Q548.001 160.47 549.969 163.155 Q551.96 165.817 555.409 165.817 Q558.811 165.817 560.802 163.132 Q562.793 160.446 562.793 155.817 Q562.793 151.21 560.802 148.525 Q558.811 145.817 555.409 145.817 M555.409 142.206 Q560.964 142.206 564.135 145.817 Q567.307 149.428 567.307 155.817 Q567.307 162.183 564.135 165.817 Q560.964 169.428 555.409 169.428 Q549.83 169.428 546.659 165.817 Q543.511 162.183 543.511 155.817 Q543.511 149.428 546.659 145.817 Q549.83 142.206 555.409 142.206 Z" fill="#000000" fill-rule="evenodd" fill-opacity="1" /><path clip-path="url(#clip420)" d="M 0 0 M571.335 158.525 L571.335 142.831 L575.594 142.831 L575.594 158.363 Q575.594 162.044 577.029 163.896 Q578.464 165.724 581.334 165.724 Q584.784 165.724 586.774 163.525 Q588.788 161.326 588.788 157.53 L588.788 142.831 L593.047 142.831 L593.047 168.757 L588.788 168.757 L588.788 164.775 Q587.237 167.136 585.177 168.294 Q583.14 169.428 580.432 169.428 Q575.964 169.428 573.649 166.65 Q571.335 163.872 571.335 158.525 M582.052 142.206 L582.052 142.206 Z" fill="#000000" fill-rule="evenodd" fill-opacity="1" /><path clip-path="url(#clip420)" d="M 0 0 M601.635 164.868 L601.635 178.618 L597.353 178.618 L597.353 142.831 L601.635 142.831 L601.635 146.766 Q602.978 144.451 605.015 143.34 Q607.075 142.206 609.922 142.206 Q614.644 142.206 617.584 145.956 Q620.547 149.706 620.547 155.817 Q620.547 161.928 617.584 165.678 Q614.644 169.428 609.922 169.428 Q607.075 169.428 605.015 168.317 Q602.978 167.183 601.635 164.868 M616.126 155.817 Q616.126 151.118 614.181 148.456 Q612.26 145.771 608.881 145.771 Q605.501 145.771 603.557 148.456 Q601.635 151.118 601.635 155.817 Q601.635 160.516 603.557 163.201 Q605.501 165.863 608.881 165.863 Q612.26 165.863 614.181 163.201 Q616.126 160.516 616.126 155.817 Z" fill="#000000" fill-rule="evenodd" fill-opacity="1" /><path clip-path="url(#clip420)" d="M 0 0 M625.015 132.738 L629.274 132.738 L629.274 168.757 L625.015 168.757 L625.015 132.738 Z" fill="#000000" fill-rule="evenodd" fill-opacity="1" /><path clip-path="url(#clip420)" d="M 0 0 M633.742 142.831 L638.001 142.831 L638.001 168.757 L633.742 168.757 L633.742 142.831 M633.742 132.738 L638.001 132.738 L638.001 138.132 L633.742 138.132 L633.742 132.738 Z" fill="#000000" fill-rule="evenodd" fill-opacity="1" /><path clip-path="url(#clip420)" d="M 0 0 M664.019 153.109 L664.019 168.757 L659.76 168.757 L659.76 153.247 Q659.76 149.567 658.325 147.738 Q656.89 145.91 654.019 145.91 Q650.57 145.91 648.579 148.109 Q646.589 150.308 646.589 154.104 L646.589 168.757 L642.306 168.757 L642.306 142.831 L646.589 142.831 L646.589 146.859 Q648.117 144.521 650.177 143.363 Q652.26 142.206 654.968 142.206 Q659.436 142.206 661.728 144.984 Q664.019 147.738 664.019 153.109 Z" fill="#000000" fill-rule="evenodd" fill-opacity="1" /><path clip-path="url(#clip420)" d="M 0 0 M685.547 155.493 Q685.547 150.863 683.626 148.317 Q681.727 145.771 678.278 145.771 Q674.852 145.771 672.931 148.317 Q671.033 150.863 671.033 155.493 Q671.033 160.099 672.931 162.646 Q674.852 165.192 678.278 165.192 Q681.727 165.192 683.626 162.646 Q685.547 160.099 685.547 155.493 M689.806 165.539 Q689.806 172.159 686.866 175.377 Q683.926 178.618 677.862 178.618 Q675.616 178.618 673.626 178.27 Q671.635 177.946 669.76 177.252 L669.76 173.108 Q671.635 174.127 673.464 174.613 Q675.292 175.099 677.19 175.099 Q681.38 175.099 683.464 172.9 Q685.547 170.724 685.547 166.303 L685.547 164.196 Q684.227 166.488 682.167 167.622 Q680.107 168.757 677.237 168.757 Q672.468 168.757 669.552 165.122 Q666.635 161.488 666.635 155.493 Q666.635 149.474 669.552 145.84 Q672.468 142.206 677.237 142.206 Q680.107 142.206 682.167 143.34 Q684.227 144.474 685.547 146.766 L685.547 142.831 L689.806 142.831 L689.806 165.539 Z" fill="#000000" fill-rule="evenodd" fill-opacity="1" /><polyline clip-path="url(#clip420)" style="stroke:#e26f46; stroke-width:4; stroke-opacity:1; fill:none" points="
  315.074,211.957 450.54,211.957 
  "/>
<path clip-path="url(#clip420)" d="M 0 0 M473.65 194.677 L500.802 194.677 L500.802 198.241 L478.951 225.301 L501.335 225.301 L501.335 229.237 L473.117 229.237 L473.117 225.672 L494.969 198.612 L473.65 198.612 L473.65 194.677 Z" fill="#000000" fill-rule="evenodd" fill-opacity="1" /><path clip-path="url(#clip420)" d="M 0 0 M539.529 204.306 L539.529 208.288 Q537.724 207.292 535.895 206.806 Q534.089 206.297 532.237 206.297 Q528.094 206.297 525.802 208.936 Q523.511 211.552 523.511 216.297 Q523.511 221.042 525.802 223.681 Q528.094 226.297 532.237 226.297 Q534.089 226.297 535.895 225.811 Q537.724 225.301 539.529 224.306 L539.529 228.241 Q537.747 229.075 535.825 229.491 Q533.927 229.908 531.775 229.908 Q525.918 229.908 522.469 226.227 Q519.02 222.547 519.02 216.297 Q519.02 209.954 522.492 206.32 Q525.988 202.686 532.052 202.686 Q534.02 202.686 535.895 203.103 Q537.77 203.496 539.529 204.306 Z" fill="#000000" fill-rule="evenodd" fill-opacity="1" /><path clip-path="url(#clip420)" d="M 0 0 M554.043 206.297 Q550.617 206.297 548.626 208.982 Q546.636 211.644 546.636 216.297 Q546.636 220.95 548.603 223.635 Q550.594 226.297 554.043 226.297 Q557.446 226.297 559.436 223.612 Q561.427 220.926 561.427 216.297 Q561.427 211.69 559.436 209.005 Q557.446 206.297 554.043 206.297 M554.043 202.686 Q559.598 202.686 562.77 206.297 Q565.941 209.908 565.941 216.297 Q565.941 222.663 562.77 226.297 Q559.598 229.908 554.043 229.908 Q548.464 229.908 545.293 226.297 Q542.145 222.663 542.145 216.297 Q542.145 209.908 545.293 206.297 Q548.464 202.686 554.043 202.686 Z" fill="#000000" fill-rule="evenodd" fill-opacity="1" /><path clip-path="url(#clip420)" d="M 0 0 M569.969 219.005 L569.969 203.311 L574.228 203.311 L574.228 218.843 Q574.228 222.524 575.663 224.376 Q577.098 226.204 579.969 226.204 Q583.418 226.204 585.409 224.005 Q587.422 221.806 587.422 218.01 L587.422 203.311 L591.682 203.311 L591.682 229.237 L587.422 229.237 L587.422 225.255 Q585.871 227.616 583.811 228.774 Q581.774 229.908 579.066 229.908 Q574.598 229.908 572.284 227.13 Q569.969 224.352 569.969 219.005 M580.686 202.686 L580.686 202.686 Z" fill="#000000" fill-rule="evenodd" fill-opacity="1" /><path clip-path="url(#clip420)" d="M 0 0 M600.27 225.348 L600.27 239.098 L595.987 239.098 L595.987 203.311 L600.27 203.311 L600.27 207.246 Q601.612 204.931 603.649 203.82 Q605.709 202.686 608.557 202.686 Q613.279 202.686 616.219 206.436 Q619.181 210.186 619.181 216.297 Q619.181 222.408 616.219 226.158 Q613.279 229.908 608.557 229.908 Q605.709 229.908 603.649 228.797 Q601.612 227.663 600.27 225.348 M614.76 216.297 Q614.76 211.598 612.816 208.936 Q610.894 206.251 607.515 206.251 Q604.135 206.251 602.191 208.936 Q600.27 211.598 600.27 216.297 Q600.27 220.996 602.191 223.681 Q604.135 226.343 607.515 226.343 Q610.894 226.343 612.816 223.681 Q614.76 220.996 614.76 216.297 Z" fill="#000000" fill-rule="evenodd" fill-opacity="1" /><path clip-path="url(#clip420)" d="M 0 0 M623.649 193.218 L627.908 193.218 L627.908 229.237 L623.649 229.237 L623.649 193.218 Z" fill="#000000" fill-rule="evenodd" fill-opacity="1" /><path clip-path="url(#clip420)" d="M 0 0 M632.376 203.311 L636.635 203.311 L636.635 229.237 L632.376 229.237 L632.376 203.311 M632.376 193.218 L636.635 193.218 L636.635 198.612 L632.376 198.612 L632.376 193.218 Z" fill="#000000" fill-rule="evenodd" fill-opacity="1" /><path clip-path="url(#clip420)" d="M 0 0 M662.653 213.589 L662.653 229.237 L658.394 229.237 L658.394 213.727 Q658.394 210.047 656.959 208.218 Q655.524 206.39 652.654 206.39 Q649.204 206.39 647.214 208.589 Q645.223 210.788 645.223 214.584 L645.223 229.237 L640.941 229.237 L640.941 203.311 L645.223 203.311 L645.223 207.339 Q646.751 205.001 648.811 203.843 Q650.894 202.686 653.603 202.686 Q658.07 202.686 660.362 205.464 Q662.653 208.218 662.653 213.589 Z" fill="#000000" fill-rule="evenodd" fill-opacity="1" /><path clip-path="url(#clip420)" d="M 0 0 M684.181 215.973 Q684.181 211.343 682.26 208.797 Q680.362 206.251 676.913 206.251 Q673.487 206.251 671.565 208.797 Q669.667 211.343 669.667 215.973 Q669.667 220.579 671.565 223.126 Q673.487 225.672 676.913 225.672 Q680.362 225.672 682.26 223.126 Q684.181 220.579 684.181 215.973 M688.44 226.019 Q688.44 232.639 685.501 235.857 Q682.561 239.098 676.496 239.098 Q674.251 239.098 672.26 238.75 Q670.269 238.426 668.394 237.732 L668.394 233.588 Q670.269 234.607 672.098 235.093 Q673.927 235.579 675.825 235.579 Q680.014 235.579 682.098 233.38 Q684.181 231.204 684.181 226.783 L684.181 224.676 Q682.862 226.968 680.802 228.102 Q678.741 229.237 675.871 229.237 Q671.102 229.237 668.186 225.602 Q665.269 221.968 665.269 215.973 Q665.269 209.954 668.186 206.32 Q671.102 202.686 675.871 202.686 Q678.741 202.686 680.802 203.82 Q682.862 204.954 684.181 207.246 L684.181 203.311 L688.44 203.311 L688.44 226.019 Z" fill="#000000" fill-rule="evenodd" fill-opacity="1" /><polyline clip-path="url(#clip420)" style="stroke:#3da44d; stroke-width:4; stroke-opacity:1; fill:none" points="
  315.074,272.437 450.54,272.437 
  "/>
<path clip-path="url(#clip420)" d="M 0 0 M474.692 255.157 L479.715 255.157 L488.303 268.004 L496.937 255.157 L501.96 255.157 L490.849 271.754 L502.701 289.717 L497.677 289.717 L487.955 275.018 L478.164 289.717 L473.117 289.717 L485.455 271.268 L474.692 255.157 Z" fill="#000000" fill-rule="evenodd" fill-opacity="1" /><path clip-path="url(#clip420)" d="M 0 0 M524.506 259.995 L524.506 272.888 L537.4 272.888 L537.4 276.823 L524.506 276.823 L524.506 289.717 L520.617 289.717 L520.617 276.823 L507.724 276.823 L507.724 272.888 L520.617 272.888 L520.617 259.995 L524.506 259.995 Z" fill="#000000" fill-rule="evenodd" fill-opacity="1" /><path clip-path="url(#clip420)" d="M 0 0 M540.062 255.157 L567.214 255.157 L567.214 258.721 L545.362 285.781 L567.747 285.781 L567.747 289.717 L539.529 289.717 L539.529 286.152 L561.381 259.092 L540.062 259.092 L540.062 255.157 Z" fill="#000000" fill-rule="evenodd" fill-opacity="1" /><path clip-path="url(#clip420)" d="M 0 0 M605.941 264.786 L605.941 268.768 Q604.135 267.772 602.307 267.286 Q600.501 266.777 598.649 266.777 Q594.506 266.777 592.214 269.416 Q589.922 272.032 589.922 276.777 Q589.922 281.522 592.214 284.161 Q594.506 286.777 598.649 286.777 Q600.501 286.777 602.307 286.291 Q604.135 285.781 605.941 284.786 L605.941 288.721 Q604.158 289.555 602.237 289.971 Q600.339 290.388 598.186 290.388 Q592.33 290.388 588.881 286.707 Q585.432 283.027 585.432 276.777 Q585.432 270.434 588.904 266.8 Q592.399 263.166 598.464 263.166 Q600.432 263.166 602.307 263.583 Q604.182 263.976 605.941 264.786 Z" fill="#000000" fill-rule="evenodd" fill-opacity="1" /><path clip-path="url(#clip420)" d="M 0 0 M620.455 266.777 Q617.029 266.777 615.038 269.462 Q613.047 272.124 613.047 276.777 Q613.047 281.43 615.015 284.115 Q617.006 286.777 620.455 286.777 Q623.857 286.777 625.848 284.092 Q627.839 281.406 627.839 276.777 Q627.839 272.17 625.848 269.485 Q623.857 266.777 620.455 266.777 M620.455 263.166 Q626.01 263.166 629.181 266.777 Q632.353 270.388 632.353 276.777 Q632.353 283.143 629.181 286.777 Q626.01 290.388 620.455 290.388 Q614.876 290.388 611.705 286.777 Q608.557 283.143 608.557 276.777 Q608.557 270.388 611.705 266.777 Q614.876 263.166 620.455 263.166 Z" fill="#000000" fill-rule="evenodd" fill-opacity="1" /><path clip-path="url(#clip420)" d="M 0 0 M636.38 279.485 L636.38 263.791 L640.64 263.791 L640.64 279.323 Q640.64 283.004 642.075 284.856 Q643.51 286.684 646.38 286.684 Q649.829 286.684 651.82 284.485 Q653.834 282.286 653.834 278.49 L653.834 263.791 L658.093 263.791 L658.093 289.717 L653.834 289.717 L653.834 285.735 Q652.283 288.096 650.223 289.254 Q648.186 290.388 645.478 290.388 Q641.01 290.388 638.695 287.61 Q636.38 284.832 636.38 279.485 M647.098 263.166 L647.098 263.166 Z" fill="#000000" fill-rule="evenodd" fill-opacity="1" /><path clip-path="url(#clip420)" d="M 0 0 M666.681 285.828 L666.681 299.578 L662.399 299.578 L662.399 263.791 L666.681 263.791 L666.681 267.726 Q668.024 265.411 670.061 264.3 Q672.121 263.166 674.968 263.166 Q679.69 263.166 682.63 266.916 Q685.593 270.666 685.593 276.777 Q685.593 282.888 682.63 286.638 Q679.69 290.388 674.968 290.388 Q672.121 290.388 670.061 289.277 Q668.024 288.143 666.681 285.828 M681.172 276.777 Q681.172 272.078 679.227 269.416 Q677.306 266.731 673.927 266.731 Q670.547 266.731 668.603 269.416 Q666.681 272.078 666.681 276.777 Q666.681 281.476 668.603 284.161 Q670.547 286.823 673.927 286.823 Q677.306 286.823 679.227 284.161 Q681.172 281.476 681.172 276.777 Z" fill="#000000" fill-rule="evenodd" fill-opacity="1" /><path clip-path="url(#clip420)" d="M 0 0 M690.061 253.698 L694.32 253.698 L694.32 289.717 L690.061 289.717 L690.061 253.698 Z" fill="#000000" fill-rule="evenodd" fill-opacity="1" /><path clip-path="url(#clip420)" d="M 0 0 M698.788 263.791 L703.047 263.791 L703.047 289.717 L698.788 289.717 L698.788 263.791 M698.788 253.698 L703.047 253.698 L703.047 259.092 L698.788 259.092 L698.788 253.698 Z" fill="#000000" fill-rule="evenodd" fill-opacity="1" /><path clip-path="url(#clip420)" d="M 0 0 M729.065 274.069 L729.065 289.717 L724.806 289.717 L724.806 274.207 Q724.806 270.527 723.371 268.698 Q721.936 266.87 719.065 266.87 Q715.616 266.87 713.625 269.069 Q711.635 271.268 711.635 275.064 L711.635 289.717 L707.352 289.717 L707.352 263.791 L711.635 263.791 L711.635 267.819 Q713.162 265.481 715.223 264.323 Q717.306 263.166 720.014 263.166 Q724.482 263.166 726.773 265.944 Q729.065 268.698 729.065 274.069 Z" fill="#000000" fill-rule="evenodd" fill-opacity="1" /><path clip-path="url(#clip420)" d="M 0 0 M750.593 276.453 Q750.593 271.823 748.672 269.277 Q746.773 266.731 743.324 266.731 Q739.898 266.731 737.977 269.277 Q736.079 271.823 736.079 276.453 Q736.079 281.059 737.977 283.606 Q739.898 286.152 743.324 286.152 Q746.773 286.152 748.672 283.606 Q750.593 281.059 750.593 276.453 M754.852 286.499 Q754.852 293.119 751.912 296.337 Q748.972 299.578 742.908 299.578 Q740.662 299.578 738.672 299.23 Q736.681 298.906 734.806 298.212 L734.806 294.068 Q736.681 295.087 738.51 295.573 Q740.338 296.059 742.236 296.059 Q746.426 296.059 748.509 293.86 Q750.593 291.684 750.593 287.263 L750.593 285.156 Q749.273 287.448 747.213 288.582 Q745.153 289.717 742.283 289.717 Q737.514 289.717 734.598 286.082 Q731.681 282.448 731.681 276.453 Q731.681 270.434 734.598 266.8 Q737.514 263.166 742.283 263.166 Q745.153 263.166 747.213 264.3 Q749.273 265.434 750.593 267.726 L750.593 263.791 L754.852 263.791 L754.852 286.499 Z" fill="#000000" fill-rule="evenodd" fill-opacity="1" /><polyline clip-path="url(#clip420)" style="stroke:#c271d2; stroke-width:4; stroke-opacity:1; fill:none" stroke-dasharray="16, 10" points="
  315.074,332.917 450.54,332.917 
  "/>
<path clip-path="url(#clip420)" d="M 0 0 M474.692 315.637 L479.715 315.637 L488.303 328.484 L496.937 315.637 L501.96 315.637 L490.849 332.234 L502.701 350.197 L497.677 350.197 L487.955 335.498 L478.164 350.197 L473.117 350.197 L485.455 331.748 L474.692 315.637 Z" fill="#000000" fill-rule="evenodd" fill-opacity="1" /><path clip-path="url(#clip420)" d="M 0 0 M540.895 325.266 L540.895 329.248 Q539.089 328.252 537.261 327.766 Q535.455 327.257 533.603 327.257 Q529.46 327.257 527.168 329.896 Q524.876 332.512 524.876 337.257 Q524.876 342.002 527.168 344.641 Q529.46 347.257 533.603 347.257 Q535.455 347.257 537.261 346.771 Q539.089 346.261 540.895 345.266 L540.895 349.201 Q539.112 350.035 537.191 350.451 Q535.293 350.868 533.14 350.868 Q527.284 350.868 523.835 347.187 Q520.386 343.507 520.386 337.257 Q520.386 330.914 523.858 327.28 Q527.353 323.646 533.418 323.646 Q535.386 323.646 537.261 324.063 Q539.136 324.456 540.895 325.266 Z" fill="#000000" fill-rule="evenodd" fill-opacity="1" /><path clip-path="url(#clip420)" d="M 0 0 M555.409 327.257 Q551.983 327.257 549.992 329.942 Q548.001 332.604 548.001 337.257 Q548.001 341.91 549.969 344.595 Q551.96 347.257 555.409 347.257 Q558.811 347.257 560.802 344.572 Q562.793 341.886 562.793 337.257 Q562.793 332.65 560.802 329.965 Q558.811 327.257 555.409 327.257 M555.409 323.646 Q560.964 323.646 564.135 327.257 Q567.307 330.868 567.307 337.257 Q567.307 343.623 564.135 347.257 Q560.964 350.868 555.409 350.868 Q549.83 350.868 546.659 347.257 Q543.511 343.623 543.511 337.257 Q543.511 330.868 546.659 327.257 Q549.83 323.646 555.409 323.646 Z" fill="#000000" fill-rule="evenodd" fill-opacity="1" /><path clip-path="url(#clip420)" d="M 0 0 M571.335 339.965 L571.335 324.271 L575.594 324.271 L575.594 339.803 Q575.594 343.484 577.029 345.336 Q578.464 347.164 581.334 347.164 Q584.784 347.164 586.774 344.965 Q588.788 342.766 588.788 338.97 L588.788 324.271 L593.047 324.271 L593.047 350.197 L588.788 350.197 L588.788 346.215 Q587.237 348.576 585.177 349.734 Q583.14 350.868 580.432 350.868 Q575.964 350.868 573.649 348.09 Q571.335 345.312 571.335 339.965 M582.052 323.646 L582.052 323.646 Z" fill="#000000" fill-rule="evenodd" fill-opacity="1" /><path clip-path="url(#clip420)" d="M 0 0 M601.635 346.308 L601.635 360.058 L597.353 360.058 L597.353 324.271 L601.635 324.271 L601.635 328.206 Q602.978 325.891 605.015 324.78 Q607.075 323.646 609.922 323.646 Q614.644 323.646 617.584 327.396 Q620.547 331.146 620.547 337.257 Q620.547 343.368 617.584 347.118 Q614.644 350.868 609.922 350.868 Q607.075 350.868 605.015 349.757 Q602.978 348.623 601.635 346.308 M616.126 337.257 Q616.126 332.558 614.181 329.896 Q612.26 327.211 608.881 327.211 Q605.501 327.211 603.557 329.896 Q601.635 332.558 601.635 337.257 Q601.635 341.956 603.557 344.641 Q605.501 347.303 608.881 347.303 Q612.26 347.303 614.181 344.641 Q616.126 341.956 616.126 337.257 Z" fill="#000000" fill-rule="evenodd" fill-opacity="1" /><path clip-path="url(#clip420)" d="M 0 0 M625.015 314.178 L629.274 314.178 L629.274 350.197 L625.015 350.197 L625.015 314.178 Z" fill="#000000" fill-rule="evenodd" fill-opacity="1" /><path clip-path="url(#clip420)" d="M 0 0 M633.742 324.271 L638.001 324.271 L638.001 350.197 L633.742 350.197 L633.742 324.271 M633.742 314.178 L638.001 314.178 L638.001 319.572 L633.742 319.572 L633.742 314.178 Z" fill="#000000" fill-rule="evenodd" fill-opacity="1" /><path clip-path="url(#clip420)" d="M 0 0 M664.019 334.549 L664.019 350.197 L659.76 350.197 L659.76 334.687 Q659.76 331.007 658.325 329.178 Q656.89 327.35 654.019 327.35 Q650.57 327.35 648.579 329.549 Q646.589 331.748 646.589 335.544 L646.589 350.197 L642.306 350.197 L642.306 324.271 L646.589 324.271 L646.589 328.299 Q648.117 325.961 650.177 324.803 Q652.26 323.646 654.968 323.646 Q659.436 323.646 661.728 326.424 Q664.019 329.178 664.019 334.549 Z" fill="#000000" fill-rule="evenodd" fill-opacity="1" /><path clip-path="url(#clip420)" d="M 0 0 M685.547 336.933 Q685.547 332.303 683.626 329.757 Q681.727 327.211 678.278 327.211 Q674.852 327.211 672.931 329.757 Q671.033 332.303 671.033 336.933 Q671.033 341.539 672.931 344.086 Q674.852 346.632 678.278 346.632 Q681.727 346.632 683.626 344.086 Q685.547 341.539 685.547 336.933 M689.806 346.979 Q689.806 353.599 686.866 356.817 Q683.926 360.058 677.862 360.058 Q675.616 360.058 673.626 359.71 Q671.635 359.386 669.76 358.692 L669.76 354.548 Q671.635 355.567 673.464 356.053 Q675.292 356.539 677.19 356.539 Q681.38 356.539 683.464 354.34 Q685.547 352.164 685.547 347.743 L685.547 345.636 Q684.227 347.928 682.167 349.062 Q680.107 350.197 677.237 350.197 Q672.468 350.197 669.552 346.562 Q666.635 342.928 666.635 336.933 Q666.635 330.914 669.552 327.28 Q672.468 323.646 677.237 323.646 Q680.107 323.646 682.167 324.78 Q684.227 325.914 685.547 328.206 L685.547 324.271 L689.806 324.271 L689.806 346.979 Z" fill="#000000" fill-rule="evenodd" fill-opacity="1" /><path clip-path="url(#clip420)" d="M 0 0 M706.866 324.271 L711.125 324.271 L716.449 344.502 L721.75 324.271 L726.773 324.271 L732.098 344.502 L737.398 324.271 L741.658 324.271 L734.875 350.197 L729.852 350.197 L724.274 328.947 L718.672 350.197 L713.649 350.197 L706.866 324.271 Z" fill="#000000" fill-rule="evenodd" fill-opacity="1" /><path clip-path="url(#clip420)" d="M 0 0 M746.125 324.271 L750.384 324.271 L750.384 350.197 L746.125 350.197 L746.125 324.271 M746.125 314.178 L750.384 314.178 L750.384 319.572 L746.125 319.572 L746.125 314.178 Z" fill="#000000" fill-rule="evenodd" fill-opacity="1" /><path clip-path="url(#clip420)" d="M 0 0 M759.065 316.91 L759.065 324.271 L767.838 324.271 L767.838 327.581 L759.065 327.581 L759.065 341.655 Q759.065 344.826 759.921 345.729 Q760.801 346.632 763.463 346.632 L767.838 346.632 L767.838 350.197 L763.463 350.197 Q758.533 350.197 756.658 348.368 Q754.783 346.516 754.783 341.655 L754.783 327.581 L751.658 327.581 L751.658 324.271 L754.783 324.271 L754.783 316.91 L759.065 316.91 Z" fill="#000000" fill-rule="evenodd" fill-opacity="1" /><path clip-path="url(#clip420)" d="M 0 0 M793.856 334.549 L793.856 350.197 L789.597 350.197 L789.597 334.687 Q789.597 331.007 788.162 329.178 Q786.727 327.35 783.857 327.35 Q780.407 327.35 778.417 329.549 Q776.426 331.748 776.426 335.544 L776.426 350.197 L772.144 350.197 L772.144 314.178 L776.426 314.178 L776.426 328.299 Q777.954 325.961 780.014 324.803 Q782.097 323.646 784.806 323.646 Q789.273 323.646 791.565 326.424 Q793.856 329.178 793.856 334.549 Z" fill="#000000" fill-rule="evenodd" fill-opacity="1" /><path clip-path="url(#clip420)" d="M 0 0 M834.944 334.549 L834.944 350.197 L830.685 350.197 L830.685 334.687 Q830.685 331.007 829.25 329.178 Q827.815 327.35 824.944 327.35 Q821.495 327.35 819.504 329.549 Q817.514 331.748 817.514 335.544 L817.514 350.197 L813.231 350.197 L813.231 324.271 L817.514 324.271 L817.514 328.299 Q819.042 325.961 821.102 324.803 Q823.185 323.646 825.893 323.646 Q830.361 323.646 832.653 326.424 Q834.944 329.178 834.944 334.549 Z" fill="#000000" fill-rule="evenodd" fill-opacity="1" /><path clip-path="url(#clip420)" d="M 0 0 M849.458 327.257 Q846.032 327.257 844.041 329.942 Q842.051 332.604 842.051 337.257 Q842.051 341.91 844.018 344.595 Q846.009 347.257 849.458 347.257 Q852.861 347.257 854.852 344.572 Q856.842 341.886 856.842 337.257 Q856.842 332.65 854.852 329.965 Q852.861 327.257 849.458 327.257 M849.458 323.646 Q855.014 323.646 858.185 327.257 Q861.356 330.868 861.356 337.257 Q861.356 343.623 858.185 347.257 Q855.014 350.868 849.458 350.868 Q843.879 350.868 840.708 347.257 Q837.56 343.623 837.56 337.257 Q837.56 330.868 840.708 327.257 Q843.879 323.646 849.458 323.646 Z" fill="#000000" fill-rule="evenodd" fill-opacity="1" /><path clip-path="url(#clip420)" d="M 0 0 M885.013 346.308 L885.013 360.058 L880.731 360.058 L880.731 324.271 L885.013 324.271 L885.013 328.206 Q886.356 325.891 888.393 324.78 Q890.453 323.646 893.3 323.646 Q898.023 323.646 900.962 327.396 Q903.925 331.146 903.925 337.257 Q903.925 343.368 900.962 347.118 Q898.023 350.868 893.3 350.868 Q890.453 350.868 888.393 349.757 Q886.356 348.623 885.013 346.308 M899.504 337.257 Q899.504 332.558 897.56 329.896 Q895.638 327.211 892.259 327.211 Q888.879 327.211 886.935 329.896 Q885.013 332.558 885.013 337.257 Q885.013 341.956 886.935 344.641 Q888.879 347.303 892.259 347.303 Q895.638 347.303 897.56 344.641 Q899.504 341.956 899.504 337.257 Z" fill="#000000" fill-rule="evenodd" fill-opacity="1" /><path clip-path="url(#clip420)" d="M 0 0 M907.953 339.965 L907.953 324.271 L912.212 324.271 L912.212 339.803 Q912.212 343.484 913.647 345.336 Q915.083 347.164 917.953 347.164 Q921.402 347.164 923.393 344.965 Q925.407 342.766 925.407 338.97 L925.407 324.271 L929.666 324.271 L929.666 350.197 L925.407 350.197 L925.407 346.215 Q923.856 348.576 921.796 349.734 Q919.759 350.868 917.05 350.868 Q912.583 350.868 910.268 348.09 Q907.953 345.312 907.953 339.965 M918.671 323.646 L918.671 323.646 Z" fill="#000000" fill-rule="evenodd" fill-opacity="1" /><path clip-path="url(#clip420)" d="M 0 0 M934.133 314.178 L938.393 314.178 L938.393 350.197 L934.133 350.197 L934.133 314.178 Z" fill="#000000" fill-rule="evenodd" fill-opacity="1" /><path clip-path="url(#clip420)" d="M 0 0 M959.388 325.035 L959.388 329.062 Q957.582 328.137 955.638 327.674 Q953.694 327.211 951.61 327.211 Q948.439 327.211 946.842 328.183 Q945.268 329.155 945.268 331.099 Q945.268 332.581 946.402 333.437 Q947.536 334.271 950.962 335.035 L952.42 335.359 Q956.957 336.331 958.856 338.113 Q960.777 339.873 960.777 343.044 Q960.777 346.655 957.907 348.761 Q955.059 350.868 950.059 350.868 Q947.976 350.868 945.707 350.451 Q943.462 350.058 940.962 349.248 L940.962 344.849 Q943.323 346.076 945.615 346.701 Q947.907 347.303 950.152 347.303 Q953.161 347.303 954.782 346.285 Q956.402 345.243 956.402 343.368 Q956.402 341.632 955.221 340.706 Q954.064 339.78 950.106 338.924 L948.624 338.576 Q944.666 337.743 942.907 336.03 Q941.147 334.294 941.147 331.285 Q941.147 327.627 943.74 325.637 Q946.332 323.646 951.101 323.646 Q953.462 323.646 955.545 323.993 Q957.629 324.34 959.388 325.035 Z" fill="#000000" fill-rule="evenodd" fill-opacity="1" /><path clip-path="url(#clip420)" d="M 0 0 M987.42 336.169 L987.42 338.252 L967.837 338.252 Q968.115 342.65 970.476 344.965 Q972.86 347.257 977.096 347.257 Q979.55 347.257 981.842 346.655 Q984.156 346.053 986.425 344.849 L986.425 348.877 Q984.133 349.849 981.726 350.359 Q979.318 350.868 976.842 350.868 Q970.638 350.868 967.004 347.257 Q963.393 343.646 963.393 337.488 Q963.393 331.123 966.818 327.396 Q970.268 323.646 976.101 323.646 Q981.332 323.646 984.365 327.025 Q987.42 330.382 987.42 336.169 M983.161 334.919 Q983.115 331.424 981.193 329.34 Q979.295 327.257 976.147 327.257 Q972.582 327.257 970.43 329.271 Q968.3 331.285 967.976 334.942 L983.161 334.919 Z" fill="#000000" fill-rule="evenodd" fill-opacity="1" /></svg>
