<?xml version="1.0" encoding="utf-8"?>
<svg xmlns="http://www.w3.org/2000/svg" xmlns:xlink="http://www.w3.org/1999/xlink" width="576" height="384" viewBox="0 0 2304 1536">
<defs>
  <clipPath id="clip440">
    <rect x="0" y="0" width="2304" height="1536"/>
  </clipPath>
</defs>
<path clip-path="url(#clip440)" d="
M0 1536 L2304 1536 L2304 0 L0 0  Z
  " fill="#ffffff" fill-rule="evenodd" fill-opacity="1"/>
<defs>
  <clipPath id="clip441">
    <rect x="460" y="0" width="1614" height="1536"/>
  </clipPath>
</defs>
<path clip-path="url(#clip440)" d="
M227.573 1387.62 L2256.76 1387.62 L2256.76 47.2441 L227.573 47.2441  Z
  " fill="#ffffff" fill-rule="evenodd" fill-opacity="1"/>
<defs>
  <clipPath id="clip442">
    <rect x="227" y="47" width="2030" height="1341"/>
  </clipPath>
</defs>
<polyline clip-path="url(#clip442)" style="stroke:#000000; stroke-width:2; stroke-opacity:0.1; fill:none" points="
  285.003,1387.62 285.003,47.2441 
  "/>
<polyline clip-path="url(#clip442)" style="stroke:#000000; stroke-width:2; stroke-opacity:0.1; fill:none" points="
  763.584,1387.62 763.584,47.2441 
  "/>
<polyline clip-path="url(#clip442)" style="stroke:#000000; stroke-width:2; stroke-opacity:0.1; fill:none" points="
  1242.16,1387.62 1242.16,47.2441 
  "/>
<polyline clip-path="url(#clip442)" style="stroke:#000000; stroke-width:2; stroke-opacity:0.1; fill:none" points="
  1720.75,1387.62 1720.75,47.2441 
  "/>
<polyline clip-path="url(#clip442)" style="stroke:#000000; stroke-width:2; stroke-opacity:0.1; fill:none" points="
  2199.33,1387.62 2199.33,47.2441 
  "/>
<polyline clip-path="url(#clip440)" style="stroke:#000000; stroke-width:4; stroke-opacity:1; fill:none" points="
  227.573,1387.62 2256.76,1387.62 
  "/>
<polyline clip-path="url(#clip440)" style="stroke:#000000; stroke-width:4; stroke-opacity:1; fill:none" points="
  285.003,1387.62 285.003,1371.54 
  "/>
<polyline clip-path="url(#clip440)" style="stroke:#000000; stroke-width:4; stroke-opacity:1; fill:none" points="
  763.584,1387.62 763.584,1371.54 
  "/>
<polyline clip-path="url(#clip440)" style="stroke:#000000; stroke-width:4; stroke-opacity:1; fill:none" points="
  1242.16,1387.62 1242.16,1371.54 
  "/>
<polyline clip-path="url(#clip440)" style="stroke:#000000; stroke-width:4; stroke-opacity:1; fill:none" points="
  1720.75,1387.62 1720.75,1371.54 
  "/>
<polyline clip-path="url(#clip440)" style="stroke:#000000; stroke-width:4; stroke-opacity:1; fill:none" points="
  2199.33,1387.62 2199.33,1371.54 
  "/>
<path clip-path="url(#clip440)" d="M 0 0 M253.012 1416.04 Q249.401 1416.04 247.573 1419.61 Q245.767 1423.15 245.767 1430.28 Q245.767 1437.39 247.573 1440.95 Q249.401 1444.49 253.012 1444.49 Q256.647 1444.49 258.452 1440.95 Q260.281 1437.39 260.281 1430.28 Q260.281 1423.15 258.452 1419.61 Q256.647 1416.04 253.012 1416.04 M253.012 1412.34 Q258.822 1412.34 261.878 1416.95 Q264.957 1421.53 264.957 1430.28 Q264.957 1439.01 261.878 1443.61 Q258.822 1448.2 253.012 1448.2 Q247.202 1448.2 244.123 1443.61 Q241.068 1439.01 241.068 1430.28 Q241.068 1421.53 244.123 1416.95 Q247.202 1412.34 253.012 1412.34 Z" fill="#000000" fill-rule="evenodd" fill-opacity="1" /><path clip-path="url(#clip440)" d="M 0 0 M270.026 1441.64 L274.91 1441.64 L274.91 1447.52 L270.026 1447.52 L270.026 1441.64 Z" fill="#000000" fill-rule="evenodd" fill-opacity="1" /><path clip-path="url(#clip440)" d="M 0 0 M289.98 1416.04 Q286.369 1416.04 284.54 1419.61 Q282.734 1423.15 282.734 1430.28 Q282.734 1437.39 284.54 1440.95 Q286.369 1444.49 289.98 1444.49 Q293.614 1444.49 295.419 1440.95 Q297.248 1437.39 297.248 1430.28 Q297.248 1423.15 295.419 1419.61 Q293.614 1416.04 289.98 1416.04 M289.98 1412.34 Q295.79 1412.34 298.845 1416.95 Q301.924 1421.53 301.924 1430.28 Q301.924 1439.01 298.845 1443.61 Q295.79 1448.2 289.98 1448.2 Q284.17 1448.2 281.091 1443.61 Q278.035 1439.01 278.035 1430.28 Q278.035 1421.53 281.091 1416.95 Q284.17 1412.34 289.98 1412.34 Z" fill="#000000" fill-rule="evenodd" fill-opacity="1" /><path clip-path="url(#clip440)" d="M 0 0 M316.993 1416.04 Q313.382 1416.04 311.554 1419.61 Q309.748 1423.15 309.748 1430.28 Q309.748 1437.39 311.554 1440.95 Q313.382 1444.49 316.993 1444.49 Q320.628 1444.49 322.433 1440.95 Q324.262 1437.39 324.262 1430.28 Q324.262 1423.15 322.433 1419.61 Q320.628 1416.04 316.993 1416.04 M316.993 1412.34 Q322.804 1412.34 325.859 1416.95 Q328.938 1421.53 328.938 1430.28 Q328.938 1439.01 325.859 1443.61 Q322.804 1448.2 316.993 1448.2 Q311.183 1448.2 308.105 1443.61 Q305.049 1439.01 305.049 1430.28 Q305.049 1421.53 308.105 1416.95 Q311.183 1412.34 316.993 1412.34 Z" fill="#000000" fill-rule="evenodd" fill-opacity="1" /><path clip-path="url(#clip440)" d="M 0 0 M732.889 1416.04 Q729.278 1416.04 727.45 1419.61 Q725.644 1423.15 725.644 1430.28 Q725.644 1437.39 727.45 1440.95 Q729.278 1444.49 732.889 1444.49 Q736.524 1444.49 738.329 1440.95 Q740.158 1437.39 740.158 1430.28 Q740.158 1423.15 738.329 1419.61 Q736.524 1416.04 732.889 1416.04 M732.889 1412.34 Q738.7 1412.34 741.755 1416.95 Q744.834 1421.53 744.834 1430.28 Q744.834 1439.01 741.755 1443.61 Q738.7 1448.2 732.889 1448.2 Q727.079 1448.2 724.001 1443.61 Q720.945 1439.01 720.945 1430.28 Q720.945 1421.53 724.001 1416.95 Q727.079 1412.34 732.889 1412.34 Z" fill="#000000" fill-rule="evenodd" fill-opacity="1" /><path clip-path="url(#clip440)" d="M 0 0 M749.903 1441.64 L754.787 1441.64 L754.787 1447.52 L749.903 1447.52 L749.903 1441.64 Z" fill="#000000" fill-rule="evenodd" fill-opacity="1" /><path clip-path="url(#clip440)" d="M 0 0 M763.885 1443.59 L780.204 1443.59 L780.204 1447.52 L758.26 1447.52 L758.26 1443.59 Q760.922 1440.83 765.505 1436.2 Q770.111 1431.55 771.292 1430.21 Q773.537 1427.69 774.417 1425.95 Q775.32 1424.19 775.32 1422.5 Q775.32 1419.75 773.375 1418.01 Q771.454 1416.27 768.352 1416.27 Q766.153 1416.27 763.699 1417.04 Q761.269 1417.8 758.491 1419.35 L758.491 1414.63 Q761.315 1413.5 763.769 1412.92 Q766.223 1412.34 768.26 1412.34 Q773.63 1412.34 776.824 1415.02 Q780.019 1417.71 780.019 1422.2 Q780.019 1424.33 779.209 1426.25 Q778.422 1428.15 776.315 1430.74 Q775.736 1431.41 772.635 1434.63 Q769.533 1437.82 763.885 1443.59 Z" fill="#000000" fill-rule="evenodd" fill-opacity="1" /><path clip-path="url(#clip440)" d="M 0 0 M785.32 1412.96 L803.676 1412.96 L803.676 1416.9 L789.602 1416.9 L789.602 1425.37 Q790.621 1425.02 791.639 1424.86 Q792.658 1424.68 793.676 1424.68 Q799.463 1424.68 802.843 1427.85 Q806.222 1431.02 806.222 1436.44 Q806.222 1442.01 802.75 1445.12 Q799.278 1448.2 792.959 1448.2 Q790.783 1448.2 788.514 1447.82 Q786.269 1447.45 783.861 1446.71 L783.861 1442.01 Q785.945 1443.15 788.167 1443.7 Q790.389 1444.26 792.866 1444.26 Q796.871 1444.26 799.209 1442.15 Q801.546 1440.05 801.546 1436.44 Q801.546 1432.82 799.209 1430.72 Q796.871 1428.61 792.866 1428.61 Q790.991 1428.61 789.116 1429.03 Q787.264 1429.45 785.32 1430.32 L785.32 1412.96 Z" fill="#000000" fill-rule="evenodd" fill-opacity="1" /><path clip-path="url(#clip440)" d="M 0 0 M1210.67 1416.04 Q1207.06 1416.04 1205.23 1419.61 Q1203.43 1423.15 1203.43 1430.28 Q1203.43 1437.39 1205.23 1440.95 Q1207.06 1444.49 1210.67 1444.49 Q1214.31 1444.49 1216.11 1440.95 Q1217.94 1437.39 1217.94 1430.28 Q1217.94 1423.15 1216.11 1419.61 Q1214.31 1416.04 1210.67 1416.04 M1210.67 1412.34 Q1216.48 1412.34 1219.54 1416.95 Q1222.62 1421.53 1222.62 1430.28 Q1222.62 1439.01 1219.54 1443.61 Q1216.48 1448.2 1210.67 1448.2 Q1204.86 1448.2 1201.78 1443.61 Q1198.73 1439.01 1198.73 1430.28 Q1198.73 1421.53 1201.78 1416.95 Q1204.86 1412.34 1210.67 1412.34 Z" fill="#000000" fill-rule="evenodd" fill-opacity="1" /><path clip-path="url(#clip440)" d="M 0 0 M1227.69 1441.64 L1232.57 1441.64 L1232.57 1447.52 L1227.69 1447.52 L1227.69 1441.64 Z" fill="#000000" fill-rule="evenodd" fill-opacity="1" /><path clip-path="url(#clip440)" d="M 0 0 M1237.69 1412.96 L1256.04 1412.96 L1256.04 1416.9 L1241.97 1416.9 L1241.97 1425.37 Q1242.99 1425.02 1244 1424.86 Q1245.02 1424.68 1246.04 1424.68 Q1251.83 1424.68 1255.21 1427.85 Q1258.59 1431.02 1258.59 1436.44 Q1258.59 1442.01 1255.12 1445.12 Q1251.64 1448.2 1245.32 1448.2 Q1243.15 1448.2 1240.88 1447.82 Q1238.63 1447.45 1236.23 1446.71 L1236.23 1442.01 Q1238.31 1443.15 1240.53 1443.7 Q1242.75 1444.26 1245.23 1444.26 Q1249.24 1444.26 1251.57 1442.15 Q1253.91 1440.05 1253.91 1436.44 Q1253.91 1432.82 1251.57 1430.72 Q1249.24 1428.61 1245.23 1428.61 Q1243.36 1428.61 1241.48 1429.03 Q1239.63 1429.45 1237.69 1430.32 L1237.69 1412.96 Z" fill="#000000" fill-rule="evenodd" fill-opacity="1" /><path clip-path="url(#clip440)" d="M 0 0 M1273.66 1416.04 Q1270.05 1416.04 1268.22 1419.61 Q1266.41 1423.15 1266.41 1430.28 Q1266.41 1437.39 1268.22 1440.95 Q1270.05 1444.49 1273.66 1444.49 Q1277.29 1444.49 1279.1 1440.95 Q1280.93 1437.39 1280.93 1430.28 Q1280.93 1423.15 1279.1 1419.61 Q1277.29 1416.04 1273.66 1416.04 M1273.66 1412.34 Q1279.47 1412.34 1282.52 1416.95 Q1285.6 1421.53 1285.6 1430.28 Q1285.6 1439.01 1282.52 1443.61 Q1279.47 1448.2 1273.66 1448.2 Q1267.85 1448.2 1264.77 1443.61 Q1261.71 1439.01 1261.71 1430.28 Q1261.71 1421.53 1264.77 1416.95 Q1267.85 1412.34 1273.66 1412.34 Z" fill="#000000" fill-rule="evenodd" fill-opacity="1" /><path clip-path="url(#clip440)" d="M 0 0 M1689.7 1416.04 Q1686.09 1416.04 1684.26 1419.61 Q1682.46 1423.15 1682.46 1430.28 Q1682.46 1437.39 1684.26 1440.95 Q1686.09 1444.49 1689.7 1444.49 Q1693.34 1444.49 1695.14 1440.95 Q1696.97 1437.39 1696.97 1430.28 Q1696.97 1423.15 1695.14 1419.61 Q1693.34 1416.04 1689.7 1416.04 M1689.7 1412.34 Q1695.51 1412.34 1698.57 1416.95 Q1701.65 1421.53 1701.65 1430.28 Q1701.65 1439.01 1698.57 1443.61 Q1695.51 1448.2 1689.7 1448.2 Q1683.89 1448.2 1680.82 1443.61 Q1677.76 1439.01 1677.76 1430.28 Q1677.76 1421.53 1680.82 1416.95 Q1683.89 1412.34 1689.7 1412.34 Z" fill="#000000" fill-rule="evenodd" fill-opacity="1" /><path clip-path="url(#clip440)" d="M 0 0 M1706.72 1441.64 L1711.6 1441.64 L1711.6 1447.52 L1706.72 1447.52 L1706.72 1441.64 Z" fill="#000000" fill-rule="evenodd" fill-opacity="1" /><path clip-path="url(#clip440)" d="M 0 0 M1715.49 1412.96 L1737.71 1412.96 L1737.71 1414.95 L1725.17 1447.52 L1720.28 1447.52 L1732.09 1416.9 L1715.49 1416.9 L1715.49 1412.96 Z" fill="#000000" fill-rule="evenodd" fill-opacity="1" /><path clip-path="url(#clip440)" d="M 0 0 M1742.83 1412.96 L1761.18 1412.96 L1761.18 1416.9 L1747.11 1416.9 L1747.11 1425.37 Q1748.13 1425.02 1749.15 1424.86 Q1750.17 1424.68 1751.19 1424.68 Q1756.97 1424.68 1760.35 1427.85 Q1763.73 1431.02 1763.73 1436.44 Q1763.73 1442.01 1760.26 1445.12 Q1756.79 1448.2 1750.47 1448.2 Q1748.29 1448.2 1746.02 1447.82 Q1743.78 1447.45 1741.37 1446.71 L1741.37 1442.01 Q1743.45 1443.15 1745.68 1443.7 Q1747.9 1444.26 1750.37 1444.26 Q1754.38 1444.26 1756.72 1442.15 Q1759.06 1440.05 1759.06 1436.44 Q1759.06 1432.82 1756.72 1430.72 Q1754.38 1428.61 1750.37 1428.61 Q1748.5 1428.61 1746.62 1429.03 Q1744.77 1429.45 1742.83 1430.32 L1742.83 1412.96 Z" fill="#000000" fill-rule="evenodd" fill-opacity="1" /><path clip-path="url(#clip440)" d="M 0 0 M2157.72 1443.59 L2165.36 1443.59 L2165.36 1417.22 L2157.05 1418.89 L2157.05 1414.63 L2165.31 1412.96 L2169.99 1412.96 L2169.99 1443.59 L2177.62 1443.59 L2177.62 1447.52 L2157.72 1447.52 L2157.72 1443.59 Z" fill="#000000" fill-rule="evenodd" fill-opacity="1" /><path clip-path="url(#clip440)" d="M 0 0 M2182.69 1441.64 L2187.58 1441.64 L2187.58 1447.52 L2182.69 1447.52 L2182.69 1441.64 Z" fill="#000000" fill-rule="evenodd" fill-opacity="1" /><path clip-path="url(#clip440)" d="M 0 0 M2202.65 1416.04 Q2199.04 1416.04 2197.21 1419.61 Q2195.4 1423.15 2195.4 1430.28 Q2195.4 1437.39 2197.21 1440.95 Q2199.04 1444.49 2202.65 1444.49 Q2206.28 1444.49 2208.09 1440.95 Q2209.92 1437.39 2209.92 1430.28 Q2209.92 1423.15 2208.09 1419.61 Q2206.28 1416.04 2202.65 1416.04 M2202.65 1412.34 Q2208.46 1412.34 2211.51 1416.95 Q2214.59 1421.53 2214.59 1430.28 Q2214.59 1439.01 2211.51 1443.61 Q2208.46 1448.2 2202.65 1448.2 Q2196.84 1448.2 2193.76 1443.61 Q2190.7 1439.01 2190.7 1430.28 Q2190.7 1421.53 2193.76 1416.95 Q2196.84 1412.34 2202.65 1412.34 Z" fill="#000000" fill-rule="evenodd" fill-opacity="1" /><path clip-path="url(#clip440)" d="M 0 0 M2229.66 1416.04 Q2226.05 1416.04 2224.22 1419.61 Q2222.42 1423.15 2222.42 1430.28 Q2222.42 1437.39 2224.22 1440.95 Q2226.05 1444.49 2229.66 1444.49 Q2233.3 1444.49 2235.1 1440.95 Q2236.93 1437.39 2236.93 1430.28 Q2236.93 1423.15 2235.1 1419.61 Q2233.3 1416.04 2229.66 1416.04 M2229.66 1412.34 Q2235.47 1412.34 2238.53 1416.95 Q2241.61 1421.53 2241.61 1430.28 Q2241.61 1439.01 2238.53 1443.61 Q2235.47 1448.2 2229.66 1448.2 Q2223.85 1448.2 2220.77 1443.61 Q2217.72 1439.01 2217.72 1430.28 Q2217.72 1421.53 2220.77 1416.95 Q2223.85 1412.34 2229.66 1412.34 Z" fill="#000000" fill-rule="evenodd" fill-opacity="1" /><path clip-path="url(#clip440)" d="M 0 0 M1251.15 1464.91 Q1251.15 1466.71 1250.25 1467.68 Q1249.34 1468.61 1248.12 1468.61 Q1247.12 1468.61 1246.57 1468.03 Q1246.06 1467.45 1246.06 1466.68 Q1246.06 1465.55 1246.96 1464.65 Q1247.89 1463.75 1249.25 1463.72 Q1248.8 1462.53 1247.61 1461.82 Q1246.41 1461.08 1245.35 1460.88 Q1244.32 1460.69 1243.29 1460.69 Q1241.26 1460.69 1239.71 1461.33 Q1238.17 1461.98 1237.4 1462.98 Q1236.62 1463.94 1236.27 1464.88 Q1235.91 1465.81 1235.91 1466.62 Q1235.91 1467.32 1236.08 1467.9 Q1236.27 1468.45 1236.72 1468.87 Q1237.17 1469.26 1237.49 1469.51 Q1237.85 1469.77 1238.62 1470 Q1239.39 1470.22 1239.71 1470.32 Q1240.04 1470.38 1240.94 1470.58 Q1242.81 1470.96 1243.64 1471.19 Q1244.48 1471.38 1245.58 1471.93 Q1246.7 1472.48 1247.54 1473.35 Q1249.57 1475.38 1249.57 1478.18 Q1249.57 1479.21 1249.22 1480.46 Q1248.89 1481.72 1247.96 1483.3 Q1247.03 1484.88 1245.61 1486.13 Q1244.19 1487.39 1241.74 1488.26 Q1239.33 1489.13 1236.3 1489.13 Q1232.08 1489.13 1229.47 1487.36 Q1226.86 1485.55 1226.86 1482.72 Q1226.86 1480.66 1227.99 1479.53 Q1229.12 1478.37 1230.57 1478.37 Q1231.66 1478.37 1232.34 1478.98 Q1233.02 1479.56 1233.02 1480.66 Q1233.02 1482.14 1231.82 1483.27 Q1230.63 1484.39 1228.86 1484.17 Q1230.37 1487.65 1236.37 1487.65 Q1238.62 1487.65 1240.36 1487.07 Q1242.13 1486.45 1243.1 1485.62 Q1244.09 1484.75 1244.74 1483.68 Q1245.38 1482.62 1245.58 1481.82 Q1245.8 1481.01 1245.8 1480.4 Q1245.8 1479.34 1245.38 1478.53 Q1244.96 1477.73 1244.38 1477.28 Q1243.84 1476.79 1242.77 1476.41 Q1241.74 1475.99 1241 1475.83 Q1240.26 1475.67 1238.94 1475.41 Q1238.33 1475.28 1237.94 1475.21 Q1237.56 1475.12 1236.75 1474.86 Q1235.98 1474.57 1235.43 1474.28 Q1234.92 1473.99 1234.24 1473.48 Q1233.56 1472.96 1233.14 1472.35 Q1232.73 1471.74 1232.44 1470.83 Q1232.15 1469.93 1232.15 1468.87 Q1232.15 1467.9 1232.44 1466.74 Q1232.76 1465.59 1233.56 1464.23 Q1234.4 1462.88 1235.59 1461.78 Q1236.78 1460.69 1238.78 1459.98 Q1240.81 1459.24 1243.29 1459.24 Q1246.9 1459.24 1249.02 1460.92 Q1251.15 1462.56 1251.15 1464.91 Z" fill="#000000" fill-rule="evenodd" fill-opacity="1" /><polyline clip-path="url(#clip442)" style="stroke:#000000; stroke-width:2; stroke-opacity:0.1; fill:none" points="
  227.573,1223.23 2256.76,1223.23 
  "/>
<polyline clip-path="url(#clip442)" style="stroke:#000000; stroke-width:2; stroke-opacity:0.1; fill:none" points="
  227.573,970.333 2256.76,970.333 
  "/>
<polyline clip-path="url(#clip442)" style="stroke:#000000; stroke-width:2; stroke-opacity:0.1; fill:none" points="
  227.573,717.432 2256.76,717.432 
  "/>
<polyline clip-path="url(#clip442)" style="stroke:#000000; stroke-width:2; stroke-opacity:0.1; fill:none" points="
  227.573,464.531 2256.76,464.531 
  "/>
<polyline clip-path="url(#clip442)" style="stroke:#000000; stroke-width:2; stroke-opacity:0.1; fill:none" points="
  227.573,211.63 2256.76,211.63 
  "/>
<polyline clip-path="url(#clip440)" style="stroke:#000000; stroke-width:4; stroke-opacity:1; fill:none" points="
  227.573,1387.62 227.573,47.2441 
  "/>
<polyline clip-path="url(#clip440)" style="stroke:#000000; stroke-width:4; stroke-opacity:1; fill:none" points="
  227.573,1223.23 251.923,1223.23 
  "/>
<polyline clip-path="url(#clip440)" style="stroke:#000000; stroke-width:4; stroke-opacity:1; fill:none" points="
  227.573,970.333 251.923,970.333 
  "/>
<polyline clip-path="url(#clip440)" style="stroke:#000000; stroke-width:4; stroke-opacity:1; fill:none" points="
  227.573,717.432 251.923,717.432 
  "/>
<polyline clip-path="url(#clip440)" style="stroke:#000000; stroke-width:4; stroke-opacity:1; fill:none" points="
  227.573,464.531 251.923,464.531 
  "/>
<polyline clip-path="url(#clip440)" style="stroke:#000000; stroke-width:4; stroke-opacity:1; fill:none" points="
  227.573,211.63 251.923,211.63 
  "/>
<path clip-path="url(#clip440)" d="M 0 0 M98.8702 1223.69 L128.546 1223.69 L128.546 1227.62 L98.8702 1227.62 L98.8702 1223.69 Z" fill="#000000" fill-rule="evenodd" fill-opacity="1" /><path clip-path="url(#clip440)" d="M 0 0 M143.615 1209.03 Q140.004 1209.03 138.176 1212.6 Q136.37 1216.14 136.37 1223.27 Q136.37 1230.38 138.176 1233.94 Q140.004 1237.48 143.615 1237.48 Q147.25 1237.48 149.055 1233.94 Q150.884 1230.38 150.884 1223.27 Q150.884 1216.14 149.055 1212.6 Q147.25 1209.03 143.615 1209.03 M143.615 1205.33 Q149.425 1205.33 152.481 1209.94 Q155.56 1214.52 155.56 1223.27 Q155.56 1232 152.481 1236.6 Q149.425 1241.19 143.615 1241.19 Q137.805 1241.19 134.726 1236.6 Q131.671 1232 131.671 1223.27 Q131.671 1214.52 134.726 1209.94 Q137.805 1205.33 143.615 1205.33 Z" fill="#000000" fill-rule="evenodd" fill-opacity="1" /><path clip-path="url(#clip440)" d="M 0 0 M160.629 1234.63 L165.513 1234.63 L165.513 1240.51 L160.629 1240.51 L160.629 1234.63 Z" fill="#000000" fill-rule="evenodd" fill-opacity="1" /><path clip-path="url(#clip440)" d="M 0 0 M183.43 1210.03 L171.624 1228.48 L183.43 1228.48 L183.43 1210.03 M182.203 1205.95 L188.083 1205.95 L188.083 1228.48 L193.013 1228.48 L193.013 1232.37 L188.083 1232.37 L188.083 1240.51 L183.43 1240.51 L183.43 1232.37 L167.828 1232.37 L167.828 1227.85 L182.203 1205.95 Z" fill="#000000" fill-rule="evenodd" fill-opacity="1" /><path clip-path="url(#clip440)" d="M 0 0 M100.953 970.784 L130.629 970.784 L130.629 974.72 L100.953 974.72 L100.953 970.784 Z" fill="#000000" fill-rule="evenodd" fill-opacity="1" /><path clip-path="url(#clip440)" d="M 0 0 M145.699 956.132 Q142.088 956.132 140.259 959.697 Q138.453 963.238 138.453 970.368 Q138.453 977.474 140.259 981.039 Q142.088 984.581 145.699 984.581 Q149.333 984.581 151.138 981.039 Q152.967 977.474 152.967 970.368 Q152.967 963.238 151.138 959.697 Q149.333 956.132 145.699 956.132 M145.699 952.428 Q151.509 952.428 154.564 957.035 Q157.643 961.618 157.643 970.368 Q157.643 979.095 154.564 983.701 Q151.509 988.284 145.699 988.284 Q139.888 988.284 136.81 983.701 Q133.754 979.095 133.754 970.368 Q133.754 961.618 136.81 957.035 Q139.888 952.428 145.699 952.428 Z" fill="#000000" fill-rule="evenodd" fill-opacity="1" /><path clip-path="url(#clip440)" d="M 0 0 M162.712 981.733 L167.597 981.733 L167.597 987.613 L162.712 987.613 L162.712 981.733 Z" fill="#000000" fill-rule="evenodd" fill-opacity="1" /><path clip-path="url(#clip440)" d="M 0 0 M176.694 983.678 L193.013 983.678 L193.013 987.613 L171.069 987.613 L171.069 983.678 Q173.731 980.923 178.314 976.294 Q182.921 971.641 184.101 970.298 Q186.347 967.775 187.226 966.039 Q188.129 964.28 188.129 962.59 Q188.129 959.835 186.185 958.099 Q184.263 956.363 181.161 956.363 Q178.962 956.363 176.509 957.127 Q174.078 957.891 171.3 959.442 L171.3 954.72 Q174.124 953.585 176.578 953.007 Q179.032 952.428 181.069 952.428 Q186.439 952.428 189.634 955.113 Q192.828 957.798 192.828 962.289 Q192.828 964.419 192.018 966.34 Q191.231 968.238 189.124 970.831 Q188.546 971.502 185.444 974.72 Q182.342 977.914 176.694 983.678 Z" fill="#000000" fill-rule="evenodd" fill-opacity="1" /><path clip-path="url(#clip440)" d="M 0 0 M144.101 703.231 Q140.49 703.231 138.662 706.795 Q136.856 710.337 136.856 717.467 Q136.856 724.573 138.662 728.138 Q140.49 731.68 144.101 731.68 Q147.736 731.68 149.541 728.138 Q151.37 724.573 151.37 717.467 Q151.37 710.337 149.541 706.795 Q147.736 703.231 144.101 703.231 M144.101 699.527 Q149.912 699.527 152.967 704.133 Q156.046 708.717 156.046 717.467 Q156.046 726.193 152.967 730.8 Q149.912 735.383 144.101 735.383 Q138.291 735.383 135.213 730.8 Q132.157 726.193 132.157 717.467 Q132.157 708.717 135.213 704.133 Q138.291 699.527 144.101 699.527 Z" fill="#000000" fill-rule="evenodd" fill-opacity="1" /><path clip-path="url(#clip440)" d="M 0 0 M161.115 728.832 L165.999 728.832 L165.999 734.712 L161.115 734.712 L161.115 728.832 Z" fill="#000000" fill-rule="evenodd" fill-opacity="1" /><path clip-path="url(#clip440)" d="M 0 0 M181.069 703.231 Q177.458 703.231 175.629 706.795 Q173.823 710.337 173.823 717.467 Q173.823 724.573 175.629 728.138 Q177.458 731.68 181.069 731.68 Q184.703 731.68 186.509 728.138 Q188.337 724.573 188.337 717.467 Q188.337 710.337 186.509 706.795 Q184.703 703.231 181.069 703.231 M181.069 699.527 Q186.879 699.527 189.934 704.133 Q193.013 708.717 193.013 717.467 Q193.013 726.193 189.934 730.8 Q186.879 735.383 181.069 735.383 Q175.259 735.383 172.18 730.8 Q169.124 726.193 169.124 717.467 Q169.124 708.717 172.18 704.133 Q175.259 699.527 181.069 699.527 Z" fill="#000000" fill-rule="evenodd" fill-opacity="1" /><path clip-path="url(#clip440)" d="M 0 0 M145.699 450.33 Q142.088 450.33 140.259 453.894 Q138.453 457.436 138.453 464.566 Q138.453 471.672 140.259 475.237 Q142.088 478.778 145.699 478.778 Q149.333 478.778 151.138 475.237 Q152.967 471.672 152.967 464.566 Q152.967 457.436 151.138 453.894 Q149.333 450.33 145.699 450.33 M145.699 446.626 Q151.509 446.626 154.564 451.232 Q157.643 455.816 157.643 464.566 Q157.643 473.292 154.564 477.899 Q151.509 482.482 145.699 482.482 Q139.888 482.482 136.81 477.899 Q133.754 473.292 133.754 464.566 Q133.754 455.816 136.81 451.232 Q139.888 446.626 145.699 446.626 Z" fill="#000000" fill-rule="evenodd" fill-opacity="1" /><path clip-path="url(#clip440)" d="M 0 0 M162.712 475.931 L167.597 475.931 L167.597 481.811 L162.712 481.811 L162.712 475.931 Z" fill="#000000" fill-rule="evenodd" fill-opacity="1" /><path clip-path="url(#clip440)" d="M 0 0 M176.694 477.876 L193.013 477.876 L193.013 481.811 L171.069 481.811 L171.069 477.876 Q173.731 475.121 178.314 470.492 Q182.921 465.839 184.101 464.496 Q186.347 461.973 187.226 460.237 Q188.129 458.478 188.129 456.788 Q188.129 454.033 186.185 452.297 Q184.263 450.561 181.161 450.561 Q178.962 450.561 176.509 451.325 Q174.078 452.089 171.3 453.64 L171.3 448.918 Q174.124 447.783 176.578 447.205 Q179.032 446.626 181.069 446.626 Q186.439 446.626 189.634 449.311 Q192.828 451.996 192.828 456.487 Q192.828 458.617 192.018 460.538 Q191.231 462.436 189.124 465.029 Q188.546 465.7 185.444 468.917 Q182.342 472.112 176.694 477.876 Z" fill="#000000" fill-rule="evenodd" fill-opacity="1" /><path clip-path="url(#clip440)" d="M 0 0 M143.615 197.428 Q140.004 197.428 138.176 200.993 Q136.37 204.535 136.37 211.665 Q136.37 218.771 138.176 222.336 Q140.004 225.877 143.615 225.877 Q147.25 225.877 149.055 222.336 Q150.884 218.771 150.884 211.665 Q150.884 204.535 149.055 200.993 Q147.25 197.428 143.615 197.428 M143.615 193.725 Q149.425 193.725 152.481 198.331 Q155.56 202.915 155.56 211.665 Q155.56 220.391 152.481 224.998 Q149.425 229.581 143.615 229.581 Q137.805 229.581 134.726 224.998 Q131.671 220.391 131.671 211.665 Q131.671 202.915 134.726 198.331 Q137.805 193.725 143.615 193.725 Z" fill="#000000" fill-rule="evenodd" fill-opacity="1" /><path clip-path="url(#clip440)" d="M 0 0 M160.629 223.03 L165.513 223.03 L165.513 228.91 L160.629 228.91 L160.629 223.03 Z" fill="#000000" fill-rule="evenodd" fill-opacity="1" /><path clip-path="url(#clip440)" d="M 0 0 M183.43 198.424 L171.624 216.873 L183.43 216.873 L183.43 198.424 M182.203 194.35 L188.083 194.35 L188.083 216.873 L193.013 216.873 L193.013 220.762 L188.083 220.762 L188.083 228.91 L183.43 228.91 L183.43 220.762 L167.828 220.762 L167.828 216.248 L182.203 194.35 Z" fill="#000000" fill-rule="evenodd" fill-opacity="1" /><path clip-path="url(#clip440)" d="M 0 0 M85.1182 775.216 Q78.1296 781.979 68.1136 781.979 Q58.0653 781.979 51.1089 775.151 Q44.1524 768.324 44.1524 759.048 Q44.1524 756.729 44.6999 754.765 Q45.2152 752.768 46.278 751.19 Q47.3086 749.612 48.0171 748.807 Q48.6934 747.969 49.8206 746.842 L44.9575 743.525 Q44.1524 743.01 44.1524 742.494 Q44.1524 741.947 44.4745 741.85 Q44.7643 741.754 45.7305 741.754 L61.3825 741.754 Q62.4453 741.754 62.703 741.883 Q62.9606 742.011 62.9606 742.817 Q62.9606 743.461 62.7674 743.589 Q62.5741 743.718 61.8334 743.879 Q54.7159 744.878 50.4647 748.871 Q46.2136 752.833 46.2136 758.243 Q46.2136 759.821 46.5678 761.593 Q46.9221 763.332 48.2747 765.908 Q49.6274 768.452 51.8496 770.417 Q54.0396 772.349 58.2908 773.766 Q62.5097 775.183 68.1136 775.183 Q73.653 775.183 77.9041 773.766 Q82.1553 772.349 84.3775 770.385 Q86.5675 768.388 87.9524 765.812 Q89.3372 763.203 89.7237 761.367 Q90.078 759.499 90.078 757.857 Q90.078 756.729 89.8525 755.409 Q89.5949 754.089 88.8863 752.124 Q88.1456 750.127 86.4065 748.871 Q84.6674 747.615 82.0909 747.615 L77.8719 747.615 Q75.9074 747.615 75.2955 748.581 Q74.6836 749.548 74.6836 753.767 L74.6836 755.86 L72.6546 755.86 Q72.8478 753.477 72.8478 745.264 Q72.8478 744.523 72.6546 737.213 L74.6836 737.213 Q74.6836 740.369 75.1666 741.077 Q75.6175 741.754 77.5821 741.754 L89.0796 741.754 Q90.5932 741.754 90.5932 742.333 Q90.5932 742.849 89.1118 744.395 Q87.6303 745.908 86.5031 746.585 Q89.2728 748.163 90.6899 751.609 Q92.1069 755.023 92.1069 758.919 Q92.1069 768.42 85.1182 775.216 Z" fill="#000000" fill-rule="evenodd" fill-opacity="1" /><path clip-path="url(#clip440)" d="M 0 0 M90.6577 730.819 L88.6287 730.819 L88.6287 729.241 Q88.6287 725.667 88.049 724.861 Q87.4371 724.024 85.5047 724.024 L50.7546 724.024 Q48.8544 724.024 48.2747 724.861 Q47.6628 725.699 47.6628 729.241 L47.6628 730.819 L45.6017 730.819 Q45.7949 728.501 45.7949 721.061 Q45.7949 713.686 45.6017 711.367 L47.6628 711.367 L47.6628 712.945 Q47.6628 716.52 48.2747 717.357 Q48.8544 718.163 50.7546 718.163 L66.1812 718.163 L66.1812 698.453 L50.7546 698.453 Q48.8544 698.453 48.2747 699.29 Q47.6628 700.095 47.6628 703.67 L47.6628 705.248 L45.6017 705.248 Q45.7949 702.929 45.7949 695.49 Q45.7949 688.114 45.6017 685.796 L47.6628 685.796 L47.6628 687.374 Q47.6628 690.949 48.2747 691.786 Q48.8544 692.591 50.7546 692.591 L85.5047 692.591 Q87.4049 692.591 88.0168 691.754 Q88.6287 690.916 88.6287 687.374 L88.6287 685.796 L90.6577 685.796 Q90.4644 688.114 90.4644 695.554 Q90.4644 702.929 90.6577 705.248 L88.6287 705.248 L88.6287 703.67 Q88.6287 700.095 88.049 699.29 Q87.4371 698.453 85.5047 698.453 L68.2424 698.453 L68.2424 718.163 L85.5047 718.163 Q87.4049 718.163 88.0168 717.357 Q88.6287 716.52 88.6287 712.945 L88.6287 711.367 L90.6577 711.367 Q90.4644 713.686 90.4644 721.126 Q90.4644 728.501 90.6577 730.819 Z" fill="#000000" fill-rule="evenodd" fill-opacity="1" /><path clip-path="url(#clip440)" d="M 0 0 M89.7237 681.859 Q89.2728 681.859 88.5321 681.248 L63.6691 662.858 L63.6691 670.362 Q63.6691 675.579 65.6015 677.286 Q67.5016 678.961 72.8478 679.283 L72.8478 680.925 L62.2199 680.185 L62.2199 659.09 Q62.2199 658.349 62.2521 658.059 Q62.2843 657.769 62.5097 657.576 Q62.703 657.383 63.0894 657.383 Q63.4759 657.383 64.2166 657.963 L89.0152 676.32 L89.0152 668.526 Q89.0152 663.051 86.7285 661.216 Q84.4419 659.348 78.3228 658.897 L78.3228 657.254 L90.6577 658.381 L90.6577 680.12 Q90.6577 681.183 90.5288 681.537 Q90.3678 681.859 89.7237 681.859 Z" fill="#000000" fill-rule="evenodd" fill-opacity="1" /><polyline clip-path="url(#clip442)" style="stroke:#009af9; stroke-width:8; stroke-opacity:1; fill:none" points="
  285.003,1349.68 304.146,1343.39 323.289,1337.17 342.433,1331.01 361.576,1324.92 380.719,1318.9 399.862,1312.96 419.006,1307.09 438.149,1301.3 457.292,1295.59 
  476.435,1289.96 495.578,1284.42 514.722,1278.96 533.865,1273.6 553.008,1268.33 572.151,1263.15 591.295,1258.07 610.438,1253.1 629.581,1248.22 648.724,1243.46 
  667.868,1238.8 687.011,1234.26 706.154,1229.83 725.297,1225.52 744.44,1221.33 763.584,1217.27 782.727,1213.34 801.87,1209.53 821.013,1205.87 840.157,1202.33 
  859.3,1198.94 878.443,1195.69 897.586,1192.59 916.73,1189.64 935.873,1186.83 955.016,1184.19 974.159,1181.7 993.303,1179.37 1012.45,1177.2 1031.59,1175.19 
  1050.73,1173.36 1069.88,1171.69 1089.02,1170.19 1108.16,1168.86 1127.31,1167.71 1146.45,1166.73 1165.59,1165.93 1184.73,1165.31 1203.88,1164.86 1223.02,1164.59 
  1242.16,1164.5 1261.31,1164.59 1280.45,1164.86 1299.59,1165.31 1318.74,1165.93 1337.88,1166.73 1357.02,1167.71 1376.17,1168.86 1395.31,1170.19 1414.45,1171.69 
  1433.6,1173.36 1452.74,1175.19 1471.88,1177.2 1491.03,1179.37 1510.17,1181.7 1529.31,1184.19 1548.46,1186.83 1567.6,1189.64 1586.74,1192.59 1605.89,1195.69 
  1625.03,1198.94 1644.17,1202.33 1663.32,1205.87 1682.46,1209.53 1701.6,1213.34 1720.75,1217.27 1739.89,1221.33 1759.03,1225.52 1778.18,1229.83 1797.32,1234.26 
  1816.46,1238.8 1835.6,1243.46 1854.75,1248.22 1873.89,1253.1 1893.03,1258.07 1912.18,1263.15 1931.32,1268.33 1950.46,1273.6 1969.61,1278.96 1988.75,1284.42 
  2007.89,1289.96 2027.04,1295.59 2046.18,1301.3 2065.32,1307.09 2084.47,1312.96 2103.61,1318.9 2122.75,1324.92 2141.9,1331.01 2161.04,1337.17 2180.18,1343.39 
  2199.33,1349.68 
  "/>
<polyline clip-path="url(#clip442)" style="stroke:#e26f46; stroke-width:8; stroke-opacity:1; fill:none" points="
  285.003,85.1793 304.146,91.4699 323.289,97.6953 342.433,103.854 361.576,109.943 380.719,115.961 399.862,121.905 419.006,127.774 438.149,133.564 457.292,139.275 
  476.435,144.903 495.578,150.445 514.722,155.9 533.865,161.265 553.008,166.537 572.151,171.713 591.295,176.791 610.438,181.768 629.581,186.641 648.724,191.407 
  667.868,196.063 687.011,200.606 706.154,205.034 725.297,209.343 744.44,213.53 763.584,217.592 782.727,221.527 801.87,225.33 821.013,228.999 840.157,232.531 
  859.3,235.923 878.443,239.171 897.586,242.274 916.73,245.228 935.873,248.03 955.016,250.677 974.159,253.167 993.303,255.498 1012.45,257.666 1031.59,259.671 
  1050.73,261.508 1069.88,263.177 1089.02,264.675 1108.16,266.002 1127.31,267.154 1146.45,268.132 1165.59,268.933 1184.73,269.558 1203.88,270.004 1223.02,270.272 
  1242.16,270.362 1261.31,270.272 1280.45,270.004 1299.59,269.558 1318.74,268.933 1337.88,268.132 1357.02,267.154 1376.17,266.002 1395.31,264.675 1414.45,263.177 
  1433.6,261.508 1452.74,259.671 1471.88,257.666 1491.03,255.498 1510.17,253.167 1529.31,250.677 1548.46,248.03 1567.6,245.228 1586.74,242.274 1605.89,239.171 
  1625.03,235.923 1644.17,232.531 1663.32,228.999 1682.46,225.33 1701.6,221.527 1720.75,217.592 1739.89,213.53 1759.03,209.343 1778.18,205.034 1797.32,200.606 
  1816.46,196.063 1835.6,191.407 1854.75,186.641 1873.89,181.768 1893.03,176.791 1912.18,171.713 1931.32,166.537 1950.46,161.265 1969.61,155.9 1988.75,150.445 
  2007.89,144.903 2027.04,139.275 2046.18,133.564 2065.32,127.774 2084.47,121.905 2103.61,115.961 2122.75,109.943 2141.9,103.854 2161.04,97.6953 2180.18,91.4699 
  2199.33,85.1793 
  "/>
<path clip-path="url(#clip440)" d="
M1902.23 273.363 L2189.12 273.363 L2189.12 91.9233 L1902.23 91.9233  Z
  " fill="#ffffff" fill-rule="evenodd" fill-opacity="1"/>
<polyline clip-path="url(#clip440)" style="stroke:#000000; stroke-width:4; stroke-opacity:1; fill:none" points="
  1902.23,273.363 2189.12,273.363 2189.12,91.9233 1902.23,91.9233 1902.23,273.363 
  "/>
<polyline clip-path="url(#clip440)" style="stroke:#009af9; stroke-width:4; stroke-opacity:1; fill:none" points="
  1924.78,152.403 2060.06,152.403 
  "/>
<path clip-path="url(#clip440)" d="M 0 0 M2117.39 130.505 L2116.43 138.796 Q2116.36 139.546 2116.24 139.78 Q2116.12 139.991 2115.75 139.991 Q2115.47 139.991 2115.3 139.827 Q2115.16 139.639 2115.16 139.429 Q2115.16 139.311 2115.19 139.007 Q2115.21 138.702 2115.21 138.562 Q2115.42 137.11 2115.42 136.009 Q2115.42 133.971 2114.81 132.87 Q2114.2 131.746 2112.63 131.231 Q2111.06 130.692 2108.11 130.692 L2101.37 130.692 Q2099.82 130.692 2099.45 130.973 Q2099.1 131.254 2098.77 132.566 L2095.89 144.113 L2100.41 144.113 Q2102.09 144.113 2103.1 143.902 Q2104.13 143.691 2104.81 143.106 Q2105.51 142.497 2105.89 141.677 Q2106.29 140.857 2106.68 139.382 Q2106.8 138.89 2106.92 138.702 Q2107.06 138.515 2107.36 138.515 Q2107.6 138.515 2107.76 138.679 Q2107.93 138.82 2107.93 139.03 L2105.19 150.25 Q2105.05 150.812 2104.9 151.023 Q2104.76 151.21 2104.48 151.21 Q2104.18 151.21 2104.01 151.046 Q2103.85 150.882 2103.85 150.695 Q2103.85 150.507 2103.99 150.156 Q2104.34 148.634 2104.34 147.814 Q2104.34 147.345 2104.3 147.111 Q2104.27 146.877 2104.06 146.549 Q2103.87 146.198 2103.45 146.034 Q2103.03 145.87 2102.23 145.753 Q2101.44 145.612 2100.24 145.612 L2095.51 145.612 L2092.23 158.705 Q2092 159.572 2092 159.806 Q2092 160.064 2092.12 160.157 Q2092.26 160.228 2092.63 160.275 Q2093.05 160.345 2093.69 160.345 L2100.69 160.345 Q2102.23 160.345 2103.48 160.204 Q2104.72 160.064 2105.75 159.712 Q2106.8 159.361 2107.6 158.963 Q2108.39 158.565 2109.14 157.839 Q2109.89 157.089 2110.41 156.433 Q2110.95 155.754 2111.58 154.606 Q2112.21 153.459 2112.66 152.522 Q2113.1 151.561 2113.78 150.016 Q2113.97 149.453 2114.41 149.453 Q2114.67 149.453 2114.81 149.594 Q2114.95 149.711 2114.98 149.828 L2114.98 149.969 Q2114.84 150.414 2114.74 150.648 L2110.34 161.001 Q2110.08 161.586 2109.87 161.703 Q2109.66 161.82 2108.84 161.82 L2083.94 161.82 Q2083.38 161.82 2083.15 161.797 Q2082.93 161.774 2082.77 161.656 Q2082.61 161.516 2082.61 161.235 Q2082.61 160.79 2082.79 160.602 Q2082.98 160.392 2083.19 160.368 Q2083.4 160.345 2083.94 160.345 Q2085.11 160.345 2085.82 160.275 Q2086.52 160.204 2086.96 160.111 Q2087.43 159.993 2087.67 159.666 Q2087.92 159.338 2088.04 159.057 Q2088.16 158.752 2088.32 158.073 L2094.65 132.706 Q2094.88 131.84 2094.88 131.559 Q2094.88 131.254 2094.67 131.067 Q2094.48 130.879 2093.97 130.809 Q2093.45 130.715 2093.03 130.715 Q2092.63 130.692 2091.76 130.692 Q2091.2 130.692 2090.97 130.669 Q2090.76 130.645 2090.59 130.528 Q2090.43 130.411 2090.43 130.153 Q2090.43 129.497 2090.71 129.357 Q2091.02 129.193 2091.86 129.193 L2116.08 129.193 Q2117.04 129.193 2117.25 129.404 Q2117.48 129.591 2117.39 130.505 Z" fill="#000000" fill-rule="evenodd" fill-opacity="1" /><path clip-path="url(#clip440)" d="M 0 0 M2122.27 155.815 L2122.27 154.765 Q2126.3 154.765 2128.39 152.617 Q2128.96 152.617 2129.06 152.749 Q2129.16 152.88 2129.16 153.486 L2129.16 172.325 Q2129.16 173.325 2129.65 173.637 Q2130.14 173.948 2132.29 173.948 L2133.36 173.948 L2133.36 174.981 Q2132.17 174.883 2127.91 174.883 Q2123.65 174.883 2122.48 174.981 L2122.48 173.948 L2123.55 173.948 Q2125.67 173.948 2126.17 173.653 Q2126.68 173.342 2126.68 172.325 L2126.68 154.929 Q2124.93 155.815 2122.27 155.815 Z" fill="#000000" fill-rule="evenodd" fill-opacity="1" /><polyline clip-path="url(#clip440)" style="stroke:#e26f46; stroke-width:4; stroke-opacity:1; fill:none" points="
  1924.78,212.883 2060.06,212.883 
  "/>
<path clip-path="url(#clip440)" d="M 0 0 M2117.39 190.985 L2116.43 199.276 Q2116.36 200.026 2116.24 200.26 Q2116.12 200.471 2115.75 200.471 Q2115.47 200.471 2115.3 200.307 Q2115.16 200.119 2115.16 199.909 Q2115.16 199.791 2115.19 199.487 Q2115.21 199.182 2115.21 199.042 Q2115.42 197.59 2115.42 196.489 Q2115.42 194.451 2114.81 193.35 Q2114.2 192.226 2112.63 191.711 Q2111.06 191.172 2108.11 191.172 L2101.37 191.172 Q2099.82 191.172 2099.45 191.453 Q2099.1 191.734 2098.77 193.046 L2095.89 204.593 L2100.41 204.593 Q2102.09 204.593 2103.1 204.382 Q2104.13 204.171 2104.81 203.586 Q2105.51 202.977 2105.89 202.157 Q2106.29 201.337 2106.68 199.862 Q2106.8 199.37 2106.92 199.182 Q2107.06 198.995 2107.36 198.995 Q2107.6 198.995 2107.76 199.159 Q2107.93 199.3 2107.93 199.51 L2105.19 210.73 Q2105.05 211.292 2104.9 211.503 Q2104.76 211.69 2104.48 211.69 Q2104.18 211.69 2104.01 211.526 Q2103.85 211.362 2103.85 211.175 Q2103.85 210.987 2103.99 210.636 Q2104.34 209.114 2104.34 208.294 Q2104.34 207.825 2104.3 207.591 Q2104.27 207.357 2104.06 207.029 Q2103.87 206.678 2103.45 206.514 Q2103.03 206.35 2102.23 206.233 Q2101.44 206.092 2100.24 206.092 L2095.51 206.092 L2092.23 219.185 Q2092 220.052 2092 220.286 Q2092 220.544 2092.12 220.637 Q2092.26 220.708 2092.63 220.755 Q2093.05 220.825 2093.69 220.825 L2100.69 220.825 Q2102.23 220.825 2103.48 220.684 Q2104.72 220.544 2105.75 220.192 Q2106.8 219.841 2107.6 219.443 Q2108.39 219.045 2109.14 218.319 Q2109.89 217.569 2110.41 216.913 Q2110.95 216.234 2111.58 215.086 Q2112.21 213.939 2112.66 213.002 Q2113.1 212.041 2113.78 210.496 Q2113.97 209.933 2114.41 209.933 Q2114.67 209.933 2114.81 210.074 Q2114.95 210.191 2114.98 210.308 L2114.98 210.449 Q2114.84 210.894 2114.74 211.128 L2110.34 221.481 Q2110.08 222.066 2109.87 222.183 Q2109.66 222.3 2108.84 222.3 L2083.94 222.3 Q2083.38 222.3 2083.15 222.277 Q2082.93 222.254 2082.77 222.136 Q2082.61 221.996 2082.61 221.715 Q2082.61 221.27 2082.79 221.082 Q2082.98 220.872 2083.19 220.848 Q2083.4 220.825 2083.94 220.825 Q2085.11 220.825 2085.82 220.755 Q2086.52 220.684 2086.96 220.591 Q2087.43 220.473 2087.67 220.146 Q2087.92 219.818 2088.04 219.537 Q2088.16 219.232 2088.32 218.553 L2094.65 193.186 Q2094.88 192.32 2094.88 192.039 Q2094.88 191.734 2094.67 191.547 Q2094.48 191.359 2093.97 191.289 Q2093.45 191.195 2093.03 191.195 Q2092.63 191.172 2091.76 191.172 Q2091.2 191.172 2090.97 191.149 Q2090.76 191.125 2090.59 191.008 Q2090.43 190.891 2090.43 190.633 Q2090.43 189.977 2090.71 189.837 Q2091.02 189.673 2091.86 189.673 L2116.08 189.673 Q2117.04 189.673 2117.25 189.884 Q2117.48 190.071 2117.39 190.985 Z" fill="#000000" fill-rule="evenodd" fill-opacity="1" /><path clip-path="url(#clip440)" d="M 0 0 M2122.27 235.461 Q2122.27 234.854 2122.32 234.674 Q2122.39 234.494 2122.65 234.215 L2129.09 227.034 Q2132.62 223.066 2132.62 219.606 Q2132.62 217.36 2131.44 215.753 Q2130.27 214.147 2128.12 214.147 Q2126.65 214.147 2125.4 215.048 Q2124.16 215.95 2123.58 217.557 Q2123.68 217.524 2124.03 217.524 Q2124.86 217.524 2125.32 218.049 Q2125.8 218.574 2125.8 219.279 Q2125.8 220.18 2125.21 220.623 Q2124.63 221.049 2124.06 221.049 Q2123.83 221.049 2123.52 221 Q2123.22 220.951 2122.75 220.492 Q2122.27 220.016 2122.27 219.18 Q2122.27 216.836 2124.04 214.966 Q2125.83 213.097 2128.55 213.097 Q2131.63 213.097 2133.65 214.934 Q2135.68 216.754 2135.68 219.606 Q2135.68 220.607 2135.37 221.525 Q2135.08 222.427 2134.67 223.132 Q2134.27 223.837 2133.19 224.968 Q2132.11 226.099 2131.24 226.903 Q2130.37 227.706 2128.42 229.411 L2124.86 232.871 L2130.91 232.871 Q2133.86 232.871 2134.09 232.608 Q2134.42 232.133 2134.83 229.624 L2135.68 229.624 L2134.73 235.461 L2122.27 235.461 Z" fill="#000000" fill-rule="evenodd" fill-opacity="1" /></svg>
