<?xml version="1.0" encoding="utf-8"?>
<svg xmlns="http://www.w3.org/2000/svg" xmlns:xlink="http://www.w3.org/1999/xlink" width="576" height="384" viewBox="0 0 2304 1536">
<defs>
  <clipPath id="clip560">
    <rect x="0" y="0" width="2304" height="1536"/>
  </clipPath>
</defs>
<path clip-path="url(#clip560)" d="
M0 1536 L2304 1536 L2304 0 L0 0  Z
  " fill="#ffffff" fill-rule="evenodd" fill-opacity="1"/>
<defs>
  <clipPath id="clip561">
    <rect x="460" y="0" width="1614" height="1536"/>
  </clipPath>
</defs>
<defs>
  <clipPath id="clip562">
    <rect x="289" y="47" width="1968" height="1314"/>
  </clipPath>
</defs>
<path clip-path="url(#clip560)" d="
M262.495 1359.82 L2256.76 1359.82 L2256.76 47.2441 L262.495 47.2441  Z
  " fill="#ffffff" fill-rule="evenodd" fill-opacity="1"/>
<defs>
  <clipPath id="clip563">
    <rect x="262" y="47" width="1995" height="1314"/>
  </clipPath>
</defs>
<polyline clip-path="url(#clip563)" style="stroke:#000000; stroke-width:2; stroke-opacity:0.1; fill:none" points="
  318.937,1359.82 318.937,47.2441 
  "/>
<polyline clip-path="url(#clip563)" style="stroke:#000000; stroke-width:2; stroke-opacity:0.1; fill:none" points="
  651.571,1359.82 651.571,47.2441 
  "/>
<polyline clip-path="url(#clip563)" style="stroke:#000000; stroke-width:2; stroke-opacity:0.1; fill:none" points="
  984.205,1359.82 984.205,47.2441 
  "/>
<polyline clip-path="url(#clip563)" style="stroke:#000000; stroke-width:2; stroke-opacity:0.1; fill:none" points="
  1316.84,1359.82 1316.84,47.2441 
  "/>
<polyline clip-path="url(#clip563)" style="stroke:#000000; stroke-width:2; stroke-opacity:0.1; fill:none" points="
  1649.47,1359.82 1649.47,47.2441 
  "/>
<polyline clip-path="url(#clip563)" style="stroke:#000000; stroke-width:2; stroke-opacity:0.1; fill:none" points="
  1982.11,1359.82 1982.11,47.2441 
  "/>
<polyline clip-path="url(#clip560)" style="stroke:#000000; stroke-width:4; stroke-opacity:1; fill:none" points="
  262.495,1359.82 2256.76,1359.82 
  "/>
<polyline clip-path="url(#clip560)" style="stroke:#000000; stroke-width:4; stroke-opacity:1; fill:none" points="
  318.937,1359.82 318.937,1344.07 
  "/>
<polyline clip-path="url(#clip560)" style="stroke:#000000; stroke-width:4; stroke-opacity:1; fill:none" points="
  651.571,1359.82 651.571,1344.07 
  "/>
<polyline clip-path="url(#clip560)" style="stroke:#000000; stroke-width:4; stroke-opacity:1; fill:none" points="
  984.205,1359.82 984.205,1344.07 
  "/>
<polyline clip-path="url(#clip560)" style="stroke:#000000; stroke-width:4; stroke-opacity:1; fill:none" points="
  1316.84,1359.82 1316.84,1344.07 
  "/>
<polyline clip-path="url(#clip560)" style="stroke:#000000; stroke-width:4; stroke-opacity:1; fill:none" points="
  1649.47,1359.82 1649.47,1344.07 
  "/>
<polyline clip-path="url(#clip560)" style="stroke:#000000; stroke-width:4; stroke-opacity:1; fill:none" points="
  1982.11,1359.82 1982.11,1344.07 
  "/>
<path clip-path="url(#clip560)" d="M 0 0 M300.453 1388.24 Q296.842 1388.24 295.013 1391.81 Q293.208 1395.35 293.208 1402.48 Q293.208 1409.59 295.013 1413.15 Q296.842 1416.69 300.453 1416.69 Q304.087 1416.69 305.893 1413.15 Q307.721 1409.59 307.721 1402.48 Q307.721 1395.35 305.893 1391.81 Q304.087 1388.24 300.453 1388.24 M300.453 1384.54 Q306.263 1384.54 309.319 1389.15 Q312.397 1393.73 312.397 1402.48 Q312.397 1411.21 309.319 1415.81 Q306.263 1420.4 300.453 1420.4 Q294.643 1420.4 291.564 1415.81 Q288.508 1411.21 288.508 1402.48 Q288.508 1393.73 291.564 1389.15 Q294.643 1384.54 300.453 1384.54 Z" fill="#000000" fill-rule="evenodd" fill-opacity="1" /><path clip-path="url(#clip560)" d="M 0 0 M317.467 1413.84 L322.351 1413.84 L322.351 1419.72 L317.467 1419.72 L317.467 1413.84 Z" fill="#000000" fill-rule="evenodd" fill-opacity="1" /><path clip-path="url(#clip560)" d="M 0 0 M337.42 1388.24 Q333.809 1388.24 331.98 1391.81 Q330.175 1395.35 330.175 1402.48 Q330.175 1409.59 331.98 1413.15 Q333.809 1416.69 337.42 1416.69 Q341.055 1416.69 342.86 1413.15 Q344.689 1409.59 344.689 1402.48 Q344.689 1395.35 342.86 1391.81 Q341.055 1388.24 337.42 1388.24 M337.42 1384.54 Q343.23 1384.54 346.286 1389.15 Q349.365 1393.73 349.365 1402.48 Q349.365 1411.21 346.286 1415.81 Q343.23 1420.4 337.42 1420.4 Q331.61 1420.4 328.531 1415.81 Q325.476 1411.21 325.476 1402.48 Q325.476 1393.73 328.531 1389.15 Q331.61 1384.54 337.42 1384.54 Z" fill="#000000" fill-rule="evenodd" fill-opacity="1" /><path clip-path="url(#clip560)" d="M 0 0 M628.237 1415.79 L644.557 1415.79 L644.557 1419.72 L622.612 1419.72 L622.612 1415.79 Q625.274 1413.03 629.858 1408.4 Q634.464 1403.75 635.645 1402.41 Q637.89 1399.89 638.77 1398.15 Q639.673 1396.39 639.673 1394.7 Q639.673 1391.95 637.728 1390.21 Q635.807 1388.47 632.705 1388.47 Q630.506 1388.47 628.052 1389.24 Q625.622 1390 622.844 1391.55 L622.844 1386.83 Q625.668 1385.7 628.122 1385.12 Q630.575 1384.54 632.612 1384.54 Q637.983 1384.54 641.177 1387.22 Q644.372 1389.91 644.372 1394.4 Q644.372 1396.53 643.561 1398.45 Q642.774 1400.35 640.668 1402.94 Q640.089 1403.61 636.987 1406.83 Q633.885 1410.02 628.237 1415.79 Z" fill="#000000" fill-rule="evenodd" fill-opacity="1" /><path clip-path="url(#clip560)" d="M 0 0 M649.626 1413.84 L654.51 1413.84 L654.51 1419.72 L649.626 1419.72 L649.626 1413.84 Z" fill="#000000" fill-rule="evenodd" fill-opacity="1" /><path clip-path="url(#clip560)" d="M 0 0 M659.626 1385.16 L677.982 1385.16 L677.982 1389.1 L663.908 1389.1 L663.908 1397.57 Q664.927 1397.22 665.946 1397.06 Q666.964 1396.88 667.983 1396.88 Q673.77 1396.88 677.149 1400.05 Q680.529 1403.22 680.529 1408.64 Q680.529 1414.21 677.057 1417.32 Q673.584 1420.4 667.265 1420.4 Q665.089 1420.4 662.821 1420.02 Q660.575 1419.65 658.168 1418.91 L658.168 1414.21 Q660.251 1415.35 662.473 1415.9 Q664.696 1416.46 667.172 1416.46 Q671.177 1416.46 673.515 1414.35 Q675.853 1412.25 675.853 1408.64 Q675.853 1405.02 673.515 1402.92 Q671.177 1400.81 667.172 1400.81 Q665.297 1400.81 663.422 1401.23 Q661.571 1401.65 659.626 1402.52 L659.626 1385.16 Z" fill="#000000" fill-rule="evenodd" fill-opacity="1" /><path clip-path="url(#clip560)" d="M 0 0 M955.999 1385.16 L974.355 1385.16 L974.355 1389.1 L960.281 1389.1 L960.281 1397.57 Q961.3 1397.22 962.318 1397.06 Q963.337 1396.88 964.355 1396.88 Q970.142 1396.88 973.522 1400.05 Q976.901 1403.22 976.901 1408.64 Q976.901 1414.21 973.429 1417.32 Q969.957 1420.4 963.638 1420.4 Q961.462 1420.4 959.193 1420.02 Q956.948 1419.65 954.54 1418.91 L954.54 1414.21 Q956.624 1415.35 958.846 1415.9 Q961.068 1416.46 963.545 1416.46 Q967.55 1416.46 969.888 1414.35 Q972.226 1412.25 972.226 1408.64 Q972.226 1405.02 969.888 1402.92 Q967.55 1400.81 963.545 1400.81 Q961.67 1400.81 959.795 1401.23 Q957.943 1401.65 955.999 1402.52 L955.999 1385.16 Z" fill="#000000" fill-rule="evenodd" fill-opacity="1" /><path clip-path="url(#clip560)" d="M 0 0 M981.971 1413.84 L986.855 1413.84 L986.855 1419.72 L981.971 1419.72 L981.971 1413.84 Z" fill="#000000" fill-rule="evenodd" fill-opacity="1" /><path clip-path="url(#clip560)" d="M 0 0 M1001.92 1388.24 Q998.313 1388.24 996.485 1391.81 Q994.679 1395.35 994.679 1402.48 Q994.679 1409.59 996.485 1413.15 Q998.313 1416.69 1001.92 1416.69 Q1005.56 1416.69 1007.36 1413.15 Q1009.19 1409.59 1009.19 1402.48 Q1009.19 1395.35 1007.36 1391.81 Q1005.56 1388.24 1001.92 1388.24 M1001.92 1384.54 Q1007.73 1384.54 1010.79 1389.15 Q1013.87 1393.73 1013.87 1402.48 Q1013.87 1411.21 1010.79 1415.81 Q1007.73 1420.4 1001.92 1420.4 Q996.114 1420.4 993.036 1415.81 Q989.98 1411.21 989.98 1402.48 Q989.98 1393.73 993.036 1389.15 Q996.114 1384.54 1001.92 1384.54 Z" fill="#000000" fill-rule="evenodd" fill-opacity="1" /><path clip-path="url(#clip560)" d="M 0 0 M1287.74 1385.16 L1309.96 1385.16 L1309.96 1387.15 L1297.42 1419.72 L1292.53 1419.72 L1304.34 1389.1 L1287.74 1389.1 L1287.74 1385.16 Z" fill="#000000" fill-rule="evenodd" fill-opacity="1" /><path clip-path="url(#clip560)" d="M 0 0 M1315.03 1413.84 L1319.92 1413.84 L1319.92 1419.72 L1315.03 1419.72 L1315.03 1413.84 Z" fill="#000000" fill-rule="evenodd" fill-opacity="1" /><path clip-path="url(#clip560)" d="M 0 0 M1325.03 1385.16 L1343.39 1385.16 L1343.39 1389.1 L1329.32 1389.1 L1329.32 1397.57 Q1330.33 1397.22 1331.35 1397.06 Q1332.37 1396.88 1333.39 1396.88 Q1339.18 1396.88 1342.56 1400.05 Q1345.94 1403.22 1345.94 1408.64 Q1345.94 1414.21 1342.46 1417.32 Q1338.99 1420.4 1332.67 1420.4 Q1330.5 1420.4 1328.23 1420.02 Q1325.98 1419.65 1323.57 1418.91 L1323.57 1414.21 Q1325.66 1415.35 1327.88 1415.9 Q1330.1 1416.46 1332.58 1416.46 Q1336.58 1416.46 1338.92 1414.35 Q1341.26 1412.25 1341.26 1408.64 Q1341.26 1405.02 1338.92 1402.92 Q1336.58 1400.81 1332.58 1400.81 Q1330.7 1400.81 1328.83 1401.23 Q1326.98 1401.65 1325.03 1402.52 L1325.03 1385.16 Z" fill="#000000" fill-rule="evenodd" fill-opacity="1" /><path clip-path="url(#clip560)" d="M 0 0 M1607.86 1415.79 L1615.5 1415.79 L1615.5 1389.42 L1607.19 1391.09 L1607.19 1386.83 L1615.46 1385.16 L1620.13 1385.16 L1620.13 1415.79 L1627.77 1415.79 L1627.77 1419.72 L1607.86 1419.72 L1607.86 1415.79 Z" fill="#000000" fill-rule="evenodd" fill-opacity="1" /><path clip-path="url(#clip560)" d="M 0 0 M1642.84 1388.24 Q1639.23 1388.24 1637.4 1391.81 Q1635.6 1395.35 1635.6 1402.48 Q1635.6 1409.59 1637.4 1413.15 Q1639.23 1416.69 1642.84 1416.69 Q1646.47 1416.69 1648.28 1413.15 Q1650.11 1409.59 1650.11 1402.48 Q1650.11 1395.35 1648.28 1391.81 Q1646.47 1388.24 1642.84 1388.24 M1642.84 1384.54 Q1648.65 1384.54 1651.71 1389.15 Q1654.79 1393.73 1654.79 1402.48 Q1654.79 1411.21 1651.71 1415.81 Q1648.65 1420.4 1642.84 1420.4 Q1637.03 1420.4 1633.95 1415.81 Q1630.9 1411.21 1630.9 1402.48 Q1630.9 1393.73 1633.95 1389.15 Q1637.03 1384.54 1642.84 1384.54 Z" fill="#000000" fill-rule="evenodd" fill-opacity="1" /><path clip-path="url(#clip560)" d="M 0 0 M1659.85 1413.84 L1664.74 1413.84 L1664.74 1419.72 L1659.85 1419.72 L1659.85 1413.84 Z" fill="#000000" fill-rule="evenodd" fill-opacity="1" /><path clip-path="url(#clip560)" d="M 0 0 M1679.81 1388.24 Q1676.2 1388.24 1674.37 1391.81 Q1672.56 1395.35 1672.56 1402.48 Q1672.56 1409.59 1674.37 1413.15 Q1676.2 1416.69 1679.81 1416.69 Q1683.44 1416.69 1685.25 1413.15 Q1687.08 1409.59 1687.08 1402.48 Q1687.08 1395.35 1685.25 1391.81 Q1683.44 1388.24 1679.81 1388.24 M1679.81 1384.54 Q1685.62 1384.54 1688.67 1389.15 Q1691.75 1393.73 1691.75 1402.48 Q1691.75 1411.21 1688.67 1415.81 Q1685.62 1420.4 1679.81 1420.4 Q1674 1420.4 1670.92 1415.81 Q1667.86 1411.21 1667.86 1402.48 Q1667.86 1393.73 1670.92 1389.15 Q1674 1384.54 1679.81 1384.54 Z" fill="#000000" fill-rule="evenodd" fill-opacity="1" /><path clip-path="url(#clip560)" d="M 0 0 M1941.79 1415.79 L1949.43 1415.79 L1949.43 1389.42 L1941.12 1391.09 L1941.12 1386.83 L1949.39 1385.16 L1954.06 1385.16 L1954.06 1415.79 L1961.7 1415.79 L1961.7 1419.72 L1941.79 1419.72 L1941.79 1415.79 Z" fill="#000000" fill-rule="evenodd" fill-opacity="1" /><path clip-path="url(#clip560)" d="M 0 0 M1970.8 1415.79 L1987.12 1415.79 L1987.12 1419.72 L1965.17 1419.72 L1965.17 1415.79 Q1967.84 1413.03 1972.42 1408.4 Q1977.03 1403.75 1978.21 1402.41 Q1980.45 1399.89 1981.33 1398.15 Q1982.23 1396.39 1982.23 1394.7 Q1982.23 1391.95 1980.29 1390.21 Q1978.37 1388.47 1975.27 1388.47 Q1973.07 1388.47 1970.61 1389.24 Q1968.18 1390 1965.41 1391.55 L1965.41 1386.83 Q1968.23 1385.7 1970.68 1385.12 Q1973.14 1384.54 1975.17 1384.54 Q1980.54 1384.54 1983.74 1387.22 Q1986.93 1389.91 1986.93 1394.4 Q1986.93 1396.53 1986.12 1398.45 Q1985.34 1400.35 1983.23 1402.94 Q1982.65 1403.61 1979.55 1406.83 Q1976.45 1410.02 1970.8 1415.79 Z" fill="#000000" fill-rule="evenodd" fill-opacity="1" /><path clip-path="url(#clip560)" d="M 0 0 M1992.19 1413.84 L1997.07 1413.84 L1997.07 1419.72 L1992.19 1419.72 L1992.19 1413.84 Z" fill="#000000" fill-rule="evenodd" fill-opacity="1" /><path clip-path="url(#clip560)" d="M 0 0 M2002.19 1385.16 L2020.54 1385.16 L2020.54 1389.1 L2006.47 1389.1 L2006.47 1397.57 Q2007.49 1397.22 2008.51 1397.06 Q2009.53 1396.88 2010.54 1396.88 Q2016.33 1396.88 2019.71 1400.05 Q2023.09 1403.22 2023.09 1408.64 Q2023.09 1414.21 2019.62 1417.32 Q2016.15 1420.4 2009.83 1420.4 Q2007.65 1420.4 2005.38 1420.02 Q2003.14 1419.65 2000.73 1418.91 L2000.73 1414.21 Q2002.81 1415.35 2005.03 1415.9 Q2007.26 1416.46 2009.73 1416.46 Q2013.74 1416.46 2016.08 1414.35 Q2018.41 1412.25 2018.41 1408.64 Q2018.41 1405.02 2016.08 1402.92 Q2013.74 1400.81 2009.73 1400.81 Q2007.86 1400.81 2005.98 1401.23 Q2004.13 1401.65 2002.19 1402.52 L2002.19 1385.16 Z" fill="#000000" fill-rule="evenodd" fill-opacity="1" /><path clip-path="url(#clip560)" d="M 0 0 M1195.03 1445.95 L1195.03 1456.08 L1207.09 1456.08 L1207.09 1460.63 L1195.03 1460.63 L1195.03 1479.98 Q1195.03 1484.34 1196.21 1485.58 Q1197.42 1486.82 1201.08 1486.82 L1207.09 1486.82 L1207.09 1491.72 L1201.08 1491.72 Q1194.3 1491.72 1191.72 1489.21 Q1189.14 1486.66 1189.14 1479.98 L1189.14 1460.63 L1184.84 1460.63 L1184.84 1456.08 L1189.14 1456.08 L1189.14 1445.95 L1195.03 1445.95 Z" fill="#000000" fill-rule="evenodd" fill-opacity="1" /><path clip-path="url(#clip560)" d="M 0 0 M1248.02 1442.26 Q1243.76 1449.58 1241.69 1456.74 Q1239.62 1463.91 1239.62 1471.26 Q1239.62 1478.61 1241.69 1485.84 Q1243.79 1493.03 1248.02 1500.32 L1242.93 1500.32 Q1238.16 1492.84 1235.77 1485.61 Q1233.41 1478.39 1233.41 1471.26 Q1233.41 1464.16 1235.77 1456.97 Q1238.13 1449.77 1242.93 1442.26 L1248.02 1442.26 Z" fill="#000000" fill-rule="evenodd" fill-opacity="1" /><path clip-path="url(#clip560)" d="M 0 0 M1283.8 1470.21 L1283.8 1491.72 L1277.94 1491.72 L1277.94 1470.4 Q1277.94 1465.34 1275.97 1462.82 Q1274 1460.31 1270.05 1460.31 Q1265.31 1460.31 1262.57 1463.33 Q1259.83 1466.36 1259.83 1471.58 L1259.83 1491.72 L1253.94 1491.72 L1253.94 1456.08 L1259.83 1456.08 L1259.83 1461.61 Q1261.93 1458.4 1264.77 1456.81 Q1267.63 1455.22 1271.35 1455.22 Q1277.5 1455.22 1280.65 1459.04 Q1283.8 1462.82 1283.8 1470.21 Z" fill="#000000" fill-rule="evenodd" fill-opacity="1" /><path clip-path="url(#clip560)" d="M 0 0 M1312.67 1457.13 L1312.67 1462.66 Q1310.19 1461.39 1307.51 1460.75 Q1304.84 1460.12 1301.97 1460.12 Q1297.61 1460.12 1295.42 1461.45 Q1293.25 1462.79 1293.25 1465.47 Q1293.25 1467.5 1294.81 1468.68 Q1296.37 1469.83 1301.08 1470.88 L1303.09 1471.32 Q1309.33 1472.66 1311.94 1475.11 Q1314.58 1477.53 1314.58 1481.89 Q1314.58 1486.85 1310.63 1489.75 Q1306.72 1492.65 1299.84 1492.65 Q1296.98 1492.65 1293.86 1492.07 Q1290.77 1491.53 1287.33 1490.42 L1287.33 1484.37 Q1290.58 1486.06 1293.73 1486.92 Q1296.88 1487.75 1299.97 1487.75 Q1304.11 1487.75 1306.33 1486.34 Q1308.56 1484.91 1308.56 1482.33 Q1308.56 1479.95 1306.94 1478.67 Q1305.35 1477.4 1299.9 1476.22 L1297.87 1475.75 Q1292.42 1474.6 1290.01 1472.24 Q1287.59 1469.86 1287.59 1465.72 Q1287.59 1460.69 1291.15 1457.95 Q1294.72 1455.22 1301.27 1455.22 Q1304.52 1455.22 1307.38 1455.69 Q1310.25 1456.17 1312.67 1457.13 Z" fill="#000000" fill-rule="evenodd" fill-opacity="1" /><path clip-path="url(#clip560)" d="M 0 0 M1319.8 1442.26 L1324.89 1442.26 Q1329.66 1449.77 1332.02 1456.97 Q1334.41 1464.16 1334.41 1471.26 Q1334.41 1478.39 1332.02 1485.61 Q1329.66 1492.84 1324.89 1500.32 L1319.8 1500.32 Q1324.03 1493.03 1326.1 1485.84 Q1328.2 1478.61 1328.2 1471.26 Q1328.2 1463.91 1326.1 1456.74 Q1324.03 1449.58 1319.8 1442.26 Z" fill="#000000" fill-rule="evenodd" fill-opacity="1" /><polyline clip-path="url(#clip563)" style="stroke:#000000; stroke-width:2; stroke-opacity:0.1; fill:none" points="
  262.495,1213.81 2256.76,1213.81 
  "/>
<polyline clip-path="url(#clip563)" style="stroke:#000000; stroke-width:2; stroke-opacity:0.1; fill:none" points="
  262.495,837.334 2256.76,837.334 
  "/>
<polyline clip-path="url(#clip563)" style="stroke:#000000; stroke-width:2; stroke-opacity:0.1; fill:none" points="
  262.495,460.863 2256.76,460.863 
  "/>
<polyline clip-path="url(#clip563)" style="stroke:#000000; stroke-width:2; stroke-opacity:0.1; fill:none" points="
  262.495,84.3925 2256.76,84.3925 
  "/>
<polyline clip-path="url(#clip560)" style="stroke:#000000; stroke-width:4; stroke-opacity:1; fill:none" points="
  262.495,1359.82 262.495,47.2441 
  "/>
<polyline clip-path="url(#clip560)" style="stroke:#000000; stroke-width:4; stroke-opacity:1; fill:none" points="
  262.495,1213.81 286.426,1213.81 
  "/>
<polyline clip-path="url(#clip560)" style="stroke:#000000; stroke-width:4; stroke-opacity:1; fill:none" points="
  262.495,837.334 286.426,837.334 
  "/>
<polyline clip-path="url(#clip560)" style="stroke:#000000; stroke-width:4; stroke-opacity:1; fill:none" points="
  262.495,460.863 286.426,460.863 
  "/>
<polyline clip-path="url(#clip560)" style="stroke:#000000; stroke-width:4; stroke-opacity:1; fill:none" points="
  262.495,84.3925 286.426,84.3925 
  "/>
<path clip-path="url(#clip560)" d="M 0 0 M126.269 1199.6 Q122.658 1199.6 120.829 1203.17 Q119.024 1206.71 119.024 1213.84 Q119.024 1220.95 120.829 1224.51 Q122.658 1228.05 126.269 1228.05 Q129.903 1228.05 131.709 1224.51 Q133.538 1220.95 133.538 1213.84 Q133.538 1206.71 131.709 1203.17 Q129.903 1199.6 126.269 1199.6 M126.269 1195.9 Q132.079 1195.9 135.135 1200.51 Q138.213 1205.09 138.213 1213.84 Q138.213 1222.57 135.135 1227.17 Q132.079 1231.76 126.269 1231.76 Q120.459 1231.76 117.38 1227.17 Q114.325 1222.57 114.325 1213.84 Q114.325 1205.09 117.38 1200.51 Q120.459 1195.9 126.269 1195.9 Z" fill="#000000" fill-rule="evenodd" fill-opacity="1" /><path clip-path="url(#clip560)" d="M 0 0 M143.283 1225.21 L148.167 1225.21 L148.167 1231.09 L143.283 1231.09 L143.283 1225.21 Z" fill="#000000" fill-rule="evenodd" fill-opacity="1" /><path clip-path="url(#clip560)" d="M 0 0 M153.375 1230.37 L153.375 1226.11 Q155.135 1226.94 156.94 1227.38 Q158.746 1227.82 160.482 1227.82 Q165.111 1227.82 167.542 1224.72 Q169.996 1221.59 170.343 1215.25 Q169 1217.24 166.94 1218.31 Q164.88 1219.37 162.38 1219.37 Q157.195 1219.37 154.162 1216.25 Q151.153 1213.1 151.153 1207.66 Q151.153 1202.34 154.301 1199.12 Q157.449 1195.9 162.681 1195.9 Q168.676 1195.9 171.824 1200.51 Q174.996 1205.09 174.996 1213.84 Q174.996 1222.01 171.107 1226.9 Q167.241 1231.76 160.69 1231.76 Q158.931 1231.76 157.125 1231.41 Q155.32 1231.06 153.375 1230.37 M162.681 1215.71 Q165.829 1215.71 167.658 1213.56 Q169.51 1211.41 169.51 1207.66 Q169.51 1203.93 167.658 1201.78 Q165.829 1199.6 162.681 1199.6 Q159.533 1199.6 157.681 1201.78 Q155.852 1203.93 155.852 1207.66 Q155.852 1211.41 157.681 1213.56 Q159.533 1215.71 162.681 1215.71 Z" fill="#000000" fill-rule="evenodd" fill-opacity="1" /><path clip-path="url(#clip560)" d="M 0 0 M190.065 1214.67 Q186.732 1214.67 184.81 1216.46 Q182.912 1218.24 182.912 1221.36 Q182.912 1224.49 184.81 1226.27 Q186.732 1228.05 190.065 1228.05 Q193.398 1228.05 195.32 1226.27 Q197.241 1224.46 197.241 1221.36 Q197.241 1218.24 195.32 1216.46 Q193.422 1214.67 190.065 1214.67 M185.389 1212.68 Q182.38 1211.94 180.69 1209.88 Q179.023 1207.82 179.023 1204.86 Q179.023 1200.72 181.963 1198.31 Q184.926 1195.9 190.065 1195.9 Q195.227 1195.9 198.167 1198.31 Q201.107 1200.72 201.107 1204.86 Q201.107 1207.82 199.417 1209.88 Q197.75 1211.94 194.764 1212.68 Q198.144 1213.47 200.019 1215.76 Q201.917 1218.05 201.917 1221.36 Q201.917 1226.39 198.838 1229.07 Q195.783 1231.76 190.065 1231.76 Q184.348 1231.76 181.269 1229.07 Q178.213 1226.39 178.213 1221.36 Q178.213 1218.05 180.111 1215.76 Q182.01 1213.47 185.389 1212.68 M183.676 1205.3 Q183.676 1207.98 185.343 1209.49 Q187.033 1210.99 190.065 1210.99 Q193.074 1210.99 194.764 1209.49 Q196.477 1207.98 196.477 1205.3 Q196.477 1202.61 194.764 1201.11 Q193.074 1199.6 190.065 1199.6 Q187.033 1199.6 185.343 1201.11 Q183.676 1202.61 183.676 1205.3 Z" fill="#000000" fill-rule="evenodd" fill-opacity="1" /><path clip-path="url(#clip560)" d="M 0 0 M207.033 1196.53 L225.389 1196.53 L225.389 1200.46 L211.315 1200.46 L211.315 1208.93 Q212.333 1208.59 213.352 1208.42 Q214.37 1208.24 215.389 1208.24 Q221.176 1208.24 224.556 1211.41 Q227.935 1214.58 227.935 1220 Q227.935 1225.58 224.463 1228.68 Q220.991 1231.76 214.671 1231.76 Q212.496 1231.76 210.227 1231.39 Q207.982 1231.02 205.574 1230.28 L205.574 1225.58 Q207.658 1226.71 209.88 1227.27 Q212.102 1227.82 214.579 1227.82 Q218.583 1227.82 220.921 1225.71 Q223.259 1223.61 223.259 1220 Q223.259 1216.39 220.921 1214.28 Q218.583 1212.17 214.579 1212.17 Q212.704 1212.17 210.829 1212.59 Q208.977 1213.01 207.033 1213.89 L207.033 1196.53 Z" fill="#000000" fill-rule="evenodd" fill-opacity="1" /><path clip-path="url(#clip560)" d="M 0 0 M125.366 823.133 Q121.755 823.133 119.927 826.698 Q118.121 830.239 118.121 837.369 Q118.121 844.476 119.927 848.04 Q121.755 851.582 125.366 851.582 Q129.001 851.582 130.806 848.04 Q132.635 844.476 132.635 837.369 Q132.635 830.239 130.806 826.698 Q129.001 823.133 125.366 823.133 M125.366 819.429 Q131.176 819.429 134.232 824.036 Q137.311 828.619 137.311 837.369 Q137.311 846.096 134.232 850.702 Q131.176 855.286 125.366 855.286 Q119.556 855.286 116.477 850.702 Q113.422 846.096 113.422 837.369 Q113.422 828.619 116.477 824.036 Q119.556 819.429 125.366 819.429 Z" fill="#000000" fill-rule="evenodd" fill-opacity="1" /><path clip-path="url(#clip560)" d="M 0 0 M142.38 848.735 L147.264 848.735 L147.264 854.614 L142.38 854.614 L142.38 848.735 Z" fill="#000000" fill-rule="evenodd" fill-opacity="1" /><path clip-path="url(#clip560)" d="M 0 0 M152.473 853.897 L152.473 849.638 Q154.232 850.471 156.037 850.911 Q157.843 851.35 159.579 851.35 Q164.209 851.35 166.639 848.249 Q169.093 845.124 169.44 838.781 Q168.098 840.772 166.037 841.837 Q163.977 842.901 161.477 842.901 Q156.292 842.901 153.26 839.776 Q150.25 836.628 150.25 831.189 Q150.25 825.864 153.399 822.647 Q156.547 819.429 161.778 819.429 Q167.774 819.429 170.922 824.036 Q174.093 828.619 174.093 837.369 Q174.093 845.54 170.204 850.425 Q166.338 855.286 159.787 855.286 Q158.028 855.286 156.223 854.938 Q154.417 854.591 152.473 853.897 M161.778 839.244 Q164.926 839.244 166.755 837.091 Q168.607 834.939 168.607 831.189 Q168.607 827.462 166.755 825.309 Q164.926 823.133 161.778 823.133 Q158.63 823.133 156.778 825.309 Q154.95 827.462 154.95 831.189 Q154.95 834.939 156.778 837.091 Q158.63 839.244 161.778 839.244 Z" fill="#000000" fill-rule="evenodd" fill-opacity="1" /><path clip-path="url(#clip560)" d="M 0 0 M179.301 853.897 L179.301 849.638 Q181.06 850.471 182.866 850.911 Q184.672 851.35 186.408 851.35 Q191.037 851.35 193.468 848.249 Q195.922 845.124 196.269 838.781 Q194.926 840.772 192.866 841.837 Q190.806 842.901 188.306 842.901 Q183.121 842.901 180.088 839.776 Q177.079 836.628 177.079 831.189 Q177.079 825.864 180.227 822.647 Q183.375 819.429 188.607 819.429 Q194.602 819.429 197.75 824.036 Q200.921 828.619 200.921 837.369 Q200.921 845.54 197.033 850.425 Q193.167 855.286 186.616 855.286 Q184.857 855.286 183.051 854.938 Q181.246 854.591 179.301 853.897 M188.607 839.244 Q191.755 839.244 193.584 837.091 Q195.435 834.939 195.435 831.189 Q195.435 827.462 193.584 825.309 Q191.755 823.133 188.607 823.133 Q185.459 823.133 183.607 825.309 Q181.778 827.462 181.778 831.189 Q181.778 834.939 183.607 837.091 Q185.459 839.244 188.607 839.244 Z" fill="#000000" fill-rule="evenodd" fill-opacity="1" /><path clip-path="url(#clip560)" d="M 0 0 M215.991 823.133 Q212.38 823.133 210.551 826.698 Q208.746 830.239 208.746 837.369 Q208.746 844.476 210.551 848.04 Q212.38 851.582 215.991 851.582 Q219.625 851.582 221.431 848.04 Q223.259 844.476 223.259 837.369 Q223.259 830.239 221.431 826.698 Q219.625 823.133 215.991 823.133 M215.991 819.429 Q221.801 819.429 224.857 824.036 Q227.935 828.619 227.935 837.369 Q227.935 846.096 224.857 850.702 Q221.801 855.286 215.991 855.286 Q210.181 855.286 207.102 850.702 Q204.046 846.096 204.046 837.369 Q204.046 828.619 207.102 824.036 Q210.181 819.429 215.991 819.429 Z" fill="#000000" fill-rule="evenodd" fill-opacity="1" /><path clip-path="url(#clip560)" d="M 0 0 M126.362 446.662 Q122.751 446.662 120.922 450.227 Q119.116 453.769 119.116 460.898 Q119.116 468.005 120.922 471.569 Q122.751 475.111 126.362 475.111 Q129.996 475.111 131.801 471.569 Q133.63 468.005 133.63 460.898 Q133.63 453.769 131.801 450.227 Q129.996 446.662 126.362 446.662 M126.362 442.958 Q132.172 442.958 135.227 447.565 Q138.306 452.148 138.306 460.898 Q138.306 469.625 135.227 474.231 Q132.172 478.815 126.362 478.815 Q120.552 478.815 117.473 474.231 Q114.417 469.625 114.417 460.898 Q114.417 452.148 117.473 447.565 Q120.552 442.958 126.362 442.958 Z" fill="#000000" fill-rule="evenodd" fill-opacity="1" /><path clip-path="url(#clip560)" d="M 0 0 M143.376 472.264 L148.26 472.264 L148.26 478.143 L143.376 478.143 L143.376 472.264 Z" fill="#000000" fill-rule="evenodd" fill-opacity="1" /><path clip-path="url(#clip560)" d="M 0 0 M153.468 477.426 L153.468 473.167 Q155.227 474 157.033 474.44 Q158.838 474.88 160.574 474.88 Q165.204 474.88 167.635 471.778 Q170.088 468.653 170.436 462.31 Q169.093 464.301 167.033 465.366 Q164.973 466.431 162.473 466.431 Q157.287 466.431 154.255 463.306 Q151.246 460.157 151.246 454.718 Q151.246 449.394 154.394 446.176 Q157.542 442.958 162.774 442.958 Q168.769 442.958 171.917 447.565 Q175.088 452.148 175.088 460.898 Q175.088 469.069 171.199 473.954 Q167.334 478.815 160.783 478.815 Q159.024 478.815 157.218 478.467 Q155.412 478.12 153.468 477.426 M162.774 462.773 Q165.922 462.773 167.75 460.62 Q169.602 458.468 169.602 454.718 Q169.602 450.991 167.75 448.838 Q165.922 446.662 162.774 446.662 Q159.625 446.662 157.774 448.838 Q155.945 450.991 155.945 454.718 Q155.945 458.468 157.774 460.62 Q159.625 462.773 162.774 462.773 Z" fill="#000000" fill-rule="evenodd" fill-opacity="1" /><path clip-path="url(#clip560)" d="M 0 0 M180.297 477.426 L180.297 473.167 Q182.056 474 183.861 474.44 Q185.667 474.88 187.403 474.88 Q192.033 474.88 194.463 471.778 Q196.917 468.653 197.264 462.31 Q195.922 464.301 193.861 465.366 Q191.801 466.431 189.301 466.431 Q184.116 466.431 181.084 463.306 Q178.074 460.157 178.074 454.718 Q178.074 449.394 181.223 446.176 Q184.371 442.958 189.602 442.958 Q195.597 442.958 198.746 447.565 Q201.917 452.148 201.917 460.898 Q201.917 469.069 198.028 473.954 Q194.162 478.815 187.611 478.815 Q185.852 478.815 184.047 478.467 Q182.241 478.12 180.297 477.426 M189.602 462.773 Q192.75 462.773 194.579 460.62 Q196.431 458.468 196.431 454.718 Q196.431 450.991 194.579 448.838 Q192.75 446.662 189.602 446.662 Q186.454 446.662 184.602 448.838 Q182.773 450.991 182.773 454.718 Q182.773 458.468 184.602 460.62 Q186.454 462.773 189.602 462.773 Z" fill="#000000" fill-rule="evenodd" fill-opacity="1" /><path clip-path="url(#clip560)" d="M 0 0 M207.033 443.583 L225.389 443.583 L225.389 447.519 L211.315 447.519 L211.315 455.991 Q212.333 455.644 213.352 455.481 Q214.37 455.296 215.389 455.296 Q221.176 455.296 224.556 458.468 Q227.935 461.639 227.935 467.055 Q227.935 472.634 224.463 475.736 Q220.991 478.815 214.671 478.815 Q212.496 478.815 210.227 478.444 Q207.982 478.074 205.574 477.333 L205.574 472.634 Q207.658 473.768 209.88 474.324 Q212.102 474.88 214.579 474.88 Q218.583 474.88 220.921 472.773 Q223.259 470.667 223.259 467.055 Q223.259 463.444 220.921 461.338 Q218.583 459.231 214.579 459.231 Q212.704 459.231 210.829 459.648 Q208.977 460.065 207.033 460.944 L207.033 443.583 Z" fill="#000000" fill-rule="evenodd" fill-opacity="1" /><path clip-path="url(#clip560)" d="M 0 0 M117.033 97.7373 L124.672 97.7373 L124.672 71.3717 L116.362 73.0384 L116.362 68.7791 L124.626 67.1125 L129.302 67.1125 L129.302 97.7373 L136.94 97.7373 L136.94 101.672 L117.033 101.672 L117.033 97.7373 Z" fill="#000000" fill-rule="evenodd" fill-opacity="1" /><path clip-path="url(#clip560)" d="M 0 0 M142.01 95.7929 L146.894 95.7929 L146.894 101.672 L142.01 101.672 L142.01 95.7929 Z" fill="#000000" fill-rule="evenodd" fill-opacity="1" /><path clip-path="url(#clip560)" d="M 0 0 M161.963 70.1912 Q158.352 70.1912 156.524 73.7559 Q154.718 77.2976 154.718 84.4272 Q154.718 91.5336 156.524 95.0984 Q158.352 98.6401 161.963 98.6401 Q165.598 98.6401 167.403 95.0984 Q169.232 91.5336 169.232 84.4272 Q169.232 77.2976 167.403 73.7559 Q165.598 70.1912 161.963 70.1912 M161.963 66.4875 Q167.774 66.4875 170.829 71.0939 Q173.908 75.6772 173.908 84.4272 Q173.908 93.154 170.829 97.7604 Q167.774 102.344 161.963 102.344 Q156.153 102.344 153.075 97.7604 Q150.019 93.154 150.019 84.4272 Q150.019 75.6772 153.075 71.0939 Q156.153 66.4875 161.963 66.4875 Z" fill="#000000" fill-rule="evenodd" fill-opacity="1" /><path clip-path="url(#clip560)" d="M 0 0 M188.977 70.1912 Q185.366 70.1912 183.537 73.7559 Q181.732 77.2976 181.732 84.4272 Q181.732 91.5336 183.537 95.0984 Q185.366 98.6401 188.977 98.6401 Q192.611 98.6401 194.417 95.0984 Q196.246 91.5336 196.246 84.4272 Q196.246 77.2976 194.417 73.7559 Q192.611 70.1912 188.977 70.1912 M188.977 66.4875 Q194.787 66.4875 197.843 71.0939 Q200.921 75.6772 200.921 84.4272 Q200.921 93.154 197.843 97.7604 Q194.787 102.344 188.977 102.344 Q183.167 102.344 180.088 97.7604 Q177.033 93.154 177.033 84.4272 Q177.033 75.6772 180.088 71.0939 Q183.167 66.4875 188.977 66.4875 Z" fill="#000000" fill-rule="evenodd" fill-opacity="1" /><path clip-path="url(#clip560)" d="M 0 0 M215.991 70.1912 Q212.38 70.1912 210.551 73.7559 Q208.746 77.2976 208.746 84.4272 Q208.746 91.5336 210.551 95.0984 Q212.38 98.6401 215.991 98.6401 Q219.625 98.6401 221.431 95.0984 Q223.259 91.5336 223.259 84.4272 Q223.259 77.2976 221.431 73.7559 Q219.625 70.1912 215.991 70.1912 M215.991 66.4875 Q221.801 66.4875 224.857 71.0939 Q227.935 75.6772 227.935 84.4272 Q227.935 93.154 224.857 97.7604 Q221.801 102.344 215.991 102.344 Q210.181 102.344 207.102 97.7604 Q204.046 93.154 204.046 84.4272 Q204.046 75.6772 207.102 71.0939 Q210.181 66.4875 215.991 66.4875 Z" fill="#000000" fill-rule="evenodd" fill-opacity="1" /><path clip-path="url(#clip560)" d="M 0 0 M53.3851 740.086 Q56.9922 740.086 60.3094 742.759 Q63.6266 745.4 65.6556 749.715 Q67.6523 753.999 67.6523 758.604 L67.6523 769.812 L84.1417 773.902 Q84.2384 773.934 84.657 774.031 Q85.0435 774.127 85.2689 774.127 Q86.0741 774.127 86.2673 773.129 Q86.4606 772.098 86.4606 769.812 Q86.4606 768.33 86.7182 768.105 Q86.8792 767.976 87.1691 767.976 Q87.62 767.976 87.942 768.105 Q88.2319 768.234 88.3285 768.491 Q88.4251 768.717 88.4573 768.878 Q88.4895 769.039 88.4895 769.297 Q88.4895 769.973 88.4251 771.422 Q88.3607 772.839 88.3607 773.58 L88.2963 777.799 L88.4895 786.172 Q88.4895 787.171 87.6844 787.171 Q87.0725 787.171 86.8148 786.913 Q86.525 786.655 86.4928 786.366 Q86.4606 786.076 86.4606 785.335 Q86.4606 783.725 86.3639 782.759 Q86.2673 781.792 86.1385 781.18 Q85.9775 780.536 85.5266 780.214 Q85.0757 779.86 84.6892 779.699 Q84.2706 779.538 83.3366 779.313 L47.9101 770.488 Q46.8473 770.23 46.6863 770.23 Q46.1388 770.23 45.9456 770.553 Q45.7201 770.842 45.6235 771.68 Q45.4947 773.29 45.4947 774.514 Q45.4947 775.319 45.4625 775.641 Q45.4303 775.931 45.2693 776.189 Q45.076 776.414 44.6896 776.414 Q44.0776 776.414 43.82 776.156 Q43.5301 775.867 43.4979 775.544 Q43.4335 775.222 43.4335 774.449 L43.4335 753.065 Q43.4335 746.913 46.3643 743.5 Q49.295 740.086 53.3851 740.086 M51.8071 746.205 Q45.4947 746.205 45.4947 755.19 L45.4947 761.503 Q45.4947 763.596 45.8812 764.111 Q46.2354 764.627 48.0068 765.078 L65.9454 769.554 L65.9454 760.247 Q65.9454 753.999 62.435 750.102 Q60.8247 748.331 57.4753 747.268 Q54.1259 746.205 51.8071 746.205 Z" fill="#000000" fill-rule="evenodd" fill-opacity="1" /><path clip-path="url(#clip560)" d="M 0 0 M75.744 700.762 L87.512 703.67 Q88.2559 703.873 88.3461 704.008 Q88.4363 704.121 88.4363 704.481 Q88.4363 705.18 87.9629 705.18 Q87.9178 705.18 87.3316 705.113 Q86.7229 705.045 85.6183 705.045 Q81.5378 705.045 79.1256 707.029 Q76.7134 708.99 76.7134 712.485 Q76.7134 715.753 78.4267 718.887 Q80.1401 722.021 82.665 724.027 Q84.7391 725.718 87.264 726.89 Q89.7889 728.04 91.9983 728.513 Q94.185 728.987 95.5151 729.167 Q96.8452 729.325 97.7019 729.325 Q100.227 729.325 102.188 728.513 Q104.127 727.702 105.232 726.349 Q106.336 724.974 106.877 723.396 Q107.418 721.795 107.418 720.059 Q107.418 719.406 107.328 718.617 Q107.238 717.828 106.9 716.61 Q106.562 715.37 105.998 714.356 Q105.435 713.319 104.352 712.417 Q103.27 711.493 101.827 711.132 Q98.1528 710.163 97.6117 710.163 Q97.1609 710.163 97.0031 710.433 Q96.8452 710.704 96.7325 711.605 L96.6424 714.04 Q96.6424 714.085 96.6424 714.153 Q96.6424 714.581 96.6424 714.762 Q96.6198 714.942 96.5747 715.145 Q96.5296 715.325 96.4395 715.393 Q96.3267 715.438 96.1464 715.438 Q95.718 715.438 95.5151 715.258 Q95.2897 715.077 95.2672 714.919 Q95.2221 714.762 95.2221 714.468 L95.3573 707.998 Q95.3573 707.48 95.2897 705.586 Q95.2221 703.692 95.2221 703.151 Q95.2221 702.543 95.718 702.543 Q96.6424 702.543 96.6424 703.287 Q96.6649 704.031 96.6874 704.414 Q96.6874 704.797 96.8002 705.18 Q96.9129 705.541 97.0031 705.676 Q97.0707 705.812 97.4089 705.992 Q97.7245 706.172 97.995 706.24 Q98.243 706.308 98.8742 706.465 Q99.28 706.555 100.047 706.781 Q100.813 706.984 101.219 707.074 L104.781 707.953 Q107.418 708.562 107.599 708.742 Q107.779 708.832 107.779 709.058 Q107.779 709.396 106.787 710.117 Q105.795 710.816 104.916 711.132 Q105.525 711.696 105.885 712.056 Q106.224 712.417 106.765 713.251 Q107.306 714.063 107.734 715.145 Q108.839 717.782 108.839 720.916 Q108.839 726.507 105.299 730.024 Q101.737 733.541 96.1915 733.541 Q92.2688 733.541 88.4138 731.737 Q84.5587 729.934 81.6956 727.071 Q78.8325 724.208 77.0515 720.42 Q75.2705 716.633 75.2705 712.845 Q75.2705 711.402 75.6538 710.117 Q76.037 708.832 76.5105 708.066 Q76.9839 707.277 77.6828 706.578 Q78.3591 705.879 78.6747 705.654 Q78.9903 705.406 79.3736 705.18 L75.8341 701.956 Q75.2705 701.393 75.2705 701.258 Q75.2705 700.987 75.4284 700.874 Q75.5862 700.762 75.744 700.762 Z" fill="#000000" fill-rule="evenodd" fill-opacity="1" /><path clip-path="url(#clip560)" d="M 0 0 M72.0001 694.066 Q60.8569 694.066 51.8715 689.912 Q48.1034 688.14 44.9472 685.661 Q41.791 683.181 40.4062 681.538 Q39.0213 679.896 39.0213 679.445 Q39.0213 678.801 39.6654 678.768 Q39.9875 678.768 40.7926 679.638 Q51.6138 690.266 72.0001 690.234 Q92.4508 690.234 102.853 679.896 Q103.981 678.768 104.335 678.768 Q104.979 678.768 104.979 679.445 Q104.979 679.896 103.658 681.474 Q102.338 683.052 99.3107 685.5 Q96.2833 687.947 92.5797 689.718 Q83.5942 694.066 72.0001 694.066 Z" fill="#000000" fill-rule="evenodd" fill-opacity="1" /><path clip-path="url(#clip560)" d="M 0 0 M60.7925 648.5 Q61.6943 648.5 61.9197 648.919 Q62.1129 649.337 62.1129 650.497 L62.1129 656.68 L81.5653 661.576 Q83.2722 661.962 84.7214 661.962 Q86.3317 661.962 87.0403 661.479 Q87.7488 660.964 87.7488 659.901 Q87.7488 657.808 85.8486 655.553 Q83.9485 653.267 79.3109 651.334 Q78.6989 651.077 78.5701 650.948 Q78.4091 650.787 78.4091 650.368 Q78.4091 649.563 79.0532 649.563 Q79.2787 649.563 80.3092 650.014 Q81.3398 650.432 82.8535 651.366 Q84.3672 652.268 85.7842 653.46 Q87.2013 654.619 88.2319 656.39 Q89.2303 658.162 89.2303 660.062 Q89.2303 662.735 87.5234 664.442 Q85.8164 666.117 83.1434 666.117 Q82.2738 666.117 79.5041 665.44 Q76.7022 664.764 62.1129 661.093 L62.1129 666.922 Q62.1129 667.727 62.0807 668.049 Q62.0485 668.339 61.8875 668.564 Q61.6943 668.758 61.3078 668.758 Q60.6959 668.758 60.4382 668.5 Q60.1484 668.242 60.1162 667.92 Q60.0518 667.566 60.0518 666.761 L60.0518 660.577 L49.5848 658.001 Q48.5543 657.743 47.9746 657.099 Q47.3626 656.423 47.2982 656.036 Q47.2016 655.65 47.2016 655.36 Q47.2016 654.49 47.6847 653.975 Q48.1356 653.46 48.9729 653.46 Q49.4238 653.46 60.0518 656.165 L60.0518 650.368 Q60.0518 649.627 60.084 649.337 Q60.1162 649.015 60.2772 648.758 Q60.4382 648.5 60.7925 648.5 Z" fill="#000000" fill-rule="evenodd" fill-opacity="1" /><path clip-path="url(#clip560)" d="M 0 0 M104.335 645.202 Q104.013 645.202 103.208 644.365 Q92.3864 633.737 72.0001 633.737 Q51.5494 633.737 41.2113 643.946 Q40.0197 645.202 39.6654 645.202 Q39.0213 645.202 39.0213 644.558 Q39.0213 644.107 40.3418 642.529 Q41.6622 640.919 44.6896 638.503 Q47.7169 636.055 51.4206 634.252 Q60.406 629.904 72.0001 629.904 Q83.1434 629.904 92.1288 634.059 Q95.8969 635.83 99.053 638.31 Q102.209 640.79 103.594 642.432 Q104.979 644.075 104.979 644.558 Q104.979 645.202 104.335 645.202 Z" fill="#000000" fill-rule="evenodd" fill-opacity="1" /><polyline clip-path="url(#clip563)" style="stroke:#009af9; stroke-width:8; stroke-opacity:1; fill:none" points="
  318.937,84.3925 320.267,84.8724 321.598,86.163 322.928,87.9354 324.259,89.9054 325.589,91.8974 326.92,93.8269 328.25,95.6659 329.581,97.4177 330.911,99.0873 
  332.242,100.681 333.572,102.208 334.903,103.677 336.234,105.1 337.564,106.488 338.895,107.85 340.225,109.19 341.556,110.513 342.886,111.824 344.217,113.126 
  345.547,114.423 346.878,115.719 348.208,117.016 349.539,118.318 350.869,119.626 352.2,120.943 353.531,122.27 354.861,123.608 356.192,124.959 357.522,126.324 
  358.853,127.702 360.183,129.095 361.514,130.504 362.844,131.929 364.175,133.372 365.505,134.831 366.836,136.308 368.166,137.803 369.497,139.316 370.827,140.848 
  372.158,142.398 373.489,143.968 374.819,145.556 376.15,147.164 377.48,148.791 378.811,150.438 380.141,152.106 381.472,153.793 382.802,155.5 384.133,157.228 
  385.463,158.976 386.794,160.745 388.124,162.534 389.455,164.344 390.786,166.175 392.116,168.026 393.447,169.898 394.777,171.79 396.108,173.704 397.438,175.638 
  398.769,177.592 400.099,179.567 401.43,181.562 402.76,183.578 404.091,185.614 405.421,187.671 406.752,189.748 408.082,191.845 409.413,193.963 410.744,196.101 
  412.074,198.259 413.405,200.438 414.735,202.637 416.066,204.856 417.396,207.096 418.727,209.355 420.057,211.635 421.388,213.934 422.718,216.254 424.049,218.594 
  425.379,220.953 426.71,223.333 428.041,225.732 429.371,228.151 430.702,230.589 432.032,233.047 433.363,235.525 434.693,238.022 436.024,240.539 437.354,243.075 
  438.685,245.63 440.015,248.204 441.346,250.797 442.676,253.409 444.007,256.04 445.337,258.69 446.668,261.359 447.999,264.047 449.329,266.752 450.66,269.477 
  451.99,272.22 453.321,274.981 454.651,277.76 455.982,280.558 457.312,283.373 458.643,286.206 459.973,289.058 461.304,291.927 462.634,294.813 463.965,297.717 
  465.296,300.639 466.626,303.578 467.957,306.534 469.287,309.507 470.618,312.497 471.948,315.504 473.279,318.528 474.609,321.569 475.94,324.626 477.27,327.699 
  478.601,330.789 479.931,333.895 481.262,337.016 482.593,340.154 483.923,343.308 485.254,346.477 486.584,349.663 487.915,352.863 489.245,356.079 490.576,359.311 
  491.906,362.557 493.237,365.819 494.567,369.095 495.898,372.387 497.228,375.693 498.559,379.013 499.889,382.348 501.22,385.698 502.551,389.061 503.881,392.439 
  505.212,395.83 506.542,399.235 507.873,402.653 509.203,406.085 510.534,409.531 511.864,412.989 513.195,416.461 514.525,419.945 515.856,423.442 517.186,426.951 
  518.517,430.473 519.848,434.007 521.178,437.553 522.509,441.111 523.839,444.68 525.17,448.262 526.5,451.854 527.831,455.458 529.161,459.073 530.492,462.699 
  531.822,466.336 533.153,469.983 534.483,473.641 535.814,477.309 537.144,480.987 538.475,484.675 539.806,488.373 541.136,492.081 542.467,495.798 543.797,499.525 
  545.128,503.26 546.458,507.005 547.789,510.758 549.119,514.521 550.45,518.291 551.78,522.07 553.111,525.858 554.441,529.653 555.772,533.456 557.103,537.268 
  558.433,541.086 559.764,544.912 561.094,548.745 562.425,552.584 563.755,556.43 565.086,560.283 566.416,564.143 567.747,568.008 569.077,571.88 570.408,575.757 
  571.738,579.641 573.069,583.53 574.399,587.424 575.73,591.324 577.061,595.229 578.391,599.139 579.722,603.054 581.052,606.974 582.383,610.898 583.713,614.826 
  585.044,618.758 586.374,622.695 587.705,626.635 589.035,630.578 590.366,634.525 591.696,638.476 593.027,642.429 594.358,646.385 595.688,650.344 597.019,654.306 
  598.349,658.27 599.68,662.235 601.01,666.203 602.341,670.173 603.671,674.144 605.002,678.116 606.332,682.09 607.663,686.065 608.993,690.04 610.324,694.016 
  611.655,697.993 612.985,701.97 614.316,705.946 615.646,709.923 616.977,713.899 618.307,717.875 619.638,721.85 620.968,725.824 622.299,729.798 623.629,733.769 
  624.96,737.74 626.29,741.708 627.621,745.675 628.951,749.64 630.282,753.603 631.613,757.563 632.943,761.52 634.274,765.475 635.604,769.427 636.935,773.376 
  638.265,777.321 639.596,781.263 640.926,785.202 642.257,789.136 643.587,793.067 644.918,796.993 646.248,800.915 647.579,804.832 648.91,808.745 650.24,812.653 
  651.571,816.556 652.901,820.454 654.232,824.346 655.562,828.233 656.893,832.115 658.223,835.99 659.554,839.86 660.884,843.723 662.215,847.581 663.545,851.432 
  664.876,855.276 666.206,859.113 667.537,862.943 668.868,866.766 670.198,870.582 671.529,874.39 672.859,878.19 674.19,881.983 675.52,885.767 676.851,889.543 
  678.181,893.311 679.512,897.07 680.842,900.821 682.173,904.563 683.503,908.296 684.834,912.019 686.165,915.734 687.495,919.438 688.826,923.134 690.156,926.819 
  691.487,930.495 692.817,934.16 694.148,937.815 695.478,941.46 696.809,945.094 698.139,948.718 699.47,952.33 700.8,955.932 702.131,959.522 703.461,963.101 
  704.792,966.669 706.123,970.224 707.453,973.768 708.784,977.3 710.114,980.82 711.445,984.328 712.775,987.823 714.106,991.306 715.436,994.776 716.767,998.233 
  718.097,1001.68 719.428,1005.11 720.758,1008.53 722.089,1011.93 723.42,1015.32 724.75,1018.7 726.081,1022.06 727.411,1025.41 728.742,1028.74 730.072,1032.07 
  731.403,1035.37 732.733,1038.66 734.064,1041.94 735.394,1045.2 736.725,1048.45 738.055,1051.68 739.386,1054.9 740.717,1058.1 742.047,1061.29 743.378,1064.46 
  744.708,1067.61 746.039,1070.75 747.369,1073.87 748.7,1076.98 750.03,1080.07 751.361,1083.15 752.691,1086.2 754.022,1089.24 755.352,1092.27 756.683,1095.28 
  758.013,1098.27 759.344,1101.24 760.675,1104.2 762.005,1107.14 763.336,1110.06 764.666,1112.97 765.997,1115.85 767.327,1118.73 768.658,1121.58 769.988,1124.41 
  771.319,1127.23 772.649,1130.03 773.98,1132.81 775.31,1135.57 776.641,1138.32 777.972,1141.04 779.302,1143.75 780.633,1146.44 781.963,1149.11 783.294,1151.77 
  784.624,1154.4 785.955,1157.02 787.285,1159.61 788.616,1162.19 789.946,1164.75 791.277,1167.29 792.607,1169.82 793.938,1172.32 795.268,1174.8 796.599,1177.27 
  797.93,1179.71 799.26,1182.14 800.591,1184.55 801.921,1186.93 803.252,1189.3 804.582,1191.65 805.913,1193.98 807.243,1196.28 808.574,1198.57 809.904,1200.84 
  811.235,1203.09 812.565,1205.32 813.896,1207.52 815.227,1209.71 816.557,1211.88 817.888,1214.02 819.218,1216.15 820.549,1218.25 821.879,1220.34 823.21,1222.4 
  824.54,1224.45 825.871,1226.47 827.201,1228.47 828.532,1230.45 829.862,1232.41 831.193,1234.35 832.523,1236.27 833.854,1238.16 835.185,1240.04 836.515,1241.89 
  837.846,1243.73 839.176,1245.54 840.507,1247.33 841.837,1249.1 843.168,1250.85 844.498,1252.57 845.829,1254.28 847.159,1255.96 848.49,1257.63 849.82,1259.27 
  851.151,1260.89 852.482,1262.49 853.812,1264.06 855.143,1265.62 856.473,1267.15 857.804,1268.67 859.134,1270.16 860.465,1271.63 861.795,1273.08 863.126,1274.5 
  864.456,1275.91 865.787,1277.29 867.117,1278.66 868.448,1280 869.779,1281.32 871.109,1282.62 872.44,1283.89 873.77,1285.15 875.101,1286.38 876.431,1287.6 
  877.762,1288.79 879.092,1289.96 880.423,1291.11 881.753,1292.23 883.084,1293.34 884.414,1294.42 885.745,1295.49 887.075,1296.53 888.406,1297.55 889.737,1298.55 
  891.067,1299.53 892.398,1300.49 893.728,1301.43 895.059,1302.34 896.389,1303.24 897.72,1304.11 899.05,1304.96 900.381,1305.8 901.711,1306.61 903.042,1307.4 
  904.372,1308.17 905.703,1308.92 907.034,1309.64 908.364,1310.35 909.695,1311.04 911.025,1311.71 912.356,1312.35 913.686,1312.98 915.017,1313.58 916.347,1314.17 
  917.678,1314.74 919.008,1315.28 920.339,1315.81 921.669,1316.31 923,1316.79 924.33,1317.26 925.661,1317.7 926.992,1318.13 928.322,1318.53 929.653,1318.92 
  930.983,1319.29 932.314,1319.63 933.644,1319.96 934.975,1320.27 936.305,1320.56 937.636,1320.83 938.966,1321.08 940.297,1321.31 941.627,1321.53 942.958,1321.73 
  944.289,1321.9 945.619,1322.06 946.95,1322.2 948.28,1322.33 949.611,1322.43 950.941,1322.51 952.272,1322.58 953.602,1322.63 954.933,1322.66 956.263,1322.67 
  957.594,1322.67 958.924,1322.64 960.255,1322.6 961.585,1322.54 962.916,1322.46 964.247,1322.36 965.577,1322.25 966.908,1322.12 968.238,1321.97 969.569,1321.8 
  970.899,1321.62 972.23,1321.41 973.56,1321.19 974.891,1320.96 976.221,1320.7 977.552,1320.43 978.882,1320.14 980.213,1319.84 981.544,1319.52 982.874,1319.18 
  984.205,1318.82 985.535,1318.45 986.866,1318.06 988.196,1317.66 989.527,1317.24 990.857,1316.8 992.188,1316.35 993.518,1315.88 994.849,1315.4 996.179,1314.9 
  997.51,1314.38 998.841,1313.85 1000.17,1313.31 1001.5,1312.75 1002.83,1312.17 1004.16,1311.58 1005.49,1310.97 1006.82,1310.35 1008.15,1309.72 1009.48,1309.07 
  1010.82,1308.41 1012.15,1307.73 1013.48,1307.04 1014.81,1306.33 1016.14,1305.61 1017.47,1304.88 1018.8,1304.14 1020.13,1303.38 1021.46,1302.61 1022.79,1301.82 
  1024.12,1301.02 1025.45,1300.21 1026.78,1299.39 1028.11,1298.55 1029.44,1297.71 1030.77,1296.85 1032.1,1295.98 1033.43,1295.09 1034.76,1294.2 1036.1,1293.29 
  1037.43,1292.37 1038.76,1291.44 1040.09,1290.5 1041.42,1289.55 1042.75,1288.59 1044.08,1287.62 1045.41,1286.64 1046.74,1285.64 1048.07,1284.64 1049.4,1283.63 
  1050.73,1282.6 1052.06,1281.57 1053.39,1280.53 1054.72,1279.48 1056.05,1278.41 1057.38,1277.35 1058.71,1276.27 1060.05,1275.18 1061.38,1274.08 1062.71,1272.98 
  1064.04,1271.86 1065.37,1270.74 1066.7,1269.61 1068.03,1268.48 1069.36,1267.33 1070.69,1266.18 1072.02,1265.02 1073.35,1263.85 1074.68,1262.68 1076.01,1261.49 
  1077.34,1260.31 1078.67,1259.11 1080,1257.91 1081.33,1256.7 1082.66,1255.49 1083.99,1254.26 1085.33,1253.04 1086.66,1251.8 1087.99,1250.57 1089.32,1249.32 
  1090.65,1248.07 1091.98,1246.82 1093.31,1245.56 1094.64,1244.29 1095.97,1243.02 1097.3,1241.74 1098.63,1240.46 1099.96,1239.18 1101.29,1237.89 1102.62,1236.59 
  1103.95,1235.3 1105.28,1234 1106.61,1232.69 1107.94,1231.38 1109.27,1230.07 1110.61,1228.76 1111.94,1227.44 1113.27,1226.13 1114.6,1224.8 1115.93,1223.48 
  1117.26,1222.15 1118.59,1220.83 1119.92,1219.49 1121.25,1218.16 1122.58,1216.83 1123.91,1215.49 1125.24,1214.15 1126.57,1212.81 1127.9,1211.47 1129.23,1210.12 
  1130.56,1208.78 1131.89,1207.43 1133.22,1206.09 1134.56,1204.74 1135.89,1203.39 1137.22,1202.04 1138.55,1200.69 1139.88,1199.34 1141.21,1197.99 1142.54,1196.64 
  1143.87,1195.29 1145.2,1193.94 1146.53,1192.59 1147.86,1191.24 1149.19,1189.89 1150.52,1188.54 1151.85,1187.19 1153.18,1185.84 1154.51,1184.49 1155.84,1183.15 
  1157.17,1181.8 1158.5,1180.46 1159.84,1179.12 1161.17,1177.78 1162.5,1176.44 1163.83,1175.11 1165.16,1173.77 1166.49,1172.44 1167.82,1171.11 1169.15,1169.79 
  1170.48,1168.46 1171.81,1167.14 1173.14,1165.82 1174.47,1164.51 1175.8,1163.19 1177.13,1161.88 1178.46,1160.58 1179.79,1159.28 1181.12,1157.98 1182.45,1156.68 
  1183.79,1155.39 1185.12,1154.11 1186.45,1152.82 1187.78,1151.55 1189.11,1150.27 1190.44,1149 1191.77,1147.74 1193.1,1146.48 1194.43,1145.23 1195.76,1143.98 
  1197.09,1142.73 1198.42,1141.5 1199.75,1140.26 1201.08,1139.04 1202.41,1137.82 1203.74,1136.6 1205.07,1135.39 1206.4,1134.19 1207.73,1132.99 1209.07,1131.8 
  1210.4,1130.62 1211.73,1129.44 1213.06,1128.27 1214.39,1127.11 1215.72,1125.95 1217.05,1124.8 1218.38,1123.66 1219.71,1122.53 1221.04,1121.4 1222.37,1120.28 
  1223.7,1119.17 1225.03,1118.07 1226.36,1116.97 1227.69,1115.89 1229.02,1114.81 1230.35,1113.74 1231.68,1112.67 1233.01,1111.62 1234.35,1110.57 1235.68,1109.54 
  1237.01,1108.51 1238.34,1107.49 1239.67,1106.48 1241,1105.48 1242.33,1104.48 1243.66,1103.5 1244.99,1102.53 1246.32,1101.56 1247.65,1100.61 1248.98,1099.66 
  1250.31,1098.72 1251.64,1097.8 1252.97,1096.88 1254.3,1095.98 1255.63,1095.08 1256.96,1094.19 1258.3,1093.32 1259.63,1092.45 1260.96,1091.59 1262.29,1090.75 
  1263.62,1089.91 1264.95,1089.08 1266.28,1088.27 1267.61,1087.46 1268.94,1086.67 1270.27,1085.89 1271.6,1085.11 1272.93,1084.35 1274.26,1083.6 1275.59,1082.86 
  1276.92,1082.12 1278.25,1081.4 1279.58,1080.7 1280.91,1080 1282.24,1079.31 1283.58,1078.63 1284.91,1077.97 1286.24,1077.31 1287.57,1076.67 1288.9,1076.03 
  1290.23,1075.41 1291.56,1074.8 1292.89,1074.2 1294.22,1073.61 1295.55,1073.03 1296.88,1072.46 1298.21,1071.9 1299.54,1071.36 1300.87,1070.82 1302.2,1070.3 
  1303.53,1069.79 1304.86,1069.29 1306.19,1068.8 1307.52,1068.32 1308.86,1067.85 1310.19,1067.4 1311.52,1066.95 1312.85,1066.52 1314.18,1066.1 1315.51,1065.69 
  1316.84,1065.3 1318.17,1064.91 1319.5,1064.54 1320.83,1064.18 1322.16,1063.83 1323.49,1063.49 1324.82,1063.17 1326.15,1062.85 1327.48,1062.55 1328.81,1062.26 
  1330.14,1061.99 1331.47,1061.72 1332.81,1061.47 1334.14,1061.23 1335.47,1061 1336.8,1060.78 1338.13,1060.57 1339.46,1060.38 1340.79,1060.2 1342.12,1060.03 
  1343.45,1059.88 1344.78,1059.73 1346.11,1059.6 1347.44,1059.48 1348.77,1059.37 1350.1,1059.28 1351.43,1059.2 1352.76,1059.12 1354.09,1059.06 1355.42,1059.02 
  1356.75,1058.98 1358.09,1058.96 1359.42,1058.95 1360.75,1058.95 1362.08,1058.97 1363.41,1058.99 1364.74,1059.03 1366.07,1059.08 1367.4,1059.14 1368.73,1059.21 
  1370.06,1059.3 1371.39,1059.4 1372.72,1059.51 1374.05,1059.63 1375.38,1059.76 1376.71,1059.9 1378.04,1060.06 1379.37,1060.23 1380.7,1060.41 1382.03,1060.6 
  1383.37,1060.8 1384.7,1061.02 1386.03,1061.24 1387.36,1061.48 1388.69,1061.73 1390.02,1061.99 1391.35,1062.26 1392.68,1062.55 1394.01,1062.84 1395.34,1063.15 
  1396.67,1063.46 1398,1063.79 1399.33,1064.13 1400.66,1064.48 1401.99,1064.84 1403.32,1065.21 1404.65,1065.6 1405.98,1065.99 1407.32,1066.39 1408.65,1066.81 
  1409.98,1067.23 1411.31,1067.67 1412.64,1068.12 1413.97,1068.57 1415.3,1069.04 1416.63,1069.52 1417.96,1070 1419.29,1070.5 1420.62,1071.01 1421.95,1071.53 
  1423.28,1072.05 1424.61,1072.59 1425.94,1073.14 1427.27,1073.7 1428.6,1074.26 1429.93,1074.84 1431.26,1075.42 1432.6,1076.02 1433.93,1076.62 1435.26,1077.23 
  1436.59,1077.86 1437.92,1078.49 1439.25,1079.13 1440.58,1079.78 1441.91,1080.43 1443.24,1081.1 1444.57,1081.78 1445.9,1082.46 1447.23,1083.15 1448.56,1083.85 
  1449.89,1084.56 1451.22,1085.28 1452.55,1086 1453.88,1086.73 1455.21,1087.47 1456.54,1088.22 1457.88,1088.98 1459.21,1089.74 1460.54,1090.51 1461.87,1091.29 
  1463.2,1092.07 1464.53,1092.86 1465.86,1093.66 1467.19,1094.47 1468.52,1095.28 1469.85,1096.1 1471.18,1096.93 1472.51,1097.76 1473.84,1098.6 1475.17,1099.45 
  1476.5,1100.3 1477.83,1101.16 1479.16,1102.02 1480.49,1102.89 1481.83,1103.76 1483.16,1104.65 1484.49,1105.53 1485.82,1106.42 1487.15,1107.32 1488.48,1108.22 
  1489.81,1109.13 1491.14,1110.04 1492.47,1110.96 1493.8,1111.88 1495.13,1112.81 1496.46,1113.74 1497.79,1114.68 1499.12,1115.61 1500.45,1116.55 1501.78,1117.49 
  1503.11,1118.44 1504.44,1119.39 1505.77,1120.34 1507.11,1121.29 1508.44,1122.25 1509.77,1123.21 1511.1,1124.17 1512.43,1125.13 1513.76,1126.1 1515.09,1127.06 
  1516.42,1128.04 1517.75,1129.01 1519.08,1129.98 1520.41,1130.96 1521.74,1131.94 1523.07,1132.93 1524.4,1133.91 1525.73,1134.9 1527.06,1135.89 1528.39,1136.88 
  1529.72,1137.87 1531.05,1138.87 1532.39,1139.86 1533.72,1140.86 1535.05,1141.86 1536.38,1142.86 1537.71,1143.87 1539.04,1144.87 1540.37,1145.88 1541.7,1146.89 
  1543.03,1147.89 1544.36,1148.9 1545.69,1149.91 1547.02,1150.93 1548.35,1151.94 1549.68,1152.95 1551.01,1153.96 1552.34,1154.98 1553.67,1155.99 1555,1157.01 
  1556.34,1158.02 1557.67,1159.04 1559,1160.05 1560.33,1161.06 1561.66,1162.08 1562.99,1163.09 1564.32,1164.11 1565.65,1165.12 1566.98,1166.13 1568.31,1167.14 
  1569.64,1168.15 1570.97,1169.16 1572.3,1170.17 1573.63,1171.17 1574.96,1172.18 1576.29,1173.18 1577.62,1174.18 1578.95,1175.18 1580.28,1176.18 1581.62,1177.17 
  1582.95,1178.17 1584.28,1179.16 1585.61,1180.14 1586.94,1181.13 1588.27,1182.11 1589.6,1183.09 1590.93,1184.07 1592.26,1185.04 1593.59,1186.01 1594.92,1186.98 
  1596.25,1187.94 1597.58,1188.9 1598.91,1189.85 1600.24,1190.8 1601.57,1191.75 1602.9,1192.69 1604.23,1193.63 1605.56,1194.56 1606.9,1195.49 1608.23,1196.41 
  1609.56,1197.33 1610.89,1198.24 1612.22,1199.15 1613.55,1200.06 1614.88,1200.95 1616.21,1201.84 1617.54,1202.73 1618.87,1203.61 1620.2,1204.48 1621.53,1205.35 
  1622.86,1206.21 1624.19,1207.06 1625.52,1207.91 1626.85,1208.75 1628.18,1209.58 1629.51,1210.41 1630.85,1211.23 1632.18,1212.04 1633.51,1212.85 1634.84,1213.64 
  1636.17,1214.43 1637.5,1215.21 1638.83,1215.99 1640.16,1216.75 1641.49,1217.51 1642.82,1218.26 1644.15,1219 1645.48,1219.73 1646.81,1220.45 1648.14,1221.16 
  1649.47,1221.87 1650.8,1222.57 1652.13,1223.25 1653.46,1223.93 1654.79,1224.6 1656.13,1225.26 1657.46,1225.91 1658.79,1226.55 1660.12,1227.17 1661.45,1227.79 
  1662.78,1228.4 1664.11,1229 1665.44,1229.59 1666.77,1230.17 1668.1,1230.74 1669.43,1231.3 1670.76,1231.84 1672.09,1232.38 1673.42,1232.91 1674.75,1233.42 
  1676.08,1233.93 1677.41,1234.42 1678.74,1234.9 1680.07,1235.37 1681.41,1235.83 1682.74,1236.28 1684.07,1236.71 1685.4,1237.14 1686.73,1237.55 1688.06,1237.95 
  1689.39,1238.35 1690.72,1238.72 1692.05,1239.09 1693.38,1239.45 1694.71,1239.79 1696.04,1240.12 1697.37,1240.44 1698.7,1240.75 1700.03,1241.04 1701.36,1241.32 
  1702.69,1241.59 1704.02,1241.85 1705.36,1242.1 1706.69,1242.33 1708.02,1242.56 1709.35,1242.77 1710.68,1242.96 1712.01,1243.15 1713.34,1243.32 1714.67,1243.48 
  1716,1243.63 1717.33,1243.77 1718.66,1243.89 1719.99,1244 1721.32,1244.1 1722.65,1244.18 1723.98,1244.25 1725.31,1244.31 1726.64,1244.36 1727.97,1244.39 
  1729.3,1244.41 1730.64,1244.41 1731.97,1244.41 1733.3,1244.39 1734.63,1244.35 1735.96,1244.31 1737.29,1244.25 1738.62,1244.17 1739.95,1244.09 1741.28,1243.99 
  1742.61,1243.87 1743.94,1243.75 1745.27,1243.6 1746.6,1243.45 1747.93,1243.28 1749.26,1243.1 1750.59,1242.91 1751.92,1242.7 1753.25,1242.47 1754.58,1242.24 
  1755.92,1241.99 1757.25,1241.72 1758.58,1241.45 1759.91,1241.15 1761.24,1240.85 1762.57,1240.53 1763.9,1240.19 1765.23,1239.85 1766.56,1239.49 1767.89,1239.11 
  1769.22,1238.72 1770.55,1238.32 1771.88,1237.9 1773.21,1237.47 1774.54,1237.02 1775.87,1236.56 1777.2,1236.08 1778.53,1235.6 1779.87,1235.09 1781.2,1234.58 
  1782.53,1234.04 1783.86,1233.5 1785.19,1232.94 1786.52,1232.36 1787.85,1231.77 1789.18,1231.17 1790.51,1230.55 1791.84,1229.92 1793.17,1229.27 1794.5,1228.61 
  1795.83,1227.94 1797.16,1227.25 1798.49,1226.55 1799.82,1225.83 1801.15,1225.09 1802.48,1224.35 1803.81,1223.59 1805.15,1222.81 1806.48,1222.02 1807.81,1221.21 
  1809.14,1220.4 1810.47,1219.56 1811.8,1218.71 1813.13,1217.85 1814.46,1216.98 1815.79,1216.08 1817.12,1215.18 1818.45,1214.26 1819.78,1213.32 1821.11,1212.38 
  1822.44,1211.41 1823.77,1210.44 1825.1,1209.45 1826.43,1208.44 1827.76,1207.42 1829.1,1206.39 1830.43,1205.34 1831.76,1204.28 1833.09,1203.2 1834.42,1202.11 
  1835.75,1201.01 1837.08,1199.89 1838.41,1198.75 1839.74,1197.61 1841.07,1196.45 1842.4,1195.27 1843.73,1194.09 1845.06,1192.88 1846.39,1191.67 1847.72,1190.44 
  1849.05,1189.19 1850.38,1187.94 1851.71,1186.67 1853.04,1185.38 1854.38,1184.09 1855.71,1182.78 1857.04,1181.45 1858.37,1180.11 1859.7,1178.76 1861.03,1177.4 
  1862.36,1176.02 1863.69,1174.63 1865.02,1173.23 1866.35,1171.81 1867.68,1170.38 1869.01,1168.94 1870.34,1167.49 1871.67,1166.02 1873,1164.54 1874.33,1163.05 
  1875.66,1161.54 1876.99,1160.03 1878.32,1158.5 1879.66,1156.95 1880.99,1155.4 1882.32,1153.83 1883.65,1152.26 1884.98,1150.67 1886.31,1149.07 1887.64,1147.45 
  1888.97,1145.83 1890.3,1144.19 1891.63,1142.54 1892.96,1140.89 1894.29,1139.22 1895.62,1137.53 1896.95,1135.84 1898.28,1134.14 1899.61,1132.43 1900.94,1130.7 
  1902.27,1128.97 1903.61,1127.22 1904.94,1125.47 1906.27,1123.7 1907.6,1121.93 1908.93,1120.14 1910.26,1118.35 1911.59,1116.54 1912.92,1114.73 1914.25,1112.9 
  1915.58,1111.07 1916.91,1109.23 1918.24,1107.38 1919.57,1105.52 1920.9,1103.65 1922.23,1101.77 1923.56,1099.89 1924.89,1097.99 1926.22,1096.09 1927.55,1094.18 
  1928.89,1092.26 1930.22,1090.34 1931.55,1088.41 1932.88,1086.47 1934.21,1084.52 1935.54,1082.58 1936.87,1080.62 1938.2,1078.66 1939.53,1076.7 1940.86,1074.73 
  1942.19,1072.75 1943.52,1070.77 1944.85,1068.79 1946.18,1066.79 1947.51,1064.8 1948.84,1062.79 1950.17,1060.78 1951.5,1058.77 1952.83,1056.75 1954.17,1054.72 
  1955.5,1052.69 1956.83,1050.65 1958.16,1048.61 1959.49,1046.56 1960.82,1044.5 1962.15,1042.44 1963.48,1040.38 1964.81,1038.3 1966.14,1036.23 1967.47,1034.15 
  1968.8,1032.06 1970.13,1029.96 1971.46,1027.87 1972.79,1025.76 1974.12,1023.65 1975.45,1021.54 1976.78,1019.42 1978.12,1017.29 1979.45,1015.17 1980.78,1013.03 
  1982.11,1010.89 1983.44,1008.75 1984.77,1006.6 1986.1,1004.45 1987.43,1002.29 1988.76,1000.13 1990.09,997.967 1991.42,995.798 1992.75,993.625 1994.08,991.448 
  1995.41,989.268 1996.74,987.084 1998.07,984.897 1999.4,982.706 2000.73,980.512 2002.06,978.315 2003.4,976.115 2004.73,973.913 2006.06,971.707 2007.39,969.5 
  2008.72,967.29 2010.05,965.077 2011.38,962.863 2012.71,960.646 2014.04,958.428 2015.37,956.208 2016.7,953.987 2018.03,951.764 2019.36,949.541 2020.69,947.316 
  2022.02,945.09 2023.35,942.864 2024.68,940.637 2026.01,938.409 2027.34,936.182 2028.68,933.954 2030.01,931.727 2031.34,929.499 2032.67,927.272 2034,925.046 
  2035.33,922.821 2036.66,920.596 2037.99,918.373 2039.32,916.151 2040.65,913.93 2041.98,911.711 2043.31,909.493 2044.64,907.278 2045.97,905.065 2047.3,902.854 
  2048.63,900.645 2049.96,898.439 2051.29,896.236 2052.63,894.036 2053.96,891.839 2055.29,889.645 2056.62,887.455 2057.95,885.268 2059.28,883.086 2060.61,880.907 
  2061.94,878.732 2063.27,876.562 2064.6,874.396 2065.93,872.235 2067.26,870.078 2068.59,867.927 2069.92,865.781 2071.25,863.64 2072.58,861.504 2073.91,859.374 
  2075.24,857.25 2076.57,855.132 2077.91,853.02 2079.24,850.914 2080.57,848.815 2081.9,846.722 2083.23,844.636 2084.56,842.556 2085.89,840.484 2087.22,838.419 
  2088.55,836.361 2089.88,834.311 2091.21,832.268 2092.54,830.233 2093.87,828.205 2095.2,826.186 2096.53,824.175 2097.86,822.172 2099.19,820.177 2100.52,818.191 
  2101.85,816.214 2103.19,814.245 2104.52,812.285 2105.85,810.335 2107.18,808.393 2108.51,806.46 2109.84,804.537 2111.17,802.624 2112.5,800.719 2113.83,798.825 
  2115.16,796.94 2116.49,795.065 2117.82,793.2 2119.15,791.345 2120.48,789.5 2121.81,787.666 2123.14,785.841 2124.47,784.027 2125.8,782.224 2127.14,780.431 
  2128.47,778.648 2129.8,776.876 2131.13,775.115 2132.46,773.365 2133.79,771.625 2135.12,769.897 2136.45,768.179 2137.78,766.472 2139.11,764.776 2140.44,763.091 
  2141.77,761.417 2143.1,759.755 2144.43,758.104 2145.76,756.464 2147.09,754.836 2148.42,753.219 2149.75,751.614 2151.08,750.021 2152.42,748.44 2153.75,746.87 
  2155.08,745.313 2156.41,743.768 2157.74,742.235 2159.07,740.714 2160.4,739.205 2161.73,737.709 2163.06,736.226 2164.39,734.755 2165.72,733.297 2167.05,731.851 
  2168.38,730.419 2169.71,728.999 2171.04,727.592 2172.37,726.198 2173.7,724.818 2175.03,723.45 2176.36,722.096 2177.7,720.755 2179.03,719.428 2180.36,718.114 
  2181.69,716.813 2183.02,715.527 2184.35,714.253 2185.68,712.994 2187.01,711.748 2188.34,710.516 2189.67,709.298 2191,708.093 2192.33,706.903 2193.66,705.726 
  2194.99,704.564 2196.32,703.416 2197.65,702.282 2198.98,701.162 2200.31,700.056 
  "/>
<path clip-path="url(#clip560)" d="
M1912.94 211.957 L2190.28 211.957 L2190.28 90.9966 L1912.94 90.9966  Z
  " fill="#ffffff" fill-rule="evenodd" fill-opacity="1"/>
<polyline clip-path="url(#clip560)" style="stroke:#000000; stroke-width:4; stroke-opacity:1; fill:none" points="
  1912.94,211.957 2190.28,211.957 2190.28,90.9966 1912.94,90.9966 1912.94,211.957 
  "/>
<polyline clip-path="url(#clip560)" style="stroke:#009af9; stroke-width:4; stroke-opacity:1; fill:none" points="
  1935.1,151.477 2068.05,151.477 
  "/>
<path clip-path="url(#clip560)" d="M 0 0 M2124.99 129.578 L2124.03 137.87 Q2123.96 138.619 2123.84 138.853 Q2123.72 139.064 2123.35 139.064 Q2123.07 139.064 2122.9 138.9 Q2122.76 138.713 2122.76 138.502 Q2122.76 138.385 2122.79 138.08 Q2122.81 137.776 2122.81 137.635 Q2123.02 136.183 2123.02 135.082 Q2123.02 133.044 2122.41 131.944 Q2121.8 130.819 2120.23 130.304 Q2118.66 129.765 2115.71 129.765 L2108.97 129.765 Q2107.42 129.765 2107.05 130.046 Q2106.7 130.327 2106.37 131.639 L2103.49 143.186 L2108.01 143.186 Q2109.69 143.186 2110.7 142.976 Q2111.73 142.765 2112.41 142.179 Q2113.11 141.57 2113.49 140.75 Q2113.89 139.931 2114.28 138.455 Q2114.4 137.963 2114.52 137.776 Q2114.66 137.588 2114.96 137.588 Q2115.2 137.588 2115.36 137.752 Q2115.53 137.893 2115.53 138.104 L2112.79 149.323 Q2112.64 149.885 2112.5 150.096 Q2112.36 150.283 2112.08 150.283 Q2111.78 150.283 2111.61 150.119 Q2111.45 149.955 2111.45 149.768 Q2111.45 149.581 2111.59 149.229 Q2111.94 147.707 2111.94 146.887 Q2111.94 146.419 2111.9 146.184 Q2111.87 145.95 2111.66 145.622 Q2111.47 145.271 2111.05 145.107 Q2110.63 144.943 2109.83 144.826 Q2109.04 144.685 2107.84 144.685 L2103.11 144.685 L2099.83 157.779 Q2099.6 158.645 2099.6 158.879 Q2099.6 159.137 2099.72 159.231 Q2099.86 159.301 2100.23 159.348 Q2100.65 159.418 2101.28 159.418 L2108.29 159.418 Q2109.83 159.418 2111.08 159.278 Q2112.32 159.137 2113.35 158.786 Q2114.4 158.434 2115.2 158.036 Q2115.99 157.638 2116.74 156.912 Q2117.49 156.162 2118.01 155.507 Q2118.55 154.827 2119.18 153.68 Q2119.81 152.532 2120.26 151.595 Q2120.7 150.635 2121.38 149.089 Q2121.57 148.527 2122.01 148.527 Q2122.27 148.527 2122.41 148.667 Q2122.55 148.784 2122.58 148.901 L2122.58 149.042 Q2122.44 149.487 2122.34 149.721 L2117.94 160.074 Q2117.68 160.66 2117.47 160.777 Q2117.26 160.894 2116.44 160.894 L2091.54 160.894 Q2090.98 160.894 2090.74 160.87 Q2090.53 160.847 2090.37 160.73 Q2090.21 160.589 2090.21 160.308 Q2090.21 159.863 2090.39 159.676 Q2090.58 159.465 2090.79 159.442 Q2091 159.418 2091.54 159.418 Q2092.71 159.418 2093.42 159.348 Q2094.12 159.278 2094.56 159.184 Q2095.03 159.067 2095.27 158.739 Q2095.52 158.411 2095.64 158.13 Q2095.76 157.825 2095.92 157.146 L2102.25 131.78 Q2102.48 130.913 2102.48 130.632 Q2102.48 130.327 2102.27 130.14 Q2102.08 129.953 2101.57 129.882 Q2101.05 129.789 2100.63 129.789 Q2100.23 129.765 2099.36 129.765 Q2098.8 129.765 2098.57 129.742 Q2098.36 129.718 2098.19 129.601 Q2098.03 129.484 2098.03 129.227 Q2098.03 128.571 2098.31 128.43 Q2098.61 128.266 2099.46 128.266 L2123.68 128.266 Q2124.64 128.266 2124.85 128.477 Q2125.08 128.664 2124.99 129.578 Z" fill="#000000" fill-rule="evenodd" fill-opacity="1" /><path clip-path="url(#clip560)" d="M 0 0 M2129.87 154.888 L2129.87 153.839 Q2133.9 153.839 2135.99 151.691 Q2136.56 151.691 2136.66 151.822 Q2136.76 151.953 2136.76 152.56 L2136.76 171.398 Q2136.76 172.399 2137.25 172.71 Q2137.74 173.022 2139.89 173.022 L2140.95 173.022 L2140.95 174.054 Q2139.77 173.956 2135.51 173.956 Q2131.25 173.956 2130.08 174.054 L2130.08 173.022 L2131.15 173.022 Q2133.27 173.022 2133.77 172.726 Q2134.28 172.415 2134.28 171.398 L2134.28 154.003 Q2132.53 154.888 2129.87 154.888 Z" fill="#000000" fill-rule="evenodd" fill-opacity="1" /></svg>
