<?xml version="1.0" encoding="utf-8"?>
<svg xmlns="http://www.w3.org/2000/svg" xmlns:xlink="http://www.w3.org/1999/xlink" width="576" height="384" viewBox="0 0 2304 1536">
<defs>
  <clipPath id="clip520">
    <rect x="0" y="0" width="2304" height="1536"/>
  </clipPath>
</defs>
<path clip-path="url(#clip520)" d="
M0 1536 L2304 1536 L2304 0 L0 0  Z
  " fill="#ffffff" fill-rule="evenodd" fill-opacity="1"/>
<defs>
  <clipPath id="clip521">
    <rect x="460" y="0" width="1614" height="1536"/>
  </clipPath>
</defs>
<defs>
  <clipPath id="clip522">
    <rect x="1368" y="418" width="903" height="1009"/>
  </clipPath>
</defs>
<path clip-path="url(#clip520)" d="
M289.509 1359.82 L2256.76 1359.82 L2256.76 47.2441 L289.509 47.2441  Z
  " fill="#ffffff" fill-rule="evenodd" fill-opacity="1"/>
<defs>
  <clipPath id="clip523">
    <rect x="289" y="47" width="1968" height="1314"/>
  </clipPath>
</defs>
<polyline clip-path="url(#clip523)" style="stroke:#000000; stroke-width:2; stroke-opacity:0.1; fill:none" points="
  345.186,1359.82 345.186,47.2441 
  "/>
<polyline clip-path="url(#clip523)" style="stroke:#000000; stroke-width:2; stroke-opacity:0.1; fill:none" points="
  673.314,1359.82 673.314,47.2441 
  "/>
<polyline clip-path="url(#clip523)" style="stroke:#000000; stroke-width:2; stroke-opacity:0.1; fill:none" points="
  1001.44,1359.82 1001.44,47.2441 
  "/>
<polyline clip-path="url(#clip523)" style="stroke:#000000; stroke-width:2; stroke-opacity:0.1; fill:none" points="
  1329.57,1359.82 1329.57,47.2441 
  "/>
<polyline clip-path="url(#clip523)" style="stroke:#000000; stroke-width:2; stroke-opacity:0.1; fill:none" points="
  1657.7,1359.82 1657.7,47.2441 
  "/>
<polyline clip-path="url(#clip523)" style="stroke:#000000; stroke-width:2; stroke-opacity:0.1; fill:none" points="
  1985.83,1359.82 1985.83,47.2441 
  "/>
<polyline clip-path="url(#clip520)" style="stroke:#000000; stroke-width:4; stroke-opacity:1; fill:none" points="
  289.509,1359.82 2256.76,1359.82 
  "/>
<polyline clip-path="url(#clip520)" style="stroke:#000000; stroke-width:4; stroke-opacity:1; fill:none" points="
  345.186,1359.82 345.186,1344.07 
  "/>
<polyline clip-path="url(#clip520)" style="stroke:#000000; stroke-width:4; stroke-opacity:1; fill:none" points="
  673.314,1359.82 673.314,1344.07 
  "/>
<polyline clip-path="url(#clip520)" style="stroke:#000000; stroke-width:4; stroke-opacity:1; fill:none" points="
  1001.44,1359.82 1001.44,1344.07 
  "/>
<polyline clip-path="url(#clip520)" style="stroke:#000000; stroke-width:4; stroke-opacity:1; fill:none" points="
  1329.57,1359.82 1329.57,1344.07 
  "/>
<polyline clip-path="url(#clip520)" style="stroke:#000000; stroke-width:4; stroke-opacity:1; fill:none" points="
  1657.7,1359.82 1657.7,1344.07 
  "/>
<polyline clip-path="url(#clip520)" style="stroke:#000000; stroke-width:4; stroke-opacity:1; fill:none" points="
  1985.83,1359.82 1985.83,1344.07 
  "/>
<path clip-path="url(#clip520)" d="M 0 0 M326.702 1388.24 Q323.091 1388.24 321.262 1391.81 Q319.457 1395.35 319.457 1402.48 Q319.457 1409.59 321.262 1413.15 Q323.091 1416.69 326.702 1416.69 Q330.336 1416.69 332.142 1413.15 Q333.971 1409.59 333.971 1402.48 Q333.971 1395.35 332.142 1391.81 Q330.336 1388.24 326.702 1388.24 M326.702 1384.54 Q332.512 1384.54 335.568 1389.15 Q338.646 1393.73 338.646 1402.48 Q338.646 1411.21 335.568 1415.81 Q332.512 1420.4 326.702 1420.4 Q320.892 1420.4 317.813 1415.81 Q314.758 1411.21 314.758 1402.48 Q314.758 1393.73 317.813 1389.15 Q320.892 1384.54 326.702 1384.54 Z" fill="#000000" fill-rule="evenodd" fill-opacity="1" /><path clip-path="url(#clip520)" d="M 0 0 M343.716 1413.84 L348.6 1413.84 L348.6 1419.72 L343.716 1419.72 L343.716 1413.84 Z" fill="#000000" fill-rule="evenodd" fill-opacity="1" /><path clip-path="url(#clip520)" d="M 0 0 M363.669 1388.24 Q360.058 1388.24 358.23 1391.81 Q356.424 1395.35 356.424 1402.48 Q356.424 1409.59 358.23 1413.15 Q360.058 1416.69 363.669 1416.69 Q367.304 1416.69 369.109 1413.15 Q370.938 1409.59 370.938 1402.48 Q370.938 1395.35 369.109 1391.81 Q367.304 1388.24 363.669 1388.24 M363.669 1384.54 Q369.48 1384.54 372.535 1389.15 Q375.614 1393.73 375.614 1402.48 Q375.614 1411.21 372.535 1415.81 Q369.48 1420.4 363.669 1420.4 Q357.859 1420.4 354.781 1415.81 Q351.725 1411.21 351.725 1402.48 Q351.725 1393.73 354.781 1389.15 Q357.859 1384.54 363.669 1384.54 Z" fill="#000000" fill-rule="evenodd" fill-opacity="1" /><path clip-path="url(#clip520)" d="M 0 0 M649.981 1415.79 L666.3 1415.79 L666.3 1419.72 L644.356 1419.72 L644.356 1415.79 Q647.018 1413.03 651.601 1408.4 Q656.208 1403.75 657.388 1402.41 Q659.634 1399.89 660.513 1398.15 Q661.416 1396.39 661.416 1394.7 Q661.416 1391.95 659.471 1390.21 Q657.55 1388.47 654.448 1388.47 Q652.249 1388.47 649.796 1389.24 Q647.365 1390 644.587 1391.55 L644.587 1386.83 Q647.411 1385.7 649.865 1385.12 Q652.319 1384.54 654.356 1384.54 Q659.726 1384.54 662.921 1387.22 Q666.115 1389.91 666.115 1394.4 Q666.115 1396.53 665.305 1398.45 Q664.518 1400.35 662.411 1402.94 Q661.833 1403.61 658.731 1406.83 Q655.629 1410.02 649.981 1415.79 Z" fill="#000000" fill-rule="evenodd" fill-opacity="1" /><path clip-path="url(#clip520)" d="M 0 0 M671.37 1413.84 L676.254 1413.84 L676.254 1419.72 L671.37 1419.72 L671.37 1413.84 Z" fill="#000000" fill-rule="evenodd" fill-opacity="1" /><path clip-path="url(#clip520)" d="M 0 0 M681.37 1385.16 L699.726 1385.16 L699.726 1389.1 L685.652 1389.1 L685.652 1397.57 Q686.67 1397.22 687.689 1397.06 Q688.707 1396.88 689.726 1396.88 Q695.513 1396.88 698.893 1400.05 Q702.272 1403.22 702.272 1408.64 Q702.272 1414.21 698.8 1417.32 Q695.328 1420.4 689.008 1420.4 Q686.832 1420.4 684.564 1420.02 Q682.319 1419.65 679.911 1418.91 L679.911 1414.21 Q681.995 1415.35 684.217 1415.9 Q686.439 1416.46 688.916 1416.46 Q692.92 1416.46 695.258 1414.35 Q697.596 1412.25 697.596 1408.64 Q697.596 1405.02 695.258 1402.92 Q692.92 1400.81 688.916 1400.81 Q687.041 1400.81 685.166 1401.23 Q683.314 1401.65 681.37 1402.52 L681.37 1385.16 Z" fill="#000000" fill-rule="evenodd" fill-opacity="1" /><path clip-path="url(#clip520)" d="M 0 0 M973.236 1385.16 L991.593 1385.16 L991.593 1389.1 L977.519 1389.1 L977.519 1397.57 Q978.537 1397.22 979.556 1397.06 Q980.574 1396.88 981.593 1396.88 Q987.38 1396.88 990.759 1400.05 Q994.139 1403.22 994.139 1408.64 Q994.139 1414.21 990.667 1417.32 Q987.195 1420.4 980.875 1420.4 Q978.699 1420.4 976.431 1420.02 Q974.185 1419.65 971.778 1418.91 L971.778 1414.21 Q973.861 1415.35 976.084 1415.9 Q978.306 1416.46 980.783 1416.46 Q984.787 1416.46 987.125 1414.35 Q989.463 1412.25 989.463 1408.64 Q989.463 1405.02 987.125 1402.92 Q984.787 1400.81 980.783 1400.81 Q978.908 1400.81 977.033 1401.23 Q975.181 1401.65 973.236 1402.52 L973.236 1385.16 Z" fill="#000000" fill-rule="evenodd" fill-opacity="1" /><path clip-path="url(#clip520)" d="M 0 0 M999.208 1413.84 L1004.09 1413.84 L1004.09 1419.72 L999.208 1419.72 L999.208 1413.84 Z" fill="#000000" fill-rule="evenodd" fill-opacity="1" /><path clip-path="url(#clip520)" d="M 0 0 M1019.16 1388.24 Q1015.55 1388.24 1013.72 1391.81 Q1011.92 1395.35 1011.92 1402.48 Q1011.92 1409.59 1013.72 1413.15 Q1015.55 1416.69 1019.16 1416.69 Q1022.8 1416.69 1024.6 1413.15 Q1026.43 1409.59 1026.43 1402.48 Q1026.43 1395.35 1024.6 1391.81 Q1022.8 1388.24 1019.16 1388.24 M1019.16 1384.54 Q1024.97 1384.54 1028.03 1389.15 Q1031.11 1393.73 1031.11 1402.48 Q1031.11 1411.21 1028.03 1415.81 Q1024.97 1420.4 1019.16 1420.4 Q1013.35 1420.4 1010.27 1415.81 Q1007.22 1411.21 1007.22 1402.48 Q1007.22 1393.73 1010.27 1389.15 Q1013.35 1384.54 1019.16 1384.54 Z" fill="#000000" fill-rule="evenodd" fill-opacity="1" /><path clip-path="url(#clip520)" d="M 0 0 M1300.47 1385.16 L1322.7 1385.16 L1322.7 1387.15 L1310.15 1419.72 L1305.27 1419.72 L1317.07 1389.1 L1300.47 1389.1 L1300.47 1385.16 Z" fill="#000000" fill-rule="evenodd" fill-opacity="1" /><path clip-path="url(#clip520)" d="M 0 0 M1327.76 1413.84 L1332.65 1413.84 L1332.65 1419.72 L1327.76 1419.72 L1327.76 1413.84 Z" fill="#000000" fill-rule="evenodd" fill-opacity="1" /><path clip-path="url(#clip520)" d="M 0 0 M1337.76 1385.16 L1356.12 1385.16 L1356.12 1389.1 L1342.05 1389.1 L1342.05 1397.57 Q1343.07 1397.22 1344.08 1397.06 Q1345.1 1396.88 1346.12 1396.88 Q1351.91 1396.88 1355.29 1400.05 Q1358.67 1403.22 1358.67 1408.64 Q1358.67 1414.21 1355.2 1417.32 Q1351.72 1420.4 1345.4 1420.4 Q1343.23 1420.4 1340.96 1420.02 Q1338.71 1419.65 1336.31 1418.91 L1336.31 1414.21 Q1338.39 1415.35 1340.61 1415.9 Q1342.83 1416.46 1345.31 1416.46 Q1349.32 1416.46 1351.65 1414.35 Q1353.99 1412.25 1353.99 1408.64 Q1353.99 1405.02 1351.65 1402.92 Q1349.32 1400.81 1345.31 1400.81 Q1343.44 1400.81 1341.56 1401.23 Q1339.71 1401.65 1337.76 1402.52 L1337.76 1385.16 Z" fill="#000000" fill-rule="evenodd" fill-opacity="1" /><path clip-path="url(#clip520)" d="M 0 0 M1616.09 1415.79 L1623.73 1415.79 L1623.73 1389.42 L1615.42 1391.09 L1615.42 1386.83 L1623.68 1385.16 L1628.36 1385.16 L1628.36 1415.79 L1636 1415.79 L1636 1419.72 L1616.09 1419.72 L1616.09 1415.79 Z" fill="#000000" fill-rule="evenodd" fill-opacity="1" /><path clip-path="url(#clip520)" d="M 0 0 M1651.07 1388.24 Q1647.46 1388.24 1645.63 1391.81 Q1643.82 1395.35 1643.82 1402.48 Q1643.82 1409.59 1645.63 1413.15 Q1647.46 1416.69 1651.07 1416.69 Q1654.7 1416.69 1656.51 1413.15 Q1658.34 1409.59 1658.34 1402.48 Q1658.34 1395.35 1656.51 1391.81 Q1654.7 1388.24 1651.07 1388.24 M1651.07 1384.54 Q1656.88 1384.54 1659.93 1389.15 Q1663.01 1393.73 1663.01 1402.48 Q1663.01 1411.21 1659.93 1415.81 Q1656.88 1420.4 1651.07 1420.4 Q1645.26 1420.4 1642.18 1415.81 Q1639.12 1411.21 1639.12 1402.48 Q1639.12 1393.73 1642.18 1389.15 Q1645.26 1384.54 1651.07 1384.54 Z" fill="#000000" fill-rule="evenodd" fill-opacity="1" /><path clip-path="url(#clip520)" d="M 0 0 M1668.08 1413.84 L1672.96 1413.84 L1672.96 1419.72 L1668.08 1419.72 L1668.08 1413.84 Z" fill="#000000" fill-rule="evenodd" fill-opacity="1" /><path clip-path="url(#clip520)" d="M 0 0 M1688.03 1388.24 Q1684.42 1388.24 1682.59 1391.81 Q1680.79 1395.35 1680.79 1402.48 Q1680.79 1409.59 1682.59 1413.15 Q1684.42 1416.69 1688.03 1416.69 Q1691.67 1416.69 1693.47 1413.15 Q1695.3 1409.59 1695.3 1402.48 Q1695.3 1395.35 1693.47 1391.81 Q1691.67 1388.24 1688.03 1388.24 M1688.03 1384.54 Q1693.84 1384.54 1696.9 1389.15 Q1699.98 1393.73 1699.98 1402.48 Q1699.98 1411.21 1696.9 1415.81 Q1693.84 1420.4 1688.03 1420.4 Q1682.22 1420.4 1679.15 1415.81 Q1676.09 1411.21 1676.09 1402.48 Q1676.09 1393.73 1679.15 1389.15 Q1682.22 1384.54 1688.03 1384.54 Z" fill="#000000" fill-rule="evenodd" fill-opacity="1" /><path clip-path="url(#clip520)" d="M 0 0 M1945.51 1415.79 L1953.15 1415.79 L1953.15 1389.42 L1944.84 1391.09 L1944.84 1386.83 L1953.11 1385.16 L1957.78 1385.16 L1957.78 1415.79 L1965.42 1415.79 L1965.42 1419.72 L1945.51 1419.72 L1945.51 1415.79 Z" fill="#000000" fill-rule="evenodd" fill-opacity="1" /><path clip-path="url(#clip520)" d="M 0 0 M1974.52 1415.79 L1990.84 1415.79 L1990.84 1419.72 L1968.89 1419.72 L1968.89 1415.79 Q1971.56 1413.03 1976.14 1408.4 Q1980.75 1403.75 1981.93 1402.41 Q1984.17 1399.89 1985.05 1398.15 Q1985.95 1396.39 1985.95 1394.7 Q1985.95 1391.95 1984.01 1390.21 Q1982.09 1388.47 1978.99 1388.47 Q1976.79 1388.47 1974.33 1389.24 Q1971.9 1390 1969.13 1391.55 L1969.13 1386.83 Q1971.95 1385.7 1974.4 1385.12 Q1976.86 1384.54 1978.89 1384.54 Q1984.26 1384.54 1987.46 1387.22 Q1990.65 1389.91 1990.65 1394.4 Q1990.65 1396.53 1989.84 1398.45 Q1989.06 1400.35 1986.95 1402.94 Q1986.37 1403.61 1983.27 1406.83 Q1980.17 1410.02 1974.52 1415.79 Z" fill="#000000" fill-rule="evenodd" fill-opacity="1" /><path clip-path="url(#clip520)" d="M 0 0 M1995.91 1413.84 L2000.79 1413.84 L2000.79 1419.72 L1995.91 1419.72 L1995.91 1413.84 Z" fill="#000000" fill-rule="evenodd" fill-opacity="1" /><path clip-path="url(#clip520)" d="M 0 0 M2005.91 1385.16 L2024.26 1385.16 L2024.26 1389.1 L2010.19 1389.1 L2010.19 1397.57 Q2011.21 1397.22 2012.23 1397.06 Q2013.25 1396.88 2014.26 1396.88 Q2020.05 1396.88 2023.43 1400.05 Q2026.81 1403.22 2026.81 1408.64 Q2026.81 1414.21 2023.34 1417.32 Q2019.87 1420.4 2013.55 1420.4 Q2011.37 1420.4 2009.1 1420.02 Q2006.86 1419.65 2004.45 1418.91 L2004.45 1414.21 Q2006.53 1415.35 2008.76 1415.9 Q2010.98 1416.46 2013.45 1416.46 Q2017.46 1416.46 2019.8 1414.35 Q2022.13 1412.25 2022.13 1408.64 Q2022.13 1405.02 2019.8 1402.92 Q2017.46 1400.81 2013.45 1400.81 Q2011.58 1400.81 2009.7 1401.23 Q2007.85 1401.65 2005.91 1402.52 L2005.91 1385.16 Z" fill="#000000" fill-rule="evenodd" fill-opacity="1" /><path clip-path="url(#clip520)" d="M 0 0 M1208.54 1445.95 L1208.54 1456.08 L1220.6 1456.08 L1220.6 1460.63 L1208.54 1460.63 L1208.54 1479.98 Q1208.54 1484.34 1209.71 1485.58 Q1210.92 1486.82 1214.58 1486.82 L1220.6 1486.82 L1220.6 1491.72 L1214.58 1491.72 Q1207.8 1491.72 1205.23 1489.21 Q1202.65 1486.66 1202.65 1479.98 L1202.65 1460.63 L1198.35 1460.63 L1198.35 1456.08 L1202.65 1456.08 L1202.65 1445.95 L1208.54 1445.95 Z" fill="#000000" fill-rule="evenodd" fill-opacity="1" /><path clip-path="url(#clip520)" d="M 0 0 M1261.53 1442.26 Q1257.27 1449.58 1255.2 1456.74 Q1253.13 1463.91 1253.13 1471.26 Q1253.13 1478.61 1255.2 1485.84 Q1257.3 1493.03 1261.53 1500.32 L1256.44 1500.32 Q1251.66 1492.84 1249.28 1485.61 Q1246.92 1478.39 1246.92 1471.26 Q1246.92 1464.16 1249.28 1456.97 Q1251.63 1449.77 1256.44 1442.26 L1261.53 1442.26 Z" fill="#000000" fill-rule="evenodd" fill-opacity="1" /><path clip-path="url(#clip520)" d="M 0 0 M1297.31 1470.21 L1297.31 1491.72 L1291.45 1491.72 L1291.45 1470.4 Q1291.45 1465.34 1289.48 1462.82 Q1287.5 1460.31 1283.56 1460.31 Q1278.81 1460.31 1276.08 1463.33 Q1273.34 1466.36 1273.34 1471.58 L1273.34 1491.72 L1267.45 1491.72 L1267.45 1456.08 L1273.34 1456.08 L1273.34 1461.61 Q1275.44 1458.4 1278.27 1456.81 Q1281.14 1455.22 1284.86 1455.22 Q1291 1455.22 1294.16 1459.04 Q1297.31 1462.82 1297.31 1470.21 Z" fill="#000000" fill-rule="evenodd" fill-opacity="1" /><path clip-path="url(#clip520)" d="M 0 0 M1326.17 1457.13 L1326.17 1462.66 Q1323.69 1461.39 1321.02 1460.75 Q1318.34 1460.12 1315.48 1460.12 Q1311.12 1460.12 1308.92 1461.45 Q1306.76 1462.79 1306.76 1465.47 Q1306.76 1467.5 1308.32 1468.68 Q1309.88 1469.83 1314.59 1470.88 L1316.59 1471.32 Q1322.83 1472.66 1325.44 1475.11 Q1328.08 1477.53 1328.08 1481.89 Q1328.08 1486.85 1324.14 1489.75 Q1320.22 1492.65 1313.35 1492.65 Q1310.48 1492.65 1307.36 1492.07 Q1304.28 1491.53 1300.84 1490.42 L1300.84 1484.37 Q1304.09 1486.06 1307.24 1486.92 Q1310.39 1487.75 1313.48 1487.75 Q1317.61 1487.75 1319.84 1486.34 Q1322.07 1484.91 1322.07 1482.33 Q1322.07 1479.95 1320.45 1478.67 Q1318.85 1477.4 1313.41 1476.22 L1311.37 1475.75 Q1305.93 1474.6 1303.51 1472.24 Q1301.09 1469.86 1301.09 1465.72 Q1301.09 1460.69 1304.66 1457.95 Q1308.22 1455.22 1314.78 1455.22 Q1318.03 1455.22 1320.89 1455.69 Q1323.76 1456.17 1326.17 1457.13 Z" fill="#000000" fill-rule="evenodd" fill-opacity="1" /><path clip-path="url(#clip520)" d="M 0 0 M1333.3 1442.26 L1338.4 1442.26 Q1343.17 1449.77 1345.53 1456.97 Q1347.91 1464.16 1347.91 1471.26 Q1347.91 1478.39 1345.53 1485.61 Q1343.17 1492.84 1338.4 1500.32 L1333.3 1500.32 Q1337.54 1493.03 1339.61 1485.84 Q1341.71 1478.61 1341.71 1471.26 Q1341.71 1463.91 1339.61 1456.74 Q1337.54 1449.58 1333.3 1442.26 Z" fill="#000000" fill-rule="evenodd" fill-opacity="1" /><polyline clip-path="url(#clip523)" style="stroke:#000000; stroke-width:2; stroke-opacity:0.1; fill:none" points="
  289.509,1123.83 2256.76,1123.83 
  "/>
<polyline clip-path="url(#clip523)" style="stroke:#000000; stroke-width:2; stroke-opacity:0.1; fill:none" points="
  289.509,863.973 2256.76,863.973 
  "/>
<polyline clip-path="url(#clip523)" style="stroke:#000000; stroke-width:2; stroke-opacity:0.1; fill:none" points="
  289.509,604.113 2256.76,604.113 
  "/>
<polyline clip-path="url(#clip523)" style="stroke:#000000; stroke-width:2; stroke-opacity:0.1; fill:none" points="
  289.509,344.253 2256.76,344.253 
  "/>
<polyline clip-path="url(#clip523)" style="stroke:#000000; stroke-width:2; stroke-opacity:0.1; fill:none" points="
  289.509,84.3925 2256.76,84.3925 
  "/>
<polyline clip-path="url(#clip520)" style="stroke:#000000; stroke-width:4; stroke-opacity:1; fill:none" points="
  289.509,1359.82 289.509,47.2441 
  "/>
<polyline clip-path="url(#clip520)" style="stroke:#000000; stroke-width:4; stroke-opacity:1; fill:none" points="
  289.509,1123.83 313.116,1123.83 
  "/>
<polyline clip-path="url(#clip520)" style="stroke:#000000; stroke-width:4; stroke-opacity:1; fill:none" points="
  289.509,863.973 313.116,863.973 
  "/>
<polyline clip-path="url(#clip520)" style="stroke:#000000; stroke-width:4; stroke-opacity:1; fill:none" points="
  289.509,604.113 313.116,604.113 
  "/>
<polyline clip-path="url(#clip520)" style="stroke:#000000; stroke-width:4; stroke-opacity:1; fill:none" points="
  289.509,344.253 313.116,344.253 
  "/>
<polyline clip-path="url(#clip520)" style="stroke:#000000; stroke-width:4; stroke-opacity:1; fill:none" points="
  289.509,84.3925 313.116,84.3925 
  "/>
<path clip-path="url(#clip520)" d="M 0 0 M125.366 1109.63 Q121.755 1109.63 119.927 1113.2 Q118.121 1116.74 118.121 1123.87 Q118.121 1130.97 119.927 1134.54 Q121.755 1138.08 125.366 1138.08 Q129.001 1138.08 130.806 1134.54 Q132.635 1130.97 132.635 1123.87 Q132.635 1116.74 130.806 1113.2 Q129.001 1109.63 125.366 1109.63 M125.366 1105.93 Q131.176 1105.93 134.232 1110.53 Q137.311 1115.12 137.311 1123.87 Q137.311 1132.59 134.232 1137.2 Q131.176 1141.78 125.366 1141.78 Q119.556 1141.78 116.477 1137.2 Q113.422 1132.59 113.422 1123.87 Q113.422 1115.12 116.477 1110.53 Q119.556 1105.93 125.366 1105.93 Z" fill="#000000" fill-rule="evenodd" fill-opacity="1" /><path clip-path="url(#clip520)" d="M 0 0 M142.38 1135.23 L147.264 1135.23 L147.264 1141.11 L142.38 1141.11 L142.38 1135.23 Z" fill="#000000" fill-rule="evenodd" fill-opacity="1" /><path clip-path="url(#clip520)" d="M 0 0 M152.473 1140.4 L152.473 1136.14 Q154.232 1136.97 156.037 1137.41 Q157.843 1137.85 159.579 1137.85 Q164.209 1137.85 166.639 1134.75 Q169.093 1131.62 169.44 1125.28 Q168.098 1127.27 166.037 1128.34 Q163.977 1129.4 161.477 1129.4 Q156.292 1129.4 153.26 1126.28 Q150.25 1123.13 150.25 1117.69 Q150.25 1112.36 153.399 1109.15 Q156.547 1105.93 161.778 1105.93 Q167.774 1105.93 170.922 1110.53 Q174.093 1115.12 174.093 1123.87 Q174.093 1132.04 170.204 1136.92 Q166.338 1141.78 159.787 1141.78 Q158.028 1141.78 156.223 1141.44 Q154.417 1141.09 152.473 1140.4 M161.778 1125.74 Q164.926 1125.74 166.755 1123.59 Q168.607 1121.44 168.607 1117.69 Q168.607 1113.96 166.755 1111.81 Q164.926 1109.63 161.778 1109.63 Q158.63 1109.63 156.778 1111.81 Q154.95 1113.96 154.95 1117.69 Q154.95 1121.44 156.778 1123.59 Q158.63 1125.74 161.778 1125.74 Z" fill="#000000" fill-rule="evenodd" fill-opacity="1" /><path clip-path="url(#clip520)" d="M 0 0 M179.301 1140.4 L179.301 1136.14 Q181.06 1136.97 182.866 1137.41 Q184.672 1137.85 186.408 1137.85 Q191.037 1137.85 193.468 1134.75 Q195.922 1131.62 196.269 1125.28 Q194.926 1127.27 192.866 1128.34 Q190.806 1129.4 188.306 1129.4 Q183.121 1129.4 180.088 1126.28 Q177.079 1123.13 177.079 1117.69 Q177.079 1112.36 180.227 1109.15 Q183.375 1105.93 188.607 1105.93 Q194.602 1105.93 197.75 1110.53 Q200.921 1115.12 200.921 1123.87 Q200.921 1132.04 197.033 1136.92 Q193.167 1141.78 186.616 1141.78 Q184.857 1141.78 183.051 1141.44 Q181.246 1141.09 179.301 1140.4 M188.607 1125.74 Q191.755 1125.74 193.584 1123.59 Q195.435 1121.44 195.435 1117.69 Q195.435 1113.96 193.584 1111.81 Q191.755 1109.63 188.607 1109.63 Q185.459 1109.63 183.607 1111.81 Q181.778 1113.96 181.778 1117.69 Q181.778 1121.44 183.607 1123.59 Q185.459 1125.74 188.607 1125.74 Z" fill="#000000" fill-rule="evenodd" fill-opacity="1" /><path clip-path="url(#clip520)" d="M 0 0 M215.991 1109.63 Q212.38 1109.63 210.551 1113.2 Q208.746 1116.74 208.746 1123.87 Q208.746 1130.97 210.551 1134.54 Q212.38 1138.08 215.991 1138.08 Q219.625 1138.08 221.431 1134.54 Q223.259 1130.97 223.259 1123.87 Q223.259 1116.74 221.431 1113.2 Q219.625 1109.63 215.991 1109.63 M215.991 1105.93 Q221.801 1105.93 224.857 1110.53 Q227.935 1115.12 227.935 1123.87 Q227.935 1132.59 224.857 1137.2 Q221.801 1141.78 215.991 1141.78 Q210.181 1141.78 207.102 1137.2 Q204.046 1132.59 204.046 1123.87 Q204.046 1115.12 207.102 1110.53 Q210.181 1105.93 215.991 1105.93 Z" fill="#000000" fill-rule="evenodd" fill-opacity="1" /><path clip-path="url(#clip520)" d="M 0 0 M243.005 1109.63 Q239.394 1109.63 237.565 1113.2 Q235.759 1116.74 235.759 1123.87 Q235.759 1130.97 237.565 1134.54 Q239.394 1138.08 243.005 1138.08 Q246.639 1138.08 248.444 1134.54 Q250.273 1130.97 250.273 1123.87 Q250.273 1116.74 248.444 1113.2 Q246.639 1109.63 243.005 1109.63 M243.005 1105.93 Q248.815 1105.93 251.87 1110.53 Q254.949 1115.12 254.949 1123.87 Q254.949 1132.59 251.87 1137.2 Q248.815 1141.78 243.005 1141.78 Q237.194 1141.78 234.116 1137.2 Q231.06 1132.59 231.06 1123.87 Q231.06 1115.12 234.116 1110.53 Q237.194 1105.93 243.005 1105.93 Z" fill="#000000" fill-rule="evenodd" fill-opacity="1" /><path clip-path="url(#clip520)" d="M 0 0 M127.959 849.772 Q124.348 849.772 122.519 853.337 Q120.714 856.878 120.714 864.008 Q120.714 871.114 122.519 874.679 Q124.348 878.221 127.959 878.221 Q131.593 878.221 133.399 874.679 Q135.227 871.114 135.227 864.008 Q135.227 856.878 133.399 853.337 Q131.593 849.772 127.959 849.772 M127.959 846.068 Q133.769 846.068 136.825 850.675 Q139.903 855.258 139.903 864.008 Q139.903 872.735 136.825 877.341 Q133.769 881.924 127.959 881.924 Q122.149 881.924 119.07 877.341 Q116.015 872.735 116.015 864.008 Q116.015 855.258 119.07 850.675 Q122.149 846.068 127.959 846.068 Z" fill="#000000" fill-rule="evenodd" fill-opacity="1" /><path clip-path="url(#clip520)" d="M 0 0 M144.973 875.374 L149.857 875.374 L149.857 881.253 L144.973 881.253 L144.973 875.374 Z" fill="#000000" fill-rule="evenodd" fill-opacity="1" /><path clip-path="url(#clip520)" d="M 0 0 M155.065 880.536 L155.065 876.276 Q156.825 877.11 158.63 877.549 Q160.436 877.989 162.172 877.989 Q166.801 877.989 169.232 874.887 Q171.686 871.762 172.033 865.42 Q170.69 867.411 168.63 868.475 Q166.57 869.54 164.07 869.54 Q158.885 869.54 155.852 866.415 Q152.843 863.267 152.843 857.827 Q152.843 852.503 155.991 849.286 Q159.139 846.068 164.371 846.068 Q170.366 846.068 173.514 850.675 Q176.686 855.258 176.686 864.008 Q176.686 872.179 172.797 877.063 Q168.931 881.924 162.38 881.924 Q160.621 881.924 158.815 881.577 Q157.01 881.23 155.065 880.536 M164.371 865.883 Q167.519 865.883 169.348 863.73 Q171.199 861.577 171.199 857.827 Q171.199 854.101 169.348 851.948 Q167.519 849.772 164.371 849.772 Q161.223 849.772 159.371 851.948 Q157.542 854.101 157.542 857.827 Q157.542 861.577 159.371 863.73 Q161.223 865.883 164.371 865.883 Z" fill="#000000" fill-rule="evenodd" fill-opacity="1" /><path clip-path="url(#clip520)" d="M 0 0 M181.894 880.536 L181.894 876.276 Q183.653 877.11 185.459 877.549 Q187.264 877.989 189 877.989 Q193.63 877.989 196.06 874.887 Q198.514 871.762 198.861 865.42 Q197.519 867.411 195.459 868.475 Q193.398 869.54 190.898 869.54 Q185.713 869.54 182.681 866.415 Q179.672 863.267 179.672 857.827 Q179.672 852.503 182.82 849.286 Q185.968 846.068 191.199 846.068 Q197.195 846.068 200.343 850.675 Q203.514 855.258 203.514 864.008 Q203.514 872.179 199.625 877.063 Q195.759 881.924 189.209 881.924 Q187.449 881.924 185.644 881.577 Q183.838 881.23 181.894 880.536 M191.199 865.883 Q194.347 865.883 196.176 863.73 Q198.028 861.577 198.028 857.827 Q198.028 854.101 196.176 851.948 Q194.347 849.772 191.199 849.772 Q188.051 849.772 186.199 851.948 Q184.371 854.101 184.371 857.827 Q184.371 861.577 186.199 863.73 Q188.051 865.883 191.199 865.883 Z" fill="#000000" fill-rule="evenodd" fill-opacity="1" /><path clip-path="url(#clip520)" d="M 0 0 M212.611 877.318 L228.931 877.318 L228.931 881.253 L206.986 881.253 L206.986 877.318 Q209.648 874.563 214.232 869.934 Q218.838 865.281 220.019 863.938 Q222.264 861.415 223.144 859.679 Q224.046 857.92 224.046 856.23 Q224.046 853.476 222.102 851.739 Q220.181 850.003 217.079 850.003 Q214.88 850.003 212.426 850.767 Q209.996 851.531 207.218 853.082 L207.218 848.36 Q210.042 847.226 212.496 846.647 Q214.949 846.068 216.986 846.068 Q222.357 846.068 225.551 848.753 Q228.745 851.438 228.745 855.929 Q228.745 858.059 227.935 859.98 Q227.148 861.878 225.042 864.471 Q224.463 865.142 221.361 868.36 Q218.259 871.554 212.611 877.318 Z" fill="#000000" fill-rule="evenodd" fill-opacity="1" /><path clip-path="url(#clip520)" d="M 0 0 M234.046 846.693 L252.403 846.693 L252.403 850.628 L238.329 850.628 L238.329 859.1 Q239.347 858.753 240.366 858.591 Q241.384 858.406 242.403 858.406 Q248.19 858.406 251.569 861.577 Q254.949 864.749 254.949 870.165 Q254.949 875.744 251.477 878.846 Q248.005 881.924 241.685 881.924 Q239.509 881.924 237.241 881.554 Q234.995 881.184 232.588 880.443 L232.588 875.744 Q234.671 876.878 236.894 877.434 Q239.116 877.989 241.593 877.989 Q245.597 877.989 247.935 875.883 Q250.273 873.776 250.273 870.165 Q250.273 866.554 247.935 864.448 Q245.597 862.341 241.593 862.341 Q239.718 862.341 237.843 862.758 Q235.991 863.175 234.046 864.054 L234.046 846.693 Z" fill="#000000" fill-rule="evenodd" fill-opacity="1" /><path clip-path="url(#clip520)" d="M 0 0 M126.362 589.912 Q122.751 589.912 120.922 593.476 Q119.116 597.018 119.116 604.148 Q119.116 611.254 120.922 614.819 Q122.751 618.361 126.362 618.361 Q129.996 618.361 131.801 614.819 Q133.63 611.254 133.63 604.148 Q133.63 597.018 131.801 593.476 Q129.996 589.912 126.362 589.912 M126.362 586.208 Q132.172 586.208 135.227 590.814 Q138.306 595.398 138.306 604.148 Q138.306 612.874 135.227 617.481 Q132.172 622.064 126.362 622.064 Q120.552 622.064 117.473 617.481 Q114.417 612.874 114.417 604.148 Q114.417 595.398 117.473 590.814 Q120.552 586.208 126.362 586.208 Z" fill="#000000" fill-rule="evenodd" fill-opacity="1" /><path clip-path="url(#clip520)" d="M 0 0 M143.376 615.513 L148.26 615.513 L148.26 621.393 L143.376 621.393 L143.376 615.513 Z" fill="#000000" fill-rule="evenodd" fill-opacity="1" /><path clip-path="url(#clip520)" d="M 0 0 M153.468 620.675 L153.468 616.416 Q155.227 617.249 157.033 617.689 Q158.838 618.129 160.574 618.129 Q165.204 618.129 167.635 615.027 Q170.088 611.902 170.436 605.56 Q169.093 607.55 167.033 608.615 Q164.973 609.68 162.473 609.68 Q157.287 609.68 154.255 606.555 Q151.246 603.407 151.246 597.967 Q151.246 592.643 154.394 589.425 Q157.542 586.208 162.774 586.208 Q168.769 586.208 171.917 590.814 Q175.088 595.398 175.088 604.148 Q175.088 612.319 171.199 617.203 Q167.334 622.064 160.783 622.064 Q159.024 622.064 157.218 621.717 Q155.412 621.37 153.468 620.675 M162.774 606.023 Q165.922 606.023 167.75 603.87 Q169.602 601.717 169.602 597.967 Q169.602 594.24 167.75 592.088 Q165.922 589.912 162.774 589.912 Q159.625 589.912 157.774 592.088 Q155.945 594.24 155.945 597.967 Q155.945 601.717 157.774 603.87 Q159.625 606.023 162.774 606.023 Z" fill="#000000" fill-rule="evenodd" fill-opacity="1" /><path clip-path="url(#clip520)" d="M 0 0 M180.297 620.675 L180.297 616.416 Q182.056 617.249 183.861 617.689 Q185.667 618.129 187.403 618.129 Q192.033 618.129 194.463 615.027 Q196.917 611.902 197.264 605.56 Q195.922 607.55 193.861 608.615 Q191.801 609.68 189.301 609.68 Q184.116 609.68 181.084 606.555 Q178.074 603.407 178.074 597.967 Q178.074 592.643 181.223 589.425 Q184.371 586.208 189.602 586.208 Q195.597 586.208 198.746 590.814 Q201.917 595.398 201.917 604.148 Q201.917 612.319 198.028 617.203 Q194.162 622.064 187.611 622.064 Q185.852 622.064 184.047 621.717 Q182.241 621.37 180.297 620.675 M189.602 606.023 Q192.75 606.023 194.579 603.87 Q196.431 601.717 196.431 597.967 Q196.431 594.24 194.579 592.088 Q192.75 589.912 189.602 589.912 Q186.454 589.912 184.602 592.088 Q182.773 594.24 182.773 597.967 Q182.773 601.717 184.602 603.87 Q186.454 606.023 189.602 606.023 Z" fill="#000000" fill-rule="evenodd" fill-opacity="1" /><path clip-path="url(#clip520)" d="M 0 0 M207.033 586.833 L225.389 586.833 L225.389 590.768 L211.315 590.768 L211.315 599.24 Q212.333 598.893 213.352 598.731 Q214.37 598.546 215.389 598.546 Q221.176 598.546 224.556 601.717 Q227.935 604.888 227.935 610.305 Q227.935 615.884 224.463 618.986 Q220.991 622.064 214.671 622.064 Q212.496 622.064 210.227 621.694 Q207.982 621.323 205.574 620.583 L205.574 615.884 Q207.658 617.018 209.88 617.573 Q212.102 618.129 214.579 618.129 Q218.583 618.129 220.921 616.023 Q223.259 613.916 223.259 610.305 Q223.259 606.694 220.921 604.587 Q218.583 602.481 214.579 602.481 Q212.704 602.481 210.829 602.898 Q208.977 603.314 207.033 604.194 L207.033 586.833 Z" fill="#000000" fill-rule="evenodd" fill-opacity="1" /><path clip-path="url(#clip520)" d="M 0 0 M243.005 589.912 Q239.394 589.912 237.565 593.476 Q235.759 597.018 235.759 604.148 Q235.759 611.254 237.565 614.819 Q239.394 618.361 243.005 618.361 Q246.639 618.361 248.444 614.819 Q250.273 611.254 250.273 604.148 Q250.273 597.018 248.444 593.476 Q246.639 589.912 243.005 589.912 M243.005 586.208 Q248.815 586.208 251.87 590.814 Q254.949 595.398 254.949 604.148 Q254.949 612.874 251.87 617.481 Q248.815 622.064 243.005 622.064 Q237.194 622.064 234.116 617.481 Q231.06 612.874 231.06 604.148 Q231.06 595.398 234.116 590.814 Q237.194 586.208 243.005 586.208 Z" fill="#000000" fill-rule="evenodd" fill-opacity="1" /><path clip-path="url(#clip520)" d="M 0 0 M127.264 330.051 Q123.653 330.051 121.825 333.616 Q120.019 337.158 120.019 344.287 Q120.019 351.394 121.825 354.959 Q123.653 358.5 127.264 358.5 Q130.899 358.5 132.704 354.959 Q134.533 351.394 134.533 344.287 Q134.533 337.158 132.704 333.616 Q130.899 330.051 127.264 330.051 M127.264 326.348 Q133.075 326.348 136.13 330.954 Q139.209 335.537 139.209 344.287 Q139.209 353.014 136.13 357.621 Q133.075 362.204 127.264 362.204 Q121.454 362.204 118.376 357.621 Q115.32 353.014 115.32 344.287 Q115.32 335.537 118.376 330.954 Q121.454 326.348 127.264 326.348 Z" fill="#000000" fill-rule="evenodd" fill-opacity="1" /><path clip-path="url(#clip520)" d="M 0 0 M144.278 355.653 L149.163 355.653 L149.163 361.533 L144.278 361.533 L144.278 355.653 Z" fill="#000000" fill-rule="evenodd" fill-opacity="1" /><path clip-path="url(#clip520)" d="M 0 0 M154.371 360.815 L154.371 356.556 Q156.13 357.389 157.936 357.829 Q159.741 358.269 161.477 358.269 Q166.107 358.269 168.537 355.167 Q170.991 352.042 171.338 345.699 Q169.996 347.69 167.936 348.755 Q165.875 349.82 163.375 349.82 Q158.19 349.82 155.158 346.695 Q152.149 343.547 152.149 338.107 Q152.149 332.783 155.297 329.565 Q158.445 326.348 163.676 326.348 Q169.672 326.348 172.82 330.954 Q175.991 335.537 175.991 344.287 Q175.991 352.459 172.102 357.343 Q168.236 362.204 161.686 362.204 Q159.926 362.204 158.121 361.857 Q156.315 361.51 154.371 360.815 M163.676 346.162 Q166.824 346.162 168.653 344.01 Q170.505 341.857 170.505 338.107 Q170.505 334.38 168.653 332.227 Q166.824 330.051 163.676 330.051 Q160.528 330.051 158.676 332.227 Q156.848 334.38 156.848 338.107 Q156.848 341.857 158.676 344.01 Q160.528 346.162 163.676 346.162 Z" fill="#000000" fill-rule="evenodd" fill-opacity="1" /><path clip-path="url(#clip520)" d="M 0 0 M181.199 360.815 L181.199 356.556 Q182.959 357.389 184.764 357.829 Q186.57 358.269 188.306 358.269 Q192.935 358.269 195.366 355.167 Q197.82 352.042 198.167 345.699 Q196.824 347.69 194.764 348.755 Q192.704 349.82 190.204 349.82 Q185.019 349.82 181.986 346.695 Q178.977 343.547 178.977 338.107 Q178.977 332.783 182.125 329.565 Q185.273 326.348 190.505 326.348 Q196.5 326.348 199.648 330.954 Q202.82 335.537 202.82 344.287 Q202.82 352.459 198.931 357.343 Q195.065 362.204 188.514 362.204 Q186.755 362.204 184.949 361.857 Q183.144 361.51 181.199 360.815 M190.505 346.162 Q193.653 346.162 195.482 344.01 Q197.334 341.857 197.334 338.107 Q197.334 334.38 195.482 332.227 Q193.653 330.051 190.505 330.051 Q187.357 330.051 185.505 332.227 Q183.676 334.38 183.676 338.107 Q183.676 341.857 185.505 344.01 Q187.357 346.162 190.505 346.162 Z" fill="#000000" fill-rule="evenodd" fill-opacity="1" /><path clip-path="url(#clip520)" d="M 0 0 M206.708 326.973 L228.931 326.973 L228.931 328.963 L216.384 361.533 L211.5 361.533 L223.306 330.908 L206.708 330.908 L206.708 326.973 Z" fill="#000000" fill-rule="evenodd" fill-opacity="1" /><path clip-path="url(#clip520)" d="M 0 0 M234.046 326.973 L252.403 326.973 L252.403 330.908 L238.329 330.908 L238.329 339.38 Q239.347 339.033 240.366 338.871 Q241.384 338.686 242.403 338.686 Q248.19 338.686 251.569 341.857 Q254.949 345.028 254.949 350.445 Q254.949 356.023 251.477 359.125 Q248.005 362.204 241.685 362.204 Q239.509 362.204 237.241 361.834 Q234.995 361.463 232.588 360.723 L232.588 356.023 Q234.671 357.158 236.894 357.713 Q239.116 358.269 241.593 358.269 Q245.597 358.269 247.935 356.162 Q250.273 354.056 250.273 350.445 Q250.273 346.834 247.935 344.727 Q245.597 342.621 241.593 342.621 Q239.718 342.621 237.843 343.037 Q235.991 343.454 234.046 344.334 L234.046 326.973 Z" fill="#000000" fill-rule="evenodd" fill-opacity="1" /><path clip-path="url(#clip520)" d="M 0 0 M117.033 97.7373 L124.672 97.7373 L124.672 71.3717 L116.362 73.0384 L116.362 68.7791 L124.626 67.1125 L129.302 67.1125 L129.302 97.7373 L136.94 97.7373 L136.94 101.672 L117.033 101.672 L117.033 97.7373 Z" fill="#000000" fill-rule="evenodd" fill-opacity="1" /><path clip-path="url(#clip520)" d="M 0 0 M142.01 95.7929 L146.894 95.7929 L146.894 101.672 L142.01 101.672 L142.01 95.7929 Z" fill="#000000" fill-rule="evenodd" fill-opacity="1" /><path clip-path="url(#clip520)" d="M 0 0 M161.963 70.1912 Q158.352 70.1912 156.524 73.7559 Q154.718 77.2976 154.718 84.4272 Q154.718 91.5336 156.524 95.0984 Q158.352 98.6401 161.963 98.6401 Q165.598 98.6401 167.403 95.0984 Q169.232 91.5336 169.232 84.4272 Q169.232 77.2976 167.403 73.7559 Q165.598 70.1912 161.963 70.1912 M161.963 66.4875 Q167.774 66.4875 170.829 71.0939 Q173.908 75.6772 173.908 84.4272 Q173.908 93.154 170.829 97.7604 Q167.774 102.344 161.963 102.344 Q156.153 102.344 153.075 97.7604 Q150.019 93.154 150.019 84.4272 Q150.019 75.6772 153.075 71.0939 Q156.153 66.4875 161.963 66.4875 Z" fill="#000000" fill-rule="evenodd" fill-opacity="1" /><path clip-path="url(#clip520)" d="M 0 0 M188.977 70.1912 Q185.366 70.1912 183.537 73.7559 Q181.732 77.2976 181.732 84.4272 Q181.732 91.5336 183.537 95.0984 Q185.366 98.6401 188.977 98.6401 Q192.611 98.6401 194.417 95.0984 Q196.246 91.5336 196.246 84.4272 Q196.246 77.2976 194.417 73.7559 Q192.611 70.1912 188.977 70.1912 M188.977 66.4875 Q194.787 66.4875 197.843 71.0939 Q200.921 75.6772 200.921 84.4272 Q200.921 93.154 197.843 97.7604 Q194.787 102.344 188.977 102.344 Q183.167 102.344 180.088 97.7604 Q177.033 93.154 177.033 84.4272 Q177.033 75.6772 180.088 71.0939 Q183.167 66.4875 188.977 66.4875 Z" fill="#000000" fill-rule="evenodd" fill-opacity="1" /><path clip-path="url(#clip520)" d="M 0 0 M215.991 70.1912 Q212.38 70.1912 210.551 73.7559 Q208.746 77.2976 208.746 84.4272 Q208.746 91.5336 210.551 95.0984 Q212.38 98.6401 215.991 98.6401 Q219.625 98.6401 221.431 95.0984 Q223.259 91.5336 223.259 84.4272 Q223.259 77.2976 221.431 73.7559 Q219.625 70.1912 215.991 70.1912 M215.991 66.4875 Q221.801 66.4875 224.857 71.0939 Q227.935 75.6772 227.935 84.4272 Q227.935 93.154 224.857 97.7604 Q221.801 102.344 215.991 102.344 Q210.181 102.344 207.102 97.7604 Q204.046 93.154 204.046 84.4272 Q204.046 75.6772 207.102 71.0939 Q210.181 66.4875 215.991 66.4875 Z" fill="#000000" fill-rule="evenodd" fill-opacity="1" /><path clip-path="url(#clip520)" d="M 0 0 M243.005 70.1912 Q239.394 70.1912 237.565 73.7559 Q235.759 77.2976 235.759 84.4272 Q235.759 91.5336 237.565 95.0984 Q239.394 98.6401 243.005 98.6401 Q246.639 98.6401 248.444 95.0984 Q250.273 91.5336 250.273 84.4272 Q250.273 77.2976 248.444 73.7559 Q246.639 70.1912 243.005 70.1912 M243.005 66.4875 Q248.815 66.4875 251.87 71.0939 Q254.949 75.6772 254.949 84.4272 Q254.949 93.154 251.87 97.7604 Q248.815 102.344 243.005 102.344 Q237.194 102.344 234.116 97.7604 Q231.06 93.154 231.06 84.4272 Q231.06 75.6772 234.116 71.0939 Q237.194 66.4875 243.005 66.4875 Z" fill="#000000" fill-rule="evenodd" fill-opacity="1" /><path clip-path="url(#clip520)" d="M 0 0 M53.3851 740.086 Q56.9922 740.086 60.3094 742.759 Q63.6266 745.4 65.6556 749.715 Q67.6523 753.999 67.6523 758.604 L67.6523 769.812 L84.1417 773.902 Q84.2384 773.934 84.657 774.031 Q85.0435 774.127 85.2689 774.127 Q86.0741 774.127 86.2673 773.129 Q86.4606 772.098 86.4606 769.812 Q86.4606 768.33 86.7182 768.105 Q86.8792 767.976 87.1691 767.976 Q87.62 767.976 87.942 768.105 Q88.2319 768.234 88.3285 768.491 Q88.4251 768.717 88.4573 768.878 Q88.4895 769.039 88.4895 769.297 Q88.4895 769.973 88.4251 771.422 Q88.3607 772.839 88.3607 773.58 L88.2963 777.799 L88.4895 786.172 Q88.4895 787.171 87.6844 787.171 Q87.0725 787.171 86.8148 786.913 Q86.525 786.655 86.4928 786.366 Q86.4606 786.076 86.4606 785.335 Q86.4606 783.725 86.3639 782.759 Q86.2673 781.792 86.1385 781.18 Q85.9775 780.536 85.5266 780.214 Q85.0757 779.86 84.6892 779.699 Q84.2706 779.538 83.3366 779.313 L47.9101 770.488 Q46.8473 770.23 46.6863 770.23 Q46.1388 770.23 45.9456 770.553 Q45.7201 770.842 45.6235 771.68 Q45.4947 773.29 45.4947 774.514 Q45.4947 775.319 45.4625 775.641 Q45.4303 775.931 45.2693 776.189 Q45.076 776.414 44.6896 776.414 Q44.0776 776.414 43.82 776.156 Q43.5301 775.867 43.4979 775.544 Q43.4335 775.222 43.4335 774.449 L43.4335 753.065 Q43.4335 746.913 46.3643 743.5 Q49.295 740.086 53.3851 740.086 M51.8071 746.205 Q45.4947 746.205 45.4947 755.19 L45.4947 761.503 Q45.4947 763.596 45.8812 764.111 Q46.2354 764.627 48.0068 765.078 L65.9454 769.554 L65.9454 760.247 Q65.9454 753.999 62.435 750.102 Q60.8247 748.331 57.4753 747.268 Q54.1259 746.205 51.8071 746.205 Z" fill="#000000" fill-rule="evenodd" fill-opacity="1" /><path clip-path="url(#clip520)" d="M 0 0 M75.744 700.762 L87.512 703.67 Q88.2559 703.873 88.3461 704.008 Q88.4363 704.121 88.4363 704.481 Q88.4363 705.18 87.9629 705.18 Q87.9178 705.18 87.3316 705.113 Q86.7229 705.045 85.6183 705.045 Q81.5378 705.045 79.1256 707.029 Q76.7134 708.99 76.7134 712.485 Q76.7134 715.753 78.4267 718.887 Q80.1401 722.021 82.665 724.027 Q84.7391 725.718 87.264 726.89 Q89.7889 728.04 91.9983 728.513 Q94.185 728.987 95.5151 729.167 Q96.8452 729.325 97.7019 729.325 Q100.227 729.325 102.188 728.513 Q104.127 727.702 105.232 726.349 Q106.336 724.974 106.877 723.396 Q107.418 721.795 107.418 720.059 Q107.418 719.406 107.328 718.617 Q107.238 717.828 106.9 716.61 Q106.562 715.37 105.998 714.356 Q105.435 713.319 104.352 712.417 Q103.27 711.493 101.827 711.132 Q98.1528 710.163 97.6117 710.163 Q97.1609 710.163 97.0031 710.433 Q96.8452 710.704 96.7325 711.605 L96.6424 714.04 Q96.6424 714.085 96.6424 714.153 Q96.6424 714.581 96.6424 714.762 Q96.6198 714.942 96.5747 715.145 Q96.5296 715.325 96.4395 715.393 Q96.3267 715.438 96.1464 715.438 Q95.718 715.438 95.5151 715.258 Q95.2897 715.077 95.2672 714.919 Q95.2221 714.762 95.2221 714.468 L95.3573 707.998 Q95.3573 707.48 95.2897 705.586 Q95.2221 703.692 95.2221 703.151 Q95.2221 702.543 95.718 702.543 Q96.6424 702.543 96.6424 703.287 Q96.6649 704.031 96.6874 704.414 Q96.6874 704.797 96.8002 705.18 Q96.9129 705.541 97.0031 705.676 Q97.0707 705.812 97.4089 705.992 Q97.7245 706.172 97.995 706.24 Q98.243 706.308 98.8742 706.465 Q99.28 706.555 100.047 706.781 Q100.813 706.984 101.219 707.074 L104.781 707.953 Q107.418 708.562 107.599 708.742 Q107.779 708.832 107.779 709.058 Q107.779 709.396 106.787 710.117 Q105.795 710.816 104.916 711.132 Q105.525 711.696 105.885 712.056 Q106.224 712.417 106.765 713.251 Q107.306 714.063 107.734 715.145 Q108.839 717.782 108.839 720.916 Q108.839 726.507 105.299 730.024 Q101.737 733.541 96.1915 733.541 Q92.2688 733.541 88.4138 731.737 Q84.5587 729.934 81.6956 727.071 Q78.8325 724.208 77.0515 720.42 Q75.2705 716.633 75.2705 712.845 Q75.2705 711.402 75.6538 710.117 Q76.037 708.832 76.5105 708.066 Q76.9839 707.277 77.6828 706.578 Q78.3591 705.879 78.6747 705.654 Q78.9903 705.406 79.3736 705.18 L75.8341 701.956 Q75.2705 701.393 75.2705 701.258 Q75.2705 700.987 75.4284 700.874 Q75.5862 700.762 75.744 700.762 Z" fill="#000000" fill-rule="evenodd" fill-opacity="1" /><path clip-path="url(#clip520)" d="M 0 0 M72.0001 694.066 Q60.8569 694.066 51.8715 689.912 Q48.1034 688.14 44.9472 685.661 Q41.791 683.181 40.4062 681.538 Q39.0213 679.896 39.0213 679.445 Q39.0213 678.801 39.6654 678.768 Q39.9875 678.768 40.7926 679.638 Q51.6138 690.266 72.0001 690.234 Q92.4508 690.234 102.853 679.896 Q103.981 678.768 104.335 678.768 Q104.979 678.768 104.979 679.445 Q104.979 679.896 103.658 681.474 Q102.338 683.052 99.3107 685.5 Q96.2833 687.947 92.5797 689.718 Q83.5942 694.066 72.0001 694.066 Z" fill="#000000" fill-rule="evenodd" fill-opacity="1" /><path clip-path="url(#clip520)" d="M 0 0 M60.7925 648.5 Q61.6943 648.5 61.9197 648.919 Q62.1129 649.337 62.1129 650.497 L62.1129 656.68 L81.5653 661.576 Q83.2722 661.962 84.7214 661.962 Q86.3317 661.962 87.0403 661.479 Q87.7488 660.964 87.7488 659.901 Q87.7488 657.808 85.8486 655.553 Q83.9485 653.267 79.3109 651.334 Q78.6989 651.077 78.5701 650.948 Q78.4091 650.787 78.4091 650.368 Q78.4091 649.563 79.0532 649.563 Q79.2787 649.563 80.3092 650.014 Q81.3398 650.432 82.8535 651.366 Q84.3672 652.268 85.7842 653.46 Q87.2013 654.619 88.2319 656.39 Q89.2303 658.162 89.2303 660.062 Q89.2303 662.735 87.5234 664.442 Q85.8164 666.117 83.1434 666.117 Q82.2738 666.117 79.5041 665.44 Q76.7022 664.764 62.1129 661.093 L62.1129 666.922 Q62.1129 667.727 62.0807 668.049 Q62.0485 668.339 61.8875 668.564 Q61.6943 668.758 61.3078 668.758 Q60.6959 668.758 60.4382 668.5 Q60.1484 668.242 60.1162 667.92 Q60.0518 667.566 60.0518 666.761 L60.0518 660.577 L49.5848 658.001 Q48.5543 657.743 47.9746 657.099 Q47.3626 656.423 47.2982 656.036 Q47.2016 655.65 47.2016 655.36 Q47.2016 654.49 47.6847 653.975 Q48.1356 653.46 48.9729 653.46 Q49.4238 653.46 60.0518 656.165 L60.0518 650.368 Q60.0518 649.627 60.084 649.337 Q60.1162 649.015 60.2772 648.758 Q60.4382 648.5 60.7925 648.5 Z" fill="#000000" fill-rule="evenodd" fill-opacity="1" /><path clip-path="url(#clip520)" d="M 0 0 M104.335 645.202 Q104.013 645.202 103.208 644.365 Q92.3864 633.737 72.0001 633.737 Q51.5494 633.737 41.2113 643.946 Q40.0197 645.202 39.6654 645.202 Q39.0213 645.202 39.0213 644.558 Q39.0213 644.107 40.3418 642.529 Q41.6622 640.919 44.6896 638.503 Q47.7169 636.055 51.4206 634.252 Q60.406 629.904 72.0001 629.904 Q83.1434 629.904 92.1288 634.059 Q95.8969 635.83 99.053 638.31 Q102.209 640.79 103.594 642.432 Q104.979 644.075 104.979 644.558 Q104.979 645.202 104.335 645.202 Z" fill="#000000" fill-rule="evenodd" fill-opacity="1" /><polyline clip-path="url(#clip523)" style="stroke:#009af9; stroke-width:8; stroke-opacity:1; fill:none" points="
  345.186,84.3925 346.498,84.4055 347.811,84.4446 349.123,84.5099 350.436,84.6015 351.748,84.7195 353.061,84.8641 354.373,85.0352 355.686,85.233 356.998,85.4577 
  358.311,85.7092 359.623,85.9877 360.936,86.2933 362.248,86.6263 363.561,86.9868 364.873,87.3746 366.186,87.7899 367.498,88.2325 368.811,88.7026 370.124,89.2002 
  371.436,89.7253 372.749,90.2779 374.061,90.8581 375.374,91.4659 376.686,92.1015 377.999,92.7649 379.311,93.4561 380.624,94.1753 381.936,94.9225 383.249,95.6978 
  384.561,96.5013 385.874,97.333 387.186,98.193 388.499,99.0814 389.811,99.9983 391.124,100.944 392.436,101.918 393.749,102.92 395.061,103.952 396.374,105.012 
  397.686,106.101 398.999,107.218 400.311,108.364 401.624,109.54 402.936,110.743 404.249,111.976 405.561,113.237 406.874,114.527 408.186,115.846 409.499,117.193 
  410.811,118.568 412.124,119.972 413.436,121.404 414.749,122.864 416.061,124.354 417.374,125.872 418.687,127.42 419.999,128.996 421.312,130.601 422.624,132.234 
  423.937,133.895 425.249,135.584 426.562,137.302 427.874,139.047 429.187,140.82 430.499,142.62 431.812,144.449 433.124,146.305 434.437,148.188 435.749,150.099 
  437.062,152.038 438.374,154.004 439.687,155.997 440.999,158.018 442.312,160.066 443.624,162.142 444.937,164.244 446.249,166.375 447.562,168.533 448.874,170.718 
  450.187,172.93 451.499,175.17 452.812,177.437 454.124,179.732 455.437,182.053 456.749,184.403 458.062,186.779 459.374,189.182 460.687,191.613 461.999,194.071 
  463.312,196.556 464.624,199.068 465.937,201.607 467.249,204.173 468.562,206.766 469.875,209.385 471.187,212.031 472.5,214.703 473.812,217.402 475.125,220.126 
  476.437,222.877 477.75,225.653 479.062,228.455 480.375,231.282 481.687,234.134 483,237.011 484.312,239.913 485.625,242.839 486.937,245.789 488.25,248.763 
  489.562,251.759 490.875,254.779 492.187,257.822 493.5,260.887 494.812,263.976 496.125,267.089 497.437,270.227 498.75,273.388 500.062,276.572 501.375,279.778 
  502.687,283.008 504,286.26 505.312,289.533 506.625,292.829 507.937,296.146 509.25,299.484 510.562,302.843 511.875,306.224 513.187,309.624 514.5,313.046 
  515.812,316.487 517.125,319.949 518.437,323.43 519.75,326.932 521.063,330.453 522.375,333.993 523.688,337.553 525,341.133 526.313,344.731 527.625,348.348 
  528.938,351.984 530.25,355.639 531.563,359.312 532.875,363.005 534.188,366.715 535.5,370.444 536.813,374.19 538.125,377.955 539.438,381.738 540.75,385.539 
  542.063,389.357 543.375,393.193 544.688,397.046 546,400.917 547.313,404.805 548.625,408.709 549.938,412.631 551.25,416.569 552.563,420.523 553.875,424.494 
  555.188,428.481 556.5,432.484 557.813,436.503 559.125,440.537 560.438,444.587 561.75,448.651 563.063,452.73 564.375,456.824 565.688,460.932 567,465.053 
  568.313,469.189 569.625,473.338 570.938,477.499 572.251,481.674 573.563,485.86 574.876,490.059 576.188,494.269 577.501,498.49 578.813,502.722 580.126,506.964 
  581.438,511.215 582.751,515.476 584.063,519.746 585.376,524.024 586.688,528.31 588.001,532.605 589.313,536.911 590.626,541.226 591.938,545.551 593.251,549.886 
  594.563,554.229 595.876,558.58 597.188,562.939 598.501,567.305 599.813,571.679 601.126,576.059 602.438,580.446 603.751,584.838 605.063,589.236 606.376,593.639 
  607.688,598.048 609.001,602.46 610.313,606.878 611.626,611.299 612.938,615.725 614.251,620.153 615.563,624.586 616.876,629.021 618.188,633.459 619.501,637.901 
  620.813,642.344 622.126,646.79 623.439,651.238 624.751,655.688 626.064,660.139 627.376,664.592 628.689,669.047 630.001,673.502 631.314,677.959 632.626,682.417 
  633.939,686.875 635.251,691.334 636.564,695.793 637.876,700.253 639.189,704.712 640.501,709.172 641.814,713.631 643.126,718.09 644.439,722.549 645.751,727.007 
  647.064,731.464 648.376,735.92 649.689,740.375 651.001,744.829 652.314,749.281 653.626,753.732 654.939,758.181 656.251,762.628 657.564,767.073 658.876,771.515 
  660.189,775.955 661.501,780.392 662.814,784.826 664.126,789.257 665.439,793.684 666.751,798.108 668.064,802.528 669.376,806.944 670.689,811.356 672.002,815.762 
  673.314,820.164 674.627,824.561 675.939,828.952 677.252,833.337 678.564,837.717 679.877,842.089 681.189,846.455 682.502,850.814 683.814,855.165 685.127,859.509 
  686.439,863.844 687.752,868.17 689.064,872.487 690.377,876.795 691.689,881.092 693.002,885.379 694.314,889.655 695.627,893.92 696.939,898.173 698.252,902.413 
  699.564,906.641 700.877,910.855 702.189,915.055 703.502,919.24 704.814,923.41 706.127,927.568 707.439,931.716 708.752,935.852 710.064,939.976 711.377,944.088 
  712.689,948.186 714.002,952.272 715.314,956.344 716.627,960.402 717.939,964.445 719.252,968.474 720.564,972.487 721.877,976.486 723.19,980.468 724.502,984.435 
  725.815,988.386 727.127,992.32 728.44,996.237 729.752,1000.14 731.065,1004.02 732.377,1007.89 733.69,1011.73 735.002,1015.56 736.315,1019.37 737.627,1023.17 
  738.94,1026.94 740.252,1030.7 741.565,1034.44 742.877,1038.16 744.19,1041.86 745.502,1045.54 746.815,1049.2 748.127,1052.84 749.44,1056.46 750.752,1060.06 
  752.065,1063.65 753.377,1067.21 754.69,1070.75 756.002,1074.27 757.315,1077.78 758.627,1081.26 759.94,1084.72 761.252,1088.16 762.565,1091.58 763.877,1094.99 
  765.19,1098.37 766.502,1101.72 767.815,1105.06 769.127,1108.38 770.44,1111.68 771.752,1114.95 773.065,1118.21 774.378,1121.44 775.69,1124.65 777.003,1127.85 
  778.315,1131.02 779.628,1134.16 780.94,1137.29 782.253,1140.4 783.565,1143.48 784.878,1146.54 786.19,1149.58 787.503,1152.6 788.815,1155.6 790.128,1158.57 
  791.44,1161.53 792.753,1164.46 794.065,1167.37 795.378,1170.25 796.69,1173.11 798.003,1175.96 799.315,1178.77 800.628,1181.57 801.94,1184.34 803.253,1187.09 
  804.565,1189.81 805.878,1192.51 807.19,1195.19 808.503,1197.85 809.815,1200.48 811.128,1203.08 812.44,1205.66 813.753,1208.22 815.065,1210.75 816.378,1213.26 
  817.69,1215.74 819.003,1218.19 820.315,1220.62 821.628,1223.03 822.94,1225.4 824.253,1227.75 825.566,1230.08 826.878,1232.37 828.191,1234.64 829.503,1236.88 
  830.816,1239.09 832.128,1241.28 833.441,1243.43 834.753,1245.56 836.066,1247.65 837.378,1249.72 838.691,1251.75 840.003,1253.76 841.316,1255.73 842.628,1257.67 
  843.941,1259.59 845.253,1261.48 846.566,1263.34 847.878,1265.18 849.191,1266.99 850.503,1268.77 851.816,1270.52 853.128,1272.24 854.441,1273.94 855.753,1275.61 
  857.066,1277.25 858.378,1278.86 859.691,1280.44 861.003,1281.99 862.316,1283.51 863.628,1285.01 864.941,1286.47 866.253,1287.91 867.566,1289.31 868.878,1290.69 
  870.191,1292.03 871.503,1293.35 872.816,1294.64 874.129,1295.9 875.441,1297.12 876.754,1298.32 878.066,1299.49 879.379,1300.63 880.691,1301.74 882.004,1302.82 
  883.316,1303.87 884.629,1304.89 885.941,1305.88 887.254,1306.84 888.566,1307.77 889.879,1308.68 891.191,1309.55 892.504,1310.39 893.816,1311.21 895.129,1312 
  896.441,1312.75 897.754,1313.48 899.066,1314.18 900.379,1314.85 901.691,1315.5 903.004,1316.11 904.316,1316.7 905.629,1317.25 906.941,1317.78 908.254,1318.29 
  909.566,1318.76 910.879,1319.2 912.191,1319.62 913.504,1320.01 914.816,1320.38 916.129,1320.71 917.441,1321.02 918.754,1321.31 920.066,1321.56 921.379,1321.79 
  922.691,1321.99 924.004,1322.17 925.317,1322.32 926.629,1322.44 927.942,1322.54 929.254,1322.61 930.567,1322.65 931.879,1322.67 933.192,1322.67 934.504,1322.63 
  935.817,1322.58 937.129,1322.49 938.442,1322.39 939.754,1322.25 941.067,1322.1 942.379,1321.92 943.692,1321.71 945.004,1321.48 946.317,1321.22 947.629,1320.94 
  948.942,1320.64 950.254,1320.31 951.567,1319.95 952.879,1319.58 954.192,1319.17 955.504,1318.75 956.817,1318.3 958.129,1317.83 959.442,1317.33 960.754,1316.81 
  962.067,1316.27 963.379,1315.7 964.692,1315.11 966.004,1314.49 967.317,1313.85 968.629,1313.19 969.942,1312.5 971.254,1311.79 972.567,1311.06 973.879,1310.3 
  975.192,1309.52 976.505,1308.71 977.817,1307.89 979.13,1307.03 980.442,1306.16 981.755,1305.26 983.067,1304.33 984.38,1303.38 985.692,1302.41 987.005,1301.41 
  988.317,1300.39 989.63,1299.35 990.942,1298.28 992.255,1297.18 993.567,1296.06 994.88,1294.91 996.192,1293.74 997.505,1292.55 998.817,1291.33 1000.13,1290.08 
  1001.44,1288.81 1002.75,1287.52 1004.07,1286.2 1005.38,1284.87 1006.69,1283.51 1008,1282.14 1009.32,1280.74 1010.63,1279.32 1011.94,1277.88 1013.25,1276.42 
  1014.57,1274.94 1015.88,1273.44 1017.19,1271.92 1018.5,1270.38 1019.82,1268.82 1021.13,1267.23 1022.44,1265.63 1023.75,1264.01 1025.07,1262.37 1026.38,1260.71 
  1027.69,1259.03 1029.01,1257.34 1030.32,1255.62 1031.63,1253.88 1032.94,1252.13 1034.26,1250.36 1035.57,1248.57 1036.88,1246.76 1038.19,1244.94 1039.51,1243.1 
  1040.82,1241.24 1042.13,1239.36 1043.44,1237.47 1044.76,1235.56 1046.07,1233.63 1047.38,1231.69 1048.69,1229.73 1050.01,1227.76 1051.32,1225.77 1052.63,1223.76 
  1053.94,1221.74 1055.26,1219.71 1056.57,1217.66 1057.88,1215.6 1059.19,1213.52 1060.51,1211.43 1061.82,1209.33 1063.13,1207.21 1064.44,1205.08 1065.76,1202.94 
  1067.07,1200.79 1068.38,1198.62 1069.69,1196.44 1071.01,1194.25 1072.32,1192.05 1073.63,1189.84 1074.94,1187.61 1076.26,1185.38 1077.57,1183.14 1078.88,1180.88 
  1080.19,1178.62 1081.51,1176.34 1082.82,1174.06 1084.13,1171.77 1085.44,1169.47 1086.76,1167.16 1088.07,1164.84 1089.38,1162.51 1090.69,1160.18 1092.01,1157.84 
  1093.32,1155.49 1094.63,1153.13 1095.94,1150.77 1097.26,1148.4 1098.57,1146.02 1099.88,1143.64 1101.19,1141.25 1102.51,1138.86 1103.82,1136.46 1105.13,1134.06 
  1106.44,1131.65 1107.76,1129.23 1109.07,1126.81 1110.38,1124.39 1111.69,1121.96 1113.01,1119.53 1114.32,1117.1 1115.63,1114.66 1116.94,1112.22 1118.26,1109.77 
  1119.57,1107.32 1120.88,1104.87 1122.19,1102.42 1123.51,1099.97 1124.82,1097.51 1126.13,1095.05 1127.44,1092.59 1128.76,1090.12 1130.07,1087.66 1131.38,1085.19 
  1132.69,1082.72 1134.01,1080.25 1135.32,1077.78 1136.63,1075.31 1137.94,1072.84 1139.26,1070.37 1140.57,1067.9 1141.88,1065.42 1143.19,1062.95 1144.51,1060.48 
  1145.82,1058 1147.13,1055.53 1148.44,1053.05 1149.76,1050.58 1151.07,1048.11 1152.38,1045.63 1153.69,1043.16 1155.01,1040.69 1156.32,1038.22 1157.63,1035.74 
  1158.94,1033.27 1160.26,1030.8 1161.57,1028.33 1162.88,1025.86 1164.19,1023.4 1165.51,1020.93 1166.82,1018.46 1168.13,1015.99 1169.44,1013.53 1170.76,1011.06 
  1172.07,1008.6 1173.38,1006.13 1174.69,1003.67 1176.01,1001.21 1177.32,998.744 1178.63,996.282 1179.94,993.822 1181.26,991.364 1182.57,988.908 1183.88,986.456 
  1185.19,984.006 1186.51,981.56 1187.82,979.117 1189.13,976.678 1190.44,974.243 1191.76,971.813 1193.07,969.387 1194.38,966.966 1195.69,964.55 1197.01,962.139 
  1198.32,959.734 1199.63,957.334 1200.94,954.941 1202.26,952.554 1203.57,950.173 1204.88,947.8 1206.19,945.433 1207.51,943.074 1208.82,940.722 1210.13,938.378 
  1211.44,936.042 1212.76,933.714 1214.07,931.395 1215.38,929.085 1216.69,926.783 1218.01,924.491 1219.32,922.207 1220.63,919.934 1221.94,917.67 1223.26,915.417 
  1224.57,913.174 1225.88,910.941 1227.19,908.719 1228.51,906.508 1229.82,904.308 1231.13,902.119 1232.44,899.942 1233.76,897.777 1235.07,895.623 1236.38,893.482 
  1237.69,891.353 1239.01,889.236 1240.32,887.132 1241.63,885.041 1242.94,882.964 1244.26,880.899 1245.57,878.848 1246.88,876.81 1248.19,874.786 1249.51,872.776 
  1250.82,870.78 1252.13,868.799 1253.44,866.832 1254.76,864.879 1256.07,862.941 1257.38,861.018 1258.69,859.11 1260.01,857.217 1261.32,855.339 1262.63,853.477 
  1263.94,851.631 1265.26,849.8 1266.57,847.984 1267.88,846.185 1269.19,844.402 1270.51,842.635 1271.82,840.884 1273.13,839.15 1274.44,837.432 1275.76,835.73 
  1277.07,834.045 1278.38,832.377 1279.7,830.726 1281.01,829.092 1282.32,827.475 1283.63,825.875 1284.95,824.292 1286.26,822.726 1287.57,821.178 1288.88,819.646 
  1290.2,818.133 1291.51,816.637 1292.82,815.158 1294.13,813.697 1295.45,812.254 1296.76,810.828 1298.07,809.42 1299.38,808.03 1300.7,806.657 1302.01,805.303 
  1303.32,803.966 1304.63,802.647 1305.95,801.346 1307.26,800.062 1308.57,798.797 1309.88,797.55 1311.2,796.32 1312.51,795.108 1313.82,793.915 1315.13,792.739 
  1316.45,791.581 1317.76,790.441 1319.07,789.319 1320.38,788.214 1321.7,787.128 1323.01,786.059 1324.32,785.008 1325.63,783.975 1326.95,782.959 1328.26,781.961 
  1329.57,780.981 1330.88,780.019 1332.2,779.073 1333.51,778.146 1334.82,777.235 1336.13,776.342 1337.45,775.467 1338.76,774.608 1340.07,773.767 1341.38,772.943 
  1342.7,772.136 1344.01,771.346 1345.32,770.573 1346.63,769.817 1347.95,769.077 1349.26,768.354 1350.57,767.648 1351.88,766.958 1353.2,766.284 1354.51,765.627 
  1355.82,764.986 1357.13,764.361 1358.45,763.753 1359.76,763.16 1361.07,762.583 1362.38,762.021 1363.7,761.476 1365.01,760.945 1366.32,760.431 1367.63,759.931 
  1368.95,759.447 1370.26,758.977 1371.57,758.523 1372.88,758.083 1374.2,757.654 1375.51,757.236 1376.82,756.828 1378.13,756.432 1379.45,756.048 1380.76,755.676 
  1382.07,755.316 1383.38,754.968 1384.7,754.634 1386.01,754.312 1387.32,754.004 1388.63,753.709 1389.95,753.428 1391.26,753.161 1392.57,752.908 1393.88,752.67 
  1395.2,752.446 1396.51,752.237 1397.82,752.043 1399.13,751.864 1400.45,751.701 1401.76,751.553 1403.07,751.421 1404.38,751.304 1405.7,751.204 1407.01,751.12 
  1408.32,751.051 1409.63,751 1410.95,750.964 1412.26,750.945 1413.57,750.943 1414.88,750.958 1416.2,750.989 1417.51,751.038 1418.82,751.103 1420.13,751.185 
  1421.45,751.284 1422.76,751.401 1424.07,751.534 1425.38,751.685 1426.7,751.852 1428.01,752.037 1429.32,752.24 1430.63,752.459 1431.95,752.696 1433.26,752.949 
  1434.57,753.22 1435.88,753.508 1437.2,753.813 1438.51,754.135 1439.82,754.474 1441.13,754.83 1442.45,755.203 1443.76,755.593 1445.07,756 1446.38,756.423 
  1447.7,756.862 1449.01,757.318 1450.32,757.791 1451.63,758.28 1452.95,758.785 1454.26,759.306 1455.57,759.842 1456.88,760.395 1458.2,760.963 1459.51,761.547 
  1460.82,762.146 1462.13,762.761 1463.45,763.39 1464.76,764.035 1466.07,764.694 1467.38,765.368 1468.7,766.056 1470.01,766.758 1471.32,767.475 1472.63,768.205 
  1473.95,768.949 1475.26,769.707 1476.57,770.477 1477.88,771.261 1479.2,772.058 1480.51,772.867 1481.82,773.689 1483.13,774.523 1484.45,775.37 1485.76,776.228 
  1487.07,777.097 1488.38,777.978 1489.7,778.87 1491.01,779.773 1492.32,780.686 1493.63,781.61 1494.95,782.545 1496.26,783.489 1497.57,784.442 1498.88,785.406 
  1500.2,786.378 1501.51,787.36 1502.82,788.35 1504.13,789.348 1505.45,790.355 1506.76,791.37 1508.07,792.392 1509.38,793.422 1510.7,794.459 1512.01,795.503 
  1513.32,796.554 1514.63,797.611 1515.95,798.675 1517.26,799.744 1518.57,800.819 1519.88,801.9 1521.2,802.985 1522.51,804.076 1523.82,805.171 1525.13,806.271 
  1526.45,807.375 1527.76,808.483 1529.07,809.594 1530.38,810.71 1531.7,811.828 1533.01,812.949 1534.32,814.073 1535.64,815.2 1536.95,816.329 1538.26,817.46 
  1539.57,818.593 1540.89,819.728 1542.2,820.864 1543.51,822.001 1544.82,823.14 1546.14,824.279 1547.45,825.418 1548.76,826.559 1550.07,827.699 1551.39,828.84 
  1552.7,829.98 1554.01,831.12 1555.32,832.26 1556.64,833.399 1557.95,834.537 1559.26,835.674 1560.57,836.81 1561.89,837.945 1563.2,839.079 1564.51,840.211 
  1565.82,841.341 1567.14,842.47 1568.45,843.596 1569.76,844.721 1571.07,845.844 1572.39,846.964 1573.7,848.083 1575.01,849.199 1576.32,850.312 1577.64,851.423 
  1578.95,852.529 1580.26,853.619 1581.57,854.693 1582.89,855.751 1584.2,856.795 1585.51,857.824 1586.82,858.84 1588.14,859.842 1589.45,860.832 1590.76,861.809 
  1592.07,862.775 1593.39,863.729 1594.7,864.673 1596.01,865.606 1597.32,866.53 1598.64,867.444 1599.95,868.348 1601.26,869.244 1602.57,870.132 1603.89,871.011 
  1605.2,871.883 1606.51,872.747 1607.82,873.605 1609.14,874.456 1610.45,875.3 1611.76,876.138 1613.07,876.97 1614.39,877.796 1615.7,878.617 1617.01,879.433 
  1618.32,880.244 1619.64,881.05 1620.95,881.851 1622.26,882.647 1623.57,883.439 1624.89,884.227 1626.2,885.011 1627.51,885.791 1628.82,886.567 1630.14,887.339 
  1631.45,888.107 1632.76,888.872 1634.07,889.633 1635.39,890.39 1636.7,891.144 1638.01,891.894 1639.32,892.641 1640.64,893.384 1641.95,894.123 1643.26,894.859 
  1644.57,895.591 1645.89,896.319 1647.2,897.043 1648.51,897.764 1649.82,898.48 1651.14,899.193 1652.45,899.901 1653.76,900.605 1655.07,901.304 1656.39,901.999 
  1657.7,902.689 1659.01,903.374 1660.32,904.054 1661.64,904.729 1662.95,905.399 1664.26,906.063 1665.57,906.721 1666.89,907.373 1668.2,908.019 1669.51,908.659 
  1670.82,909.292 1672.14,909.918 1673.45,910.537 1674.76,911.148 1676.07,911.752 1677.39,912.348 1678.7,912.936 1680.01,913.516 1681.32,914.087 1682.64,914.649 
  1683.95,915.202 1685.26,915.745 1686.57,916.279 1687.89,916.802 1689.2,917.316 1690.51,917.818 1691.82,918.31 1693.14,918.79 1694.45,919.259 1695.76,919.716 
  1697.07,920.16 1698.39,920.593 1699.7,921.012 1701.01,921.419 1702.32,921.811 1703.64,922.191 1704.95,922.556 1706.26,922.907 1707.57,923.243 1708.89,923.565 
  1710.2,923.871 1711.51,924.161 1712.82,924.436 1714.14,924.694 1715.45,924.936 1716.76,925.162 1718.07,925.37 1719.39,925.561 1720.7,925.735 1722.01,925.89 
  1723.32,926.028 1724.64,926.147 1725.95,926.247 1727.26,926.328 1728.57,926.391 1729.89,926.433 1731.2,926.456 1732.51,926.46 1733.82,926.443 1735.14,926.406 
  1736.45,926.348 1737.76,926.27 1739.07,926.17 1740.39,926.05 1741.7,925.908 1743.01,925.745 1744.32,925.561 1745.64,925.354 1746.95,925.126 1748.26,924.876 
  1749.57,924.603 1750.89,924.309 1752.2,923.992 1753.51,923.653 1754.82,923.291 1756.14,922.907 1757.45,922.501 1758.76,922.072 1760.07,921.62 1761.39,921.146 
  1762.7,920.65 1764.01,920.131 1765.32,919.589 1766.64,919.025 1767.95,918.439 1769.26,917.831 1770.57,917.201 1771.89,916.549 1773.2,915.875 1774.51,915.179 
  1775.82,914.462 1777.14,913.724 1778.45,912.965 1779.76,912.185 1781.07,911.384 1782.39,910.564 1783.7,909.723 1785.01,908.862 1786.33,907.983 1787.64,907.084 
  1788.95,906.167 1790.26,905.231 1791.58,904.263 1792.89,903.249 1794.2,902.192 1795.51,901.092 1796.83,899.952 1798.14,898.771 1799.45,897.552 1800.76,896.296 
  1802.08,895.004 1803.39,893.676 1804.7,892.315 1806.01,890.921 1807.33,889.495 1808.64,888.039 1809.95,886.553 1811.26,885.039 1812.58,883.498 1813.89,881.93 
  1815.2,880.337 1816.51,878.719 1817.83,877.078 1819.14,875.413 1820.45,873.727 1821.76,872.02 1823.08,870.293 1824.39,868.546 1825.7,866.781 1827.01,864.998 
  1828.33,863.197 1829.64,861.381 1830.95,859.548 1832.26,857.7 1833.58,855.838 1834.89,853.962 1836.2,852.072 1837.51,850.17 1838.83,848.255 1840.14,846.329 
  1841.45,844.392 1842.76,842.444 1844.08,840.485 1845.39,838.517 1846.7,836.539 1848.01,834.552 1849.33,832.557 1850.64,830.553 1851.95,828.541 1853.26,826.521 
  1854.58,824.494 1855.89,822.46 1857.2,820.418 1858.51,818.37 1859.83,816.316 1861.14,814.255 1862.45,812.188 1863.76,810.115 1865.08,808.036 1866.39,805.951 
  1867.7,803.86 1869.01,801.764 1870.33,799.663 1871.64,797.555 1872.95,795.443 1874.26,793.325 1875.58,791.201 1876.89,789.072 1878.2,786.937 1879.51,784.797 
  1880.83,782.652 1882.14,780.5 1883.45,778.343 1884.76,776.18 1886.08,774.011 1887.39,771.836 1888.7,769.654 1890.01,767.467 1891.33,765.273 1892.64,763.072 
  1893.95,760.864 1895.26,758.649 1896.58,756.427 1897.89,754.198 1899.2,751.961 1900.51,749.716 1901.83,747.463 1903.14,745.202 1904.45,742.933 1905.76,740.655 
  1907.08,738.367 1908.39,736.071 1909.7,733.765 1911.01,731.45 1912.33,729.125 1913.64,726.789 1914.95,724.443 1916.26,722.087 1917.58,719.719 1918.89,717.341 
  1920.2,714.951 1921.51,712.549 1922.83,710.136 1924.14,707.71 1925.45,705.272 1926.76,702.822 1928.08,700.358 1929.39,697.882 1930.7,695.392 1932.01,692.889 
  1933.33,690.372 1934.64,687.842 1935.95,685.297 1937.26,682.738 1938.58,680.165 1939.89,677.577 1941.2,674.975 1942.51,672.357 1943.83,669.725 1945.14,667.078 
  1946.45,664.415 1947.76,661.737 1949.08,659.044 1950.39,656.336 1951.7,653.612 1953.01,650.873 1954.33,648.118 1955.64,645.348 1956.95,642.563 1958.26,639.762 
  1959.58,636.946 1960.89,634.115 1962.2,631.268 1963.51,628.407 1964.83,625.531 1966.14,622.64 1967.45,619.735 1968.76,616.816 1970.08,613.883 1971.39,610.936 
  1972.7,607.975 1974.01,605.002 1975.33,602.016 1976.64,599.018 1977.95,596.007 1979.26,592.986 1980.58,589.953 1981.89,586.909 1983.2,583.856 1984.51,580.793 
  1985.83,577.722 1987.14,574.642 1988.45,571.554 1989.76,568.459 1991.08,565.359 1992.39,562.253 1993.7,559.142 1995.01,556.027 1996.33,552.909 1997.64,549.79 
  1998.95,546.669 2000.26,543.547 2001.58,540.427 2002.89,537.293 2004.2,534.122 2005.51,530.914 2006.83,527.672 2008.14,524.399 2009.45,521.095 2010.76,517.763 
  2012.08,514.405 2013.39,511.022 2014.7,507.618 2016.01,504.192 2017.33,500.748 2018.64,497.287 2019.95,493.811 2021.26,490.321 2022.58,486.819 2023.89,483.307 
  2025.2,479.786 2026.51,476.258 2027.83,472.725 2029.14,469.187 2030.45,465.646 2031.76,462.103 2033.08,458.561 2034.39,455.02 2035.7,451.481 2037.01,447.947 
  2038.33,444.417 2039.64,440.893 2040.95,437.376 2042.27,433.868 2043.58,430.369 2044.89,426.881 2046.2,423.404 2047.52,419.939 2048.83,416.488 2050.14,413.05 
  2051.45,409.627 2052.77,406.22 2054.08,402.83 2055.39,399.456 2056.7,396.101 2058.02,392.764 2059.33,389.446 2060.64,386.147 2061.95,382.869 2063.27,379.612 
  2064.58,376.375 2065.89,373.161 2067.2,369.968 2068.52,366.798 2069.83,363.65 2071.14,360.526 2072.45,357.425 2073.77,354.347 2075.08,351.293 2076.39,348.263 
  2077.7,345.258 2079.02,342.276 2080.33,339.319 2081.64,336.386 2082.95,333.478 2084.27,330.594 2085.58,327.735 2086.89,324.9 2088.2,322.09 2089.52,319.303 
  2090.83,316.542 2092.14,313.804 2093.45,311.09 2094.77,308.399 2096.08,305.733 2097.39,303.089 2098.7,300.469 2100.02,297.871 2101.33,295.296 2102.64,292.744 
  2103.95,290.213 2105.27,287.704 2106.58,285.217 2107.89,282.75 2109.2,280.304 2110.52,277.879 2111.83,275.473 2113.14,273.087 2114.45,270.72 2115.77,268.371 
  2117.08,266.041 2118.39,263.729 2119.7,261.435 2121.02,259.157 2122.33,256.896 2123.64,254.651 2124.95,252.422 2126.27,250.208 2127.58,248.009 2128.89,245.824 
  2130.2,243.654 2131.52,241.497 2132.83,239.353 2134.14,237.222 2135.45,235.103 2136.77,232.997 2138.08,230.901 2139.39,228.817 2140.7,226.744 2142.02,224.681 
  2143.33,222.628 2144.64,220.586 2145.95,218.552 2147.27,216.528 2148.58,214.512 2149.89,212.505 2151.2,210.507 2152.52,208.516 2153.83,206.534 2155.14,204.559 
  2156.45,202.592 2157.77,200.633 2159.08,198.681 2160.39,196.736 2161.7,194.799 2163.02,192.869 2164.33,190.946 2165.64,189.03 2166.95,187.123 2168.27,185.222 
  2169.58,183.33 2170.89,181.445 2172.2,179.569 2173.52,177.701 2174.83,175.842 2176.14,173.992 2177.45,172.152 2178.77,170.321 2180.08,168.501 2181.39,166.693 
  2182.7,164.895 2184.02,163.11 2185.33,161.338 2186.64,159.58 2187.95,157.836 2189.27,156.108 2190.58,154.395 2191.89,152.7 2193.2,151.023 2194.52,149.365 
  2195.83,147.727 2197.14,146.111 2198.45,144.518 2199.77,142.949 2201.08,141.405 
  "/>
<path clip-path="url(#clip520)" d="
M1916.84 211.957 L2191.18 211.957 L2191.18 90.9966 L1916.84 90.9966  Z
  " fill="#ffffff" fill-rule="evenodd" fill-opacity="1"/>
<polyline clip-path="url(#clip520)" style="stroke:#000000; stroke-width:4; stroke-opacity:1; fill:none" points="
  1916.84,211.957 2191.18,211.957 2191.18,90.9966 1916.84,90.9966 1916.84,211.957 
  "/>
<polyline clip-path="url(#clip520)" style="stroke:#009af9; stroke-width:4; stroke-opacity:1; fill:none" points="
  1938.7,151.477 2069.85,151.477 
  "/>
<path clip-path="url(#clip520)" d="M 0 0 M2126.49 129.578 L2125.53 137.87 Q2125.46 138.619 2125.34 138.853 Q2125.22 139.064 2124.85 139.064 Q2124.57 139.064 2124.4 138.9 Q2124.26 138.713 2124.26 138.502 Q2124.26 138.385 2124.29 138.08 Q2124.31 137.776 2124.31 137.635 Q2124.52 136.183 2124.52 135.082 Q2124.52 133.044 2123.91 131.944 Q2123.3 130.819 2121.73 130.304 Q2120.17 129.765 2117.21 129.765 L2110.47 129.765 Q2108.92 129.765 2108.55 130.046 Q2108.2 130.327 2107.87 131.639 L2104.99 143.186 L2109.51 143.186 Q2111.19 143.186 2112.2 142.976 Q2113.23 142.765 2113.91 142.179 Q2114.61 141.57 2114.99 140.75 Q2115.39 139.931 2115.79 138.455 Q2115.9 137.963 2116.02 137.776 Q2116.16 137.588 2116.46 137.588 Q2116.7 137.588 2116.86 137.752 Q2117.03 137.893 2117.03 138.104 L2114.29 149.323 Q2114.15 149.885 2114.01 150.096 Q2113.86 150.283 2113.58 150.283 Q2113.28 150.283 2113.12 150.119 Q2112.95 149.955 2112.95 149.768 Q2112.95 149.581 2113.09 149.229 Q2113.44 147.707 2113.44 146.887 Q2113.44 146.419 2113.4 146.184 Q2113.37 145.95 2113.16 145.622 Q2112.97 145.271 2112.55 145.107 Q2112.13 144.943 2111.33 144.826 Q2110.54 144.685 2109.34 144.685 L2104.61 144.685 L2101.33 157.779 Q2101.1 158.645 2101.1 158.879 Q2101.1 159.137 2101.22 159.231 Q2101.36 159.301 2101.73 159.348 Q2102.15 159.418 2102.79 159.418 L2109.79 159.418 Q2111.33 159.418 2112.58 159.278 Q2113.82 159.137 2114.85 158.786 Q2115.9 158.434 2116.7 158.036 Q2117.5 157.638 2118.24 156.912 Q2118.99 156.162 2119.51 155.507 Q2120.05 154.827 2120.68 153.68 Q2121.31 152.532 2121.76 151.595 Q2122.2 150.635 2122.88 149.089 Q2123.07 148.527 2123.51 148.527 Q2123.77 148.527 2123.91 148.667 Q2124.05 148.784 2124.08 148.901 L2124.08 149.042 Q2123.94 149.487 2123.84 149.721 L2119.44 160.074 Q2119.18 160.66 2118.97 160.777 Q2118.76 160.894 2117.94 160.894 L2093.04 160.894 Q2092.48 160.894 2092.25 160.87 Q2092.03 160.847 2091.87 160.73 Q2091.71 160.589 2091.71 160.308 Q2091.71 159.863 2091.89 159.676 Q2092.08 159.465 2092.29 159.442 Q2092.5 159.418 2093.04 159.418 Q2094.21 159.418 2094.92 159.348 Q2095.62 159.278 2096.06 159.184 Q2096.53 159.067 2096.77 158.739 Q2097.02 158.411 2097.14 158.13 Q2097.26 157.825 2097.42 157.146 L2103.75 131.78 Q2103.98 130.913 2103.98 130.632 Q2103.98 130.327 2103.77 130.14 Q2103.58 129.953 2103.07 129.882 Q2102.55 129.789 2102.13 129.789 Q2101.73 129.765 2100.87 129.765 Q2100.3 129.765 2100.07 129.742 Q2099.86 129.718 2099.69 129.601 Q2099.53 129.484 2099.53 129.227 Q2099.53 128.571 2099.81 128.43 Q2100.12 128.266 2100.96 128.266 L2125.18 128.266 Q2126.14 128.266 2126.35 128.477 Q2126.58 128.664 2126.49 129.578 Z" fill="#000000" fill-rule="evenodd" fill-opacity="1" /><path clip-path="url(#clip520)" d="M 0 0 M2131.37 154.888 L2131.37 153.839 Q2135.41 153.839 2137.49 151.691 Q2138.06 151.691 2138.16 151.822 Q2138.26 151.953 2138.26 152.56 L2138.26 171.398 Q2138.26 172.399 2138.75 172.71 Q2139.24 173.022 2141.39 173.022 L2142.46 173.022 L2142.46 174.054 Q2141.27 173.956 2137.01 173.956 Q2132.75 173.956 2131.59 174.054 L2131.59 173.022 L2132.65 173.022 Q2134.77 173.022 2135.27 172.726 Q2135.78 172.415 2135.78 171.398 L2135.78 154.003 Q2134.03 154.888 2131.37 154.888 Z" fill="#000000" fill-rule="evenodd" fill-opacity="1" /></svg>
