<?xml version="1.0" encoding="utf-8"?>
<svg xmlns="http://www.w3.org/2000/svg" xmlns:xlink="http://www.w3.org/1999/xlink" width="576" height="384" viewBox="0 0 2304 1536">
<defs>
  <clipPath id="clip600">
    <rect x="0" y="0" width="2304" height="1536"/>
  </clipPath>
</defs>
<path clip-path="url(#clip600)" d="
M0 1536 L2304 1536 L2304 0 L0 0  Z
  " fill="#ffffff" fill-rule="evenodd" fill-opacity="1"/>
<defs>
  <clipPath id="clip601">
    <rect x="460" y="0" width="1614" height="1536"/>
  </clipPath>
</defs>
<defs>
  <clipPath id="clip602">
    <rect x="262" y="47" width="1995" height="1314"/>
  </clipPath>
</defs>
<path clip-path="url(#clip600)" d="
M262.495 1359.82 L2256.76 1359.82 L2256.76 47.2441 L262.495 47.2441  Z
  " fill="#ffffff" fill-rule="evenodd" fill-opacity="1"/>
<polyline clip-path="url(#clip602)" style="stroke:#000000; stroke-width:2; stroke-opacity:0.1; fill:none" points="
  318.937,1359.82 318.937,47.2441 
  "/>
<polyline clip-path="url(#clip602)" style="stroke:#000000; stroke-width:2; stroke-opacity:0.1; fill:none" points="
  651.571,1359.82 651.571,47.2441 
  "/>
<polyline clip-path="url(#clip602)" style="stroke:#000000; stroke-width:2; stroke-opacity:0.1; fill:none" points="
  984.205,1359.82 984.205,47.2441 
  "/>
<polyline clip-path="url(#clip602)" style="stroke:#000000; stroke-width:2; stroke-opacity:0.1; fill:none" points="
  1316.84,1359.82 1316.84,47.2441 
  "/>
<polyline clip-path="url(#clip602)" style="stroke:#000000; stroke-width:2; stroke-opacity:0.1; fill:none" points="
  1649.47,1359.82 1649.47,47.2441 
  "/>
<polyline clip-path="url(#clip602)" style="stroke:#000000; stroke-width:2; stroke-opacity:0.1; fill:none" points="
  1982.11,1359.82 1982.11,47.2441 
  "/>
<polyline clip-path="url(#clip600)" style="stroke:#000000; stroke-width:4; stroke-opacity:1; fill:none" points="
  262.495,1359.82 2256.76,1359.82 
  "/>
<polyline clip-path="url(#clip600)" style="stroke:#000000; stroke-width:4; stroke-opacity:1; fill:none" points="
  318.937,1359.82 318.937,1344.07 
  "/>
<polyline clip-path="url(#clip600)" style="stroke:#000000; stroke-width:4; stroke-opacity:1; fill:none" points="
  651.571,1359.82 651.571,1344.07 
  "/>
<polyline clip-path="url(#clip600)" style="stroke:#000000; stroke-width:4; stroke-opacity:1; fill:none" points="
  984.205,1359.82 984.205,1344.07 
  "/>
<polyline clip-path="url(#clip600)" style="stroke:#000000; stroke-width:4; stroke-opacity:1; fill:none" points="
  1316.84,1359.82 1316.84,1344.07 
  "/>
<polyline clip-path="url(#clip600)" style="stroke:#000000; stroke-width:4; stroke-opacity:1; fill:none" points="
  1649.47,1359.82 1649.47,1344.07 
  "/>
<polyline clip-path="url(#clip600)" style="stroke:#000000; stroke-width:4; stroke-opacity:1; fill:none" points="
  1982.11,1359.82 1982.11,1344.07 
  "/>
<path clip-path="url(#clip600)" d="M 0 0 M300.453 1388.24 Q296.842 1388.24 295.013 1391.81 Q293.208 1395.35 293.208 1402.48 Q293.208 1409.59 295.013 1413.15 Q296.842 1416.69 300.453 1416.69 Q304.087 1416.69 305.893 1413.15 Q307.721 1409.59 307.721 1402.48 Q307.721 1395.35 305.893 1391.81 Q304.087 1388.24 300.453 1388.24 M300.453 1384.54 Q306.263 1384.54 309.319 1389.15 Q312.397 1393.73 312.397 1402.48 Q312.397 1411.21 309.319 1415.81 Q306.263 1420.4 300.453 1420.4 Q294.643 1420.4 291.564 1415.81 Q288.508 1411.21 288.508 1402.48 Q288.508 1393.73 291.564 1389.15 Q294.643 1384.54 300.453 1384.54 Z" fill="#000000" fill-rule="evenodd" fill-opacity="1" /><path clip-path="url(#clip600)" d="M 0 0 M317.467 1413.84 L322.351 1413.84 L322.351 1419.72 L317.467 1419.72 L317.467 1413.84 Z" fill="#000000" fill-rule="evenodd" fill-opacity="1" /><path clip-path="url(#clip600)" d="M 0 0 M337.42 1388.24 Q333.809 1388.24 331.98 1391.81 Q330.175 1395.35 330.175 1402.48 Q330.175 1409.59 331.98 1413.15 Q333.809 1416.69 337.42 1416.69 Q341.055 1416.69 342.86 1413.15 Q344.689 1409.59 344.689 1402.48 Q344.689 1395.35 342.86 1391.81 Q341.055 1388.24 337.42 1388.24 M337.42 1384.54 Q343.23 1384.54 346.286 1389.15 Q349.365 1393.73 349.365 1402.48 Q349.365 1411.21 346.286 1415.81 Q343.23 1420.4 337.42 1420.4 Q331.61 1420.4 328.531 1415.81 Q325.476 1411.21 325.476 1402.48 Q325.476 1393.73 328.531 1389.15 Q331.61 1384.54 337.42 1384.54 Z" fill="#000000" fill-rule="evenodd" fill-opacity="1" /><path clip-path="url(#clip600)" d="M 0 0 M628.237 1415.79 L644.557 1415.79 L644.557 1419.72 L622.612 1419.72 L622.612 1415.79 Q625.274 1413.03 629.858 1408.4 Q634.464 1403.75 635.645 1402.41 Q637.89 1399.89 638.77 1398.15 Q639.673 1396.39 639.673 1394.7 Q639.673 1391.95 637.728 1390.21 Q635.807 1388.47 632.705 1388.47 Q630.506 1388.47 628.052 1389.24 Q625.622 1390 622.844 1391.55 L622.844 1386.83 Q625.668 1385.7 628.122 1385.12 Q630.575 1384.54 632.612 1384.54 Q637.983 1384.54 641.177 1387.22 Q644.372 1389.91 644.372 1394.4 Q644.372 1396.53 643.561 1398.45 Q642.774 1400.35 640.668 1402.94 Q640.089 1403.61 636.987 1406.83 Q633.885 1410.02 628.237 1415.79 Z" fill="#000000" fill-rule="evenodd" fill-opacity="1" /><path clip-path="url(#clip600)" d="M 0 0 M649.626 1413.84 L654.51 1413.84 L654.51 1419.72 L649.626 1419.72 L649.626 1413.84 Z" fill="#000000" fill-rule="evenodd" fill-opacity="1" /><path clip-path="url(#clip600)" d="M 0 0 M659.626 1385.16 L677.982 1385.16 L677.982 1389.1 L663.908 1389.1 L663.908 1397.57 Q664.927 1397.22 665.946 1397.06 Q666.964 1396.88 667.983 1396.88 Q673.77 1396.88 677.149 1400.05 Q680.529 1403.22 680.529 1408.64 Q680.529 1414.21 677.057 1417.32 Q673.584 1420.4 667.265 1420.4 Q665.089 1420.4 662.821 1420.02 Q660.575 1419.65 658.168 1418.91 L658.168 1414.21 Q660.251 1415.35 662.473 1415.9 Q664.696 1416.46 667.172 1416.46 Q671.177 1416.46 673.515 1414.35 Q675.853 1412.25 675.853 1408.64 Q675.853 1405.02 673.515 1402.92 Q671.177 1400.81 667.172 1400.81 Q665.297 1400.81 663.422 1401.23 Q661.571 1401.65 659.626 1402.52 L659.626 1385.16 Z" fill="#000000" fill-rule="evenodd" fill-opacity="1" /><path clip-path="url(#clip600)" d="M 0 0 M955.999 1385.16 L974.355 1385.16 L974.355 1389.1 L960.281 1389.1 L960.281 1397.57 Q961.3 1397.22 962.318 1397.06 Q963.337 1396.88 964.355 1396.88 Q970.142 1396.88 973.522 1400.05 Q976.901 1403.22 976.901 1408.64 Q976.901 1414.21 973.429 1417.32 Q969.957 1420.4 963.638 1420.4 Q961.462 1420.4 959.193 1420.02 Q956.948 1419.65 954.54 1418.91 L954.54 1414.21 Q956.624 1415.35 958.846 1415.9 Q961.068 1416.46 963.545 1416.46 Q967.55 1416.46 969.888 1414.35 Q972.226 1412.25 972.226 1408.64 Q972.226 1405.02 969.888 1402.92 Q967.55 1400.81 963.545 1400.81 Q961.67 1400.81 959.795 1401.23 Q957.943 1401.65 955.999 1402.52 L955.999 1385.16 Z" fill="#000000" fill-rule="evenodd" fill-opacity="1" /><path clip-path="url(#clip600)" d="M 0 0 M981.971 1413.84 L986.855 1413.84 L986.855 1419.72 L981.971 1419.72 L981.971 1413.84 Z" fill="#000000" fill-rule="evenodd" fill-opacity="1" /><path clip-path="url(#clip600)" d="M 0 0 M1001.92 1388.24 Q998.313 1388.24 996.485 1391.81 Q994.679 1395.35 994.679 1402.48 Q994.679 1409.59 996.485 1413.15 Q998.313 1416.69 1001.92 1416.69 Q1005.56 1416.69 1007.36 1413.15 Q1009.19 1409.59 1009.19 1402.48 Q1009.19 1395.35 1007.36 1391.81 Q1005.56 1388.24 1001.92 1388.24 M1001.92 1384.54 Q1007.73 1384.54 1010.79 1389.15 Q1013.87 1393.73 1013.87 1402.48 Q1013.87 1411.21 1010.79 1415.81 Q1007.73 1420.4 1001.92 1420.4 Q996.114 1420.4 993.036 1415.81 Q989.98 1411.21 989.98 1402.48 Q989.98 1393.73 993.036 1389.15 Q996.114 1384.54 1001.92 1384.54 Z" fill="#000000" fill-rule="evenodd" fill-opacity="1" /><path clip-path="url(#clip600)" d="M 0 0 M1287.74 1385.16 L1309.96 1385.16 L1309.96 1387.15 L1297.42 1419.72 L1292.53 1419.72 L1304.34 1389.1 L1287.74 1389.1 L1287.74 1385.16 Z" fill="#000000" fill-rule="evenodd" fill-opacity="1" /><path clip-path="url(#clip600)" d="M 0 0 M1315.03 1413.84 L1319.92 1413.84 L1319.92 1419.72 L1315.03 1419.72 L1315.03 1413.84 Z" fill="#000000" fill-rule="evenodd" fill-opacity="1" /><path clip-path="url(#clip600)" d="M 0 0 M1325.03 1385.16 L1343.39 1385.16 L1343.39 1389.1 L1329.32 1389.1 L1329.32 1397.57 Q1330.33 1397.22 1331.35 1397.06 Q1332.37 1396.88 1333.39 1396.88 Q1339.18 1396.88 1342.56 1400.05 Q1345.94 1403.22 1345.94 1408.64 Q1345.94 1414.21 1342.46 1417.32 Q1338.99 1420.4 1332.67 1420.4 Q1330.5 1420.4 1328.23 1420.02 Q1325.98 1419.65 1323.57 1418.91 L1323.57 1414.21 Q1325.66 1415.35 1327.88 1415.9 Q1330.1 1416.46 1332.58 1416.46 Q1336.58 1416.46 1338.92 1414.35 Q1341.26 1412.25 1341.26 1408.64 Q1341.26 1405.02 1338.92 1402.92 Q1336.58 1400.81 1332.58 1400.81 Q1330.7 1400.81 1328.83 1401.23 Q1326.98 1401.65 1325.03 1402.52 L1325.03 1385.16 Z" fill="#000000" fill-rule="evenodd" fill-opacity="1" /><path clip-path="url(#clip600)" d="M 0 0 M1607.86 1415.79 L1615.5 1415.79 L1615.5 1389.42 L1607.19 1391.09 L1607.19 1386.83 L1615.46 1385.16 L1620.13 1385.16 L1620.13 1415.79 L1627.77 1415.79 L1627.77 1419.72 L1607.86 1419.72 L1607.86 1415.79 Z" fill="#000000" fill-rule="evenodd" fill-opacity="1" /><path clip-path="url(#clip600)" d="M 0 0 M1642.84 1388.24 Q1639.23 1388.24 1637.4 1391.81 Q1635.6 1395.35 1635.6 1402.48 Q1635.6 1409.59 1637.4 1413.15 Q1639.23 1416.69 1642.84 1416.69 Q1646.47 1416.69 1648.28 1413.15 Q1650.11 1409.59 1650.11 1402.48 Q1650.11 1395.35 1648.28 1391.81 Q1646.47 1388.24 1642.84 1388.24 M1642.84 1384.54 Q1648.65 1384.54 1651.71 1389.15 Q1654.79 1393.73 1654.79 1402.48 Q1654.79 1411.21 1651.71 1415.81 Q1648.65 1420.4 1642.84 1420.4 Q1637.03 1420.4 1633.95 1415.81 Q1630.9 1411.21 1630.9 1402.48 Q1630.9 1393.73 1633.95 1389.15 Q1637.03 1384.54 1642.84 1384.54 Z" fill="#000000" fill-rule="evenodd" fill-opacity="1" /><path clip-path="url(#clip600)" d="M 0 0 M1659.85 1413.84 L1664.74 1413.84 L1664.74 1419.72 L1659.85 1419.72 L1659.85 1413.84 Z" fill="#000000" fill-rule="evenodd" fill-opacity="1" /><path clip-path="url(#clip600)" d="M 0 0 M1679.81 1388.24 Q1676.2 1388.24 1674.37 1391.81 Q1672.56 1395.35 1672.56 1402.48 Q1672.56 1409.59 1674.37 1413.15 Q1676.2 1416.69 1679.81 1416.69 Q1683.44 1416.69 1685.25 1413.15 Q1687.08 1409.59 1687.08 1402.48 Q1687.08 1395.35 1685.25 1391.81 Q1683.44 1388.24 1679.81 1388.24 M1679.81 1384.54 Q1685.62 1384.54 1688.67 1389.15 Q1691.75 1393.73 1691.75 1402.48 Q1691.75 1411.21 1688.67 1415.81 Q1685.62 1420.4 1679.81 1420.4 Q1674 1420.4 1670.92 1415.81 Q1667.86 1411.21 1667.86 1402.48 Q1667.86 1393.73 1670.92 1389.15 Q1674 1384.54 1679.81 1384.54 Z" fill="#000000" fill-rule="evenodd" fill-opacity="1" /><path clip-path="url(#clip600)" d="M 0 0 M1941.79 1415.79 L1949.43 1415.79 L1949.43 1389.42 L1941.12 1391.09 L1941.12 1386.83 L1949.39 1385.16 L1954.06 1385.16 L1954.06 1415.79 L1961.7 1415.79 L1961.7 1419.72 L1941.79 1419.72 L1941.79 1415.79 Z" fill="#000000" fill-rule="evenodd" fill-opacity="1" /><path clip-path="url(#clip600)" d="M 0 0 M1970.8 1415.79 L1987.12 1415.79 L1987.12 1419.72 L1965.17 1419.72 L1965.17 1415.79 Q1967.84 1413.03 1972.42 1408.4 Q1977.03 1403.75 1978.21 1402.41 Q1980.45 1399.89 1981.33 1398.15 Q1982.23 1396.39 1982.23 1394.7 Q1982.23 1391.95 1980.29 1390.21 Q1978.37 1388.47 1975.27 1388.47 Q1973.07 1388.47 1970.61 1389.24 Q1968.18 1390 1965.41 1391.55 L1965.41 1386.83 Q1968.23 1385.7 1970.68 1385.12 Q1973.14 1384.54 1975.17 1384.54 Q1980.54 1384.54 1983.74 1387.22 Q1986.93 1389.91 1986.93 1394.4 Q1986.93 1396.53 1986.12 1398.45 Q1985.34 1400.35 1983.23 1402.94 Q1982.65 1403.61 1979.55 1406.83 Q1976.45 1410.02 1970.8 1415.79 Z" fill="#000000" fill-rule="evenodd" fill-opacity="1" /><path clip-path="url(#clip600)" d="M 0 0 M1992.19 1413.84 L1997.07 1413.84 L1997.07 1419.72 L1992.19 1419.72 L1992.19 1413.84 Z" fill="#000000" fill-rule="evenodd" fill-opacity="1" /><path clip-path="url(#clip600)" d="M 0 0 M2002.19 1385.16 L2020.54 1385.16 L2020.54 1389.1 L2006.47 1389.1 L2006.47 1397.57 Q2007.49 1397.22 2008.51 1397.06 Q2009.53 1396.88 2010.54 1396.88 Q2016.33 1396.88 2019.71 1400.05 Q2023.09 1403.22 2023.09 1408.64 Q2023.09 1414.21 2019.62 1417.32 Q2016.15 1420.4 2009.83 1420.4 Q2007.65 1420.4 2005.38 1420.02 Q2003.14 1419.65 2000.73 1418.91 L2000.73 1414.21 Q2002.81 1415.35 2005.03 1415.9 Q2007.26 1416.46 2009.73 1416.46 Q2013.74 1416.46 2016.08 1414.35 Q2018.41 1412.25 2018.41 1408.64 Q2018.41 1405.02 2016.08 1402.92 Q2013.74 1400.81 2009.73 1400.81 Q2007.86 1400.81 2005.98 1401.23 Q2004.13 1401.65 2002.19 1402.52 L2002.19 1385.16 Z" fill="#000000" fill-rule="evenodd" fill-opacity="1" /><path clip-path="url(#clip600)" d="M 0 0 M1195.03 1445.95 L1195.03 1456.08 L1207.09 1456.08 L1207.09 1460.63 L1195.03 1460.63 L1195.03 1479.98 Q1195.03 1484.34 1196.21 1485.58 Q1197.42 1486.82 1201.08 1486.82 L1207.09 1486.82 L1207.09 1491.72 L1201.08 1491.72 Q1194.3 1491.72 1191.72 1489.21 Q1189.14 1486.66 1189.14 1479.98 L1189.14 1460.63 L1184.84 1460.63 L1184.84 1456.08 L1189.14 1456.08 L1189.14 1445.95 L1195.03 1445.95 Z" fill="#000000" fill-rule="evenodd" fill-opacity="1" /><path clip-path="url(#clip600)" d="M 0 0 M1248.02 1442.26 Q1243.76 1449.58 1241.69 1456.74 Q1239.62 1463.91 1239.62 1471.26 Q1239.62 1478.61 1241.69 1485.84 Q1243.79 1493.03 1248.02 1500.32 L1242.93 1500.32 Q1238.16 1492.84 1235.77 1485.61 Q1233.41 1478.39 1233.41 1471.26 Q1233.41 1464.16 1235.77 1456.97 Q1238.13 1449.77 1242.93 1442.26 L1248.02 1442.26 Z" fill="#000000" fill-rule="evenodd" fill-opacity="1" /><path clip-path="url(#clip600)" d="M 0 0 M1283.8 1470.21 L1283.8 1491.72 L1277.94 1491.72 L1277.94 1470.4 Q1277.94 1465.34 1275.97 1462.82 Q1274 1460.31 1270.05 1460.31 Q1265.31 1460.31 1262.57 1463.33 Q1259.83 1466.36 1259.83 1471.58 L1259.83 1491.72 L1253.94 1491.72 L1253.94 1456.08 L1259.83 1456.08 L1259.83 1461.61 Q1261.93 1458.4 1264.77 1456.81 Q1267.63 1455.22 1271.35 1455.22 Q1277.5 1455.22 1280.65 1459.04 Q1283.8 1462.82 1283.8 1470.21 Z" fill="#000000" fill-rule="evenodd" fill-opacity="1" /><path clip-path="url(#clip600)" d="M 0 0 M1312.67 1457.13 L1312.67 1462.66 Q1310.19 1461.39 1307.51 1460.75 Q1304.84 1460.12 1301.97 1460.12 Q1297.61 1460.12 1295.42 1461.45 Q1293.25 1462.79 1293.25 1465.47 Q1293.25 1467.5 1294.81 1468.68 Q1296.37 1469.83 1301.08 1470.88 L1303.09 1471.32 Q1309.33 1472.66 1311.94 1475.11 Q1314.58 1477.53 1314.58 1481.89 Q1314.58 1486.85 1310.63 1489.75 Q1306.72 1492.65 1299.84 1492.65 Q1296.98 1492.65 1293.86 1492.07 Q1290.77 1491.53 1287.33 1490.42 L1287.33 1484.37 Q1290.58 1486.06 1293.73 1486.92 Q1296.88 1487.75 1299.97 1487.75 Q1304.11 1487.75 1306.33 1486.34 Q1308.56 1484.91 1308.56 1482.33 Q1308.56 1479.95 1306.94 1478.67 Q1305.35 1477.4 1299.9 1476.22 L1297.87 1475.75 Q1292.42 1474.6 1290.01 1472.24 Q1287.59 1469.86 1287.59 1465.72 Q1287.59 1460.69 1291.15 1457.95 Q1294.72 1455.22 1301.27 1455.22 Q1304.52 1455.22 1307.38 1455.69 Q1310.25 1456.17 1312.67 1457.13 Z" fill="#000000" fill-rule="evenodd" fill-opacity="1" /><path clip-path="url(#clip600)" d="M 0 0 M1319.8 1442.26 L1324.89 1442.26 Q1329.66 1449.77 1332.02 1456.97 Q1334.41 1464.16 1334.41 1471.26 Q1334.41 1478.39 1332.02 1485.61 Q1329.66 1492.84 1324.89 1500.32 L1319.8 1500.32 Q1324.03 1493.03 1326.1 1485.84 Q1328.2 1478.61 1328.2 1471.26 Q1328.2 1463.91 1326.1 1456.74 Q1324.03 1449.58 1319.8 1442.26 Z" fill="#000000" fill-rule="evenodd" fill-opacity="1" /><polyline clip-path="url(#clip602)" style="stroke:#000000; stroke-width:2; stroke-opacity:0.1; fill:none" points="
  262.495,1226.27 2256.76,1226.27 
  "/>
<polyline clip-path="url(#clip602)" style="stroke:#000000; stroke-width:2; stroke-opacity:0.1; fill:none" points="
  262.495,845.647 2256.76,845.647 
  "/>
<polyline clip-path="url(#clip602)" style="stroke:#000000; stroke-width:2; stroke-opacity:0.1; fill:none" points="
  262.495,465.02 2256.76,465.02 
  "/>
<polyline clip-path="url(#clip602)" style="stroke:#000000; stroke-width:2; stroke-opacity:0.1; fill:none" points="
  262.495,84.3925 2256.76,84.3925 
  "/>
<polyline clip-path="url(#clip600)" style="stroke:#000000; stroke-width:4; stroke-opacity:1; fill:none" points="
  262.495,1359.82 262.495,47.2441 
  "/>
<polyline clip-path="url(#clip600)" style="stroke:#000000; stroke-width:4; stroke-opacity:1; fill:none" points="
  262.495,1226.27 286.426,1226.27 
  "/>
<polyline clip-path="url(#clip600)" style="stroke:#000000; stroke-width:4; stroke-opacity:1; fill:none" points="
  262.495,845.647 286.426,845.647 
  "/>
<polyline clip-path="url(#clip600)" style="stroke:#000000; stroke-width:4; stroke-opacity:1; fill:none" points="
  262.495,465.02 286.426,465.02 
  "/>
<polyline clip-path="url(#clip600)" style="stroke:#000000; stroke-width:4; stroke-opacity:1; fill:none" points="
  262.495,84.3925 286.426,84.3925 
  "/>
<path clip-path="url(#clip600)" d="M 0 0 M126.269 1212.07 Q122.658 1212.07 120.829 1215.64 Q119.024 1219.18 119.024 1226.31 Q119.024 1233.42 120.829 1236.98 Q122.658 1240.52 126.269 1240.52 Q129.903 1240.52 131.709 1236.98 Q133.538 1233.42 133.538 1226.31 Q133.538 1219.18 131.709 1215.64 Q129.903 1212.07 126.269 1212.07 M126.269 1208.37 Q132.079 1208.37 135.135 1212.98 Q138.213 1217.56 138.213 1226.31 Q138.213 1235.04 135.135 1239.64 Q132.079 1244.23 126.269 1244.23 Q120.459 1244.23 117.38 1239.64 Q114.325 1235.04 114.325 1226.31 Q114.325 1217.56 117.38 1212.98 Q120.459 1208.37 126.269 1208.37 Z" fill="#000000" fill-rule="evenodd" fill-opacity="1" /><path clip-path="url(#clip600)" d="M 0 0 M143.283 1237.68 L148.167 1237.68 L148.167 1243.55 L143.283 1243.55 L143.283 1237.68 Z" fill="#000000" fill-rule="evenodd" fill-opacity="1" /><path clip-path="url(#clip600)" d="M 0 0 M153.375 1242.84 L153.375 1238.58 Q155.135 1239.41 156.94 1239.85 Q158.746 1240.29 160.482 1240.29 Q165.111 1240.29 167.542 1237.19 Q169.996 1234.06 170.343 1227.72 Q169 1229.71 166.94 1230.78 Q164.88 1231.84 162.38 1231.84 Q157.195 1231.84 154.162 1228.72 Q151.153 1225.57 151.153 1220.13 Q151.153 1214.8 154.301 1211.59 Q157.449 1208.37 162.681 1208.37 Q168.676 1208.37 171.824 1212.98 Q174.996 1217.56 174.996 1226.31 Q174.996 1234.48 171.107 1239.36 Q167.241 1244.23 160.69 1244.23 Q158.931 1244.23 157.125 1243.88 Q155.32 1243.53 153.375 1242.84 M162.681 1228.18 Q165.829 1228.18 167.658 1226.03 Q169.51 1223.88 169.51 1220.13 Q169.51 1216.4 167.658 1214.25 Q165.829 1212.07 162.681 1212.07 Q159.533 1212.07 157.681 1214.25 Q155.852 1216.4 155.852 1220.13 Q155.852 1223.88 157.681 1226.03 Q159.533 1228.18 162.681 1228.18 Z" fill="#000000" fill-rule="evenodd" fill-opacity="1" /><path clip-path="url(#clip600)" d="M 0 0 M190.065 1227.14 Q186.732 1227.14 184.81 1228.93 Q182.912 1230.71 182.912 1233.83 Q182.912 1236.96 184.81 1238.74 Q186.732 1240.52 190.065 1240.52 Q193.398 1240.52 195.32 1238.74 Q197.241 1236.93 197.241 1233.83 Q197.241 1230.71 195.32 1228.93 Q193.422 1227.14 190.065 1227.14 M185.389 1225.15 Q182.38 1224.41 180.69 1222.35 Q179.023 1220.29 179.023 1217.33 Q179.023 1213.18 181.963 1210.78 Q184.926 1208.37 190.065 1208.37 Q195.227 1208.37 198.167 1210.78 Q201.107 1213.18 201.107 1217.33 Q201.107 1220.29 199.417 1222.35 Q197.75 1224.41 194.764 1225.15 Q198.144 1225.94 200.019 1228.23 Q201.917 1230.52 201.917 1233.83 Q201.917 1238.86 198.838 1241.54 Q195.783 1244.23 190.065 1244.23 Q184.348 1244.23 181.269 1241.54 Q178.213 1238.86 178.213 1233.83 Q178.213 1230.52 180.111 1228.23 Q182.01 1225.94 185.389 1225.15 M183.676 1217.77 Q183.676 1220.45 185.343 1221.96 Q187.033 1223.46 190.065 1223.46 Q193.074 1223.46 194.764 1221.96 Q196.477 1220.45 196.477 1217.77 Q196.477 1215.08 194.764 1213.58 Q193.074 1212.07 190.065 1212.07 Q187.033 1212.07 185.343 1213.58 Q183.676 1215.08 183.676 1217.77 Z" fill="#000000" fill-rule="evenodd" fill-opacity="1" /><path clip-path="url(#clip600)" d="M 0 0 M207.033 1208.99 L225.389 1208.99 L225.389 1212.93 L211.315 1212.93 L211.315 1221.4 Q212.333 1221.05 213.352 1220.89 Q214.37 1220.71 215.389 1220.71 Q221.176 1220.71 224.556 1223.88 Q227.935 1227.05 227.935 1232.47 Q227.935 1238.05 224.463 1241.15 Q220.991 1244.23 214.671 1244.23 Q212.496 1244.23 210.227 1243.86 Q207.982 1243.49 205.574 1242.74 L205.574 1238.05 Q207.658 1239.18 209.88 1239.74 Q212.102 1240.29 214.579 1240.29 Q218.583 1240.29 220.921 1238.18 Q223.259 1236.08 223.259 1232.47 Q223.259 1228.86 220.921 1226.75 Q218.583 1224.64 214.579 1224.64 Q212.704 1224.64 210.829 1225.06 Q208.977 1225.48 207.033 1226.36 L207.033 1208.99 Z" fill="#000000" fill-rule="evenodd" fill-opacity="1" /><path clip-path="url(#clip600)" d="M 0 0 M125.366 831.446 Q121.755 831.446 119.927 835.011 Q118.121 838.552 118.121 845.682 Q118.121 852.789 119.927 856.353 Q121.755 859.895 125.366 859.895 Q129.001 859.895 130.806 856.353 Q132.635 852.789 132.635 845.682 Q132.635 838.552 130.806 835.011 Q129.001 831.446 125.366 831.446 M125.366 827.742 Q131.176 827.742 134.232 832.349 Q137.311 836.932 137.311 845.682 Q137.311 854.409 134.232 859.015 Q131.176 863.599 125.366 863.599 Q119.556 863.599 116.477 859.015 Q113.422 854.409 113.422 845.682 Q113.422 836.932 116.477 832.349 Q119.556 827.742 125.366 827.742 Z" fill="#000000" fill-rule="evenodd" fill-opacity="1" /><path clip-path="url(#clip600)" d="M 0 0 M142.38 857.048 L147.264 857.048 L147.264 862.927 L142.38 862.927 L142.38 857.048 Z" fill="#000000" fill-rule="evenodd" fill-opacity="1" /><path clip-path="url(#clip600)" d="M 0 0 M152.473 862.21 L152.473 857.951 Q154.232 858.784 156.037 859.224 Q157.843 859.663 159.579 859.663 Q164.209 859.663 166.639 856.562 Q169.093 853.437 169.44 847.094 Q168.098 849.085 166.037 850.15 Q163.977 851.214 161.477 851.214 Q156.292 851.214 153.26 848.089 Q150.25 844.941 150.25 839.502 Q150.25 834.177 153.399 830.96 Q156.547 827.742 161.778 827.742 Q167.774 827.742 170.922 832.349 Q174.093 836.932 174.093 845.682 Q174.093 853.853 170.204 858.738 Q166.338 863.599 159.787 863.599 Q158.028 863.599 156.223 863.251 Q154.417 862.904 152.473 862.21 M161.778 847.557 Q164.926 847.557 166.755 845.404 Q168.607 843.252 168.607 839.502 Q168.607 835.775 166.755 833.622 Q164.926 831.446 161.778 831.446 Q158.63 831.446 156.778 833.622 Q154.95 835.775 154.95 839.502 Q154.95 843.252 156.778 845.404 Q158.63 847.557 161.778 847.557 Z" fill="#000000" fill-rule="evenodd" fill-opacity="1" /><path clip-path="url(#clip600)" d="M 0 0 M179.301 862.21 L179.301 857.951 Q181.06 858.784 182.866 859.224 Q184.672 859.663 186.408 859.663 Q191.037 859.663 193.468 856.562 Q195.922 853.437 196.269 847.094 Q194.926 849.085 192.866 850.15 Q190.806 851.214 188.306 851.214 Q183.121 851.214 180.088 848.089 Q177.079 844.941 177.079 839.502 Q177.079 834.177 180.227 830.96 Q183.375 827.742 188.607 827.742 Q194.602 827.742 197.75 832.349 Q200.921 836.932 200.921 845.682 Q200.921 853.853 197.033 858.738 Q193.167 863.599 186.616 863.599 Q184.857 863.599 183.051 863.251 Q181.246 862.904 179.301 862.21 M188.607 847.557 Q191.755 847.557 193.584 845.404 Q195.435 843.252 195.435 839.502 Q195.435 835.775 193.584 833.622 Q191.755 831.446 188.607 831.446 Q185.459 831.446 183.607 833.622 Q181.778 835.775 181.778 839.502 Q181.778 843.252 183.607 845.404 Q185.459 847.557 188.607 847.557 Z" fill="#000000" fill-rule="evenodd" fill-opacity="1" /><path clip-path="url(#clip600)" d="M 0 0 M215.991 831.446 Q212.38 831.446 210.551 835.011 Q208.746 838.552 208.746 845.682 Q208.746 852.789 210.551 856.353 Q212.38 859.895 215.991 859.895 Q219.625 859.895 221.431 856.353 Q223.259 852.789 223.259 845.682 Q223.259 838.552 221.431 835.011 Q219.625 831.446 215.991 831.446 M215.991 827.742 Q221.801 827.742 224.857 832.349 Q227.935 836.932 227.935 845.682 Q227.935 854.409 224.857 859.015 Q221.801 863.599 215.991 863.599 Q210.181 863.599 207.102 859.015 Q204.046 854.409 204.046 845.682 Q204.046 836.932 207.102 832.349 Q210.181 827.742 215.991 827.742 Z" fill="#000000" fill-rule="evenodd" fill-opacity="1" /><path clip-path="url(#clip600)" d="M 0 0 M126.362 450.819 Q122.751 450.819 120.922 454.383 Q119.116 457.925 119.116 465.055 Q119.116 472.161 120.922 475.726 Q122.751 479.268 126.362 479.268 Q129.996 479.268 131.801 475.726 Q133.63 472.161 133.63 465.055 Q133.63 457.925 131.801 454.383 Q129.996 450.819 126.362 450.819 M126.362 447.115 Q132.172 447.115 135.227 451.721 Q138.306 456.305 138.306 465.055 Q138.306 473.781 135.227 478.388 Q132.172 482.971 126.362 482.971 Q120.552 482.971 117.473 478.388 Q114.417 473.781 114.417 465.055 Q114.417 456.305 117.473 451.721 Q120.552 447.115 126.362 447.115 Z" fill="#000000" fill-rule="evenodd" fill-opacity="1" /><path clip-path="url(#clip600)" d="M 0 0 M143.376 476.42 L148.26 476.42 L148.26 482.3 L143.376 482.3 L143.376 476.42 Z" fill="#000000" fill-rule="evenodd" fill-opacity="1" /><path clip-path="url(#clip600)" d="M 0 0 M153.468 481.582 L153.468 477.323 Q155.227 478.156 157.033 478.596 Q158.838 479.036 160.574 479.036 Q165.204 479.036 167.635 475.934 Q170.088 472.809 170.436 466.467 Q169.093 468.457 167.033 469.522 Q164.973 470.587 162.473 470.587 Q157.287 470.587 154.255 467.462 Q151.246 464.314 151.246 458.874 Q151.246 453.55 154.394 450.332 Q157.542 447.115 162.774 447.115 Q168.769 447.115 171.917 451.721 Q175.088 456.305 175.088 465.055 Q175.088 473.226 171.199 478.11 Q167.334 482.971 160.783 482.971 Q159.024 482.971 157.218 482.624 Q155.412 482.277 153.468 481.582 M162.774 466.93 Q165.922 466.93 167.75 464.777 Q169.602 462.624 169.602 458.874 Q169.602 455.147 167.75 452.995 Q165.922 450.819 162.774 450.819 Q159.625 450.819 157.774 452.995 Q155.945 455.147 155.945 458.874 Q155.945 462.624 157.774 464.777 Q159.625 466.93 162.774 466.93 Z" fill="#000000" fill-rule="evenodd" fill-opacity="1" /><path clip-path="url(#clip600)" d="M 0 0 M180.297 481.582 L180.297 477.323 Q182.056 478.156 183.861 478.596 Q185.667 479.036 187.403 479.036 Q192.033 479.036 194.463 475.934 Q196.917 472.809 197.264 466.467 Q195.922 468.457 193.861 469.522 Q191.801 470.587 189.301 470.587 Q184.116 470.587 181.084 467.462 Q178.074 464.314 178.074 458.874 Q178.074 453.55 181.223 450.332 Q184.371 447.115 189.602 447.115 Q195.597 447.115 198.746 451.721 Q201.917 456.305 201.917 465.055 Q201.917 473.226 198.028 478.11 Q194.162 482.971 187.611 482.971 Q185.852 482.971 184.047 482.624 Q182.241 482.277 180.297 481.582 M189.602 466.93 Q192.75 466.93 194.579 464.777 Q196.431 462.624 196.431 458.874 Q196.431 455.147 194.579 452.995 Q192.75 450.819 189.602 450.819 Q186.454 450.819 184.602 452.995 Q182.773 455.147 182.773 458.874 Q182.773 462.624 184.602 464.777 Q186.454 466.93 189.602 466.93 Z" fill="#000000" fill-rule="evenodd" fill-opacity="1" /><path clip-path="url(#clip600)" d="M 0 0 M207.033 447.74 L225.389 447.74 L225.389 451.675 L211.315 451.675 L211.315 460.147 Q212.333 459.8 213.352 459.638 Q214.37 459.453 215.389 459.453 Q221.176 459.453 224.556 462.624 Q227.935 465.795 227.935 471.212 Q227.935 476.791 224.463 479.893 Q220.991 482.971 214.671 482.971 Q212.496 482.971 210.227 482.601 Q207.982 482.23 205.574 481.49 L205.574 476.791 Q207.658 477.925 209.88 478.48 Q212.102 479.036 214.579 479.036 Q218.583 479.036 220.921 476.93 Q223.259 474.823 223.259 471.212 Q223.259 467.601 220.921 465.494 Q218.583 463.388 214.579 463.388 Q212.704 463.388 210.829 463.805 Q208.977 464.221 207.033 465.101 L207.033 447.74 Z" fill="#000000" fill-rule="evenodd" fill-opacity="1" /><path clip-path="url(#clip600)" d="M 0 0 M117.033 97.7373 L124.672 97.7373 L124.672 71.3717 L116.362 73.0384 L116.362 68.7791 L124.626 67.1125 L129.302 67.1125 L129.302 97.7373 L136.94 97.7373 L136.94 101.672 L117.033 101.672 L117.033 97.7373 Z" fill="#000000" fill-rule="evenodd" fill-opacity="1" /><path clip-path="url(#clip600)" d="M 0 0 M142.01 95.7929 L146.894 95.7929 L146.894 101.672 L142.01 101.672 L142.01 95.7929 Z" fill="#000000" fill-rule="evenodd" fill-opacity="1" /><path clip-path="url(#clip600)" d="M 0 0 M161.963 70.1912 Q158.352 70.1912 156.524 73.7559 Q154.718 77.2976 154.718 84.4272 Q154.718 91.5336 156.524 95.0984 Q158.352 98.6401 161.963 98.6401 Q165.598 98.6401 167.403 95.0984 Q169.232 91.5336 169.232 84.4272 Q169.232 77.2976 167.403 73.7559 Q165.598 70.1912 161.963 70.1912 M161.963 66.4875 Q167.774 66.4875 170.829 71.0939 Q173.908 75.6772 173.908 84.4272 Q173.908 93.154 170.829 97.7604 Q167.774 102.344 161.963 102.344 Q156.153 102.344 153.075 97.7604 Q150.019 93.154 150.019 84.4272 Q150.019 75.6772 153.075 71.0939 Q156.153 66.4875 161.963 66.4875 Z" fill="#000000" fill-rule="evenodd" fill-opacity="1" /><path clip-path="url(#clip600)" d="M 0 0 M188.977 70.1912 Q185.366 70.1912 183.537 73.7559 Q181.732 77.2976 181.732 84.4272 Q181.732 91.5336 183.537 95.0984 Q185.366 98.6401 188.977 98.6401 Q192.611 98.6401 194.417 95.0984 Q196.246 91.5336 196.246 84.4272 Q196.246 77.2976 194.417 73.7559 Q192.611 70.1912 188.977 70.1912 M188.977 66.4875 Q194.787 66.4875 197.843 71.0939 Q200.921 75.6772 200.921 84.4272 Q200.921 93.154 197.843 97.7604 Q194.787 102.344 188.977 102.344 Q183.167 102.344 180.088 97.7604 Q177.033 93.154 177.033 84.4272 Q177.033 75.6772 180.088 71.0939 Q183.167 66.4875 188.977 66.4875 Z" fill="#000000" fill-rule="evenodd" fill-opacity="1" /><path clip-path="url(#clip600)" d="M 0 0 M215.991 70.1912 Q212.38 70.1912 210.551 73.7559 Q208.746 77.2976 208.746 84.4272 Q208.746 91.5336 210.551 95.0984 Q212.38 98.6401 215.991 98.6401 Q219.625 98.6401 221.431 95.0984 Q223.259 91.5336 223.259 84.4272 Q223.259 77.2976 221.431 73.7559 Q219.625 70.1912 215.991 70.1912 M215.991 66.4875 Q221.801 66.4875 224.857 71.0939 Q227.935 75.6772 227.935 84.4272 Q227.935 93.154 224.857 97.7604 Q221.801 102.344 215.991 102.344 Q210.181 102.344 207.102 97.7604 Q204.046 93.154 204.046 84.4272 Q204.046 75.6772 207.102 71.0939 Q210.181 66.4875 215.991 66.4875 Z" fill="#000000" fill-rule="evenodd" fill-opacity="1" /><path clip-path="url(#clip600)" d="M 0 0 M53.3851 740.086 Q56.9922 740.086 60.3094 742.759 Q63.6266 745.4 65.6556 749.715 Q67.6523 753.999 67.6523 758.604 L67.6523 769.812 L84.1417 773.902 Q84.2384 773.934 84.657 774.031 Q85.0435 774.127 85.2689 774.127 Q86.0741 774.127 86.2673 773.129 Q86.4606 772.098 86.4606 769.812 Q86.4606 768.33 86.7182 768.105 Q86.8792 767.976 87.1691 767.976 Q87.62 767.976 87.942 768.105 Q88.2319 768.234 88.3285 768.491 Q88.4251 768.717 88.4573 768.878 Q88.4895 769.039 88.4895 769.297 Q88.4895 769.973 88.4251 771.422 Q88.3607 772.839 88.3607 773.58 L88.2963 777.799 L88.4895 786.172 Q88.4895 787.171 87.6844 787.171 Q87.0725 787.171 86.8148 786.913 Q86.525 786.655 86.4928 786.366 Q86.4606 786.076 86.4606 785.335 Q86.4606 783.725 86.3639 782.759 Q86.2673 781.792 86.1385 781.18 Q85.9775 780.536 85.5266 780.214 Q85.0757 779.86 84.6892 779.699 Q84.2706 779.538 83.3366 779.313 L47.9101 770.488 Q46.8473 770.23 46.6863 770.23 Q46.1388 770.23 45.9456 770.553 Q45.7201 770.842 45.6235 771.68 Q45.4947 773.29 45.4947 774.514 Q45.4947 775.319 45.4625 775.641 Q45.4303 775.931 45.2693 776.189 Q45.076 776.414 44.6896 776.414 Q44.0776 776.414 43.82 776.156 Q43.5301 775.867 43.4979 775.544 Q43.4335 775.222 43.4335 774.449 L43.4335 753.065 Q43.4335 746.913 46.3643 743.5 Q49.295 740.086 53.3851 740.086 M51.8071 746.205 Q45.4947 746.205 45.4947 755.19 L45.4947 761.503 Q45.4947 763.596 45.8812 764.111 Q46.2354 764.627 48.0068 765.078 L65.9454 769.554 L65.9454 760.247 Q65.9454 753.999 62.435 750.102 Q60.8247 748.331 57.4753 747.268 Q54.1259 746.205 51.8071 746.205 Z" fill="#000000" fill-rule="evenodd" fill-opacity="1" /><path clip-path="url(#clip600)" d="M 0 0 M75.744 700.762 L87.512 703.67 Q88.2559 703.873 88.3461 704.008 Q88.4363 704.121 88.4363 704.481 Q88.4363 705.18 87.9629 705.18 Q87.9178 705.18 87.3316 705.113 Q86.7229 705.045 85.6183 705.045 Q81.5378 705.045 79.1256 707.029 Q76.7134 708.99 76.7134 712.485 Q76.7134 715.753 78.4267 718.887 Q80.1401 722.021 82.665 724.027 Q84.7391 725.718 87.264 726.89 Q89.7889 728.04 91.9983 728.513 Q94.185 728.987 95.5151 729.167 Q96.8452 729.325 97.7019 729.325 Q100.227 729.325 102.188 728.513 Q104.127 727.702 105.232 726.349 Q106.336 724.974 106.877 723.396 Q107.418 721.795 107.418 720.059 Q107.418 719.406 107.328 718.617 Q107.238 717.828 106.9 716.61 Q106.562 715.37 105.998 714.356 Q105.435 713.319 104.352 712.417 Q103.27 711.493 101.827 711.132 Q98.1528 710.163 97.6117 710.163 Q97.1609 710.163 97.0031 710.433 Q96.8452 710.704 96.7325 711.605 L96.6424 714.04 Q96.6424 714.085 96.6424 714.153 Q96.6424 714.581 96.6424 714.762 Q96.6198 714.942 96.5747 715.145 Q96.5296 715.325 96.4395 715.393 Q96.3267 715.438 96.1464 715.438 Q95.718 715.438 95.5151 715.258 Q95.2897 715.077 95.2672 714.919 Q95.2221 714.762 95.2221 714.468 L95.3573 707.998 Q95.3573 707.48 95.2897 705.586 Q95.2221 703.692 95.2221 703.151 Q95.2221 702.543 95.718 702.543 Q96.6424 702.543 96.6424 703.287 Q96.6649 704.031 96.6874 704.414 Q96.6874 704.797 96.8002 705.18 Q96.9129 705.541 97.0031 705.676 Q97.0707 705.812 97.4089 705.992 Q97.7245 706.172 97.995 706.24 Q98.243 706.308 98.8742 706.465 Q99.28 706.555 100.047 706.781 Q100.813 706.984 101.219 707.074 L104.781 707.953 Q107.418 708.562 107.599 708.742 Q107.779 708.832 107.779 709.058 Q107.779 709.396 106.787 710.117 Q105.795 710.816 104.916 711.132 Q105.525 711.696 105.885 712.056 Q106.224 712.417 106.765 713.251 Q107.306 714.063 107.734 715.145 Q108.839 717.782 108.839 720.916 Q108.839 726.507 105.299 730.024 Q101.737 733.541 96.1915 733.541 Q92.2688 733.541 88.4138 731.737 Q84.5587 729.934 81.6956 727.071 Q78.8325 724.208 77.0515 720.42 Q75.2705 716.633 75.2705 712.845 Q75.2705 711.402 75.6538 710.117 Q76.037 708.832 76.5105 708.066 Q76.9839 707.277 77.6828 706.578 Q78.3591 705.879 78.6747 705.654 Q78.9903 705.406 79.3736 705.18 L75.8341 701.956 Q75.2705 701.393 75.2705 701.258 Q75.2705 700.987 75.4284 700.874 Q75.5862 700.762 75.744 700.762 Z" fill="#000000" fill-rule="evenodd" fill-opacity="1" /><path clip-path="url(#clip600)" d="M 0 0 M72.0001 694.066 Q60.8569 694.066 51.8715 689.912 Q48.1034 688.14 44.9472 685.661 Q41.791 683.181 40.4062 681.538 Q39.0213 679.896 39.0213 679.445 Q39.0213 678.801 39.6654 678.768 Q39.9875 678.768 40.7926 679.638 Q51.6138 690.266 72.0001 690.234 Q92.4508 690.234 102.853 679.896 Q103.981 678.768 104.335 678.768 Q104.979 678.768 104.979 679.445 Q104.979 679.896 103.658 681.474 Q102.338 683.052 99.3107 685.5 Q96.2833 687.947 92.5797 689.718 Q83.5942 694.066 72.0001 694.066 Z" fill="#000000" fill-rule="evenodd" fill-opacity="1" /><path clip-path="url(#clip600)" d="M 0 0 M60.7925 648.5 Q61.6943 648.5 61.9197 648.919 Q62.1129 649.337 62.1129 650.497 L62.1129 656.68 L81.5653 661.576 Q83.2722 661.962 84.7214 661.962 Q86.3317 661.962 87.0403 661.479 Q87.7488 660.964 87.7488 659.901 Q87.7488 657.808 85.8486 655.553 Q83.9485 653.267 79.3109 651.334 Q78.6989 651.077 78.5701 650.948 Q78.4091 650.787 78.4091 650.368 Q78.4091 649.563 79.0532 649.563 Q79.2787 649.563 80.3092 650.014 Q81.3398 650.432 82.8535 651.366 Q84.3672 652.268 85.7842 653.46 Q87.2013 654.619 88.2319 656.39 Q89.2303 658.162 89.2303 660.062 Q89.2303 662.735 87.5234 664.442 Q85.8164 666.117 83.1434 666.117 Q82.2738 666.117 79.5041 665.44 Q76.7022 664.764 62.1129 661.093 L62.1129 666.922 Q62.1129 667.727 62.0807 668.049 Q62.0485 668.339 61.8875 668.564 Q61.6943 668.758 61.3078 668.758 Q60.6959 668.758 60.4382 668.5 Q60.1484 668.242 60.1162 667.92 Q60.0518 667.566 60.0518 666.761 L60.0518 660.577 L49.5848 658.001 Q48.5543 657.743 47.9746 657.099 Q47.3626 656.423 47.2982 656.036 Q47.2016 655.65 47.2016 655.36 Q47.2016 654.49 47.6847 653.975 Q48.1356 653.46 48.9729 653.46 Q49.4238 653.46 60.0518 656.165 L60.0518 650.368 Q60.0518 649.627 60.084 649.337 Q60.1162 649.015 60.2772 648.758 Q60.4382 648.5 60.7925 648.5 Z" fill="#000000" fill-rule="evenodd" fill-opacity="1" /><path clip-path="url(#clip600)" d="M 0 0 M104.335 645.202 Q104.013 645.202 103.208 644.365 Q92.3864 633.737 72.0001 633.737 Q51.5494 633.737 41.2113 643.946 Q40.0197 645.202 39.6654 645.202 Q39.0213 645.202 39.0213 644.558 Q39.0213 644.107 40.3418 642.529 Q41.6622 640.919 44.6896 638.503 Q47.7169 636.055 51.4206 634.252 Q60.406 629.904 72.0001 629.904 Q83.1434 629.904 92.1288 634.059 Q95.8969 635.83 99.053 638.31 Q102.209 640.79 103.594 642.432 Q104.979 644.075 104.979 644.558 Q104.979 645.202 104.335 645.202 Z" fill="#000000" fill-rule="evenodd" fill-opacity="1" /><polyline clip-path="url(#clip602)" style="stroke:#009af9; stroke-width:8; stroke-opacity:1; fill:none" points="
  318.937,84.3925 320.267,85.1533 321.598,85.9334 322.928,86.7328 324.259,87.5516 325.589,88.3899 326.92,89.2477 328.25,90.1251 329.581,91.0222 330.911,91.9391 
  332.242,92.8758 333.572,93.8323 334.903,94.8088 336.234,95.8053 337.564,96.8218 338.895,97.8584 340.225,98.9152 341.556,99.9922 342.886,101.089 344.217,102.207 
  345.547,103.345 346.878,104.503 348.208,105.682 349.539,106.881 350.869,108.101 352.2,109.342 353.531,110.603 354.861,111.884 356.192,113.187 357.522,114.51 
  358.853,115.854 360.183,117.218 361.514,118.604 362.844,120.01 364.175,121.437 365.505,122.885 366.836,124.353 368.166,125.843 369.497,127.354 370.827,128.885 
  372.158,130.437 373.489,132.011 374.819,133.605 376.15,135.22 377.48,136.857 378.811,138.514 380.141,140.192 381.472,141.891 382.802,143.611 384.133,145.352 
  385.463,147.114 386.794,148.897 388.124,150.701 389.455,152.526 390.786,154.372 392.116,156.239 393.447,158.126 394.777,160.035 396.108,161.964 397.438,163.915 
  398.769,165.886 400.099,167.878 401.43,169.89 402.76,171.924 404.091,173.978 405.421,176.052 406.752,178.148 408.082,180.264 409.413,182.4 410.744,184.557 
  412.074,186.735 413.405,188.933 414.735,191.151 416.066,193.39 417.396,195.649 418.727,197.928 420.057,200.227 421.388,202.547 422.718,204.887 424.049,207.246 
  425.379,209.626 426.71,212.026 428.041,214.445 429.371,216.884 430.702,219.343 432.032,221.822 433.363,224.32 434.693,226.838 436.024,229.376 437.354,231.933 
  438.685,234.509 440.015,237.104 441.346,239.719 442.676,242.353 444.007,245.006 445.337,247.678 446.668,250.368 447.999,253.078 449.329,255.806 450.66,258.553 
  451.99,261.318 453.321,264.102 454.651,266.904 455.982,269.725 457.312,272.564 458.643,275.42 459.973,278.295 461.304,281.187 462.634,284.098 463.965,287.026 
  465.296,289.971 466.626,292.934 467.957,295.914 469.287,298.912 470.618,301.926 471.948,304.958 473.279,308.007 474.609,311.072 475.94,314.154 477.27,317.253 
  478.601,320.368 479.931,323.499 481.262,326.647 482.593,329.811 483.923,332.991 485.254,336.186 486.584,339.397 487.915,342.624 489.245,345.867 490.576,349.124 
  491.906,352.397 493.237,355.685 494.567,358.988 495.898,362.306 497.228,365.639 498.559,368.986 499.889,372.348 501.22,375.724 502.551,379.115 503.881,382.519 
  505.212,385.938 506.542,389.37 507.873,392.816 509.203,396.275 510.534,399.748 511.864,403.234 513.195,406.733 514.525,410.245 515.856,413.769 517.186,417.306 
  518.517,420.856 519.848,424.418 521.178,427.993 522.509,431.579 523.839,435.177 525.17,438.786 526.5,442.408 527.831,446.04 529.161,449.684 530.492,453.339 
  531.822,457.005 533.153,460.681 534.483,464.368 535.814,468.065 537.144,471.773 538.475,475.49 539.806,479.218 541.136,482.955 542.467,486.702 543.797,490.459 
  545.128,494.224 546.458,497.999 547.789,501.783 549.119,505.575 550.45,509.376 551.78,513.186 553.111,517.004 554.441,520.83 555.772,524.663 557.103,528.505 
  558.433,532.354 559.764,536.21 561.094,540.074 562.425,543.945 563.755,547.822 565.086,551.707 566.416,555.597 567.747,559.495 569.077,563.398 570.408,567.308 
  571.738,571.223 573.069,575.145 574.399,579.071 575.73,583.003 577.061,586.941 578.391,590.883 579.722,594.83 581.052,598.782 582.383,602.738 583.713,606.699 
  585.044,610.663 586.374,614.632 587.705,618.604 589.035,622.58 590.366,626.559 591.696,630.542 593.027,634.527 594.358,638.515 595.688,642.506 597.019,646.499 
  598.349,650.495 599.68,654.492 601.01,658.492 602.341,662.493 603.671,666.495 605.002,670.499 606.332,674.504 607.663,678.51 608.993,682.517 610.324,686.524 
  611.655,690.532 612.985,694.54 614.316,698.548 615.646,702.555 616.977,706.563 618.307,710.569 619.638,714.576 620.968,718.581 622.299,722.585 623.629,726.588 
  624.96,730.589 626.29,734.589 627.621,738.587 628.951,742.584 630.282,746.578 631.613,750.57 632.943,754.559 634.274,758.546 635.604,762.53 636.935,766.511 
  638.265,770.489 639.596,774.463 640.926,778.434 642.257,782.401 643.587,786.364 644.918,790.323 646.248,794.278 647.579,798.228 648.91,802.174 650.24,806.115 
  651.571,810.05 652.901,813.981 654.232,817.907 655.562,821.827 656.893,825.741 658.223,829.65 659.554,833.552 660.884,837.449 662.215,841.339 663.545,845.222 
  664.876,849.099 666.206,852.969 667.537,856.832 668.868,860.688 670.198,864.537 671.529,868.377 672.859,872.211 674.19,876.036 675.52,879.853 676.851,883.662 
  678.181,887.463 679.512,891.255 680.842,895.038 682.173,898.812 683.503,902.578 684.834,906.334 686.165,910.08 687.495,913.817 688.826,917.545 690.156,921.262 
  691.487,924.969 692.817,928.666 694.148,932.353 695.478,936.029 696.809,939.695 698.139,943.35 699.47,946.993 700.8,950.626 702.131,954.247 703.461,957.856 
  704.792,961.454 706.123,965.041 707.453,968.615 708.784,972.177 710.114,975.727 711.445,979.265 712.775,982.79 714.106,986.303 715.436,989.803 716.767,993.289 
  718.097,996.763 719.428,1000.22 720.758,1003.67 722.089,1007.11 723.42,1010.53 724.75,1013.93 726.081,1017.33 727.411,1020.7 728.742,1024.07 730.072,1027.42 
  731.403,1030.76 732.733,1034.08 734.064,1037.39 735.394,1040.68 736.725,1043.96 738.055,1047.22 739.386,1050.47 740.717,1053.7 742.047,1056.91 743.378,1060.12 
  744.708,1063.3 746.039,1066.47 747.369,1069.62 748.7,1072.76 750.03,1075.88 751.361,1078.99 752.691,1082.08 754.022,1085.15 755.352,1088.21 756.683,1091.25 
  758.013,1094.27 759.344,1097.27 760.675,1100.26 762.005,1103.23 763.336,1106.19 764.666,1109.13 765.997,1112.04 767.327,1114.95 768.658,1117.83 769.988,1120.7 
  771.319,1123.54 772.649,1126.38 773.98,1129.19 775.31,1131.98 776.641,1134.76 777.972,1137.51 779.302,1140.25 780.633,1142.97 781.963,1145.68 783.294,1148.36 
  784.624,1151.02 785.955,1153.67 787.285,1156.3 788.616,1158.9 789.946,1161.49 791.277,1164.06 792.607,1166.61 793.938,1169.14 795.268,1171.65 796.599,1174.14 
  797.93,1176.62 799.26,1179.07 800.591,1181.5 801.921,1183.91 803.252,1186.31 804.582,1188.68 805.913,1191.03 807.243,1193.37 808.574,1195.68 809.904,1197.97 
  811.235,1200.24 812.565,1202.5 813.896,1204.73 815.227,1206.94 816.557,1209.13 817.888,1211.3 819.218,1213.45 820.549,1215.58 821.879,1217.69 823.21,1219.78 
  824.54,1221.85 825.871,1223.9 827.201,1225.92 828.532,1227.93 829.862,1229.91 831.193,1231.88 832.523,1233.82 833.854,1235.74 835.185,1237.65 836.515,1239.53 
  837.846,1241.39 839.176,1243.22 840.507,1245.04 841.837,1246.84 843.168,1248.62 844.498,1250.37 845.829,1252.1 847.159,1253.82 848.49,1255.51 849.82,1257.18 
  851.151,1258.82 852.482,1260.45 853.812,1262.06 855.143,1263.64 856.473,1265.21 857.804,1266.75 859.134,1268.27 860.465,1269.77 861.795,1271.24 863.126,1272.7 
  864.456,1274.13 865.787,1275.55 867.117,1276.94 868.448,1278.31 869.779,1279.66 871.109,1280.98 872.44,1282.29 873.77,1283.57 875.101,1284.84 876.431,1286.08 
  877.762,1287.3 879.092,1288.5 880.423,1289.67 881.753,1290.83 883.084,1291.97 884.414,1293.08 885.745,1294.17 887.075,1295.24 888.406,1296.29 889.737,1297.32 
  891.067,1298.33 892.398,1299.31 893.728,1300.28 895.059,1301.22 896.389,1302.14 897.72,1303.04 899.05,1303.92 900.381,1304.78 901.711,1305.62 903.042,1306.44 
  904.372,1307.24 905.703,1308.01 907.034,1308.77 908.364,1309.5 909.695,1310.22 911.025,1310.91 912.356,1311.58 913.686,1312.24 915.017,1312.87 916.347,1313.48 
  917.678,1314.07 919.008,1314.64 920.339,1315.19 921.669,1315.72 923,1316.23 924.33,1316.72 925.661,1317.19 926.992,1317.65 928.322,1318.08 929.653,1318.49 
  930.983,1318.88 932.314,1319.25 933.644,1319.6 934.975,1319.93 936.305,1320.25 937.636,1320.54 938.966,1320.81 940.297,1321.07 941.627,1321.31 942.958,1321.52 
  944.289,1321.72 945.619,1321.9 946.95,1322.06 948.28,1322.2 949.611,1322.32 950.941,1322.43 952.272,1322.51 953.602,1322.58 954.933,1322.63 956.263,1322.66 
  957.594,1322.67 958.924,1322.67 960.255,1322.64 961.585,1322.6 962.916,1322.54 964.247,1322.47 965.577,1322.37 966.908,1322.26 968.238,1322.13 969.569,1321.98 
  970.899,1321.82 972.23,1321.64 973.56,1321.44 974.891,1321.22 976.221,1320.99 977.552,1320.74 978.882,1320.47 980.213,1320.19 981.544,1319.89 982.874,1319.57 
  984.205,1319.24 985.535,1318.89 986.866,1318.52 988.196,1318.14 989.527,1317.74 990.857,1317.33 992.188,1316.9 993.518,1316.46 994.849,1316 996.179,1315.52 
  997.51,1315.03 998.841,1314.52 1000.17,1314 1001.5,1313.46 1002.83,1312.91 1004.16,1312.35 1005.49,1311.76 1006.82,1311.17 1008.15,1310.56 1009.48,1309.94 
  1010.82,1309.3 1012.15,1308.65 1013.48,1307.98 1014.81,1307.3 1016.14,1306.61 1017.47,1305.9 1018.8,1305.18 1020.13,1304.45 1021.46,1303.71 1022.79,1302.95 
  1024.12,1302.18 1025.45,1301.39 1026.78,1300.6 1028.11,1299.79 1029.44,1298.97 1030.77,1298.14 1032.1,1297.29 1033.43,1296.44 1034.76,1295.57 1036.1,1294.69 
  1037.43,1293.8 1038.76,1292.9 1040.09,1291.98 1041.42,1291.06 1042.75,1290.13 1044.08,1289.18 1045.41,1288.23 1046.74,1287.26 1048.07,1286.29 1049.4,1285.3 
  1050.73,1284.3 1052.06,1283.3 1053.39,1282.28 1054.72,1281.26 1056.05,1280.22 1057.38,1279.18 1058.71,1278.13 1060.05,1277.07 1061.38,1276 1062.71,1274.92 
  1064.04,1273.83 1065.37,1272.73 1066.7,1271.63 1068.03,1270.52 1069.36,1269.4 1070.69,1268.27 1072.02,1267.13 1073.35,1265.99 1074.68,1264.84 1076.01,1263.68 
  1077.34,1262.51 1078.67,1261.34 1080,1260.16 1081.33,1258.98 1082.66,1257.79 1083.99,1256.59 1085.33,1255.39 1086.66,1254.18 1087.99,1252.96 1089.32,1251.74 
  1090.65,1250.51 1091.98,1249.28 1093.31,1248.04 1094.64,1246.8 1095.97,1245.55 1097.3,1244.29 1098.63,1243.04 1099.96,1241.77 1101.29,1240.51 1102.62,1239.23 
  1103.95,1237.96 1105.28,1236.68 1106.61,1235.39 1107.94,1234.1 1109.27,1232.81 1110.61,1231.52 1111.94,1230.22 1113.27,1228.92 1114.6,1227.61 1115.93,1226.3 
  1117.26,1224.99 1118.59,1223.68 1119.92,1222.36 1121.25,1221.04 1122.58,1219.72 1123.91,1218.4 1125.24,1217.07 1126.57,1215.74 1127.9,1214.41 1129.23,1213.08 
  1130.56,1211.75 1131.89,1210.42 1133.22,1209.08 1134.56,1207.75 1135.89,1206.41 1137.22,1205.08 1138.55,1203.74 1139.88,1202.4 1141.21,1201.06 1142.54,1199.73 
  1143.87,1198.39 1145.2,1197.05 1146.53,1195.71 1147.86,1194.38 1149.19,1193.04 1150.52,1191.71 1151.85,1190.37 1153.18,1189.04 1154.51,1187.71 1155.84,1186.38 
  1157.17,1185.05 1158.5,1183.72 1159.84,1182.4 1161.17,1181.07 1162.5,1179.75 1163.83,1178.43 1165.16,1177.12 1166.49,1175.8 1167.82,1174.49 1169.15,1173.18 
  1170.48,1171.88 1171.81,1170.58 1173.14,1169.28 1174.47,1167.98 1175.8,1166.69 1177.13,1165.4 1178.46,1164.12 1179.79,1162.84 1181.12,1161.56 1182.45,1160.29 
  1183.79,1159.02 1185.12,1157.75 1186.45,1156.49 1187.78,1155.24 1189.11,1153.99 1190.44,1152.74 1191.77,1151.5 1193.1,1150.26 1194.43,1149.03 1195.76,1147.81 
  1197.09,1146.59 1198.42,1145.37 1199.75,1144.16 1201.08,1142.96 1202.41,1141.76 1203.74,1140.57 1205.07,1139.38 1206.4,1138.2 1207.73,1137.03 1209.07,1135.86 
  1210.4,1134.7 1211.73,1133.55 1213.06,1132.4 1214.39,1131.25 1215.72,1130.12 1217.05,1128.99 1218.38,1127.87 1219.71,1126.76 1221.04,1125.65 1222.37,1124.55 
  1223.7,1123.46 1225.03,1122.38 1226.36,1121.3 1227.69,1120.23 1229.02,1119.17 1230.35,1118.12 1231.68,1117.08 1233.01,1116.04 1234.35,1115.01 1235.68,1113.99 
  1237.01,1112.98 1238.34,1111.98 1239.67,1110.98 1241,1109.99 1242.33,1109.02 1243.66,1108.05 1244.99,1107.09 1246.32,1106.14 1247.65,1105.2 1248.98,1104.26 
  1250.31,1103.34 1251.64,1102.43 1252.97,1101.52 1254.3,1100.63 1255.63,1099.74 1256.96,1098.86 1258.3,1098 1259.63,1097.14 1260.96,1096.29 1262.29,1095.45 
  1263.62,1094.63 1264.95,1093.81 1266.28,1093 1267.61,1092.21 1268.94,1091.42 1270.27,1090.64 1271.6,1089.88 1272.93,1089.12 1274.26,1088.37 1275.59,1087.64 
  1276.92,1086.92 1278.25,1086.2 1279.58,1085.5 1280.91,1084.81 1282.24,1084.13 1283.58,1083.45 1284.91,1082.8 1286.24,1082.15 1287.57,1081.51 1288.9,1080.88 
  1290.23,1080.27 1291.56,1079.66 1292.89,1079.07 1294.22,1078.49 1295.55,1077.92 1296.88,1077.36 1298.21,1076.81 1299.54,1076.28 1300.87,1075.75 1302.2,1075.24 
  1303.53,1074.74 1304.86,1074.25 1306.19,1073.77 1307.52,1073.3 1308.86,1072.85 1310.19,1072.4 1311.52,1071.97 1312.85,1071.55 1314.18,1071.14 1315.51,1070.75 
  1316.84,1070.36 1318.17,1069.99 1319.5,1069.63 1320.83,1069.28 1322.16,1068.94 1323.49,1068.62 1324.82,1068.3 1326.15,1068 1327.48,1067.71 1328.81,1067.43 
  1330.14,1067.17 1331.47,1066.91 1332.81,1066.67 1334.14,1066.44 1335.47,1066.22 1336.8,1066.02 1338.13,1065.82 1339.46,1065.64 1340.79,1065.47 1342.12,1065.31 
  1343.45,1065.17 1344.78,1065.03 1346.11,1064.91 1347.44,1064.8 1348.77,1064.7 1350.1,1064.61 1351.43,1064.54 1352.76,1064.48 1354.09,1064.42 1355.42,1064.38 
  1356.75,1064.36 1358.09,1064.34 1359.42,1064.33 1360.75,1064.34 1362.08,1064.36 1363.41,1064.39 1364.74,1064.43 1366.07,1064.48 1367.4,1064.54 1368.73,1064.62 
  1370.06,1064.7 1371.39,1064.8 1372.72,1064.91 1374.05,1065.03 1375.38,1065.16 1376.71,1065.31 1378.04,1065.46 1379.37,1065.63 1380.7,1065.81 1382.03,1065.99 
  1383.37,1066.19 1384.7,1066.41 1386.03,1066.63 1387.36,1066.86 1388.69,1067.11 1390.02,1067.36 1391.35,1067.63 1392.68,1067.91 1394.01,1068.2 1395.34,1068.5 
  1396.67,1068.81 1398,1069.13 1399.33,1069.46 1400.66,1069.81 1401.99,1070.16 1403.32,1070.53 1404.65,1070.9 1405.98,1071.29 1407.32,1071.69 1408.65,1072.09 
  1409.98,1072.51 1411.31,1072.94 1412.64,1073.38 1413.97,1073.83 1415.3,1074.29 1416.63,1074.75 1417.96,1075.23 1419.29,1075.72 1420.62,1076.22 1421.95,1076.73 
  1423.28,1077.25 1424.61,1077.77 1425.94,1078.31 1427.27,1078.86 1428.6,1079.42 1429.93,1079.98 1431.26,1080.56 1432.6,1081.14 1433.93,1081.74 1435.26,1082.34 
  1436.59,1082.95 1437.92,1083.57 1439.25,1084.2 1440.58,1084.84 1441.91,1085.48 1443.24,1086.14 1444.57,1086.8 1445.9,1087.47 1447.23,1088.16 1448.56,1088.84 
  1449.89,1089.54 1451.22,1090.24 1452.55,1090.96 1453.88,1091.68 1455.21,1092.41 1456.54,1093.14 1457.88,1093.88 1459.21,1094.64 1460.54,1095.39 1461.87,1096.16 
  1463.2,1096.93 1464.53,1097.71 1465.86,1098.5 1467.19,1099.29 1468.52,1100.09 1469.85,1100.9 1471.18,1101.71 1472.51,1102.53 1473.84,1103.36 1475.17,1104.19 
  1476.5,1105.03 1477.83,1105.87 1479.16,1106.72 1480.49,1107.58 1481.83,1108.44 1483.16,1109.31 1484.49,1110.18 1485.82,1111.06 1487.15,1111.94 1488.48,1112.83 
  1489.81,1113.72 1491.14,1114.62 1492.47,1115.53 1493.8,1116.43 1495.13,1117.35 1496.46,1118.26 1497.79,1119.19 1499.12,1120.11 1500.45,1121.04 1501.78,1121.98 
  1503.11,1122.92 1504.44,1123.86 1505.77,1124.81 1507.11,1125.76 1508.44,1126.71 1509.77,1127.67 1511.1,1128.63 1512.43,1129.59 1513.76,1130.56 1515.09,1131.53 
  1516.42,1132.5 1517.75,1133.47 1519.08,1134.45 1520.41,1135.42 1521.74,1136.4 1523.07,1137.39 1524.4,1138.37 1525.73,1139.36 1527.06,1140.35 1528.39,1141.34 
  1529.72,1142.33 1531.05,1143.32 1532.39,1144.32 1533.72,1145.31 1535.05,1146.31 1536.38,1147.31 1537.71,1148.31 1539.04,1149.31 1540.37,1150.31 1541.7,1151.31 
  1543.03,1152.32 1544.36,1153.32 1545.69,1154.32 1547.02,1155.33 1548.35,1156.33 1549.68,1157.34 1551.01,1158.34 1552.34,1159.35 1553.67,1160.35 1555,1161.35 
  1556.34,1162.36 1557.67,1163.36 1559,1164.36 1560.33,1165.36 1561.66,1166.36 1562.99,1167.36 1564.32,1168.36 1565.65,1169.36 1566.98,1170.36 1568.31,1171.35 
  1569.64,1172.34 1570.97,1173.33 1572.3,1174.32 1573.63,1175.31 1574.96,1176.29 1576.29,1177.27 1577.62,1178.25 1578.95,1179.23 1580.28,1180.2 1581.62,1181.18 
  1582.95,1182.15 1584.28,1183.11 1585.61,1184.07 1586.94,1185.03 1588.27,1185.99 1589.6,1186.94 1590.93,1187.89 1592.26,1188.83 1593.59,1189.77 1594.92,1190.71 
  1596.25,1191.64 1597.58,1192.57 1598.91,1193.49 1600.24,1194.41 1601.57,1195.32 1602.9,1196.23 1604.23,1197.14 1605.56,1198.03 1606.9,1198.93 1608.23,1199.82 
  1609.56,1200.7 1610.89,1201.58 1612.22,1202.45 1613.55,1203.31 1614.88,1204.17 1616.21,1205.02 1617.54,1205.87 1618.87,1206.71 1620.2,1207.55 1621.53,1208.37 
  1622.86,1209.19 1624.19,1210.01 1625.52,1210.81 1626.85,1211.61 1628.18,1212.41 1629.51,1213.19 1630.85,1213.97 1632.18,1214.74 1633.51,1215.5 1634.84,1216.26 
  1636.17,1217.01 1637.5,1217.75 1638.83,1218.48 1640.16,1219.2 1641.49,1219.92 1642.82,1220.62 1644.15,1221.32 1645.48,1222.01 1646.81,1222.69 1648.14,1223.37 
  1649.47,1224.03 1650.8,1224.69 1652.13,1225.33 1653.46,1225.97 1654.79,1226.6 1656.13,1227.22 1657.46,1227.83 1658.79,1228.43 1660.12,1229.02 1661.45,1229.6 
  1662.78,1230.17 1664.11,1230.73 1665.44,1231.29 1666.77,1231.83 1668.1,1232.36 1669.43,1232.88 1670.76,1233.4 1672.09,1233.9 1673.42,1234.39 1674.75,1234.87 
  1676.08,1235.34 1677.41,1235.8 1678.74,1236.25 1680.07,1236.69 1681.41,1237.12 1682.74,1237.53 1684.07,1237.94 1685.4,1238.33 1686.73,1238.72 1688.06,1239.09 
  1689.39,1239.45 1690.72,1239.8 1692.05,1240.13 1693.38,1240.46 1694.71,1240.78 1696.04,1241.08 1697.37,1241.37 1698.7,1241.65 1700.03,1241.92 1701.36,1242.17 
  1702.69,1242.42 1704.02,1242.65 1705.36,1242.87 1706.69,1243.08 1708.02,1243.27 1709.35,1243.45 1710.68,1243.63 1712.01,1243.78 1713.34,1243.93 1714.67,1244.06 
  1716,1244.18 1717.33,1244.29 1718.66,1244.39 1719.99,1244.47 1721.32,1244.54 1722.65,1244.6 1723.98,1244.64 1725.31,1244.67 1726.64,1244.69 1727.97,1244.69 
  1729.3,1244.69 1730.64,1244.66 1731.97,1244.63 1733.3,1244.58 1734.63,1244.52 1735.96,1244.44 1737.29,1244.35 1738.62,1244.25 1739.95,1244.14 1741.28,1244.01 
  1742.61,1243.86 1743.94,1243.71 1745.27,1243.54 1746.6,1243.35 1747.93,1243.15 1749.26,1242.94 1750.59,1242.71 1751.92,1242.47 1753.25,1242.22 1754.58,1241.95 
  1755.92,1241.67 1757.25,1241.37 1758.58,1241.06 1759.91,1240.73 1761.24,1240.39 1762.57,1240.04 1763.9,1239.67 1765.23,1239.29 1766.56,1238.89 1767.89,1238.48 
  1769.22,1238.05 1770.55,1237.61 1771.88,1237.16 1773.21,1236.69 1774.54,1236.21 1775.87,1235.71 1777.2,1235.19 1778.53,1234.67 1779.87,1234.13 1781.2,1233.57 
  1782.53,1233 1783.86,1232.41 1785.19,1231.81 1786.52,1231.2 1787.85,1230.57 1789.18,1229.93 1790.51,1229.27 1791.84,1228.6 1793.17,1227.91 1794.5,1227.21 
  1795.83,1226.49 1797.16,1225.76 1798.49,1225.02 1799.82,1224.26 1801.15,1223.49 1802.48,1222.7 1803.81,1221.9 1805.15,1221.08 1806.48,1220.25 1807.81,1219.41 
  1809.14,1218.55 1810.47,1217.67 1811.8,1216.79 1813.13,1215.88 1814.46,1214.97 1815.79,1214.04 1817.12,1213.1 1818.45,1212.14 1819.78,1211.17 1821.11,1210.18 
  1822.44,1209.19 1823.77,1208.17 1825.1,1207.15 1826.43,1206.11 1827.76,1205.06 1829.1,1203.99 1830.43,1202.91 1831.76,1201.82 1833.09,1200.71 1834.42,1199.59 
  1835.75,1198.45 1837.08,1197.31 1838.41,1196.14 1839.74,1194.97 1841.07,1193.78 1842.4,1192.58 1843.73,1191.36 1845.06,1190.13 1846.39,1188.89 1847.72,1187.64 
  1849.05,1186.37 1850.38,1185.09 1851.71,1183.79 1853.04,1182.48 1854.38,1181.16 1855.71,1179.83 1857.04,1178.48 1858.37,1177.12 1859.7,1175.74 1861.03,1174.36 
  1862.36,1172.96 1863.69,1171.55 1865.02,1170.12 1866.35,1168.68 1867.68,1167.23 1869.01,1165.77 1870.34,1164.3 1871.67,1162.81 1873,1161.31 1874.33,1159.8 
  1875.66,1158.27 1876.99,1156.74 1878.32,1155.19 1879.66,1153.63 1880.99,1152.06 1882.32,1150.47 1883.65,1148.88 1884.98,1147.27 1886.31,1145.65 1887.64,1144.02 
  1888.97,1142.37 1890.3,1140.72 1891.63,1139.06 1892.96,1137.38 1894.29,1135.69 1895.62,1133.99 1896.95,1132.29 1898.28,1130.57 1899.61,1128.83 1900.94,1127.09 
  1902.27,1125.34 1903.61,1123.58 1904.94,1121.81 1906.27,1120.02 1907.6,1118.23 1908.93,1116.43 1910.26,1114.61 1911.59,1112.79 1912.92,1110.96 1914.25,1109.11 
  1915.58,1107.26 1916.91,1105.4 1918.24,1103.53 1919.57,1101.65 1920.9,1099.76 1922.23,1097.86 1923.56,1095.95 1924.89,1094.03 1926.22,1092.11 1927.55,1090.18 
  1928.89,1088.23 1930.22,1086.28 1931.55,1084.32 1932.88,1082.36 1934.21,1080.38 1935.54,1078.4 1936.87,1076.41 1938.2,1074.41 1939.53,1072.41 1940.86,1070.39 
  1942.19,1068.37 1943.52,1066.34 1944.85,1064.31 1946.18,1062.27 1947.51,1060.22 1948.84,1058.16 1950.17,1056.1 1951.5,1054.03 1952.83,1051.96 1954.17,1049.88 
  1955.5,1047.79 1956.83,1045.7 1958.16,1043.6 1959.49,1041.49 1960.82,1039.38 1962.15,1037.27 1963.48,1035.15 1964.81,1033.02 1966.14,1030.89 1967.47,1028.75 
  1968.8,1026.61 1970.13,1024.47 1971.46,1022.32 1972.79,1020.17 1974.12,1018.01 1975.45,1015.85 1976.78,1013.68 1978.12,1011.51 1979.45,1009.34 1980.78,1007.16 
  1982.11,1004.98 1983.44,1002.8 1984.77,1000.61 1986.1,998.42 1987.43,996.226 1988.76,994.029 1990.09,991.829 1991.42,989.626 1992.75,987.421 1994.08,985.212 
  1995.41,983.001 1996.74,980.788 1998.07,978.572 1999.4,976.354 2000.73,974.133 2002.06,971.911 2003.4,969.687 2004.73,967.461 2006.06,965.234 2007.39,963.005 
  2008.72,960.775 2010.05,958.544 2011.38,956.311 2012.71,954.078 2014.04,951.843 2015.37,949.608 2016.7,947.373 2018.03,945.137 2019.36,942.901 2020.69,940.665 
  2022.02,938.429 2023.35,936.193 2024.68,933.957 2026.01,931.722 2027.34,929.488 2028.68,927.254 2030.01,925.021 2031.34,922.79 2032.67,920.559 2034,918.33 
  2035.33,916.102 2036.66,913.876 2037.99,911.652 2039.32,909.43 2040.65,907.21 2041.98,904.992 2043.31,902.776 2044.64,900.563 2045.97,898.353 2047.3,896.146 
  2048.63,893.941 2049.96,891.74 2051.29,889.542 2052.63,887.347 2053.96,885.156 2055.29,882.969 2056.62,880.785 2057.95,878.606 2059.28,876.431 2060.61,874.259 
  2061.94,872.093 2063.27,869.931 2064.6,867.773 2065.93,865.621 2067.26,863.473 2068.59,861.33 2069.92,859.193 2071.25,857.061 2072.58,854.935 2073.91,852.814 
  2075.24,850.699 2076.57,848.589 2077.91,846.486 2079.24,844.389 2080.57,842.298 2081.9,840.213 2083.23,838.135 2084.56,836.064 2085.89,833.999 2087.22,831.941 
  2088.55,829.89 2089.88,827.846 2091.21,825.809 2092.54,823.779 2093.87,821.756 2095.2,819.741 2096.53,817.734 2097.86,815.734 2099.19,813.742 2100.52,811.757 
  2101.85,809.782 2103.19,807.814 2104.52,805.855 2105.85,803.905 2107.18,801.963 2108.51,800.029 2109.84,798.105 2111.17,796.189 2112.5,794.282 2113.83,792.384 
  2115.16,790.496 2116.49,788.617 2117.82,786.747 2119.15,784.886 2120.48,783.035 2121.81,781.194 2123.14,779.362 2124.47,777.541 2125.8,775.729 2127.14,773.927 
  2128.47,772.136 2129.8,770.354 2131.13,768.583 2132.46,766.823 2133.79,765.073 2135.12,763.334 2136.45,761.605 2137.78,759.888 2139.11,758.181 2140.44,756.486 
  2141.77,754.801 2143.1,753.128 2144.43,751.467 2145.76,749.817 2147.09,748.178 2148.42,746.551 2149.75,744.936 2151.08,743.333 2152.42,741.741 2153.75,740.162 
  2155.08,738.595 2156.41,737.04 2157.74,735.497 2159.07,733.967 2160.4,732.449 2161.73,730.944 2163.06,729.452 2164.39,727.972 2165.72,726.505 2167.05,725.051 
  2168.38,723.611 2169.71,722.183 2171.04,720.768 2172.37,719.366 2173.7,717.978 2175.03,716.603 2176.36,715.242 2177.7,713.894 2179.03,712.559 2180.36,711.239 
  2181.69,709.931 2183.02,708.638 2184.35,707.358 2185.68,706.092 2187.01,704.84 2188.34,703.602 2189.67,702.378 2191,701.168 2192.33,699.972 2193.66,698.789 
  2194.99,697.621 2196.32,696.467 2197.65,695.328 2198.98,694.202 2200.31,693.09 
  "/>
<path clip-path="url(#clip600)" d="
M1912.94 211.957 L2190.28 211.957 L2190.28 90.9966 L1912.94 90.9966  Z
  " fill="#ffffff" fill-rule="evenodd" fill-opacity="1"/>
<polyline clip-path="url(#clip600)" style="stroke:#000000; stroke-width:4; stroke-opacity:1; fill:none" points="
  1912.94,211.957 2190.28,211.957 2190.28,90.9966 1912.94,90.9966 1912.94,211.957 
  "/>
<polyline clip-path="url(#clip600)" style="stroke:#009af9; stroke-width:4; stroke-opacity:1; fill:none" points="
  1935.1,151.477 2068.05,151.477 
  "/>
<path clip-path="url(#clip600)" d="M 0 0 M2124.99 129.578 L2124.03 137.87 Q2123.96 138.619 2123.84 138.853 Q2123.72 139.064 2123.35 139.064 Q2123.07 139.064 2122.9 138.9 Q2122.76 138.713 2122.76 138.502 Q2122.76 138.385 2122.79 138.08 Q2122.81 137.776 2122.81 137.635 Q2123.02 136.183 2123.02 135.082 Q2123.02 133.044 2122.41 131.944 Q2121.8 130.819 2120.23 130.304 Q2118.66 129.765 2115.71 129.765 L2108.97 129.765 Q2107.42 129.765 2107.05 130.046 Q2106.7 130.327 2106.37 131.639 L2103.49 143.186 L2108.01 143.186 Q2109.69 143.186 2110.7 142.976 Q2111.73 142.765 2112.41 142.179 Q2113.11 141.57 2113.49 140.75 Q2113.89 139.931 2114.28 138.455 Q2114.4 137.963 2114.52 137.776 Q2114.66 137.588 2114.96 137.588 Q2115.2 137.588 2115.36 137.752 Q2115.53 137.893 2115.53 138.104 L2112.79 149.323 Q2112.64 149.885 2112.5 150.096 Q2112.36 150.283 2112.08 150.283 Q2111.78 150.283 2111.61 150.119 Q2111.45 149.955 2111.45 149.768 Q2111.45 149.581 2111.59 149.229 Q2111.94 147.707 2111.94 146.887 Q2111.94 146.419 2111.9 146.184 Q2111.87 145.95 2111.66 145.622 Q2111.47 145.271 2111.05 145.107 Q2110.63 144.943 2109.83 144.826 Q2109.04 144.685 2107.84 144.685 L2103.11 144.685 L2099.83 157.779 Q2099.6 158.645 2099.6 158.879 Q2099.6 159.137 2099.72 159.231 Q2099.86 159.301 2100.23 159.348 Q2100.65 159.418 2101.28 159.418 L2108.29 159.418 Q2109.83 159.418 2111.08 159.278 Q2112.32 159.137 2113.35 158.786 Q2114.4 158.434 2115.2 158.036 Q2115.99 157.638 2116.74 156.912 Q2117.49 156.162 2118.01 155.507 Q2118.55 154.827 2119.18 153.68 Q2119.81 152.532 2120.26 151.595 Q2120.7 150.635 2121.38 149.089 Q2121.57 148.527 2122.01 148.527 Q2122.27 148.527 2122.41 148.667 Q2122.55 148.784 2122.58 148.901 L2122.58 149.042 Q2122.44 149.487 2122.34 149.721 L2117.94 160.074 Q2117.68 160.66 2117.47 160.777 Q2117.26 160.894 2116.44 160.894 L2091.54 160.894 Q2090.98 160.894 2090.74 160.87 Q2090.53 160.847 2090.37 160.73 Q2090.21 160.589 2090.21 160.308 Q2090.21 159.863 2090.39 159.676 Q2090.58 159.465 2090.79 159.442 Q2091 159.418 2091.54 159.418 Q2092.71 159.418 2093.42 159.348 Q2094.12 159.278 2094.56 159.184 Q2095.03 159.067 2095.27 158.739 Q2095.52 158.411 2095.64 158.13 Q2095.76 157.825 2095.92 157.146 L2102.25 131.78 Q2102.48 130.913 2102.48 130.632 Q2102.48 130.327 2102.27 130.14 Q2102.08 129.953 2101.57 129.882 Q2101.05 129.789 2100.63 129.789 Q2100.23 129.765 2099.36 129.765 Q2098.8 129.765 2098.57 129.742 Q2098.36 129.718 2098.19 129.601 Q2098.03 129.484 2098.03 129.227 Q2098.03 128.571 2098.31 128.43 Q2098.61 128.266 2099.46 128.266 L2123.68 128.266 Q2124.64 128.266 2124.85 128.477 Q2125.08 128.664 2124.99 129.578 Z" fill="#000000" fill-rule="evenodd" fill-opacity="1" /><path clip-path="url(#clip600)" d="M 0 0 M2129.87 154.888 L2129.87 153.839 Q2133.9 153.839 2135.99 151.691 Q2136.56 151.691 2136.66 151.822 Q2136.76 151.953 2136.76 152.56 L2136.76 171.398 Q2136.76 172.399 2137.25 172.71 Q2137.74 173.022 2139.89 173.022 L2140.95 173.022 L2140.95 174.054 Q2139.77 173.956 2135.51 173.956 Q2131.25 173.956 2130.08 174.054 L2130.08 173.022 L2131.15 173.022 Q2133.27 173.022 2133.77 172.726 Q2134.28 172.415 2134.28 171.398 L2134.28 154.003 Q2132.53 154.888 2129.87 154.888 Z" fill="#000000" fill-rule="evenodd" fill-opacity="1" /></svg>
