<?xml version="1.0" encoding="utf-8"?>
<svg xmlns="http://www.w3.org/2000/svg" xmlns:xlink="http://www.w3.org/1999/xlink" width="800" height="400" viewBox="0 0 3200 1600">
<defs>
  <clipPath id="clip480">
    <rect x="0" y="0" width="3200" height="1600"/>
  </clipPath>
</defs>
<path clip-path="url(#clip480)" d="
M0 1600 L3200 1600 L3200 0 L0 0  Z
  " fill="#ffffff" fill-rule="evenodd" fill-opacity="1"/>
<defs>
  <clipPath id="clip481">
    <rect x="640" y="0" width="2241" height="1600"/>
  </clipPath>
</defs>
<defs>
  <clipPath id="clip482">
    <rect x="316" y="0" width="2819" height="1600"/>
  </clipPath>
</defs>
<path clip-path="url(#clip480)" d="
M283.751 1446.8 L1536.27 1446.8 L1536.27 47.2441 L283.751 47.2441  Z
  " fill="#ffffff" fill-rule="evenodd" fill-opacity="1"/>
<defs>
  <clipPath id="clip483">
    <rect x="283" y="47" width="1254" height="1401"/>
  </clipPath>
</defs>
<polyline clip-path="url(#clip483)" style="stroke:#000000; stroke-width:2; stroke-opacity:0.1; fill:none" points="
  319.2,1446.8 319.2,47.2441 
  "/>
<polyline clip-path="url(#clip483)" style="stroke:#000000; stroke-width:2; stroke-opacity:0.1; fill:none" points="
  614.606,1446.8 614.606,47.2441 
  "/>
<polyline clip-path="url(#clip483)" style="stroke:#000000; stroke-width:2; stroke-opacity:0.1; fill:none" points="
  910.013,1446.8 910.013,47.2441 
  "/>
<polyline clip-path="url(#clip483)" style="stroke:#000000; stroke-width:2; stroke-opacity:0.1; fill:none" points="
  1205.42,1446.8 1205.42,47.2441 
  "/>
<polyline clip-path="url(#clip483)" style="stroke:#000000; stroke-width:2; stroke-opacity:0.1; fill:none" points="
  1500.83,1446.8 1500.83,47.2441 
  "/>
<polyline clip-path="url(#clip480)" style="stroke:#000000; stroke-width:4; stroke-opacity:1; fill:none" points="
  283.751,1446.8 1536.27,1446.8 
  "/>
<polyline clip-path="url(#clip480)" style="stroke:#000000; stroke-width:4; stroke-opacity:1; fill:none" points="
  319.2,1446.8 319.2,1430 
  "/>
<polyline clip-path="url(#clip480)" style="stroke:#000000; stroke-width:4; stroke-opacity:1; fill:none" points="
  614.606,1446.8 614.606,1430 
  "/>
<polyline clip-path="url(#clip480)" style="stroke:#000000; stroke-width:4; stroke-opacity:1; fill:none" points="
  910.013,1446.8 910.013,1430 
  "/>
<polyline clip-path="url(#clip480)" style="stroke:#000000; stroke-width:4; stroke-opacity:1; fill:none" points="
  1205.42,1446.8 1205.42,1430 
  "/>
<polyline clip-path="url(#clip480)" style="stroke:#000000; stroke-width:4; stroke-opacity:1; fill:none" points="
  1500.83,1446.8 1500.83,1430 
  "/>
<path clip-path="url(#clip480)" d="M 0 0 M319.2 1482.39 Q315.589 1482.39 313.76 1485.95 Q311.955 1489.5 311.955 1496.62 Q311.955 1503.73 313.76 1507.3 Q315.589 1510.84 319.2 1510.84 Q322.834 1510.84 324.64 1507.3 Q326.468 1503.73 326.468 1496.62 Q326.468 1489.5 324.64 1485.95 Q322.834 1482.39 319.2 1482.39 M319.2 1478.69 Q325.01 1478.69 328.066 1483.29 Q331.144 1487.87 331.144 1496.62 Q331.144 1505.35 328.066 1509.96 Q325.01 1514.54 319.2 1514.54 Q313.39 1514.54 310.311 1509.96 Q307.256 1505.35 307.256 1496.62 Q307.256 1487.87 310.311 1483.29 Q313.39 1478.69 319.2 1478.69 Z" fill="#000000" fill-rule="evenodd" fill-opacity="1" /><path clip-path="url(#clip480)" d="M 0 0 M604.884 1479.31 L623.241 1479.31 L623.241 1483.25 L609.167 1483.25 L609.167 1491.72 Q610.185 1491.37 611.204 1491.21 Q612.222 1491.02 613.241 1491.02 Q619.028 1491.02 622.407 1494.19 Q625.787 1497.37 625.787 1502.78 Q625.787 1508.36 622.315 1511.46 Q618.843 1514.54 612.523 1514.54 Q610.347 1514.54 608.079 1514.17 Q605.833 1513.8 603.426 1513.06 L603.426 1508.36 Q605.509 1509.5 607.731 1510.05 Q609.954 1510.61 612.431 1510.61 Q616.435 1510.61 618.773 1508.5 Q621.111 1506.39 621.111 1502.78 Q621.111 1499.17 618.773 1497.06 Q616.435 1494.96 612.431 1494.96 Q610.556 1494.96 608.681 1495.37 Q606.829 1495.79 604.884 1496.67 L604.884 1479.31 Z" fill="#000000" fill-rule="evenodd" fill-opacity="1" /><path clip-path="url(#clip480)" d="M 0 0 M886.888 1509.94 L894.527 1509.94 L894.527 1483.57 L886.217 1485.24 L886.217 1480.98 L894.481 1479.31 L899.156 1479.31 L899.156 1509.94 L906.795 1509.94 L906.795 1513.87 L886.888 1513.87 L886.888 1509.94 Z" fill="#000000" fill-rule="evenodd" fill-opacity="1" /><path clip-path="url(#clip480)" d="M 0 0 M921.865 1482.39 Q918.254 1482.39 916.425 1485.95 Q914.619 1489.5 914.619 1496.62 Q914.619 1503.73 916.425 1507.3 Q918.254 1510.84 921.865 1510.84 Q925.499 1510.84 927.304 1507.3 Q929.133 1503.73 929.133 1496.62 Q929.133 1489.5 927.304 1485.95 Q925.499 1482.39 921.865 1482.39 M921.865 1478.69 Q927.675 1478.69 930.73 1483.29 Q933.809 1487.87 933.809 1496.62 Q933.809 1505.35 930.73 1509.96 Q927.675 1514.54 921.865 1514.54 Q916.055 1514.54 912.976 1509.96 Q909.92 1505.35 909.92 1496.62 Q909.92 1487.87 912.976 1483.29 Q916.055 1478.69 921.865 1478.69 Z" fill="#000000" fill-rule="evenodd" fill-opacity="1" /><path clip-path="url(#clip480)" d="M 0 0 M1182.79 1509.94 L1190.43 1509.94 L1190.43 1483.57 L1182.12 1485.24 L1182.12 1480.98 L1190.38 1479.31 L1195.06 1479.31 L1195.06 1509.94 L1202.7 1509.94 L1202.7 1513.87 L1182.79 1513.87 L1182.79 1509.94 Z" fill="#000000" fill-rule="evenodd" fill-opacity="1" /><path clip-path="url(#clip480)" d="M 0 0 M1207.82 1479.31 L1226.17 1479.31 L1226.17 1483.25 L1212.1 1483.25 L1212.1 1491.72 Q1213.12 1491.37 1214.13 1491.21 Q1215.15 1491.02 1216.17 1491.02 Q1221.96 1491.02 1225.34 1494.19 Q1228.72 1497.37 1228.72 1502.78 Q1228.72 1508.36 1225.25 1511.46 Q1221.77 1514.54 1215.45 1514.54 Q1213.28 1514.54 1211.01 1514.17 Q1208.76 1513.8 1206.36 1513.06 L1206.36 1508.36 Q1208.44 1509.5 1210.66 1510.05 Q1212.88 1510.61 1215.36 1510.61 Q1219.37 1510.61 1221.7 1508.5 Q1224.04 1506.39 1224.04 1502.78 Q1224.04 1499.17 1221.7 1497.06 Q1219.37 1494.96 1215.36 1494.96 Q1213.49 1494.96 1211.61 1495.37 Q1209.76 1495.79 1207.82 1496.67 L1207.82 1479.31 Z" fill="#000000" fill-rule="evenodd" fill-opacity="1" /><path clip-path="url(#clip480)" d="M 0 0 M1481.97 1509.94 L1498.29 1509.94 L1498.29 1513.87 L1476.35 1513.87 L1476.35 1509.94 Q1479.01 1507.18 1483.59 1502.55 Q1488.2 1497.9 1489.38 1496.56 Q1491.62 1494.03 1492.5 1492.3 Q1493.41 1490.54 1493.41 1488.85 Q1493.41 1486.09 1491.46 1484.36 Q1489.54 1482.62 1486.44 1482.62 Q1484.24 1482.62 1481.79 1483.38 Q1479.36 1484.15 1476.58 1485.7 L1476.58 1480.98 Q1479.4 1479.84 1481.86 1479.26 Q1484.31 1478.69 1486.35 1478.69 Q1491.72 1478.69 1494.91 1481.37 Q1498.11 1484.06 1498.11 1488.55 Q1498.11 1490.68 1497.3 1492.6 Q1496.51 1494.5 1494.4 1497.09 Q1493.82 1497.76 1490.72 1500.98 Q1487.62 1504.17 1481.97 1509.94 Z" fill="#000000" fill-rule="evenodd" fill-opacity="1" /><path clip-path="url(#clip480)" d="M 0 0 M1513.36 1482.39 Q1509.75 1482.39 1507.92 1485.95 Q1506.12 1489.5 1506.12 1496.62 Q1506.12 1503.73 1507.92 1507.3 Q1509.75 1510.84 1513.36 1510.84 Q1516.99 1510.84 1518.8 1507.3 Q1520.63 1503.73 1520.63 1496.62 Q1520.63 1489.5 1518.8 1485.95 Q1516.99 1482.39 1513.36 1482.39 M1513.36 1478.69 Q1519.17 1478.69 1522.23 1483.29 Q1525.3 1487.87 1525.3 1496.62 Q1525.3 1505.35 1522.23 1509.96 Q1519.17 1514.54 1513.36 1514.54 Q1507.55 1514.54 1504.47 1509.96 Q1501.42 1505.35 1501.42 1496.62 Q1501.42 1487.87 1504.47 1483.29 Q1507.55 1478.69 1513.36 1478.69 Z" fill="#000000" fill-rule="evenodd" fill-opacity="1" /><path clip-path="url(#clip480)" d="M 0 0 M877.116 1548.46 Q877.116 1551.46 875.602 1557.26 Q874.991 1559.77 874.153 1562.05 Q873.348 1564.31 872.156 1566.5 Q870.965 1568.69 869.58 1570.27 Q868.195 1571.81 866.392 1572.78 Q864.588 1573.75 862.591 1573.75 Q859.435 1573.75 857.567 1571.88 Q855.731 1569.98 855.152 1566.72 Q850.836 1573.75 845.071 1573.75 Q841.496 1573.75 839.822 1571.2 Q838.147 1568.62 838.147 1564.31 Q838.147 1560.67 839.113 1556.9 Q840.949 1549.75 844.524 1544.76 Q845.007 1544.18 845.715 1544.18 Q846.134 1544.18 846.327 1544.31 Q846.907 1544.66 846.907 1545.24 Q846.907 1545.66 846.585 1546.08 Q844.331 1549.2 842.849 1551.88 Q841.368 1554.55 840.691 1557.26 Q840.176 1559.57 840.176 1561.54 Q840.176 1564.86 841.593 1566.92 Q843.042 1568.98 845.909 1568.98 Q848.55 1568.98 850.868 1567.34 Q853.187 1565.66 854.894 1562.86 Q854.991 1559.8 855.731 1556.9 Q856.408 1553.81 857.986 1553.81 Q859.242 1553.81 859.242 1555.52 Q859.242 1556.1 858.984 1557.26 Q858.276 1560.32 856.987 1563.05 Q857.438 1565.73 859.113 1567.37 Q860.788 1568.98 863.461 1568.98 Q865.941 1568.98 868.131 1567.18 Q870.353 1565.37 871.77 1562.73 Q873.219 1560.06 874.024 1556.9 Q874.282 1555.84 874.282 1554.49 Q874.282 1550.88 871.77 1548.66 Q871.061 1547.95 871.061 1547.01 Q871.061 1545.92 871.963 1544.92 Q873.026 1543.86 874.282 1543.86 Q875.216 1543.86 875.796 1544.44 Q877.116 1545.6 877.116 1548.46 Z" fill="#000000" fill-rule="evenodd" fill-opacity="1" /><path clip-path="url(#clip480)" d="M 0 0 M878.757 1588.56 Q878.757 1588.24 879.015 1587.53 L902.3 1525.31 Q902.3 1525.24 902.461 1524.89 Q902.622 1524.54 902.718 1524.31 Q902.815 1524.05 903.008 1523.86 Q903.234 1523.67 903.491 1523.67 Q904.135 1523.67 904.135 1524.47 Q904.135 1524.54 903.942 1525.31 L880.593 1587.59 Q880.206 1588.72 879.949 1589.04 Q879.723 1589.37 879.337 1589.37 Q878.757 1589.37 878.757 1588.56 Z" fill="#000000" fill-rule="evenodd" fill-opacity="1" /><path clip-path="url(#clip480)" d="M 0 0 M950.393 1548.46 Q950.393 1551.46 948.879 1557.26 Q948.267 1559.77 947.43 1562.05 Q946.625 1564.31 945.433 1566.5 Q944.241 1568.69 942.857 1570.27 Q941.472 1571.81 939.668 1572.78 Q937.865 1573.75 935.868 1573.75 Q932.712 1573.75 930.844 1571.88 Q929.008 1569.98 928.428 1566.72 Q924.113 1573.75 918.348 1573.75 Q914.773 1573.75 913.098 1571.2 Q911.424 1568.62 911.424 1564.31 Q911.424 1560.67 912.39 1556.9 Q914.226 1549.75 917.8 1544.76 Q918.284 1544.18 918.992 1544.18 Q919.411 1544.18 919.604 1544.31 Q920.184 1544.66 920.184 1545.24 Q920.184 1545.66 919.862 1546.08 Q917.607 1549.2 916.126 1551.88 Q914.644 1554.55 913.968 1557.26 Q913.453 1559.57 913.453 1561.54 Q913.453 1564.86 914.87 1566.92 Q916.319 1568.98 919.185 1568.98 Q921.826 1568.98 924.145 1567.34 Q926.464 1565.66 928.171 1562.86 Q928.267 1559.8 929.008 1556.9 Q929.684 1553.81 931.263 1553.81 Q932.519 1553.81 932.519 1555.52 Q932.519 1556.1 932.261 1557.26 Q931.552 1560.32 930.264 1563.05 Q930.715 1565.73 932.39 1567.37 Q934.064 1568.98 936.738 1568.98 Q939.217 1568.98 941.407 1567.18 Q943.63 1565.37 945.047 1562.73 Q946.496 1560.06 947.301 1556.9 Q947.559 1555.84 947.559 1554.49 Q947.559 1550.88 945.047 1548.66 Q944.338 1547.95 944.338 1547.01 Q944.338 1545.92 945.24 1544.92 Q946.303 1543.86 947.559 1543.86 Q948.493 1543.86 949.072 1544.44 Q950.393 1545.6 950.393 1548.46 Z" fill="#000000" fill-rule="evenodd" fill-opacity="1" /><path clip-path="url(#clip480)" d="M 0 0 M974.834 1580.52 Q975.015 1580.72 975.015 1580.92 Q975.015 1581.13 974.564 1581.71 Q974.135 1582.3 973.211 1583.09 Q972.287 1583.88 971.092 1584.62 Q969.897 1585.37 968.139 1585.86 Q966.38 1586.38 964.532 1586.38 Q961.082 1586.38 959.053 1584.1 Q957.047 1581.83 957.047 1578.56 Q957.047 1575.38 958.828 1572.34 Q960.609 1569.27 963.495 1567.38 Q966.38 1565.46 969.424 1565.46 Q971.836 1565.46 973.346 1566.59 Q974.857 1567.71 974.857 1569.43 Q974.857 1570.76 974.09 1571.57 Q973.324 1572.38 972.287 1572.38 Q971.565 1572.38 971.069 1571.97 Q970.574 1571.55 970.574 1570.76 Q970.574 1569.74 971.408 1568.95 Q971.723 1568.64 972.084 1568.5 Q972.467 1568.34 972.693 1568.34 Q972.918 1568.32 973.437 1568.32 Q972.963 1567.44 971.836 1566.97 Q970.731 1566.47 969.469 1566.47 Q967.598 1566.47 965.817 1567.78 Q964.036 1569.07 962.954 1571.1 Q961.871 1573.08 961.173 1575.9 Q960.474 1578.69 960.474 1580.32 Q960.474 1582.55 961.511 1583.95 Q962.548 1585.34 964.622 1585.34 Q965.028 1585.34 965.456 1585.32 Q965.907 1585.3 967.034 1585.05 Q968.184 1584.8 969.198 1584.37 Q970.213 1583.95 971.498 1583.02 Q972.805 1582.07 973.842 1580.79 Q974.203 1580.32 974.451 1580.32 Q974.654 1580.32 974.834 1580.52 Z" fill="#000000" fill-rule="evenodd" fill-opacity="1" /><polyline clip-path="url(#clip483)" style="stroke:#000000; stroke-width:2; stroke-opacity:0.1; fill:none" points="
  283.751,1407.19 1536.27,1407.19 
  "/>
<polyline clip-path="url(#clip483)" style="stroke:#000000; stroke-width:2; stroke-opacity:0.1; fill:none" points="
  283.751,1121.58 1536.27,1121.58 
  "/>
<polyline clip-path="url(#clip483)" style="stroke:#000000; stroke-width:2; stroke-opacity:0.1; fill:none" points="
  283.751,835.971 1536.27,835.971 
  "/>
<polyline clip-path="url(#clip483)" style="stroke:#000000; stroke-width:2; stroke-opacity:0.1; fill:none" points="
  283.751,550.362 1536.27,550.362 
  "/>
<polyline clip-path="url(#clip483)" style="stroke:#000000; stroke-width:2; stroke-opacity:0.1; fill:none" points="
  283.751,264.753 1536.27,264.753 
  "/>
<polyline clip-path="url(#clip480)" style="stroke:#000000; stroke-width:4; stroke-opacity:1; fill:none" points="
  283.751,1446.8 283.751,47.2441 
  "/>
<polyline clip-path="url(#clip480)" style="stroke:#000000; stroke-width:4; stroke-opacity:1; fill:none" points="
  283.751,1407.19 298.782,1407.19 
  "/>
<polyline clip-path="url(#clip480)" style="stroke:#000000; stroke-width:4; stroke-opacity:1; fill:none" points="
  283.751,1121.58 298.782,1121.58 
  "/>
<polyline clip-path="url(#clip480)" style="stroke:#000000; stroke-width:4; stroke-opacity:1; fill:none" points="
  283.751,835.971 298.782,835.971 
  "/>
<polyline clip-path="url(#clip480)" style="stroke:#000000; stroke-width:4; stroke-opacity:1; fill:none" points="
  283.751,550.362 298.782,550.362 
  "/>
<polyline clip-path="url(#clip480)" style="stroke:#000000; stroke-width:4; stroke-opacity:1; fill:none" points="
  283.751,264.753 298.782,264.753 
  "/>
<path clip-path="url(#clip480)" d="M 0 0 M186.839 1392.99 Q183.228 1392.99 181.4 1396.55 Q179.594 1400.09 179.594 1407.22 Q179.594 1414.33 181.4 1417.89 Q183.228 1421.44 186.839 1421.44 Q190.474 1421.44 192.279 1417.89 Q194.108 1414.33 194.108 1407.22 Q194.108 1400.09 192.279 1396.55 Q190.474 1392.99 186.839 1392.99 M186.839 1389.28 Q192.65 1389.28 195.705 1393.89 Q198.784 1398.47 198.784 1407.22 Q198.784 1415.95 195.705 1420.56 Q192.65 1425.14 186.839 1425.14 Q181.029 1425.14 177.951 1420.56 Q174.895 1415.95 174.895 1407.22 Q174.895 1398.47 177.951 1393.89 Q181.029 1389.28 186.839 1389.28 Z" fill="#000000" fill-rule="evenodd" fill-opacity="1" /><path clip-path="url(#clip480)" d="M 0 0 M203.853 1418.59 L208.737 1418.59 L208.737 1424.47 L203.853 1424.47 L203.853 1418.59 Z" fill="#000000" fill-rule="evenodd" fill-opacity="1" /><path clip-path="url(#clip480)" d="M 0 0 M223.807 1392.99 Q220.196 1392.99 218.367 1396.55 Q216.562 1400.09 216.562 1407.22 Q216.562 1414.33 218.367 1417.89 Q220.196 1421.44 223.807 1421.44 Q227.441 1421.44 229.247 1417.89 Q231.075 1414.33 231.075 1407.22 Q231.075 1400.09 229.247 1396.55 Q227.441 1392.99 223.807 1392.99 M223.807 1389.28 Q229.617 1389.28 232.673 1393.89 Q235.751 1398.47 235.751 1407.22 Q235.751 1415.95 232.673 1420.56 Q229.617 1425.14 223.807 1425.14 Q217.997 1425.14 214.918 1420.56 Q211.862 1415.95 211.862 1407.22 Q211.862 1398.47 214.918 1393.89 Q217.997 1389.28 223.807 1389.28 Z" fill="#000000" fill-rule="evenodd" fill-opacity="1" /><path clip-path="url(#clip480)" d="M 0 0 M187.835 1107.38 Q184.224 1107.38 182.395 1110.94 Q180.589 1114.48 180.589 1121.61 Q180.589 1128.72 182.395 1132.29 Q184.224 1135.83 187.835 1135.83 Q191.469 1135.83 193.275 1132.29 Q195.103 1128.72 195.103 1121.61 Q195.103 1114.48 193.275 1110.94 Q191.469 1107.38 187.835 1107.38 M187.835 1103.67 Q193.645 1103.67 196.701 1108.28 Q199.779 1112.86 199.779 1121.61 Q199.779 1130.34 196.701 1134.95 Q193.645 1139.53 187.835 1139.53 Q182.025 1139.53 178.946 1134.95 Q175.89 1130.34 175.89 1121.61 Q175.89 1112.86 178.946 1108.28 Q182.025 1103.67 187.835 1103.67 Z" fill="#000000" fill-rule="evenodd" fill-opacity="1" /><path clip-path="url(#clip480)" d="M 0 0 M204.849 1132.98 L209.733 1132.98 L209.733 1138.86 L204.849 1138.86 L204.849 1132.98 Z" fill="#000000" fill-rule="evenodd" fill-opacity="1" /><path clip-path="url(#clip480)" d="M 0 0 M214.849 1104.3 L233.205 1104.3 L233.205 1108.23 L219.131 1108.23 L219.131 1116.71 Q220.149 1116.36 221.168 1116.2 Q222.186 1116.01 223.205 1116.01 Q228.992 1116.01 232.372 1119.18 Q235.751 1122.36 235.751 1127.77 Q235.751 1133.35 232.279 1136.45 Q228.807 1139.53 222.487 1139.53 Q220.311 1139.53 218.043 1139.16 Q215.798 1138.79 213.39 1138.05 L213.39 1133.35 Q215.474 1134.48 217.696 1135.04 Q219.918 1135.6 222.395 1135.6 Q226.399 1135.6 228.737 1133.49 Q231.075 1131.38 231.075 1127.77 Q231.075 1124.16 228.737 1122.05 Q226.399 1119.95 222.395 1119.95 Q220.52 1119.95 218.645 1120.36 Q216.793 1120.78 214.849 1121.66 L214.849 1104.3 Z" fill="#000000" fill-rule="evenodd" fill-opacity="1" /><path clip-path="url(#clip480)" d="M 0 0 M178.877 849.316 L186.515 849.316 L186.515 822.95 L178.205 824.617 L178.205 820.358 L186.469 818.691 L191.145 818.691 L191.145 849.316 L198.784 849.316 L198.784 853.251 L178.877 853.251 L178.877 849.316 Z" fill="#000000" fill-rule="evenodd" fill-opacity="1" /><path clip-path="url(#clip480)" d="M 0 0 M203.853 847.371 L208.737 847.371 L208.737 853.251 L203.853 853.251 L203.853 847.371 Z" fill="#000000" fill-rule="evenodd" fill-opacity="1" /><path clip-path="url(#clip480)" d="M 0 0 M223.807 821.77 Q220.196 821.77 218.367 825.334 Q216.562 828.876 216.562 836.006 Q216.562 843.112 218.367 846.677 Q220.196 850.219 223.807 850.219 Q227.441 850.219 229.247 846.677 Q231.075 843.112 231.075 836.006 Q231.075 828.876 229.247 825.334 Q227.441 821.77 223.807 821.77 M223.807 818.066 Q229.617 818.066 232.673 822.672 Q235.751 827.256 235.751 836.006 Q235.751 844.732 232.673 849.339 Q229.617 853.922 223.807 853.922 Q217.997 853.922 214.918 849.339 Q211.862 844.732 211.862 836.006 Q211.862 827.256 214.918 822.672 Q217.997 818.066 223.807 818.066 Z" fill="#000000" fill-rule="evenodd" fill-opacity="1" /><path clip-path="url(#clip480)" d="M 0 0 M179.872 563.707 L187.511 563.707 L187.511 537.341 L179.201 539.008 L179.201 534.749 L187.464 533.082 L192.14 533.082 L192.14 563.707 L199.779 563.707 L199.779 567.642 L179.872 567.642 L179.872 563.707 Z" fill="#000000" fill-rule="evenodd" fill-opacity="1" /><path clip-path="url(#clip480)" d="M 0 0 M204.849 561.763 L209.733 561.763 L209.733 567.642 L204.849 567.642 L204.849 561.763 Z" fill="#000000" fill-rule="evenodd" fill-opacity="1" /><path clip-path="url(#clip480)" d="M 0 0 M214.849 533.082 L233.205 533.082 L233.205 537.017 L219.131 537.017 L219.131 545.49 Q220.149 545.142 221.168 544.98 Q222.186 544.795 223.205 544.795 Q228.992 544.795 232.372 547.966 Q235.751 551.138 235.751 556.554 Q235.751 562.133 232.279 565.235 Q228.807 568.313 222.487 568.313 Q220.311 568.313 218.043 567.943 Q215.798 567.573 213.39 566.832 L213.39 562.133 Q215.474 563.267 217.696 563.823 Q219.918 564.378 222.395 564.378 Q226.399 564.378 228.737 562.272 Q231.075 560.165 231.075 556.554 Q231.075 552.943 228.737 550.837 Q226.399 548.73 222.395 548.73 Q220.52 548.73 218.645 549.147 Q216.793 549.564 214.849 550.443 L214.849 533.082 Z" fill="#000000" fill-rule="evenodd" fill-opacity="1" /><path clip-path="url(#clip480)" d="M 0 0 M182.464 278.098 L198.784 278.098 L198.784 282.033 L176.84 282.033 L176.84 278.098 Q179.502 275.344 184.085 270.714 Q188.691 266.061 189.872 264.719 Q192.117 262.196 192.997 260.46 Q193.9 258.7 193.9 257.01 Q193.9 254.256 191.955 252.52 Q190.034 250.784 186.932 250.784 Q184.733 250.784 182.279 251.548 Q179.849 252.311 177.071 253.862 L177.071 249.14 Q179.895 248.006 182.349 247.427 Q184.802 246.849 186.839 246.849 Q192.21 246.849 195.404 249.534 Q198.599 252.219 198.599 256.71 Q198.599 258.839 197.788 260.76 Q197.001 262.659 194.895 265.251 Q194.316 265.922 191.214 269.14 Q188.113 272.334 182.464 278.098 Z" fill="#000000" fill-rule="evenodd" fill-opacity="1" /><path clip-path="url(#clip480)" d="M 0 0 M203.853 276.154 L208.737 276.154 L208.737 282.033 L203.853 282.033 L203.853 276.154 Z" fill="#000000" fill-rule="evenodd" fill-opacity="1" /><path clip-path="url(#clip480)" d="M 0 0 M223.807 250.552 Q220.196 250.552 218.367 254.117 Q216.562 257.659 216.562 264.788 Q216.562 271.895 218.367 275.459 Q220.196 279.001 223.807 279.001 Q227.441 279.001 229.247 275.459 Q231.075 271.895 231.075 264.788 Q231.075 257.659 229.247 254.117 Q227.441 250.552 223.807 250.552 M223.807 246.849 Q229.617 246.849 232.673 251.455 Q235.751 256.038 235.751 264.788 Q235.751 273.515 232.673 278.121 Q229.617 282.705 223.807 282.705 Q217.997 282.705 214.918 278.121 Q211.862 273.515 211.862 264.788 Q211.862 256.038 214.918 251.455 Q217.997 246.849 223.807 246.849 Z" fill="#000000" fill-rule="evenodd" fill-opacity="1" /><path clip-path="url(#clip480)" d="M 0 0 M34.9477 769.674 Q35.2053 769.674 37.4597 770.93 Q41.6143 773.024 47.9589 775.697 Q54.3034 778.37 59.0055 779.884 Q60.1327 780.206 61.5819 780.431 Q66.0263 781.011 72.9184 782.879 Q75.0762 783.523 75.978 783.942 Q76.8797 784.36 76.8797 784.972 Q76.8797 785.842 75.6881 785.842 Q74.4965 785.842 70.0521 784.747 Q65.6077 783.62 61.5175 782.396 Q59.2631 781.623 55.0441 781.623 Q53.6915 781.623 52.4677 781.687 Q51.2439 781.752 49.4725 782.009 Q47.7012 782.267 46.2519 782.686 Q44.8027 783.104 43.289 783.909 Q41.7431 784.715 40.7125 785.81 Q39.6497 786.905 38.9734 788.579 Q38.2971 790.222 38.2971 792.283 Q38.2971 792.798 38.3615 793.442 Q38.3937 794.054 38.8124 795.536 Q39.2311 796.985 39.9718 798.209 Q40.6803 799.433 42.2584 800.753 Q43.8365 802.074 45.9621 802.782 L46.2841 803.04 Q46.2841 803.458 46.2841 803.684 Q46.2519 803.877 46.0909 804.102 Q45.9299 804.296 45.64 804.296 Q44.9637 804.296 43.6111 803.78 Q42.2584 803.233 40.5193 802.138 Q38.7802 801.011 37.2343 799.561 Q35.6884 798.08 34.6256 795.922 Q33.5628 793.764 33.5628 791.446 Q33.5628 785.488 40.8092 782.653 Q46.9605 780.174 54.2712 779.948 Q41.2922 774.795 34.7544 771.253 Q34.2714 771.059 34.2714 770.48 Q34.3036 769.674 34.9477 769.674 Z" fill="#000000" fill-rule="evenodd" fill-opacity="1" /><path clip-path="url(#clip480)" d="M 0 0 M46.2197 770.481 Q35.0765 770.481 26.0911 766.326 Q22.323 764.555 19.1668 762.075 Q16.0106 759.595 14.6258 757.953 Q13.2409 756.31 13.2409 755.859 Q13.2409 755.215 13.8851 755.183 Q14.2071 755.183 15.0123 756.052 Q25.8334 766.68 46.2197 766.648 Q66.6705 766.648 77.073 756.31 Q78.2002 755.183 78.5544 755.183 Q79.1985 755.183 79.1985 755.859 Q79.1985 756.31 77.8781 757.888 Q76.5577 759.466 73.5303 761.914 Q70.503 764.362 66.7993 766.133 Q57.8138 770.481 46.2197 770.481 Z" fill="#000000" fill-rule="evenodd" fill-opacity="1" /><path clip-path="url(#clip480)" d="M 0 0 M38.1683 706.182 Q41.1634 706.182 46.9605 707.696 Q49.4725 708.308 51.7591 709.145 Q54.0136 709.95 56.2036 711.142 Q58.3936 712.333 59.9716 713.718 Q61.5175 715.103 62.4837 716.907 Q63.4499 718.71 63.4499 720.707 Q63.4499 723.863 61.5819 725.731 Q59.6818 727.567 56.429 728.147 Q63.4499 732.462 63.4499 738.227 Q63.4499 741.802 60.9056 743.476 Q58.3291 745.151 54.0136 745.151 Q50.3743 745.151 46.6062 744.185 Q39.4565 742.349 34.4646 738.774 Q33.8849 738.291 33.8849 737.583 Q33.8849 737.164 34.0137 736.971 Q34.368 736.391 34.9477 736.391 Q35.3664 736.391 35.785 736.713 Q38.909 738.968 41.5821 740.449 Q44.2552 741.931 46.9605 742.607 Q49.2793 743.122 51.2439 743.122 Q54.5611 743.122 56.6222 741.705 Q58.6834 740.256 58.6834 737.39 Q58.6834 734.749 57.0409 732.43 Q55.3662 730.111 52.5643 728.404 Q49.5047 728.308 46.6062 727.567 Q43.5144 726.89 43.5144 725.312 Q43.5144 724.056 45.2214 724.056 Q45.8011 724.056 46.9605 724.314 Q50.02 725.023 52.7575 726.311 Q55.4306 725.86 57.0731 724.185 Q58.6834 722.51 58.6834 719.837 Q58.6834 717.358 56.8799 715.168 Q55.0763 712.945 52.4355 711.528 Q49.7624 710.079 46.6062 709.274 Q45.5434 709.016 44.1908 709.016 Q40.5837 709.016 38.3615 711.528 Q37.653 712.237 36.719 712.237 Q35.624 712.237 34.6256 711.335 Q33.5628 710.272 33.5628 709.016 Q33.5628 708.082 34.1425 707.503 Q35.3019 706.182 38.1683 706.182 Z" fill="#000000" fill-rule="evenodd" fill-opacity="1" /><path clip-path="url(#clip480)" d="M 0 0 M78.5544 704.541 Q78.2324 704.541 77.4272 703.704 Q66.606 693.076 46.2197 693.076 Q25.769 693.076 15.4309 703.285 Q14.2393 704.541 13.8851 704.541 Q13.2409 704.541 13.2409 703.897 Q13.2409 703.446 14.5614 701.868 Q15.8818 700.258 18.9092 697.842 Q21.9365 695.395 25.6402 693.591 Q34.6256 689.243 46.2197 689.243 Q57.363 689.243 66.3484 693.398 Q70.1165 695.169 73.2727 697.649 Q76.4288 700.129 77.8137 701.771 Q79.1985 703.414 79.1985 703.897 Q79.1985 704.541 78.5544 704.541 Z" fill="#000000" fill-rule="evenodd" fill-opacity="1" /><path clip-path="url(#clip480)" d="
M96.6425 829.629 L96.6425 657.373 L93.1225 657.373 L93.1225 829.629  Z
  " fill="#000000" fill-rule="evenodd" fill-opacity="1"/>
<path clip-path="url(#clip480)" d="M 0 0 M138.829 798.808 Q140.633 798.808 142.662 799.356 L172.517 806.86 Q175.158 807.536 175.158 809.565 Q175.158 810.402 174.642 810.917 Q174.159 811.401 173.386 811.401 Q173.129 811.401 172.324 811.207 L141.986 803.703 Q139.216 803.027 137.831 803.027 Q133.226 803.027 133.226 806.602 Q133.226 809.758 135.544 812.914 Q136.704 814.363 138.797 815.781 Q140.858 817.165 141.599 817.423 Q143.274 817.713 144.562 818.132 Q145.464 818.325 148.974 819.259 L154.932 820.708 Q159.377 821.739 159.795 821.964 Q160.697 822.286 161.18 822.995 Q161.663 823.703 161.663 824.412 Q161.663 825.217 161.18 825.764 Q160.697 826.312 159.86 826.312 Q159.731 826.312 159.248 826.215 Q158.765 826.119 158.089 825.958 Q157.412 825.797 157.026 825.732 L141.792 821.9 Q139.023 821.191 138.153 821.03 Q137.251 820.837 136.253 820.837 Q134.514 820.837 133.87 821.384 Q133.226 821.932 133.226 822.898 Q133.226 824.573 135.222 825.668 Q137.219 826.763 141.084 827.697 Q142.147 827.987 142.372 828.18 Q142.598 828.341 142.598 828.824 Q142.565 829.629 141.921 829.629 Q141.76 829.629 140.73 829.371 Q139.667 829.114 138.121 828.631 Q136.543 828.115 135.544 827.568 Q134.868 827.246 134.417 826.956 Q133.966 826.666 133.258 826.086 Q132.549 825.507 132.163 824.637 Q131.776 823.768 131.776 822.705 Q131.776 820.354 133.29 818.615 Q134.804 816.843 137.509 816.618 Q136.511 815.942 135.609 815.072 Q134.707 814.17 133.805 812.914 Q132.871 811.658 132.324 809.951 Q131.776 808.244 131.776 806.409 Q131.776 802.737 133.677 800.773 Q135.544 798.808 138.829 798.808 Z" fill="#000000" fill-rule="evenodd" fill-opacity="1" /><path clip-path="url(#clip480)" d="M 0 0 M134.868 766.912 Q134.9 766.912 136.06 767.105 L165.335 774.448 Q166.881 774.835 168.427 775.93 Q170.005 776.993 171.357 778.7 Q172.742 780.374 173.58 782.951 Q174.449 785.495 174.449 788.426 Q174.449 793.096 173.451 795.157 Q172.485 797.186 170.423 797.186 Q168.62 797.186 167.589 796.059 Q166.591 794.931 166.591 793.643 Q166.591 792.419 167.299 791.775 Q168.008 791.131 168.91 791.131 Q169.908 791.131 170.906 791.807 Q171.937 792.484 172.324 793.836 Q173 791.679 173 788.555 Q173 781.952 166.011 779.118 Q165.915 779.054 165.882 779.054 L157.155 776.864 L157.09 776.96 Q157.734 777.508 158.475 778.377 Q159.184 779.215 160.053 781.018 Q160.923 782.822 160.923 784.593 Q160.923 788.297 158.089 790.841 Q155.222 793.353 150.488 793.353 Q147.042 793.353 143.596 791.968 Q140.118 790.551 137.573 788.361 Q134.997 786.139 133.387 783.305 Q131.776 780.439 131.776 777.669 Q131.776 775.737 132.936 774.094 Q134.063 772.452 135.931 771.55 Q134.385 771.389 133.741 770.519 Q133.097 769.617 133.097 768.845 Q133.097 767.975 133.58 767.46 Q134.031 766.912 134.868 766.912 M138.894 772.323 Q138.701 772.323 138.185 772.452 Q137.638 772.58 136.768 772.967 Q135.899 773.321 135.126 773.869 Q134.353 774.416 133.805 775.415 Q133.226 776.381 133.226 777.605 Q133.226 779.601 134.9 781.598 Q136.543 783.595 139.087 784.98 Q141.535 786.268 146.269 787.492 Q151.003 788.683 153.419 788.683 Q155.802 788.683 157.638 787.653 Q159.473 786.622 159.473 784.4 Q159.473 781.824 157.09 779.054 Q154.61 776.187 152.485 775.704 L139.892 772.516 Q139.119 772.323 138.894 772.323 Z" fill="#000000" fill-rule="evenodd" fill-opacity="1" /><path clip-path="url(#clip480)" d="M 0 0 M141.187 760.167 Q140.353 760.167 140.105 760.099 Q139.857 760.009 139.474 759.648 L129.599 750.788 Q124.144 745.941 119.387 745.941 Q116.298 745.941 114.089 747.564 Q111.88 749.165 111.88 752.118 Q111.88 754.147 113.12 755.861 Q114.36 757.574 116.569 758.363 Q116.524 758.228 116.524 757.754 Q116.524 756.605 117.245 755.973 Q117.967 755.32 118.936 755.32 Q120.176 755.32 120.785 756.131 Q121.371 756.92 121.371 757.709 Q121.371 758.025 121.303 758.453 Q121.236 758.859 120.604 759.513 Q119.951 760.167 118.801 760.167 Q115.577 760.167 113.007 757.732 Q110.437 755.274 110.437 751.532 Q110.437 747.294 112.962 744.521 Q115.464 741.725 119.387 741.725 Q120.762 741.725 122.025 742.154 Q123.264 742.56 124.234 743.123 Q125.203 743.664 126.759 745.152 Q128.314 746.64 129.419 747.835 Q130.524 749.03 132.868 751.713 L137.625 756.605 L137.625 748.286 Q137.625 744.228 137.264 743.912 Q136.611 743.461 133.161 742.898 L133.161 741.725 L141.187 743.033 L141.187 760.167 Z" fill="#000000" fill-rule="evenodd" fill-opacity="1" /><path clip-path="url(#clip480)" d="M 0 0 M136.382 695.899 Q139.377 695.899 145.174 697.413 Q147.686 698.025 149.973 698.862 Q152.227 699.667 154.417 700.859 Q156.607 702.05 158.185 703.435 Q159.731 704.82 160.697 706.624 Q161.663 708.427 161.663 710.424 Q161.663 713.58 159.795 715.448 Q157.895 717.284 154.643 717.864 Q161.663 722.179 161.663 727.944 Q161.663 731.519 159.119 733.194 Q156.543 734.868 152.227 734.868 Q148.588 734.868 144.82 733.902 Q137.67 732.066 132.678 728.491 Q132.098 728.008 132.098 727.3 Q132.098 726.881 132.227 726.688 Q132.582 726.108 133.161 726.108 Q133.58 726.108 133.999 726.43 Q137.123 728.685 139.796 730.166 Q142.469 731.648 145.174 732.324 Q147.493 732.839 149.457 732.839 Q152.775 732.839 154.836 731.422 Q156.897 729.973 156.897 727.107 Q156.897 724.466 155.254 722.147 Q153.58 719.828 150.778 718.121 Q147.718 718.025 144.82 717.284 Q141.728 716.607 141.728 715.029 Q141.728 713.773 143.435 713.773 Q144.015 713.773 145.174 714.031 Q148.234 714.74 150.971 716.028 Q153.644 715.577 155.287 713.902 Q156.897 712.227 156.897 709.554 Q156.897 707.075 155.093 704.885 Q153.29 702.662 150.649 701.245 Q147.976 699.796 144.82 698.991 Q143.757 698.733 142.404 698.733 Q138.797 698.733 136.575 701.245 Q135.867 701.954 134.933 701.954 Q133.838 701.954 132.839 701.052 Q131.776 699.989 131.776 698.733 Q131.776 697.799 132.356 697.22 Q133.515 695.899 136.382 695.899 Z" fill="#000000" fill-rule="evenodd" fill-opacity="1" /><path clip-path="url(#clip480)" d="M 0 0 M168.436 671.458 Q168.639 671.277 168.842 671.277 Q169.045 671.277 169.631 671.728 Q170.217 672.156 171.006 673.081 Q171.795 674.005 172.539 675.2 Q173.283 676.395 173.779 678.153 Q174.298 679.912 174.298 681.76 Q174.298 685.209 172.021 687.238 Q169.744 689.245 166.475 689.245 Q163.296 689.245 160.253 687.464 Q157.187 685.683 155.293 682.797 Q153.377 679.912 153.377 676.868 Q153.377 674.456 154.504 672.945 Q155.631 671.435 157.345 671.435 Q158.675 671.435 159.486 672.202 Q160.298 672.968 160.298 674.005 Q160.298 674.726 159.892 675.222 Q159.464 675.718 158.675 675.718 Q157.66 675.718 156.871 674.884 Q156.556 674.569 156.42 674.208 Q156.263 673.825 156.263 673.599 Q156.24 673.374 156.24 672.855 Q155.361 673.329 154.887 674.456 Q154.391 675.561 154.391 676.823 Q154.391 678.694 155.699 680.475 Q156.984 682.256 159.013 683.338 Q160.997 684.42 163.815 685.119 Q166.61 685.818 168.233 685.818 Q170.465 685.818 171.863 684.781 Q173.261 683.744 173.261 681.67 Q173.261 681.264 173.238 680.836 Q173.216 680.385 172.968 679.258 Q172.72 678.108 172.291 677.094 Q171.863 676.079 170.939 674.794 Q169.992 673.487 168.707 672.45 Q168.233 672.089 168.233 671.841 Q168.233 671.638 168.436 671.458 Z" fill="#000000" fill-rule="evenodd" fill-opacity="1" /><polyline clip-path="url(#clip483)" style="stroke:#009af9; stroke-width:8; stroke-opacity:1; fill:none" points="
  319.2,1108.05 325.138,941.532 331.076,759.015 337.013,584.65 342.951,434.143 348.889,313.392 354.827,222.139 360.765,157.458 366.703,115.687 372.64,93.2349 
  378.578,86.8541 384.516,93.6973 390.454,111.3 396.392,137.545 402.329,170.618 408.267,208.975 414.205,251.302 420.143,296.489 426.081,343.603 432.019,391.862 
  437.956,440.616 443.894,489.329 449.832,537.564 455.77,584.966 461.708,631.254 467.645,676.207 473.583,719.658 479.521,761.483 485.459,801.595 491.397,839.94 
  497.335,876.489 503.272,911.234 509.21,944.187 515.148,975.373 521.086,1004.83 527.024,1032.6 532.961,1058.74 538.899,1083.3 544.837,1106.35 550.775,1127.96 
  556.713,1148.18 562.651,1167.09 568.588,1184.75 574.526,1201.23 580.464,1216.59 586.402,1230.9 592.34,1244.21 598.277,1256.59 604.215,1268.09 610.153,1278.77 
  616.091,1288.68 622.029,1297.87 627.967,1306.38 633.904,1314.27 639.842,1321.57 645.78,1328.32 651.718,1334.57 657.656,1340.34 663.593,1345.67 669.531,1350.59 
  675.469,1355.14 681.407,1359.33 687.345,1363.19 693.283,1366.76 699.22,1370.04 705.158,1373.07 711.096,1375.86 717.034,1378.43 722.972,1380.79 728.909,1382.96 
  734.847,1384.96 740.785,1386.8 746.723,1388.49 752.661,1390.04 758.599,1391.47 764.536,1392.78 770.474,1393.98 776.412,1395.09 782.35,1396.1 788.288,1397.03 
  794.225,1397.89 800.163,1398.67 806.101,1399.39 812.039,1400.05 817.977,1400.66 823.915,1401.21 829.852,1401.72 835.79,1402.18 841.728,1402.61 847.666,1403 
  853.604,1403.36 859.541,1403.69 865.479,1403.99 871.417,1404.26 877.355,1404.51 883.293,1404.74 889.231,1404.95 895.168,1405.15 901.106,1405.32 907.044,1405.48 
  912.982,1405.63 918.92,1405.77 924.857,1405.89 930.795,1406 936.733,1406.1 942.671,1406.2 948.609,1406.29 954.547,1406.36 960.484,1406.44 966.422,1406.5 
  972.36,1406.56 978.298,1406.62 984.236,1406.67 990.173,1406.71 996.111,1406.75 1002.05,1406.79 1007.99,1406.83 1013.92,1406.86 1019.86,1406.89 1025.8,1406.91 
  1031.74,1406.94 1037.68,1406.96 1043.61,1406.98 1049.55,1407 1055.49,1407.02 1061.43,1407.03 1067.37,1407.04 1073.3,1407.06 1079.24,1407.07 1085.18,1407.08 
  1091.12,1407.09 1097.05,1407.1 1102.99,1407.11 1108.93,1407.11 1114.87,1407.12 1120.81,1407.13 1126.74,1407.13 1132.68,1407.14 1138.62,1407.14 1144.56,1407.15 
  1150.49,1407.15 1156.43,1407.15 1162.37,1407.16 1168.31,1407.16 1174.25,1407.16 1180.18,1407.16 1186.12,1407.17 1192.06,1407.17 1198,1407.17 1203.93,1407.17 
  1209.87,1407.17 1215.81,1407.17 1221.75,1407.18 1227.69,1407.18 1233.62,1407.18 1239.56,1407.18 1245.5,1407.18 1251.44,1407.18 1257.38,1407.18 1263.31,1407.18 
  1269.25,1407.18 1275.19,1407.18 1281.13,1407.18 1287.06,1407.18 1293,1407.18 1298.94,1407.18 1304.88,1407.18 1310.82,1407.19 1316.75,1407.19 1322.69,1407.19 
  1328.63,1407.19 1334.57,1407.19 1340.5,1407.19 1346.44,1407.19 1352.38,1407.19 1358.32,1407.19 1364.26,1407.19 1370.19,1407.19 1376.13,1407.19 1382.07,1407.19 
  1388.01,1407.19 1393.95,1407.19 1399.88,1407.19 1405.82,1407.19 1411.76,1407.19 1417.7,1407.19 1423.63,1407.19 1429.57,1407.19 1435.51,1407.19 1441.45,1407.19 
  1447.39,1407.19 1453.32,1407.19 1459.26,1407.19 1465.2,1407.19 1471.14,1407.19 1477.07,1407.19 1483.01,1407.19 1488.95,1407.19 1494.89,1407.19 1500.83,1407.19 
  
  "/>
<path clip-path="url(#clip480)" d="
M1900.23 1446.8 L3152.76 1446.8 L3152.76 47.2441 L1900.23 47.2441  Z
  " fill="#ffffff" fill-rule="evenodd" fill-opacity="1"/>
<defs>
  <clipPath id="clip484">
    <rect x="1900" y="47" width="1254" height="1401"/>
  </clipPath>
</defs>
<polyline clip-path="url(#clip484)" style="stroke:#000000; stroke-width:2; stroke-opacity:0.1; fill:none" points="
  1935.68,1446.8 1935.68,47.2441 
  "/>
<polyline clip-path="url(#clip484)" style="stroke:#000000; stroke-width:2; stroke-opacity:0.1; fill:none" points="
  2231.09,1446.8 2231.09,47.2441 
  "/>
<polyline clip-path="url(#clip484)" style="stroke:#000000; stroke-width:2; stroke-opacity:0.1; fill:none" points="
  2526.49,1446.8 2526.49,47.2441 
  "/>
<polyline clip-path="url(#clip484)" style="stroke:#000000; stroke-width:2; stroke-opacity:0.1; fill:none" points="
  2821.9,1446.8 2821.9,47.2441 
  "/>
<polyline clip-path="url(#clip484)" style="stroke:#000000; stroke-width:2; stroke-opacity:0.1; fill:none" points="
  3117.31,1446.8 3117.31,47.2441 
  "/>
<polyline clip-path="url(#clip480)" style="stroke:#000000; stroke-width:4; stroke-opacity:1; fill:none" points="
  1900.23,1446.8 3152.76,1446.8 
  "/>
<polyline clip-path="url(#clip480)" style="stroke:#000000; stroke-width:4; stroke-opacity:1; fill:none" points="
  1935.68,1446.8 1935.68,1430 
  "/>
<polyline clip-path="url(#clip480)" style="stroke:#000000; stroke-width:4; stroke-opacity:1; fill:none" points="
  2231.09,1446.8 2231.09,1430 
  "/>
<polyline clip-path="url(#clip480)" style="stroke:#000000; stroke-width:4; stroke-opacity:1; fill:none" points="
  2526.49,1446.8 2526.49,1430 
  "/>
<polyline clip-path="url(#clip480)" style="stroke:#000000; stroke-width:4; stroke-opacity:1; fill:none" points="
  2821.9,1446.8 2821.9,1430 
  "/>
<polyline clip-path="url(#clip480)" style="stroke:#000000; stroke-width:4; stroke-opacity:1; fill:none" points="
  3117.31,1446.8 3117.31,1430 
  "/>
<path clip-path="url(#clip480)" d="M 0 0 M1935.68 1482.39 Q1932.07 1482.39 1930.24 1485.95 Q1928.44 1489.5 1928.44 1496.62 Q1928.44 1503.73 1930.24 1507.3 Q1932.07 1510.84 1935.68 1510.84 Q1939.32 1510.84 1941.12 1507.3 Q1942.95 1503.73 1942.95 1496.62 Q1942.95 1489.5 1941.12 1485.95 Q1939.32 1482.39 1935.68 1482.39 M1935.68 1478.69 Q1941.49 1478.69 1944.55 1483.29 Q1947.63 1487.87 1947.63 1496.62 Q1947.63 1505.35 1944.55 1509.96 Q1941.49 1514.54 1935.68 1514.54 Q1929.87 1514.54 1926.79 1509.96 Q1923.74 1505.35 1923.74 1496.62 Q1923.74 1487.87 1926.79 1483.29 Q1929.87 1478.69 1935.68 1478.69 Z" fill="#000000" fill-rule="evenodd" fill-opacity="1" /><path clip-path="url(#clip480)" d="M 0 0 M2221.37 1479.31 L2239.72 1479.31 L2239.72 1483.25 L2225.65 1483.25 L2225.65 1491.72 Q2226.67 1491.37 2227.69 1491.21 Q2228.7 1491.02 2229.72 1491.02 Q2235.51 1491.02 2238.89 1494.19 Q2242.27 1497.37 2242.27 1502.78 Q2242.27 1508.36 2238.8 1511.46 Q2235.32 1514.54 2229 1514.54 Q2226.83 1514.54 2224.56 1514.17 Q2222.31 1513.8 2219.91 1513.06 L2219.91 1508.36 Q2221.99 1509.5 2224.21 1510.05 Q2226.44 1510.61 2228.91 1510.61 Q2232.92 1510.61 2235.25 1508.5 Q2237.59 1506.39 2237.59 1502.78 Q2237.59 1499.17 2235.25 1497.06 Q2232.92 1494.96 2228.91 1494.96 Q2227.04 1494.96 2225.16 1495.37 Q2223.31 1495.79 2221.37 1496.67 L2221.37 1479.31 Z" fill="#000000" fill-rule="evenodd" fill-opacity="1" /><path clip-path="url(#clip480)" d="M 0 0 M2503.37 1509.94 L2511.01 1509.94 L2511.01 1483.57 L2502.7 1485.24 L2502.7 1480.98 L2510.96 1479.31 L2515.64 1479.31 L2515.64 1509.94 L2523.28 1509.94 L2523.28 1513.87 L2503.37 1513.87 L2503.37 1509.94 Z" fill="#000000" fill-rule="evenodd" fill-opacity="1" /><path clip-path="url(#clip480)" d="M 0 0 M2538.35 1482.39 Q2534.73 1482.39 2532.91 1485.95 Q2531.1 1489.5 2531.1 1496.62 Q2531.1 1503.73 2532.91 1507.3 Q2534.73 1510.84 2538.35 1510.84 Q2541.98 1510.84 2543.79 1507.3 Q2545.61 1503.73 2545.61 1496.62 Q2545.61 1489.5 2543.79 1485.95 Q2541.98 1482.39 2538.35 1482.39 M2538.35 1478.69 Q2544.16 1478.69 2547.21 1483.29 Q2550.29 1487.87 2550.29 1496.62 Q2550.29 1505.35 2547.21 1509.96 Q2544.16 1514.54 2538.35 1514.54 Q2532.54 1514.54 2529.46 1509.96 Q2526.4 1505.35 2526.4 1496.62 Q2526.4 1487.87 2529.46 1483.29 Q2532.54 1478.69 2538.35 1478.69 Z" fill="#000000" fill-rule="evenodd" fill-opacity="1" /><path clip-path="url(#clip480)" d="M 0 0 M2799.27 1509.94 L2806.91 1509.94 L2806.91 1483.57 L2798.6 1485.24 L2798.6 1480.98 L2806.87 1479.31 L2811.54 1479.31 L2811.54 1509.94 L2819.18 1509.94 L2819.18 1513.87 L2799.27 1513.87 L2799.27 1509.94 Z" fill="#000000" fill-rule="evenodd" fill-opacity="1" /><path clip-path="url(#clip480)" d="M 0 0 M2824.3 1479.31 L2842.65 1479.31 L2842.65 1483.25 L2828.58 1483.25 L2828.58 1491.72 Q2829.6 1491.37 2830.62 1491.21 Q2831.63 1491.02 2832.65 1491.02 Q2838.44 1491.02 2841.82 1494.19 Q2845.2 1497.37 2845.2 1502.78 Q2845.2 1508.36 2841.73 1511.46 Q2838.25 1514.54 2831.94 1514.54 Q2829.76 1514.54 2827.49 1514.17 Q2825.25 1513.8 2822.84 1513.06 L2822.84 1508.36 Q2824.92 1509.5 2827.14 1510.05 Q2829.37 1510.61 2831.84 1510.61 Q2835.85 1510.61 2838.19 1508.5 Q2840.52 1506.39 2840.52 1502.78 Q2840.52 1499.17 2838.19 1497.06 Q2835.85 1494.96 2831.84 1494.96 Q2829.97 1494.96 2828.09 1495.37 Q2826.24 1495.79 2824.3 1496.67 L2824.3 1479.31 Z" fill="#000000" fill-rule="evenodd" fill-opacity="1" /><path clip-path="url(#clip480)" d="M 0 0 M3098.45 1509.94 L3114.77 1509.94 L3114.77 1513.87 L3092.83 1513.87 L3092.83 1509.94 Q3095.49 1507.18 3100.07 1502.55 Q3104.68 1497.9 3105.86 1496.56 Q3108.11 1494.03 3108.99 1492.3 Q3109.89 1490.54 3109.89 1488.85 Q3109.89 1486.09 3107.94 1484.36 Q3106.02 1482.62 3102.92 1482.62 Q3100.72 1482.62 3098.27 1483.38 Q3095.84 1484.15 3093.06 1485.7 L3093.06 1480.98 Q3095.88 1479.84 3098.34 1479.26 Q3100.79 1478.69 3102.83 1478.69 Q3108.2 1478.69 3111.39 1481.37 Q3114.59 1484.06 3114.59 1488.55 Q3114.59 1490.68 3113.78 1492.6 Q3112.99 1494.5 3110.88 1497.09 Q3110.3 1497.76 3107.2 1500.98 Q3104.1 1504.17 3098.45 1509.94 Z" fill="#000000" fill-rule="evenodd" fill-opacity="1" /><path clip-path="url(#clip480)" d="M 0 0 M3129.84 1482.39 Q3126.23 1482.39 3124.4 1485.95 Q3122.6 1489.5 3122.6 1496.62 Q3122.6 1503.73 3124.4 1507.3 Q3126.23 1510.84 3129.84 1510.84 Q3133.48 1510.84 3135.28 1507.3 Q3137.11 1503.73 3137.11 1496.62 Q3137.11 1489.5 3135.28 1485.95 Q3133.48 1482.39 3129.84 1482.39 M3129.84 1478.69 Q3135.65 1478.69 3138.71 1483.29 Q3141.79 1487.87 3141.79 1496.62 Q3141.79 1505.35 3138.71 1509.96 Q3135.65 1514.54 3129.84 1514.54 Q3124.03 1514.54 3120.95 1509.96 Q3117.9 1505.35 3117.9 1496.62 Q3117.9 1487.87 3120.95 1483.29 Q3124.03 1478.69 3129.84 1478.69 Z" fill="#000000" fill-rule="evenodd" fill-opacity="1" /><path clip-path="url(#clip480)" d="M 0 0 M2493.6 1548.46 Q2493.6 1551.46 2492.08 1557.26 Q2491.47 1559.77 2490.63 1562.05 Q2489.83 1564.31 2488.64 1566.5 Q2487.45 1568.69 2486.06 1570.27 Q2484.68 1571.81 2482.87 1572.78 Q2481.07 1573.75 2479.07 1573.75 Q2475.92 1573.75 2474.05 1571.88 Q2472.21 1569.98 2471.63 1566.72 Q2467.32 1573.75 2461.55 1573.75 Q2457.98 1573.75 2456.3 1571.2 Q2454.63 1568.62 2454.63 1564.31 Q2454.63 1560.67 2455.59 1556.9 Q2457.43 1549.75 2461.01 1544.76 Q2461.49 1544.18 2462.2 1544.18 Q2462.62 1544.18 2462.81 1544.31 Q2463.39 1544.66 2463.39 1545.24 Q2463.39 1545.66 2463.07 1546.08 Q2460.81 1549.2 2459.33 1551.88 Q2457.85 1554.55 2457.17 1557.26 Q2456.66 1559.57 2456.66 1561.54 Q2456.66 1564.86 2458.07 1566.92 Q2459.52 1568.98 2462.39 1568.98 Q2465.03 1568.98 2467.35 1567.34 Q2469.67 1565.66 2471.38 1562.86 Q2471.47 1559.8 2472.21 1556.9 Q2472.89 1553.81 2474.47 1553.81 Q2475.72 1553.81 2475.72 1555.52 Q2475.72 1556.1 2475.47 1557.26 Q2474.76 1560.32 2473.47 1563.05 Q2473.92 1565.73 2475.59 1567.37 Q2477.27 1568.98 2479.94 1568.98 Q2482.42 1568.98 2484.61 1567.18 Q2486.83 1565.37 2488.25 1562.73 Q2489.7 1560.06 2490.51 1556.9 Q2490.76 1555.84 2490.76 1554.49 Q2490.76 1550.88 2488.25 1548.66 Q2487.54 1547.95 2487.54 1547.01 Q2487.54 1545.92 2488.44 1544.92 Q2489.51 1543.86 2490.76 1543.86 Q2491.7 1543.86 2492.28 1544.44 Q2493.6 1545.6 2493.6 1548.46 Z" fill="#000000" fill-rule="evenodd" fill-opacity="1" /><path clip-path="url(#clip480)" d="M 0 0 M2495.24 1588.56 Q2495.24 1588.24 2495.5 1587.53 L2518.78 1525.31 Q2518.78 1525.24 2518.94 1524.89 Q2519.1 1524.54 2519.2 1524.31 Q2519.3 1524.05 2519.49 1523.86 Q2519.71 1523.67 2519.97 1523.67 Q2520.62 1523.67 2520.62 1524.47 Q2520.62 1524.54 2520.42 1525.31 L2497.07 1587.59 Q2496.69 1588.72 2496.43 1589.04 Q2496.2 1589.37 2495.82 1589.37 Q2495.24 1589.37 2495.24 1588.56 Z" fill="#000000" fill-rule="evenodd" fill-opacity="1" /><path clip-path="url(#clip480)" d="M 0 0 M2566.87 1548.46 Q2566.87 1551.46 2565.36 1557.26 Q2564.75 1559.77 2563.91 1562.05 Q2563.11 1564.31 2561.91 1566.5 Q2560.72 1568.69 2559.34 1570.27 Q2557.95 1571.81 2556.15 1572.78 Q2554.35 1573.75 2552.35 1573.75 Q2549.19 1573.75 2547.33 1571.88 Q2545.49 1569.98 2544.91 1566.72 Q2540.59 1573.75 2534.83 1573.75 Q2531.25 1573.75 2529.58 1571.2 Q2527.91 1568.62 2527.91 1564.31 Q2527.91 1560.67 2528.87 1556.9 Q2530.71 1549.75 2534.28 1544.76 Q2534.76 1544.18 2535.47 1544.18 Q2535.89 1544.18 2536.09 1544.31 Q2536.67 1544.66 2536.67 1545.24 Q2536.67 1545.66 2536.34 1546.08 Q2534.09 1549.2 2532.61 1551.88 Q2531.13 1554.55 2530.45 1557.26 Q2529.93 1559.57 2529.93 1561.54 Q2529.93 1564.86 2531.35 1566.92 Q2532.8 1568.98 2535.67 1568.98 Q2538.31 1568.98 2540.63 1567.34 Q2542.95 1565.66 2544.65 1562.86 Q2544.75 1559.8 2545.49 1556.9 Q2546.17 1553.81 2547.74 1553.81 Q2549 1553.81 2549 1555.52 Q2549 1556.1 2548.74 1557.26 Q2548.03 1560.32 2546.75 1563.05 Q2547.2 1565.73 2548.87 1567.37 Q2550.55 1568.98 2553.22 1568.98 Q2555.7 1568.98 2557.89 1567.18 Q2560.11 1565.37 2561.53 1562.73 Q2562.98 1560.06 2563.78 1556.9 Q2564.04 1555.84 2564.04 1554.49 Q2564.04 1550.88 2561.53 1548.66 Q2560.82 1547.95 2560.82 1547.01 Q2560.82 1545.92 2561.72 1544.92 Q2562.78 1543.86 2564.04 1543.86 Q2564.97 1543.86 2565.55 1544.44 Q2566.87 1545.6 2566.87 1548.46 Z" fill="#000000" fill-rule="evenodd" fill-opacity="1" /><path clip-path="url(#clip480)" d="M 0 0 M2591.32 1580.52 Q2591.5 1580.72 2591.5 1580.92 Q2591.5 1581.13 2591.05 1581.71 Q2590.62 1582.3 2589.69 1583.09 Q2588.77 1583.88 2587.57 1584.62 Q2586.38 1585.37 2584.62 1585.86 Q2582.86 1586.38 2581.01 1586.38 Q2577.56 1586.38 2575.53 1584.1 Q2573.53 1581.83 2573.53 1578.56 Q2573.53 1575.38 2575.31 1572.34 Q2577.09 1569.27 2579.98 1567.38 Q2582.86 1565.46 2585.91 1565.46 Q2588.32 1565.46 2589.83 1566.59 Q2591.34 1567.71 2591.34 1569.43 Q2591.34 1570.76 2590.57 1571.57 Q2589.81 1572.38 2588.77 1572.38 Q2588.05 1572.38 2587.55 1571.97 Q2587.05 1571.55 2587.05 1570.76 Q2587.05 1569.74 2587.89 1568.95 Q2588.2 1568.64 2588.57 1568.5 Q2588.95 1568.34 2589.17 1568.34 Q2589.4 1568.32 2589.92 1568.32 Q2589.44 1567.44 2588.32 1566.97 Q2587.21 1566.47 2585.95 1566.47 Q2584.08 1566.47 2582.3 1567.78 Q2580.52 1569.07 2579.43 1571.1 Q2578.35 1573.08 2577.65 1575.9 Q2576.96 1578.69 2576.96 1580.32 Q2576.96 1582.55 2577.99 1583.95 Q2579.03 1585.34 2581.1 1585.34 Q2581.51 1585.34 2581.94 1585.32 Q2582.39 1585.3 2583.52 1585.05 Q2584.67 1584.8 2585.68 1584.37 Q2586.69 1583.95 2587.98 1583.02 Q2589.29 1582.07 2590.32 1580.79 Q2590.68 1580.32 2590.93 1580.32 Q2591.14 1580.32 2591.32 1580.52 Z" fill="#000000" fill-rule="evenodd" fill-opacity="1" /><polyline clip-path="url(#clip484)" style="stroke:#000000; stroke-width:2; stroke-opacity:0.1; fill:none" points="
  1900.23,1291.11 3152.76,1291.11 
  "/>
<polyline clip-path="url(#clip484)" style="stroke:#000000; stroke-width:2; stroke-opacity:0.1; fill:none" points="
  1900.23,1031.32 3152.76,1031.32 
  "/>
<polyline clip-path="url(#clip484)" style="stroke:#000000; stroke-width:2; stroke-opacity:0.1; fill:none" points="
  1900.23,771.527 3152.76,771.527 
  "/>
<polyline clip-path="url(#clip484)" style="stroke:#000000; stroke-width:2; stroke-opacity:0.1; fill:none" points="
  1900.23,511.736 3152.76,511.736 
  "/>
<polyline clip-path="url(#clip484)" style="stroke:#000000; stroke-width:2; stroke-opacity:0.1; fill:none" points="
  1900.23,251.944 3152.76,251.944 
  "/>
<polyline clip-path="url(#clip480)" style="stroke:#000000; stroke-width:4; stroke-opacity:1; fill:none" points="
  1900.23,1446.8 1900.23,47.2441 
  "/>
<polyline clip-path="url(#clip480)" style="stroke:#000000; stroke-width:4; stroke-opacity:1; fill:none" points="
  1900.23,1291.11 1915.26,1291.11 
  "/>
<polyline clip-path="url(#clip480)" style="stroke:#000000; stroke-width:4; stroke-opacity:1; fill:none" points="
  1900.23,1031.32 1915.26,1031.32 
  "/>
<polyline clip-path="url(#clip480)" style="stroke:#000000; stroke-width:4; stroke-opacity:1; fill:none" points="
  1900.23,771.527 1915.26,771.527 
  "/>
<polyline clip-path="url(#clip480)" style="stroke:#000000; stroke-width:4; stroke-opacity:1; fill:none" points="
  1900.23,511.736 1915.26,511.736 
  "/>
<polyline clip-path="url(#clip480)" style="stroke:#000000; stroke-width:4; stroke-opacity:1; fill:none" points="
  1900.23,251.944 1915.26,251.944 
  "/>
<path clip-path="url(#clip480)" d="M 0 0 M1758.76 1291.56 L1788.44 1291.56 L1788.44 1295.5 L1758.76 1295.5 L1758.76 1291.56 Z" fill="#000000" fill-rule="evenodd" fill-opacity="1" /><path clip-path="url(#clip480)" d="M 0 0 M1803.51 1276.91 Q1799.89 1276.91 1798.07 1280.47 Q1796.26 1284.02 1796.26 1291.15 Q1796.26 1298.25 1798.07 1301.82 Q1799.89 1305.36 1803.51 1305.36 Q1807.14 1305.36 1808.95 1301.82 Q1810.77 1298.25 1810.77 1291.15 Q1810.77 1284.02 1808.95 1280.47 Q1807.14 1276.91 1803.51 1276.91 M1803.51 1273.21 Q1809.32 1273.21 1812.37 1277.81 Q1815.45 1282.4 1815.45 1291.15 Q1815.45 1299.87 1812.37 1304.48 Q1809.32 1309.06 1803.51 1309.06 Q1797.7 1309.06 1794.62 1304.48 Q1791.56 1299.87 1791.56 1291.15 Q1791.56 1282.4 1794.62 1277.81 Q1797.7 1273.21 1803.51 1273.21 Z" fill="#000000" fill-rule="evenodd" fill-opacity="1" /><path clip-path="url(#clip480)" d="M 0 0 M1820.52 1302.51 L1825.4 1302.51 L1825.4 1308.39 L1820.52 1308.39 L1820.52 1302.51 Z" fill="#000000" fill-rule="evenodd" fill-opacity="1" /><path clip-path="url(#clip480)" d="M 0 0 M1830.61 1307.67 L1830.61 1303.41 Q1832.37 1304.25 1834.18 1304.69 Q1835.98 1305.13 1837.72 1305.13 Q1842.35 1305.13 1844.78 1302.03 Q1847.23 1298.9 1847.58 1292.56 Q1846.24 1294.55 1844.18 1295.61 Q1842.12 1296.68 1839.62 1296.68 Q1834.43 1296.68 1831.4 1293.55 Q1828.39 1290.4 1828.39 1284.97 Q1828.39 1279.64 1831.54 1276.42 Q1834.69 1273.21 1839.92 1273.21 Q1845.91 1273.21 1849.06 1277.81 Q1852.23 1282.4 1852.23 1291.15 Q1852.23 1299.32 1848.34 1304.2 Q1844.48 1309.06 1837.93 1309.06 Q1836.17 1309.06 1834.36 1308.71 Q1832.56 1308.37 1830.61 1307.67 M1839.92 1293.02 Q1843.07 1293.02 1844.89 1290.87 Q1846.75 1288.72 1846.75 1284.97 Q1846.75 1281.24 1844.89 1279.09 Q1843.07 1276.91 1839.92 1276.91 Q1836.77 1276.91 1834.92 1279.09 Q1833.09 1281.24 1833.09 1284.97 Q1833.09 1288.72 1834.92 1290.87 Q1836.77 1293.02 1839.92 1293.02 Z" fill="#000000" fill-rule="evenodd" fill-opacity="1" /><path clip-path="url(#clip480)" d="M 0 0 M1758.41 1031.77 L1788.09 1031.77 L1788.09 1035.71 L1758.41 1035.71 L1758.41 1031.77 Z" fill="#000000" fill-rule="evenodd" fill-opacity="1" /><path clip-path="url(#clip480)" d="M 0 0 M1803.16 1017.12 Q1799.55 1017.12 1797.72 1020.68 Q1795.91 1024.22 1795.91 1031.35 Q1795.91 1038.46 1797.72 1042.03 Q1799.55 1045.57 1803.16 1045.57 Q1806.79 1045.57 1808.6 1042.03 Q1810.43 1038.46 1810.43 1031.35 Q1810.43 1024.22 1808.6 1020.68 Q1806.79 1017.12 1803.16 1017.12 M1803.16 1013.41 Q1808.97 1013.41 1812.02 1018.02 Q1815.1 1022.6 1815.1 1031.35 Q1815.1 1040.08 1812.02 1044.69 Q1808.97 1049.27 1803.16 1049.27 Q1797.35 1049.27 1794.27 1044.69 Q1791.21 1040.08 1791.21 1031.35 Q1791.21 1022.6 1794.27 1018.02 Q1797.35 1013.41 1803.16 1013.41 Z" fill="#000000" fill-rule="evenodd" fill-opacity="1" /><path clip-path="url(#clip480)" d="M 0 0 M1820.17 1042.72 L1825.06 1042.72 L1825.06 1048.6 L1820.17 1048.6 L1820.17 1042.72 Z" fill="#000000" fill-rule="evenodd" fill-opacity="1" /><path clip-path="url(#clip480)" d="M 0 0 M1840.7 1029.46 Q1837.56 1029.46 1835.7 1031.61 Q1833.88 1033.76 1833.88 1037.51 Q1833.88 1041.24 1835.7 1043.41 Q1837.56 1045.57 1840.7 1045.57 Q1843.85 1045.57 1845.68 1043.41 Q1847.53 1041.24 1847.53 1037.51 Q1847.53 1033.76 1845.68 1031.61 Q1843.85 1029.46 1840.7 1029.46 M1849.99 1014.8 L1849.99 1019.06 Q1848.23 1018.23 1846.42 1017.79 Q1844.64 1017.35 1842.88 1017.35 Q1838.25 1017.35 1835.8 1020.47 Q1833.37 1023.6 1833.02 1029.92 Q1834.39 1027.9 1836.45 1026.84 Q1838.51 1025.75 1840.98 1025.75 Q1846.19 1025.75 1849.2 1028.92 Q1852.23 1032.07 1852.23 1037.51 Q1852.23 1042.84 1849.08 1046.05 Q1845.94 1049.27 1840.7 1049.27 Q1834.71 1049.27 1831.54 1044.69 Q1828.37 1040.08 1828.37 1031.35 Q1828.37 1023.16 1832.26 1018.3 Q1836.14 1013.41 1842.7 1013.41 Q1844.45 1013.41 1846.24 1013.76 Q1848.04 1014.11 1849.99 1014.8 Z" fill="#000000" fill-rule="evenodd" fill-opacity="1" /><path clip-path="url(#clip480)" d="M 0 0 M1759.22 771.979 L1788.9 771.979 L1788.9 775.914 L1759.22 775.914 L1759.22 771.979 Z" fill="#000000" fill-rule="evenodd" fill-opacity="1" /><path clip-path="url(#clip480)" d="M 0 0 M1803.97 757.326 Q1800.36 757.326 1798.53 760.891 Q1796.72 764.432 1796.72 771.562 Q1796.72 778.668 1798.53 782.233 Q1800.36 785.775 1803.97 785.775 Q1807.6 785.775 1809.41 782.233 Q1811.24 778.668 1811.24 771.562 Q1811.24 764.432 1809.41 760.891 Q1807.6 757.326 1803.97 757.326 M1803.97 753.622 Q1809.78 753.622 1812.83 758.229 Q1815.91 762.812 1815.91 771.562 Q1815.91 780.289 1812.83 784.895 Q1809.78 789.479 1803.97 789.479 Q1798.16 789.479 1795.08 784.895 Q1792.02 780.289 1792.02 771.562 Q1792.02 762.812 1795.08 758.229 Q1798.16 753.622 1803.97 753.622 Z" fill="#000000" fill-rule="evenodd" fill-opacity="1" /><path clip-path="url(#clip480)" d="M 0 0 M1820.98 782.928 L1825.87 782.928 L1825.87 788.807 L1820.98 788.807 L1820.98 782.928 Z" fill="#000000" fill-rule="evenodd" fill-opacity="1" /><path clip-path="url(#clip480)" d="M 0 0 M1845.1 770.173 Q1848.46 770.891 1850.33 773.159 Q1852.23 775.428 1852.23 778.761 Q1852.23 783.877 1848.71 786.678 Q1845.2 789.479 1838.71 789.479 Q1836.54 789.479 1834.22 789.039 Q1831.93 788.622 1829.48 787.766 L1829.48 783.252 Q1831.42 784.386 1833.74 784.965 Q1836.05 785.543 1838.58 785.543 Q1842.97 785.543 1845.27 783.807 Q1847.58 782.071 1847.58 778.761 Q1847.58 775.706 1845.43 773.993 Q1843.3 772.256 1839.48 772.256 L1835.45 772.256 L1835.45 768.414 L1839.66 768.414 Q1843.11 768.414 1844.94 767.048 Q1846.77 765.659 1846.77 763.067 Q1846.77 760.405 1844.87 758.993 Q1843 757.557 1839.48 757.557 Q1837.56 757.557 1835.36 757.974 Q1833.16 758.391 1830.52 759.27 L1830.52 755.104 Q1833.18 754.363 1835.5 753.993 Q1837.83 753.622 1839.89 753.622 Q1845.22 753.622 1848.32 756.053 Q1851.42 758.46 1851.42 762.581 Q1851.42 765.451 1849.78 767.442 Q1848.14 769.409 1845.1 770.173 Z" fill="#000000" fill-rule="evenodd" fill-opacity="1" /><path clip-path="url(#clip480)" d="M 0 0 M1803.32 497.534 Q1799.71 497.534 1797.88 501.099 Q1796.08 504.641 1796.08 511.77 Q1796.08 518.877 1797.88 522.441 Q1799.71 525.983 1803.32 525.983 Q1806.96 525.983 1808.76 522.441 Q1810.59 518.877 1810.59 511.77 Q1810.59 504.641 1808.76 501.099 Q1806.96 497.534 1803.32 497.534 M1803.32 493.831 Q1809.13 493.831 1812.19 498.437 Q1815.27 503.02 1815.27 511.77 Q1815.27 520.497 1812.19 525.104 Q1809.13 529.687 1803.32 529.687 Q1797.51 529.687 1794.43 525.104 Q1791.38 520.497 1791.38 511.77 Q1791.38 503.02 1794.43 498.437 Q1797.51 493.831 1803.32 493.831 Z" fill="#000000" fill-rule="evenodd" fill-opacity="1" /><path clip-path="url(#clip480)" d="M 0 0 M1820.33 523.136 L1825.22 523.136 L1825.22 529.016 L1820.33 529.016 L1820.33 523.136 Z" fill="#000000" fill-rule="evenodd" fill-opacity="1" /><path clip-path="url(#clip480)" d="M 0 0 M1840.29 497.534 Q1836.68 497.534 1834.85 501.099 Q1833.04 504.641 1833.04 511.77 Q1833.04 518.877 1834.85 522.441 Q1836.68 525.983 1840.29 525.983 Q1843.92 525.983 1845.73 522.441 Q1847.56 518.877 1847.56 511.77 Q1847.56 504.641 1845.73 501.099 Q1843.92 497.534 1840.29 497.534 M1840.29 493.831 Q1846.1 493.831 1849.15 498.437 Q1852.23 503.02 1852.23 511.77 Q1852.23 520.497 1849.15 525.104 Q1846.1 529.687 1840.29 529.687 Q1834.48 529.687 1831.4 525.104 Q1828.34 520.497 1828.34 511.77 Q1828.34 503.02 1831.4 498.437 Q1834.48 493.831 1840.29 493.831 Z" fill="#000000" fill-rule="evenodd" fill-opacity="1" /><path clip-path="url(#clip480)" d="M 0 0 M1803.97 237.742 Q1800.36 237.742 1798.53 241.307 Q1796.72 244.849 1796.72 251.978 Q1796.72 259.085 1798.53 262.65 Q1800.36 266.191 1803.97 266.191 Q1807.6 266.191 1809.41 262.65 Q1811.24 259.085 1811.24 251.978 Q1811.24 244.849 1809.41 241.307 Q1807.6 237.742 1803.97 237.742 M1803.97 234.039 Q1809.78 234.039 1812.83 238.645 Q1815.91 243.229 1815.91 251.978 Q1815.91 260.705 1812.83 265.312 Q1809.78 269.895 1803.97 269.895 Q1798.16 269.895 1795.08 265.312 Q1792.02 260.705 1792.02 251.978 Q1792.02 243.229 1795.08 238.645 Q1798.16 234.039 1803.97 234.039 Z" fill="#000000" fill-rule="evenodd" fill-opacity="1" /><path clip-path="url(#clip480)" d="M 0 0 M1820.98 263.344 L1825.87 263.344 L1825.87 269.224 L1820.98 269.224 L1820.98 263.344 Z" fill="#000000" fill-rule="evenodd" fill-opacity="1" /><path clip-path="url(#clip480)" d="M 0 0 M1845.1 250.59 Q1848.46 251.307 1850.33 253.576 Q1852.23 255.844 1852.23 259.177 Q1852.23 264.293 1848.71 267.094 Q1845.2 269.895 1838.71 269.895 Q1836.54 269.895 1834.22 269.455 Q1831.93 269.039 1829.48 268.182 L1829.48 263.668 Q1831.42 264.802 1833.74 265.381 Q1836.05 265.96 1838.58 265.96 Q1842.97 265.96 1845.27 264.224 Q1847.58 262.488 1847.58 259.177 Q1847.58 256.122 1845.43 254.409 Q1843.3 252.673 1839.48 252.673 L1835.45 252.673 L1835.45 248.83 L1839.66 248.83 Q1843.11 248.83 1844.94 247.465 Q1846.77 246.076 1846.77 243.483 Q1846.77 240.821 1844.87 239.409 Q1843 237.974 1839.48 237.974 Q1837.56 237.974 1835.36 238.391 Q1833.16 238.807 1830.52 239.687 L1830.52 235.52 Q1833.18 234.779 1835.5 234.409 Q1837.83 234.039 1839.89 234.039 Q1845.22 234.039 1848.32 236.469 Q1851.42 238.877 1851.42 242.997 Q1851.42 245.867 1849.78 247.858 Q1848.14 249.826 1845.1 250.59 Z" fill="#000000" fill-rule="evenodd" fill-opacity="1" /><path clip-path="url(#clip480)" d="M 0 0 M1600.4 767.832 L1614.83 771.407 Q1615.7 771.6 1615.92 771.761 Q1616.15 771.922 1616.15 772.373 Q1616.15 772.728 1615.99 772.953 Q1615.83 773.146 1615.66 773.146 L1615.5 773.178 Q1615.41 773.178 1614.92 773.114 Q1614.41 773.05 1613.57 772.985 Q1612.73 772.921 1611.8 772.921 Q1606.52 772.921 1604.07 775.497 Q1601.59 778.042 1601.59 782.422 Q1601.59 785.449 1603.2 788.154 Q1604.81 790.859 1607.36 792.405 Q1609.87 793.951 1612.51 793.951 Q1614.92 793.951 1616.47 792.727 Q1618.02 791.504 1618.53 789.925 L1619.72 785.513 Q1620.91 780.876 1621.43 779.555 Q1621.91 778.235 1623.01 777.14 Q1626.03 773.887 1630.74 773.887 Q1634.79 773.887 1638.72 776.174 Q1642.62 778.46 1645.16 782.389 Q1647.68 786.318 1647.68 790.666 Q1647.68 798.299 1642.94 801.809 L1646.68 805.03 Q1647.39 805.642 1647.52 805.835 Q1647.68 805.996 1647.68 806.222 Q1647.68 806.512 1647.48 806.737 Q1647.32 806.962 1647.03 806.962 Q1646.81 806.962 1639.24 805.062 Q1631.67 803.162 1631.51 803.001 Q1631.25 802.743 1631.25 802.325 Q1631.25 801.552 1631.99 801.552 Q1632.19 801.616 1632.44 801.681 Q1634.76 802.067 1636.02 802.067 Q1638.37 802.067 1640.17 801.262 Q1641.94 800.457 1642.97 799.265 Q1643.97 798.041 1644.62 796.399 Q1645.23 794.756 1645.45 793.372 Q1645.65 791.987 1645.65 790.537 Q1645.65 787.413 1643.84 784.644 Q1642.04 781.842 1639.24 780.264 Q1636.44 778.653 1633.51 778.653 Q1631.96 778.653 1630.77 779.072 Q1629.55 779.491 1628.87 780.071 Q1628.19 780.618 1627.68 781.552 Q1627.16 782.486 1626.97 783.13 Q1626.74 783.742 1626.52 784.708 L1624.65 791.761 Q1623.81 794.595 1621.4 796.624 Q1618.98 798.621 1615.28 798.621 Q1611.38 798.621 1607.77 796.334 Q1604.13 794.016 1601.94 790.248 Q1599.72 786.447 1599.72 782.357 Q1599.72 779.137 1600.98 776.657 Q1602.2 774.177 1604.49 772.921 L1600.72 769.732 Q1599.98 769.088 1599.85 768.959 Q1599.72 768.798 1599.72 768.573 Q1599.72 768.187 1599.95 768.026 Q1600.17 767.832 1600.4 767.832 Z" fill="#000000" fill-rule="evenodd" fill-opacity="1" /><path clip-path="url(#clip480)" d="M 0 0 M1629.74 766.927 Q1618.6 766.927 1609.61 762.772 Q1605.84 761.001 1602.69 758.521 Q1599.53 756.041 1598.14 754.399 Q1596.76 752.756 1596.76 752.305 Q1596.76 751.661 1597.4 751.629 Q1597.73 751.629 1598.53 752.498 Q1609.35 763.126 1629.74 763.094 Q1650.19 763.094 1660.59 752.756 Q1661.72 751.629 1662.07 751.629 Q1662.72 751.629 1662.72 752.305 Q1662.72 752.756 1661.4 754.334 Q1660.08 755.912 1657.05 758.36 Q1654.02 760.807 1650.32 762.579 Q1641.33 766.927 1629.74 766.927 Z" fill="#000000" fill-rule="evenodd" fill-opacity="1" /><path clip-path="url(#clip480)" d="M 0 0 M1621.69 702.628 Q1624.68 702.628 1630.48 704.142 Q1632.99 704.754 1635.28 705.591 Q1637.53 706.396 1639.72 707.588 Q1641.91 708.779 1643.49 710.164 Q1645.04 711.549 1646 713.353 Q1646.97 715.156 1646.97 717.153 Q1646.97 720.309 1645.1 722.177 Q1643.2 724.013 1639.95 724.592 Q1646.97 728.908 1646.97 734.673 Q1646.97 738.248 1644.42 739.922 Q1641.85 741.597 1637.53 741.597 Q1633.89 741.597 1630.12 740.631 Q1622.98 738.795 1617.98 735.22 Q1617.4 734.737 1617.4 734.029 Q1617.4 733.61 1617.53 733.417 Q1617.89 732.837 1618.47 732.837 Q1618.88 732.837 1619.3 733.159 Q1622.43 735.414 1625.1 736.895 Q1627.77 738.377 1630.48 739.053 Q1632.8 739.568 1634.76 739.568 Q1638.08 739.568 1640.14 738.151 Q1642.2 736.702 1642.2 733.836 Q1642.2 731.195 1640.56 728.876 Q1638.88 726.557 1636.08 724.85 Q1633.02 724.753 1630.12 724.013 Q1627.03 723.336 1627.03 721.758 Q1627.03 720.502 1628.74 720.502 Q1629.32 720.502 1630.48 720.76 Q1633.54 721.469 1636.28 722.757 Q1638.95 722.306 1640.59 720.631 Q1642.2 718.956 1642.2 716.283 Q1642.2 713.804 1640.4 711.614 Q1638.59 709.391 1635.95 707.974 Q1633.28 706.525 1630.12 705.72 Q1629.06 705.462 1627.71 705.462 Q1624.1 705.462 1621.88 707.974 Q1621.17 708.683 1620.24 708.683 Q1619.14 708.683 1618.14 707.781 Q1617.08 706.718 1617.08 705.462 Q1617.08 704.528 1617.66 703.949 Q1618.82 702.628 1621.69 702.628 Z" fill="#000000" fill-rule="evenodd" fill-opacity="1" /><path clip-path="url(#clip480)" d="M 0 0 M1662.07 700.987 Q1661.75 700.987 1660.95 700.15 Q1650.12 689.522 1629.74 689.522 Q1609.29 689.522 1598.95 699.731 Q1597.76 700.987 1597.4 700.987 Q1596.76 700.987 1596.76 700.343 Q1596.76 699.892 1598.08 698.314 Q1599.4 696.704 1602.43 694.288 Q1605.46 691.841 1609.16 690.037 Q1618.14 685.689 1629.74 685.689 Q1640.88 685.689 1649.87 689.844 Q1653.64 691.615 1656.79 694.095 Q1659.95 696.575 1661.33 698.217 Q1662.72 699.86 1662.72 700.343 Q1662.72 700.987 1662.07 700.987 Z" fill="#000000" fill-rule="evenodd" fill-opacity="1" /><path clip-path="url(#clip480)" d="
M1680.16 829.629 L1680.16 657.373 L1676.64 657.373 L1676.64 829.629  Z
  " fill="#000000" fill-rule="evenodd" fill-opacity="1"/>
<path clip-path="url(#clip480)" d="M 0 0 M1722.35 798.808 Q1724.15 798.808 1726.18 799.356 L1756.04 806.86 Q1758.68 807.536 1758.68 809.565 Q1758.68 810.402 1758.16 810.917 Q1757.68 811.401 1756.9 811.401 Q1756.65 811.401 1755.84 811.207 L1725.5 803.703 Q1722.73 803.027 1721.35 803.027 Q1716.74 803.027 1716.74 806.602 Q1716.74 809.758 1719.06 812.914 Q1720.22 814.363 1722.32 815.781 Q1724.38 817.165 1725.12 817.423 Q1726.79 817.713 1728.08 818.132 Q1728.98 818.325 1732.49 819.259 L1738.45 820.708 Q1742.9 821.739 1743.31 821.964 Q1744.22 822.286 1744.7 822.995 Q1745.18 823.703 1745.18 824.412 Q1745.18 825.217 1744.7 825.764 Q1744.22 826.312 1743.38 826.312 Q1743.25 826.312 1742.77 826.215 Q1742.28 826.119 1741.61 825.958 Q1740.93 825.797 1740.54 825.732 L1725.31 821.9 Q1722.54 821.191 1721.67 821.03 Q1720.77 820.837 1719.77 820.837 Q1718.03 820.837 1717.39 821.384 Q1716.74 821.932 1716.74 822.898 Q1716.74 824.573 1718.74 825.668 Q1720.74 826.763 1724.6 827.697 Q1725.67 827.987 1725.89 828.18 Q1726.12 828.341 1726.12 828.824 Q1726.08 829.629 1725.44 829.629 Q1725.28 829.629 1724.25 829.371 Q1723.19 829.114 1721.64 828.631 Q1720.06 828.115 1719.06 827.568 Q1718.39 827.246 1717.94 826.956 Q1717.48 826.666 1716.78 826.086 Q1716.07 825.507 1715.68 824.637 Q1715.29 823.768 1715.29 822.705 Q1715.29 820.354 1716.81 818.615 Q1718.32 816.843 1721.03 816.618 Q1720.03 815.942 1719.13 815.072 Q1718.23 814.17 1717.32 812.914 Q1716.39 811.658 1715.84 809.951 Q1715.29 808.244 1715.29 806.409 Q1715.29 802.737 1717.2 800.773 Q1719.06 798.808 1722.35 798.808 Z" fill="#000000" fill-rule="evenodd" fill-opacity="1" /><path clip-path="url(#clip480)" d="M 0 0 M1718.39 766.912 Q1718.42 766.912 1719.58 767.105 L1748.85 774.448 Q1750.4 774.835 1751.95 775.93 Q1753.52 776.993 1754.88 778.7 Q1756.26 780.374 1757.1 782.951 Q1757.97 785.495 1757.97 788.426 Q1757.97 793.096 1756.97 795.157 Q1756 797.186 1753.94 797.186 Q1752.14 797.186 1751.11 796.059 Q1750.11 794.931 1750.11 793.643 Q1750.11 792.419 1750.82 791.775 Q1751.53 791.131 1752.43 791.131 Q1753.43 791.131 1754.43 791.807 Q1755.46 792.484 1755.84 793.836 Q1756.52 791.679 1756.52 788.555 Q1756.52 781.952 1749.53 779.118 Q1749.43 779.054 1749.4 779.054 L1740.67 776.864 L1740.61 776.96 Q1741.25 777.508 1741.99 778.377 Q1742.7 779.215 1743.57 781.018 Q1744.44 782.822 1744.44 784.593 Q1744.44 788.297 1741.61 790.841 Q1738.74 793.353 1734.01 793.353 Q1730.56 793.353 1727.11 791.968 Q1723.64 790.551 1721.09 788.361 Q1718.52 786.139 1716.91 783.305 Q1715.29 780.439 1715.29 777.669 Q1715.29 775.737 1716.45 774.094 Q1717.58 772.452 1719.45 771.55 Q1717.9 771.389 1717.26 770.519 Q1716.62 769.617 1716.62 768.845 Q1716.62 767.975 1717.1 767.46 Q1717.55 766.912 1718.39 766.912 M1722.41 772.323 Q1722.22 772.323 1721.7 772.452 Q1721.16 772.58 1720.29 772.967 Q1719.42 773.321 1718.64 773.869 Q1717.87 774.416 1717.32 775.415 Q1716.74 776.381 1716.74 777.605 Q1716.74 779.601 1718.42 781.598 Q1720.06 783.595 1722.61 784.98 Q1725.05 786.268 1729.79 787.492 Q1734.52 788.683 1736.94 788.683 Q1739.32 788.683 1741.16 787.653 Q1742.99 786.622 1742.99 784.4 Q1742.99 781.824 1740.61 779.054 Q1738.13 776.187 1736 775.704 L1723.41 772.516 Q1722.64 772.323 1722.41 772.323 Z" fill="#000000" fill-rule="evenodd" fill-opacity="1" /><path clip-path="url(#clip480)" d="M 0 0 M1724.71 760.167 Q1723.87 760.167 1723.62 760.099 Q1723.38 760.009 1722.99 759.648 L1713.12 750.788 Q1707.66 745.941 1702.91 745.941 Q1699.82 745.941 1697.61 747.564 Q1695.4 749.165 1695.4 752.118 Q1695.4 754.147 1696.64 755.861 Q1697.88 757.574 1700.09 758.363 Q1700.04 758.228 1700.04 757.754 Q1700.04 756.605 1700.76 755.973 Q1701.49 755.32 1702.45 755.32 Q1703.69 755.32 1704.3 756.131 Q1704.89 756.92 1704.89 757.709 Q1704.89 758.025 1704.82 758.453 Q1704.75 758.859 1704.12 759.513 Q1703.47 760.167 1702.32 760.167 Q1699.1 760.167 1696.53 757.732 Q1693.96 755.274 1693.96 751.532 Q1693.96 747.294 1696.48 744.521 Q1698.98 741.725 1702.91 741.725 Q1704.28 741.725 1705.54 742.154 Q1706.78 742.56 1707.75 743.123 Q1708.72 743.664 1710.28 745.152 Q1711.83 746.64 1712.94 747.835 Q1714.04 749.03 1716.39 751.713 L1721.14 756.605 L1721.14 748.286 Q1721.14 744.228 1720.78 743.912 Q1720.13 743.461 1716.68 742.898 L1716.68 741.725 L1724.71 743.033 L1724.71 760.167 Z" fill="#000000" fill-rule="evenodd" fill-opacity="1" /><path clip-path="url(#clip480)" d="M 0 0 M1719.9 695.899 Q1722.9 695.899 1728.69 697.413 Q1731.2 698.025 1733.49 698.862 Q1735.75 699.667 1737.94 700.859 Q1740.13 702.05 1741.7 703.435 Q1743.25 704.82 1744.22 706.624 Q1745.18 708.427 1745.18 710.424 Q1745.18 713.58 1743.31 715.448 Q1741.41 717.284 1738.16 717.864 Q1745.18 722.179 1745.18 727.944 Q1745.18 731.519 1742.64 733.194 Q1740.06 734.868 1735.75 734.868 Q1732.11 734.868 1728.34 733.902 Q1721.19 732.066 1716.2 728.491 Q1715.62 728.008 1715.62 727.3 Q1715.62 726.881 1715.75 726.688 Q1716.1 726.108 1716.68 726.108 Q1717.1 726.108 1717.52 726.43 Q1720.64 728.685 1723.31 730.166 Q1725.99 731.648 1728.69 732.324 Q1731.01 732.839 1732.98 732.839 Q1736.29 732.839 1738.35 731.422 Q1740.42 729.973 1740.42 727.107 Q1740.42 724.466 1738.77 722.147 Q1737.1 719.828 1734.3 718.121 Q1731.24 718.025 1728.34 717.284 Q1725.25 716.607 1725.25 715.029 Q1725.25 713.773 1726.95 713.773 Q1727.53 713.773 1728.69 714.031 Q1731.75 714.74 1734.49 716.028 Q1737.16 715.577 1738.81 713.902 Q1740.42 712.227 1740.42 709.554 Q1740.42 707.075 1738.61 704.885 Q1736.81 702.662 1734.17 701.245 Q1731.49 699.796 1728.34 698.991 Q1727.28 698.733 1725.92 698.733 Q1722.32 698.733 1720.09 701.245 Q1719.39 701.954 1718.45 701.954 Q1717.36 701.954 1716.36 701.052 Q1715.29 699.989 1715.29 698.733 Q1715.29 697.799 1715.87 697.22 Q1717.03 695.899 1719.9 695.899 Z" fill="#000000" fill-rule="evenodd" fill-opacity="1" /><path clip-path="url(#clip480)" d="M 0 0 M1751.95 671.458 Q1752.16 671.277 1752.36 671.277 Q1752.56 671.277 1753.15 671.728 Q1753.74 672.156 1754.53 673.081 Q1755.31 674.005 1756.06 675.2 Q1756.8 676.395 1757.3 678.153 Q1757.82 679.912 1757.82 681.76 Q1757.82 685.209 1755.54 687.238 Q1753.26 689.245 1749.99 689.245 Q1746.81 689.245 1743.77 687.464 Q1740.71 685.683 1738.81 682.797 Q1736.9 679.912 1736.9 676.868 Q1736.9 674.456 1738.02 672.945 Q1739.15 671.435 1740.86 671.435 Q1742.19 671.435 1743 672.202 Q1743.82 672.968 1743.82 674.005 Q1743.82 674.726 1743.41 675.222 Q1742.98 675.718 1742.19 675.718 Q1741.18 675.718 1740.39 674.884 Q1740.07 674.569 1739.94 674.208 Q1739.78 673.825 1739.78 673.599 Q1739.76 673.374 1739.76 672.855 Q1738.88 673.329 1738.41 674.456 Q1737.91 675.561 1737.91 676.823 Q1737.91 678.694 1739.22 680.475 Q1740.5 682.256 1742.53 683.338 Q1744.52 684.42 1747.33 685.119 Q1750.13 685.818 1751.75 685.818 Q1753.98 685.818 1755.38 684.781 Q1756.78 683.744 1756.78 681.67 Q1756.78 681.264 1756.76 680.836 Q1756.73 680.385 1756.49 679.258 Q1756.24 678.108 1755.81 677.094 Q1755.38 676.079 1754.46 674.794 Q1753.51 673.487 1752.23 672.45 Q1751.75 672.089 1751.75 671.841 Q1751.75 671.638 1751.95 671.458 Z" fill="#000000" fill-rule="evenodd" fill-opacity="1" /><polyline clip-path="url(#clip484)" style="stroke:#009af9; stroke-width:8; stroke-opacity:1; fill:none" points="
  1935.68,1377.71 1941.62,1407.19 1947.56,1405.58 1953.49,1367.19 1959.43,1300.66 1965.37,1216.52 1971.31,1123.33 1977.25,1027.02 1983.18,931.487 1989.12,839.182 
  1995.06,751.638 2001,669.764 2006.94,594.049 2012.87,524.697 2018.81,461.711 2024.75,404.953 2030.69,354.195 2036.62,309.143 2042.56,269.465 2048.5,234.807 
  2054.44,204.804 2060.38,179.092 2066.31,157.316 2072.25,139.128 2078.19,124.2 2084.13,112.218 2090.06,102.886 2096,95.9309 2101.94,91.0952 2107.88,88.1423 
  2113.82,86.8541 2119.75,87.0303 2125.69,88.4879 2131.63,91.0601 2137.57,94.5955 2143.51,98.9571 2149.44,104.021 2155.38,109.677 2161.32,115.823 2167.26,122.372 
  2173.19,129.243 2179.13,136.367 2185.07,143.679 2191.01,151.126 2196.95,158.658 2202.88,166.233 2208.82,173.814 2214.76,181.369 2220.7,188.87 2226.63,196.294 
  2232.57,203.621 2238.51,210.833 2244.45,217.918 2250.39,224.863 2256.32,231.659 2262.26,238.299 2268.2,244.777 2274.14,251.09 2280.07,257.235 2286.01,263.209 
  2291.95,269.014 2297.89,274.649 2303.83,280.115 2309.76,285.414 2315.7,290.548 2321.64,295.521 2327.58,300.335 2333.52,304.994 2339.45,309.501 2345.39,313.861 
  2351.33,318.077 2357.27,322.153 2363.2,326.094 2369.14,329.903 2375.08,333.586 2381.02,337.146 2386.96,340.587 2392.89,343.914 2398.83,347.13 2404.77,350.24 
  2410.71,353.247 2416.64,356.155 2422.58,358.969 2428.52,361.691 2434.46,364.324 2440.4,366.874 2446.33,369.341 2452.27,371.731 2458.21,374.046 2464.15,376.288 
  2470.08,378.461 2476.02,380.567 2481.96,382.609 2487.9,384.59 2493.84,386.512 2499.77,388.376 2505.71,390.187 2511.65,391.945 2517.59,393.652 2523.53,395.311 
  2529.46,396.924 2535.4,398.491 2541.34,400.016 2547.28,401.499 2553.21,402.943 2559.15,404.348 2565.09,405.716 2571.03,407.049 2576.97,408.348 2582.9,409.614 
  2588.84,410.848 2594.78,412.051 2600.72,413.225 2606.65,414.371 2612.59,415.489 2618.53,416.581 2624.47,417.647 2630.41,418.689 2636.34,419.707 2642.28,420.702 
  2648.22,421.674 2654.16,422.626 2660.1,423.556 2666.03,424.467 2671.97,425.358 2677.91,426.23 2683.85,427.084 2689.78,427.921 2695.72,428.74 2701.66,429.543 
  2707.6,430.33 2713.54,431.102 2719.47,431.858 2725.41,432.6 2731.35,433.327 2737.29,434.041 2743.22,434.741 2749.16,435.429 2755.1,436.104 2761.04,436.766 
  2766.98,437.417 2772.91,438.056 2778.85,438.684 2784.79,439.301 2790.73,439.907 2796.66,440.503 2802.6,441.088 2808.54,441.664 2814.48,442.231 2820.42,442.787 
  2826.35,443.335 2832.29,443.874 2838.23,444.404 2844.17,444.926 2850.11,445.44 2856.04,445.945 2861.98,446.443 2867.92,446.933 2873.86,447.416 2879.79,447.891 
  2885.73,448.359 2891.67,448.82 2897.61,449.275 2903.55,449.722 2909.48,450.163 2915.42,450.598 2921.36,451.027 2927.3,451.449 2933.23,451.866 2939.17,452.276 
  2945.11,452.681 2951.05,453.081 2956.99,453.475 2962.92,453.863 2968.86,454.247 2974.8,454.625 2980.74,454.998 2986.68,455.367 2992.61,455.73 2998.55,456.089 
  3004.49,456.443 3010.43,456.792 3016.36,457.138 3022.3,457.478 3028.24,457.815 3034.18,458.147 3040.12,458.475 3046.05,458.799 3051.99,459.119 3057.93,459.435 
  3063.87,459.748 3069.8,460.056 3075.74,460.361 3081.68,460.663 3087.62,460.96 3093.56,461.255 3099.49,461.545 3105.43,461.833 3111.37,462.117 3117.31,462.398 
  
  "/>
</svg>
