<?xml version="1.0" encoding="utf-8"?>
<svg xmlns="http://www.w3.org/2000/svg" xmlns:xlink="http://www.w3.org/1999/xlink" width="576" height="384" viewBox="0 0 2304 1536">
<defs>
  <clipPath id="clip020">
    <rect x="0" y="0" width="2304" height="1536"/>
  </clipPath>
</defs>
<path clip-path="url(#clip020)" d="
M0 1536 L2304 1536 L2304 0 L0 0  Z
  " fill="#ffffff" fill-rule="evenodd" fill-opacity="1"/>
<defs>
  <clipPath id="clip021">
    <rect x="460" y="0" width="1614" height="1536"/>
  </clipPath>
</defs>
<path clip-path="url(#clip020)" d="
M224.763 1359.82 L2256.76 1359.82 L2256.76 47.2441 L224.763 47.2441  Z
  " fill="#ffffff" fill-rule="evenodd" fill-opacity="1"/>
<defs>
  <clipPath id="clip022">
    <rect x="224" y="47" width="2033" height="1314"/>
  </clipPath>
</defs>
<polyline clip-path="url(#clip022)" style="stroke:#000000; stroke-width:2; stroke-opacity:0.1; fill:none" points="
  282.272,1359.82 282.272,47.2441 
  "/>
<polyline clip-path="url(#clip022)" style="stroke:#000000; stroke-width:2; stroke-opacity:0.1; fill:none" points="
  761.516,1359.82 761.516,47.2441 
  "/>
<polyline clip-path="url(#clip022)" style="stroke:#000000; stroke-width:2; stroke-opacity:0.1; fill:none" points="
  1240.76,1359.82 1240.76,47.2441 
  "/>
<polyline clip-path="url(#clip022)" style="stroke:#000000; stroke-width:2; stroke-opacity:0.1; fill:none" points="
  1720,1359.82 1720,47.2441 
  "/>
<polyline clip-path="url(#clip022)" style="stroke:#000000; stroke-width:2; stroke-opacity:0.1; fill:none" points="
  2199.25,1359.82 2199.25,47.2441 
  "/>
<polyline clip-path="url(#clip022)" style="stroke:#000000; stroke-width:2; stroke-opacity:0.1; fill:none" points="
  224.763,1334.67 2256.76,1334.67 
  "/>
<polyline clip-path="url(#clip022)" style="stroke:#000000; stroke-width:2; stroke-opacity:0.1; fill:none" points="
  224.763,1022.1 2256.76,1022.1 
  "/>
<polyline clip-path="url(#clip022)" style="stroke:#000000; stroke-width:2; stroke-opacity:0.1; fill:none" points="
  224.763,709.53 2256.76,709.53 
  "/>
<polyline clip-path="url(#clip022)" style="stroke:#000000; stroke-width:2; stroke-opacity:0.1; fill:none" points="
  224.763,396.961 2256.76,396.961 
  "/>
<polyline clip-path="url(#clip022)" style="stroke:#000000; stroke-width:2; stroke-opacity:0.1; fill:none" points="
  224.763,84.3925 2256.76,84.3925 
  "/>
<polyline clip-path="url(#clip020)" style="stroke:#000000; stroke-width:4; stroke-opacity:1; fill:none" points="
  224.763,1359.82 2256.76,1359.82 
  "/>
<polyline clip-path="url(#clip020)" style="stroke:#000000; stroke-width:4; stroke-opacity:1; fill:none" points="
  224.763,1359.82 224.763,47.2441 
  "/>
<polyline clip-path="url(#clip020)" style="stroke:#000000; stroke-width:4; stroke-opacity:1; fill:none" points="
  282.272,1359.82 282.272,1344.07 
  "/>
<polyline clip-path="url(#clip020)" style="stroke:#000000; stroke-width:4; stroke-opacity:1; fill:none" points="
  761.516,1359.82 761.516,1344.07 
  "/>
<polyline clip-path="url(#clip020)" style="stroke:#000000; stroke-width:4; stroke-opacity:1; fill:none" points="
  1240.76,1359.82 1240.76,1344.07 
  "/>
<polyline clip-path="url(#clip020)" style="stroke:#000000; stroke-width:4; stroke-opacity:1; fill:none" points="
  1720,1359.82 1720,1344.07 
  "/>
<polyline clip-path="url(#clip020)" style="stroke:#000000; stroke-width:4; stroke-opacity:1; fill:none" points="
  2199.25,1359.82 2199.25,1344.07 
  "/>
<polyline clip-path="url(#clip020)" style="stroke:#000000; stroke-width:4; stroke-opacity:1; fill:none" points="
  224.763,1334.67 249.147,1334.67 
  "/>
<polyline clip-path="url(#clip020)" style="stroke:#000000; stroke-width:4; stroke-opacity:1; fill:none" points="
  224.763,1022.1 249.147,1022.1 
  "/>
<polyline clip-path="url(#clip020)" style="stroke:#000000; stroke-width:4; stroke-opacity:1; fill:none" points="
  224.763,709.53 249.147,709.53 
  "/>
<polyline clip-path="url(#clip020)" style="stroke:#000000; stroke-width:4; stroke-opacity:1; fill:none" points="
  224.763,396.961 249.147,396.961 
  "/>
<polyline clip-path="url(#clip020)" style="stroke:#000000; stroke-width:4; stroke-opacity:1; fill:none" points="
  224.763,84.3925 249.147,84.3925 
  "/>
<path clip-path="url(#clip020)" d="M 0 0 M263.788 1381.33 Q260.177 1381.33 258.348 1384.9 Q256.543 1388.44 256.543 1395.57 Q256.543 1402.67 258.348 1406.24 Q260.177 1409.78 263.788 1409.78 Q267.422 1409.78 269.228 1406.24 Q271.057 1402.67 271.057 1395.57 Q271.057 1388.44 269.228 1384.9 Q267.422 1381.33 263.788 1381.33 M263.788 1377.63 Q269.598 1377.63 272.654 1382.23 Q275.733 1386.82 275.733 1395.57 Q275.733 1404.29 272.654 1408.9 Q269.598 1413.48 263.788 1413.48 Q257.978 1413.48 254.899 1408.9 Q251.844 1404.29 251.844 1395.57 Q251.844 1386.82 254.899 1382.23 Q257.978 1377.63 263.788 1377.63 Z" fill="#000000" fill-rule="evenodd" fill-opacity="1" /><path clip-path="url(#clip020)" d="M 0 0 M280.802 1406.93 L285.686 1406.93 L285.686 1412.81 L280.802 1412.81 L280.802 1406.93 Z" fill="#000000" fill-rule="evenodd" fill-opacity="1" /><path clip-path="url(#clip020)" d="M 0 0 M300.756 1381.33 Q297.145 1381.33 295.316 1384.9 Q293.51 1388.44 293.51 1395.57 Q293.51 1402.67 295.316 1406.24 Q297.145 1409.78 300.756 1409.78 Q304.39 1409.78 306.195 1406.24 Q308.024 1402.67 308.024 1395.57 Q308.024 1388.44 306.195 1384.9 Q304.39 1381.33 300.756 1381.33 M300.756 1377.63 Q306.566 1377.63 309.621 1382.23 Q312.7 1386.82 312.7 1395.57 Q312.7 1404.29 309.621 1408.9 Q306.566 1413.48 300.756 1413.48 Q294.946 1413.48 291.867 1408.9 Q288.811 1404.29 288.811 1395.57 Q288.811 1386.82 291.867 1382.23 Q294.946 1377.63 300.756 1377.63 Z" fill="#000000" fill-rule="evenodd" fill-opacity="1" /><path clip-path="url(#clip020)" d="M 0 0 M738.182 1408.88 L754.502 1408.88 L754.502 1412.81 L732.557 1412.81 L732.557 1408.88 Q735.219 1406.12 739.803 1401.49 Q744.409 1396.84 745.59 1395.5 Q747.835 1392.97 748.715 1391.24 Q749.618 1389.48 749.618 1387.79 Q749.618 1385.03 747.673 1383.3 Q745.752 1381.56 742.65 1381.56 Q740.451 1381.56 737.997 1382.33 Q735.567 1383.09 732.789 1384.64 L732.789 1379.92 Q735.613 1378.78 738.067 1378.21 Q740.52 1377.63 742.557 1377.63 Q747.928 1377.63 751.122 1380.31 Q754.317 1383 754.317 1387.49 Q754.317 1389.62 753.506 1391.54 Q752.719 1393.44 750.613 1396.03 Q750.034 1396.7 746.932 1399.92 Q743.831 1403.11 738.182 1408.88 Z" fill="#000000" fill-rule="evenodd" fill-opacity="1" /><path clip-path="url(#clip020)" d="M 0 0 M759.571 1406.93 L764.455 1406.93 L764.455 1412.81 L759.571 1412.81 L759.571 1406.93 Z" fill="#000000" fill-rule="evenodd" fill-opacity="1" /><path clip-path="url(#clip020)" d="M 0 0 M769.571 1378.25 L787.928 1378.25 L787.928 1382.19 L773.854 1382.19 L773.854 1390.66 Q774.872 1390.31 775.891 1390.15 Q776.909 1389.96 777.928 1389.96 Q783.715 1389.96 787.094 1393.14 Q790.474 1396.31 790.474 1401.72 Q790.474 1407.3 787.002 1410.4 Q783.529 1413.48 777.21 1413.48 Q775.034 1413.48 772.766 1413.11 Q770.52 1412.74 768.113 1412 L768.113 1407.3 Q770.196 1408.44 772.418 1408.99 Q774.641 1409.55 777.117 1409.55 Q781.122 1409.55 783.46 1407.44 Q785.798 1405.34 785.798 1401.72 Q785.798 1398.11 783.46 1396.01 Q781.122 1393.9 777.117 1393.9 Q775.242 1393.9 773.367 1394.32 Q771.516 1394.73 769.571 1395.61 L769.571 1378.25 Z" fill="#000000" fill-rule="evenodd" fill-opacity="1" /><path clip-path="url(#clip020)" d="M 0 0 M1212.55 1378.25 L1230.91 1378.25 L1230.91 1382.19 L1216.84 1382.19 L1216.84 1390.66 Q1217.85 1390.31 1218.87 1390.15 Q1219.89 1389.96 1220.91 1389.96 Q1226.7 1389.96 1230.08 1393.14 Q1233.46 1396.31 1233.46 1401.72 Q1233.46 1407.3 1229.98 1410.4 Q1226.51 1413.48 1220.19 1413.48 Q1218.02 1413.48 1215.75 1413.11 Q1213.5 1412.74 1211.1 1412 L1211.1 1407.3 Q1213.18 1408.44 1215.4 1408.99 Q1217.62 1409.55 1220.1 1409.55 Q1224.1 1409.55 1226.44 1407.44 Q1228.78 1405.34 1228.78 1401.72 Q1228.78 1398.11 1226.44 1396.01 Q1224.1 1393.9 1220.1 1393.9 Q1218.22 1393.9 1216.35 1394.32 Q1214.5 1394.73 1212.55 1395.61 L1212.55 1378.25 Z" fill="#000000" fill-rule="evenodd" fill-opacity="1" /><path clip-path="url(#clip020)" d="M 0 0 M1238.53 1406.93 L1243.41 1406.93 L1243.41 1412.81 L1238.53 1412.81 L1238.53 1406.93 Z" fill="#000000" fill-rule="evenodd" fill-opacity="1" /><path clip-path="url(#clip020)" d="M 0 0 M1258.48 1381.33 Q1254.87 1381.33 1253.04 1384.9 Q1251.23 1388.44 1251.23 1395.57 Q1251.23 1402.67 1253.04 1406.24 Q1254.87 1409.78 1258.48 1409.78 Q1262.11 1409.78 1263.92 1406.24 Q1265.75 1402.67 1265.75 1395.57 Q1265.75 1388.44 1263.92 1384.9 Q1262.11 1381.33 1258.48 1381.33 M1258.48 1377.63 Q1264.29 1377.63 1267.34 1382.23 Q1270.42 1386.82 1270.42 1395.57 Q1270.42 1404.29 1267.34 1408.9 Q1264.29 1413.48 1258.48 1413.48 Q1252.67 1413.48 1249.59 1408.9 Q1246.53 1404.29 1246.53 1395.57 Q1246.53 1386.82 1249.59 1382.23 Q1252.67 1377.63 1258.48 1377.63 Z" fill="#000000" fill-rule="evenodd" fill-opacity="1" /><path clip-path="url(#clip020)" d="M 0 0 M1690.91 1378.25 L1713.13 1378.25 L1713.13 1380.24 L1700.58 1412.81 L1695.7 1412.81 L1707.5 1382.19 L1690.91 1382.19 L1690.91 1378.25 Z" fill="#000000" fill-rule="evenodd" fill-opacity="1" /><path clip-path="url(#clip020)" d="M 0 0 M1718.2 1406.93 L1723.08 1406.93 L1723.08 1412.81 L1718.2 1412.81 L1718.2 1406.93 Z" fill="#000000" fill-rule="evenodd" fill-opacity="1" /><path clip-path="url(#clip020)" d="M 0 0 M1728.2 1378.25 L1746.55 1378.25 L1746.55 1382.19 L1732.48 1382.19 L1732.48 1390.66 Q1733.5 1390.31 1734.52 1390.15 Q1735.54 1389.96 1736.55 1389.96 Q1742.34 1389.96 1745.72 1393.14 Q1749.1 1396.31 1749.1 1401.72 Q1749.1 1407.3 1745.63 1410.4 Q1742.16 1413.48 1735.84 1413.48 Q1733.66 1413.48 1731.39 1413.11 Q1729.15 1412.74 1726.74 1412 L1726.74 1407.3 Q1728.82 1408.44 1731.04 1408.99 Q1733.27 1409.55 1735.74 1409.55 Q1739.75 1409.55 1742.09 1407.44 Q1744.42 1405.34 1744.42 1401.72 Q1744.42 1398.11 1742.09 1396.01 Q1739.75 1393.9 1735.74 1393.9 Q1733.87 1393.9 1731.99 1394.32 Q1730.14 1394.73 1728.2 1395.61 L1728.2 1378.25 Z" fill="#000000" fill-rule="evenodd" fill-opacity="1" /><path clip-path="url(#clip020)" d="M 0 0 M2157.64 1408.88 L2165.28 1408.88 L2165.28 1382.51 L2156.97 1384.18 L2156.97 1379.92 L2165.23 1378.25 L2169.91 1378.25 L2169.91 1408.88 L2177.55 1408.88 L2177.55 1412.81 L2157.64 1412.81 L2157.64 1408.88 Z" fill="#000000" fill-rule="evenodd" fill-opacity="1" /><path clip-path="url(#clip020)" d="M 0 0 M2192.61 1381.33 Q2189 1381.33 2187.17 1384.9 Q2185.37 1388.44 2185.37 1395.57 Q2185.37 1402.67 2187.17 1406.24 Q2189 1409.78 2192.61 1409.78 Q2196.25 1409.78 2198.05 1406.24 Q2199.88 1402.67 2199.88 1395.57 Q2199.88 1388.44 2198.05 1384.9 Q2196.25 1381.33 2192.61 1381.33 M2192.61 1377.63 Q2198.42 1377.63 2201.48 1382.23 Q2204.56 1386.82 2204.56 1395.57 Q2204.56 1404.29 2201.48 1408.9 Q2198.42 1413.48 2192.61 1413.48 Q2186.8 1413.48 2183.73 1408.9 Q2180.67 1404.29 2180.67 1395.57 Q2180.67 1386.82 2183.73 1382.23 Q2186.8 1377.63 2192.61 1377.63 Z" fill="#000000" fill-rule="evenodd" fill-opacity="1" /><path clip-path="url(#clip020)" d="M 0 0 M2209.63 1406.93 L2214.51 1406.93 L2214.51 1412.81 L2209.63 1412.81 L2209.63 1406.93 Z" fill="#000000" fill-rule="evenodd" fill-opacity="1" /><path clip-path="url(#clip020)" d="M 0 0 M2229.58 1381.33 Q2225.97 1381.33 2224.14 1384.9 Q2222.34 1388.44 2222.34 1395.57 Q2222.34 1402.67 2224.14 1406.24 Q2225.97 1409.78 2229.58 1409.78 Q2233.22 1409.78 2235.02 1406.24 Q2236.85 1402.67 2236.85 1395.57 Q2236.85 1388.44 2235.02 1384.9 Q2233.22 1381.33 2229.58 1381.33 M2229.58 1377.63 Q2235.39 1377.63 2238.45 1382.23 Q2241.53 1386.82 2241.53 1395.57 Q2241.53 1404.29 2238.45 1408.9 Q2235.39 1413.48 2229.58 1413.48 Q2223.77 1413.48 2220.69 1408.9 Q2217.64 1404.29 2217.64 1395.57 Q2217.64 1386.82 2220.69 1382.23 Q2223.77 1377.63 2229.58 1377.63 Z" fill="#000000" fill-rule="evenodd" fill-opacity="1" /><path clip-path="url(#clip020)" d="M 0 0 M126.492 1337.06 L138.968 1337.06 L138.968 1340.86 L126.492 1340.86 L126.492 1337.06 Z" fill="#000000" fill-rule="evenodd" fill-opacity="1" /><path clip-path="url(#clip020)" d="M 0 0 M144.848 1348.01 L152.487 1348.01 L152.487 1321.65 L144.177 1323.31 L144.177 1319.05 L152.441 1317.39 L157.116 1317.39 L157.116 1348.01 L164.755 1348.01 L164.755 1351.95 L144.848 1351.95 L144.848 1348.01 Z" fill="#000000" fill-rule="evenodd" fill-opacity="1" /><path clip-path="url(#clip020)" d="M 0 0 M169.825 1346.07 L174.709 1346.07 L174.709 1351.95 L169.825 1351.95 L169.825 1346.07 Z" fill="#000000" fill-rule="evenodd" fill-opacity="1" /><path clip-path="url(#clip020)" d="M 0 0 M189.778 1320.47 Q186.167 1320.47 184.339 1324.03 Q182.533 1327.57 182.533 1334.7 Q182.533 1341.81 184.339 1345.37 Q186.167 1348.92 189.778 1348.92 Q193.413 1348.92 195.218 1345.37 Q197.047 1341.81 197.047 1334.7 Q197.047 1327.57 195.218 1324.03 Q193.413 1320.47 189.778 1320.47 M189.778 1316.76 Q195.588 1316.76 198.644 1321.37 Q201.723 1325.95 201.723 1334.7 Q201.723 1343.43 198.644 1348.04 Q195.588 1352.62 189.778 1352.62 Q183.968 1352.62 180.889 1348.04 Q177.834 1343.43 177.834 1334.7 Q177.834 1325.95 180.889 1321.37 Q183.968 1316.76 189.778 1316.76 Z" fill="#000000" fill-rule="evenodd" fill-opacity="1" /><path clip-path="url(#clip020)" d="M 0 0 M126.26 1024.5 L138.737 1024.5 L138.737 1028.29 L126.26 1028.29 L126.26 1024.5 Z" fill="#000000" fill-rule="evenodd" fill-opacity="1" /><path clip-path="url(#clip020)" d="M 0 0 M153.806 1007.9 Q150.195 1007.9 148.367 1011.46 Q146.561 1015 146.561 1022.13 Q146.561 1029.24 148.367 1032.81 Q150.195 1036.35 153.806 1036.35 Q157.441 1036.35 159.246 1032.81 Q161.075 1029.24 161.075 1022.13 Q161.075 1015 159.246 1011.46 Q157.441 1007.9 153.806 1007.9 M153.806 1004.19 Q159.616 1004.19 162.672 1008.8 Q165.751 1013.38 165.751 1022.13 Q165.751 1030.86 162.672 1035.47 Q159.616 1040.05 153.806 1040.05 Q147.996 1040.05 144.917 1035.47 Q141.862 1030.86 141.862 1022.13 Q141.862 1013.38 144.917 1008.8 Q147.996 1004.19 153.806 1004.19 Z" fill="#000000" fill-rule="evenodd" fill-opacity="1" /><path clip-path="url(#clip020)" d="M 0 0 M170.82 1033.5 L175.704 1033.5 L175.704 1039.38 L170.82 1039.38 L170.82 1033.5 Z" fill="#000000" fill-rule="evenodd" fill-opacity="1" /><path clip-path="url(#clip020)" d="M 0 0 M180.82 1004.82 L199.176 1004.82 L199.176 1008.75 L185.102 1008.75 L185.102 1017.23 Q186.121 1016.88 187.139 1016.72 Q188.158 1016.53 189.176 1016.53 Q194.963 1016.53 198.343 1019.7 Q201.723 1022.87 201.723 1028.29 Q201.723 1033.87 198.251 1036.97 Q194.778 1040.05 188.459 1040.05 Q186.283 1040.05 184.014 1039.68 Q181.769 1039.31 179.362 1038.57 L179.362 1033.87 Q181.445 1035 183.667 1035.56 Q185.889 1036.12 188.366 1036.12 Q192.371 1036.12 194.709 1034.01 Q197.047 1031.9 197.047 1028.29 Q197.047 1024.68 194.709 1022.57 Q192.371 1020.47 188.366 1020.47 Q186.491 1020.47 184.616 1020.88 Q182.764 1021.3 180.82 1022.18 L180.82 1004.82 Z" fill="#000000" fill-rule="evenodd" fill-opacity="1" /><path clip-path="url(#clip020)" d="M 0 0 M152.811 695.329 Q149.2 695.329 147.371 698.894 Q145.566 702.435 145.566 709.565 Q145.566 716.672 147.371 720.236 Q149.2 723.778 152.811 723.778 Q156.445 723.778 158.251 720.236 Q160.079 716.672 160.079 709.565 Q160.079 702.435 158.251 698.894 Q156.445 695.329 152.811 695.329 M152.811 691.625 Q158.621 691.625 161.677 696.232 Q164.755 700.815 164.755 709.565 Q164.755 718.292 161.677 722.898 Q158.621 727.482 152.811 727.482 Q147.001 727.482 143.922 722.898 Q140.867 718.292 140.867 709.565 Q140.867 700.815 143.922 696.232 Q147.001 691.625 152.811 691.625 Z" fill="#000000" fill-rule="evenodd" fill-opacity="1" /><path clip-path="url(#clip020)" d="M 0 0 M169.825 720.931 L174.709 720.931 L174.709 726.81 L169.825 726.81 L169.825 720.931 Z" fill="#000000" fill-rule="evenodd" fill-opacity="1" /><path clip-path="url(#clip020)" d="M 0 0 M189.778 695.329 Q186.167 695.329 184.339 698.894 Q182.533 702.435 182.533 709.565 Q182.533 716.672 184.339 720.236 Q186.167 723.778 189.778 723.778 Q193.413 723.778 195.218 720.236 Q197.047 716.672 197.047 709.565 Q197.047 702.435 195.218 698.894 Q193.413 695.329 189.778 695.329 M189.778 691.625 Q195.588 691.625 198.644 696.232 Q201.723 700.815 201.723 709.565 Q201.723 718.292 198.644 722.898 Q195.588 727.482 189.778 727.482 Q183.968 727.482 180.889 722.898 Q177.834 718.292 177.834 709.565 Q177.834 700.815 180.889 696.232 Q183.968 691.625 189.778 691.625 Z" fill="#000000" fill-rule="evenodd" fill-opacity="1" /><path clip-path="url(#clip020)" d="M 0 0 M153.806 382.76 Q150.195 382.76 148.367 386.325 Q146.561 389.867 146.561 396.996 Q146.561 404.103 148.367 407.667 Q150.195 411.209 153.806 411.209 Q157.441 411.209 159.246 407.667 Q161.075 404.103 161.075 396.996 Q161.075 389.867 159.246 386.325 Q157.441 382.76 153.806 382.76 M153.806 379.056 Q159.616 379.056 162.672 383.663 Q165.751 388.246 165.751 396.996 Q165.751 405.723 162.672 410.329 Q159.616 414.913 153.806 414.913 Q147.996 414.913 144.917 410.329 Q141.862 405.723 141.862 396.996 Q141.862 388.246 144.917 383.663 Q147.996 379.056 153.806 379.056 Z" fill="#000000" fill-rule="evenodd" fill-opacity="1" /><path clip-path="url(#clip020)" d="M 0 0 M170.82 408.362 L175.704 408.362 L175.704 414.241 L170.82 414.241 L170.82 408.362 Z" fill="#000000" fill-rule="evenodd" fill-opacity="1" /><path clip-path="url(#clip020)" d="M 0 0 M180.82 379.681 L199.176 379.681 L199.176 383.617 L185.102 383.617 L185.102 392.089 Q186.121 391.742 187.139 391.579 Q188.158 391.394 189.176 391.394 Q194.963 391.394 198.343 394.566 Q201.723 397.737 201.723 403.154 Q201.723 408.732 198.251 411.834 Q194.778 414.913 188.459 414.913 Q186.283 414.913 184.014 414.542 Q181.769 414.172 179.362 413.431 L179.362 408.732 Q181.445 409.866 183.667 410.422 Q185.889 410.978 188.366 410.978 Q192.371 410.978 194.709 408.871 Q197.047 406.765 197.047 403.154 Q197.047 399.542 194.709 397.436 Q192.371 395.329 188.366 395.329 Q186.491 395.329 184.616 395.746 Q182.764 396.163 180.82 397.042 L180.82 379.681 Z" fill="#000000" fill-rule="evenodd" fill-opacity="1" /><path clip-path="url(#clip020)" d="M 0 0 M144.848 97.7373 L152.487 97.7373 L152.487 71.3717 L144.177 73.0384 L144.177 68.7791 L152.441 67.1125 L157.116 67.1125 L157.116 97.7373 L164.755 97.7373 L164.755 101.672 L144.848 101.672 L144.848 97.7373 Z" fill="#000000" fill-rule="evenodd" fill-opacity="1" /><path clip-path="url(#clip020)" d="M 0 0 M169.825 95.7929 L174.709 95.7929 L174.709 101.672 L169.825 101.672 L169.825 95.7929 Z" fill="#000000" fill-rule="evenodd" fill-opacity="1" /><path clip-path="url(#clip020)" d="M 0 0 M189.778 70.1912 Q186.167 70.1912 184.339 73.7559 Q182.533 77.2976 182.533 84.4272 Q182.533 91.5336 184.339 95.0984 Q186.167 98.6401 189.778 98.6401 Q193.413 98.6401 195.218 95.0984 Q197.047 91.5336 197.047 84.4272 Q197.047 77.2976 195.218 73.7559 Q193.413 70.1912 189.778 70.1912 M189.778 66.4875 Q195.588 66.4875 198.644 71.0939 Q201.723 75.6772 201.723 84.4272 Q201.723 93.154 198.644 97.7604 Q195.588 102.344 189.778 102.344 Q183.968 102.344 180.889 97.7604 Q177.834 93.154 177.834 84.4272 Q177.834 75.6772 180.889 71.0939 Q183.968 66.4875 189.778 66.4875 Z" fill="#000000" fill-rule="evenodd" fill-opacity="1" /><path clip-path="url(#clip020)" d="M 0 0 M1252.47 1457.13 L1252.47 1462.66 Q1249.99 1461.39 1247.32 1460.75 Q1244.64 1460.12 1241.78 1460.12 Q1237.42 1460.12 1235.22 1461.45 Q1233.06 1462.79 1233.06 1465.47 Q1233.06 1467.5 1234.62 1468.68 Q1236.18 1469.83 1240.89 1470.88 L1242.89 1471.32 Q1249.13 1472.66 1251.74 1475.11 Q1254.38 1477.53 1254.38 1481.89 Q1254.38 1486.85 1250.44 1489.75 Q1246.52 1492.65 1239.65 1492.65 Q1236.78 1492.65 1233.66 1492.07 Q1230.57 1491.53 1227.14 1490.42 L1227.14 1484.37 Q1230.38 1486.06 1233.53 1486.92 Q1236.69 1487.75 1239.77 1487.75 Q1243.91 1487.75 1246.14 1486.34 Q1248.37 1484.91 1248.37 1482.33 Q1248.37 1479.95 1246.74 1478.67 Q1245.15 1477.4 1239.71 1476.22 L1237.67 1475.75 Q1232.23 1474.6 1229.81 1472.24 Q1227.39 1469.86 1227.39 1465.72 Q1227.39 1460.69 1230.96 1457.95 Q1234.52 1455.22 1241.08 1455.22 Q1244.32 1455.22 1247.19 1455.69 Q1250.05 1456.17 1252.47 1457.13 Z" fill="#000000" fill-rule="evenodd" fill-opacity="1" /><path clip-path="url(#clip020)" d="M 0 0 M56.881 728.295 L68.5621 761.142 L80.1795 728.295 L85.9723 728.295 L71.172 769.099 L65.8885 769.099 L51.0882 728.295 L56.881 728.295 Z" fill="#000000" fill-rule="evenodd" fill-opacity="1" /><path clip-path="url(#clip020)" d="M 0 0 M41.4442 724.189 L41.4442 717.282 L59.109 705.474 L41.4442 693.601 L41.4442 686.695 L64.2652 701.972 L88.9642 685.676 L88.9642 692.583 L68.753 705.951 L88.9642 719.414 L88.9642 726.353 L63.5968 709.388 L41.4442 724.189 Z" fill="#000000" fill-rule="evenodd" fill-opacity="1" /><path clip-path="url(#clip020)" d="M 0 0 M56.881 678.769 L51.0882 678.769 L65.8885 637.965 L71.172 637.965 L85.9723 678.769 L80.1795 678.769 L68.5621 645.986 L56.881 678.769 Z" fill="#000000" fill-rule="evenodd" fill-opacity="1" /><polyline clip-path="url(#clip022)" style="stroke:#009af9; stroke-width:8; stroke-opacity:1; fill:none" points="
  282.272,84.3925 291.905,87.547 301.538,96.9783 311.171,112.59 320.804,134.224 330.437,161.658 340.07,194.613 349.703,232.753 359.336,275.69 368.969,322.984 
  378.602,374.155 388.235,428.68 397.868,486.004 407.501,545.542 417.134,606.688 426.768,668.818 436.401,731.3 446.034,793.497 455.667,854.775 465.3,914.511 
  474.933,972.097 484.566,1026.95 494.199,1078.5 503.832,1126.23 513.465,1169.67 523.098,1208.35 532.731,1241.9 542.364,1269.97 551.997,1292.27 561.63,1308.59 
  571.263,1318.76 580.896,1322.67 590.529,1320.29 600.162,1311.65 609.795,1296.83 619.428,1276 629.061,1249.36 638.694,1217.18 648.327,1179.81 657.96,1137.62 
  667.594,1091.05 677.227,1040.56 686.86,986.692 696.493,929.982 706.126,871.014 715.759,810.391 725.392,748.732 735.025,686.67 744.658,624.837 754.291,563.865 
  763.924,504.379 773.557,446.984 783.19,392.268 792.823,340.788 802.456,293.07 812.089,249.601 821.722,210.825 831.355,177.135 840.988,148.877 850.621,126.336 
  860.254,109.743 869.887,99.2663 879.52,95.0108 889.153,97.0194 898.786,105.27 908.419,119.678 918.053,140.095 927.686,166.31 937.319,198.056 946.952,235.007 
  956.585,276.784 966.218,322.96 975.851,373.064 985.484,426.582 995.117,482.967 1004.75,541.644 1014.38,602.012 1024.02,663.455 1033.65,725.346 1043.28,787.052 
  1052.92,847.944 1062.55,907.401 1072.18,964.815 1081.81,1019.6 1091.45,1071.2 1101.08,1119.09 1110.71,1162.77 1120.35,1201.81 1129.98,1235.81 1139.61,1264.42 
  1149.25,1287.35 1158.88,1304.36 1168.51,1315.3 1178.14,1320.03 1187.78,1318.53 1197.41,1310.8 1207.04,1296.93 1216.68,1277.05 1226.31,1251.38 1235.94,1220.18 
  1245.58,1183.76 1255.21,1142.51 1264.84,1096.83 1274.47,1047.21 1284.11,994.145 1293.74,938.181 1303.37,879.89 1313.01,819.869 1322.64,758.729 1332.27,697.097 
  1341.91,635.601 1351.54,574.869 1361.17,515.523 1370.81,458.167 1380.44,403.386 1390.07,351.74 1399.7,303.755 1409.34,259.921 1418.97,220.684 1428.6,186.444 
  1438.24,157.549 1447.87,134.294 1457.5,116.914 1467.14,105.586 1476.77,100.424 1486.4,101.479 1496.03,108.739 1505.67,122.13 1515.3,141.511 1524.93,166.685 
  1534.57,197.393 1544.2,233.321 1553.83,274.099 1563.47,319.311 1573.1,368.493 1582.73,421.144 1592.37,476.724 1602,534.665 1611.63,594.375 1621.26,655.244 
  1630.9,716.651 1640.53,777.967 1650.16,838.567 1659.8,897.833 1669.43,955.159 1679.06,1009.96 1688.7,1061.68 1698.33,1109.79 1707.96,1153.79 1717.59,1193.25 
  1727.23,1227.75 1736.86,1256.96 1746.49,1280.56 1756.13,1298.33 1765.76,1310.07 1775.39,1315.68 1785.03,1315.09 1794.66,1308.32 1804.29,1295.43 1813.93,1276.56 
  1823.56,1251.91 1833.19,1221.71 1842.82,1186.29 1852.46,1146.01 1862.09,1101.28 1871.72,1052.56 1881.36,1000.34 1890.99,945.167 1900.62,887.595 1910.26,828.216 
  1919.89,767.637 1929.52,706.476 1939.15,645.359 1948.79,584.909 1958.42,525.745 1968.05,468.468 1977.69,413.665 1987.32,361.893 1996.95,313.682 2006.59,269.522 
  2016.22,229.864 2025.85,195.111 2035.49,165.617 2045.12,141.683 2054.75,123.551 2064.38,111.405 2074.02,105.369 2083.65,105.501 2093.28,111.799 2102.92,124.199 
  2112.55,142.57 2122.18,166.726 2131.82,196.417 2141.45,231.338 2151.08,271.134 2160.71,315.395 2170.35,363.669 2179.98,415.462 2189.61,470.245 2199.25,527.456 
  
  "/>
<polyline clip-path="url(#clip022)" style="stroke:#e26f46; stroke-width:8; stroke-opacity:1; fill:none" points="
  282.272,84.3925 291.905,92.3703 301.538,107.181 311.171,126.64 320.804,151.123 330.437,180.668 340.07,215.091 349.703,254.077 359.336,297.228 368.969,344.087 
  378.602,394.155 388.235,446.898 397.868,501.76 407.501,558.165 417.134,615.529 426.768,673.264 436.401,730.784 446.034,787.508 455.667,842.875 465.3,896.338 
  474.933,947.378 484.566,995.504 494.199,1040.26 503.832,1081.23 513.465,1118.05 523.098,1150.37 532.731,1177.92 542.364,1200.48 551.997,1217.86 561.63,1229.95 
  571.263,1236.67 580.896,1238.02 590.529,1234.03 600.162,1224.8 609.795,1210.47 619.428,1191.25 629.061,1167.38 638.694,1139.13 648.327,1106.86 657.96,1070.91 
  667.594,1031.7 677.227,989.641 686.86,945.195 696.493,898.833 706.126,851.041 715.759,802.316 725.392,753.157 735.025,704.064 744.658,655.531 754.291,608.04 
  763.924,562.059 773.557,518.037 783.19,476.394 792.823,437.528 802.456,401.8 812.089,369.538 821.722,341.032 831.355,316.528 840.988,296.234 850.621,280.309 
  860.254,268.87 869.887,261.985 879.52,259.676 889.153,261.921 898.786,268.648 908.419,279.745 918.053,295.054 927.686,314.378 937.319,337.48 946.952,364.09 
  956.585,393.904 966.218,426.587 975.851,461.782 985.484,499.107 995.117,538.166 1004.75,578.547 1014.38,619.83 1024.02,661.589 1033.65,703.401 1043.28,744.842 
  1052.92,785.5 1062.55,824.974 1072.18,862.877 1081.81,898.846 1091.45,932.537 1101.08,963.635 1110.71,991.854 1120.35,1016.94 1129.98,1038.67 1139.61,1056.86 
  1149.25,1071.37 1158.88,1082.09 1168.51,1088.94 1178.14,1091.91 1187.78,1090.99 1197.41,1086.25 1207.04,1077.76 1216.68,1065.65 1226.31,1050.08 1235.94,1031.24 
  1245.58,1009.36 1255.21,984.688 1264.84,957.501 1274.47,928.098 1284.11,896.799 1293.74,863.938 1303.37,829.863 1313.01,794.929 1322.64,759.496 1332.27,723.926 
  1341.91,688.58 1351.54,653.81 1361.17,619.961 1370.81,587.363 1380.44,556.332 1390.07,527.165 1399.7,500.135 1409.34,475.493 1418.97,453.462 1428.6,434.237 
  1438.24,417.982 1447.87,404.83 1457.5,394.881 1467.14,388.203 1476.77,384.83 1486.4,384.759 1496.03,387.959 1505.67,394.363 1515.3,403.874 1524.93,416.363 
  1534.57,431.674 1544.2,449.624 1553.83,470.004 1563.47,492.585 1573.1,517.117 1582.73,543.331 1592.37,570.947 1602,599.672 1611.63,629.206 1621.26,659.243 
  1630.9,689.475 1640.53,719.596 1650.16,749.304 1659.8,778.304 1669.43,806.311 1679.06,833.054 1688.7,858.276 1698.33,881.74 1707.96,903.228 1717.59,922.543 
  1727.23,939.513 1736.86,953.993 1746.49,965.862 1756.13,975.027 1765.76,981.425 1775.39,985.019 1785.03,985.803 1794.66,983.797 1804.29,979.051 1813.93,971.642 
  1823.56,961.67 1833.19,949.263 1842.82,934.571 1852.46,917.766 1862.09,899.039 1871.72,878.598 1881.36,856.667 1890.99,833.481 1900.62,809.288 1910.26,784.342 
  1919.89,758.901 1929.52,733.226 1939.15,707.579 1948.79,682.217 1958.42,657.392 1968.05,633.35 1977.69,610.324 1987.32,588.535 1996.95,568.19 2006.59,549.478 
  2016.22,532.572 2025.85,517.622 2035.49,504.759 2045.12,494.091 2054.75,485.702 2064.38,479.653 2074.02,475.981 2083.65,474.698 2093.28,475.793 2102.92,479.229 
  2112.55,484.948 2122.18,492.868 2131.82,502.888 2141.45,514.884 2151.08,528.715 2160.71,544.223 2170.35,561.235 2179.98,579.563 2189.61,599.009 2199.25,619.367 
  
  "/>
<polyline clip-path="url(#clip022)" style="stroke:#3da44d; stroke-width:8; stroke-opacity:1; fill:none" points="
  282.272,84.3925 291.905,92.3703 301.538,107.18 311.171,126.638 320.804,151.116 330.437,180.651 340.07,215.057 349.703,254.015 359.336,297.124 368.969,343.924 
  378.602,393.911 388.235,446.548 397.868,501.275 407.501,557.513 417.134,614.675 426.768,672.17 436.401,729.407 446.034,785.808 455.667,840.806 465.3,893.857 
  474.933,944.441 484.566,992.068 494.199,1036.29 503.832,1076.68 513.465,1112.88 523.098,1144.56 532.731,1171.44 542.364,1193.31 551.997,1209.99 561.63,1221.37 
  571.263,1227.39 580.896,1228.05 590.529,1223.39 600.162,1213.52 609.795,1198.6 619.428,1178.82 629.061,1154.46 638.694,1125.79 648.327,1093.16 657.96,1056.95 
  667.594,1017.56 677.227,975.427 686.86,931.01 696.493,884.786 706.126,837.246 715.759,788.889 725.392,740.216 735.025,691.728 744.658,643.917 754.291,597.263 
  763.924,552.23 773.557,509.261 783.19,468.772 792.823,431.149 802.456,396.747 812.089,365.882 821.722,338.833 831.355,315.834 840.988,297.077 850.621,282.711 
  860.254,272.834 869.887,267.501 879.52,266.718 889.153,270.446 898.786,278.599 908.419,291.048 918.053,307.621 927.686,328.106 937.319,352.253 946.952,379.778 
  956.585,410.364 966.218,443.669 975.851,479.324 985.484,516.942 995.117,556.118 1004.75,596.438 1014.38,637.478 1024.02,678.813 1033.65,720.02 1043.28,760.678 
  1052.92,800.382 1062.55,838.735 1072.18,875.362 1081.81,909.909 1091.45,942.044 1101.08,971.466 1110.71,997.905 1120.35,1021.12 1129.98,1040.92 1139.61,1057.12 
  1149.25,1069.61 1158.88,1078.29 1168.51,1083.12 1178.14,1084.1 1187.78,1081.24 1197.41,1074.62 1207.04,1064.35 1216.68,1050.57 1226.31,1033.45 1235.94,1013.22 
  1245.58,990.098 1255.21,964.362 1264.84,936.3 1274.47,906.22 1284.11,874.452 1293.74,841.337 1303.37,807.226 1313.01,772.477 1322.64,737.452 1332.27,702.51 
  1341.91,668.007 1351.54,634.288 1361.17,601.69 1370.81,570.533 1380.44,541.118 1390.07,513.728 1399.7,488.62 1409.34,466.025 1418.97,446.148 1428.6,429.161 
  1438.24,415.209 1447.87,404.4 1457.5,396.811 1467.14,392.487 1476.77,391.435 1486.4,393.634 1496.03,399.025 1505.67,407.52 1515.3,419.001 1524.93,433.317 
  1534.57,450.294 1544.2,469.731 1553.83,491.402 1563.47,515.065 1573.1,540.457 1582.73,567.301 1592.37,595.309 1602,624.182 1611.63,653.617 1621.26,683.309 
  1630.9,712.952 1640.53,742.245 1650.16,770.894 1659.8,798.613 1669.43,825.129 1679.06,850.187 1688.7,873.544 1698.33,894.983 1707.96,914.304 1717.59,931.334 
  1727.23,945.922 1736.86,957.947 1746.49,967.313 1756.13,973.952 1765.76,977.827 1775.39,978.926 1785.03,977.269 1794.66,972.9 1804.29,965.894 1813.93,956.349 
  1823.56,944.39 1833.19,930.165 1842.82,913.841 1852.46,895.608 1862.09,875.672 1871.72,854.253 1881.36,831.586 1890.99,807.914 1900.62,783.491 1910.26,758.571 
  1919.89,733.415 1929.52,708.281 1939.15,683.426 1948.79,659.098 1958.42,635.541 1968.05,612.987 1977.69,591.654 1987.32,571.747 1996.95,553.454 2006.59,536.943 
  2016.22,522.365 2025.85,509.847 2035.49,499.495 2045.12,491.392 2054.75,485.596 2064.38,482.142 2074.02,481.04 2083.65,482.276 2093.28,485.814 2102.92,491.593 
  2112.55,499.53 2122.18,509.521 2131.82,521.444 2141.45,535.156 2151.08,550.498 2160.71,567.297 2170.35,585.366 2179.98,604.508 2189.61,624.517 2199.25,645.179 
  
  "/>
<path clip-path="url(#clip020)" d="
M1681.51 332.917 L2189.02 332.917 L2189.02 90.9966 L1681.51 90.9966  Z
  " fill="#ffffff" fill-rule="evenodd" fill-opacity="1"/>
<polyline clip-path="url(#clip020)" style="stroke:#000000; stroke-width:4; stroke-opacity:1; fill:none" points="
  1681.51,332.917 2189.02,332.917 2189.02,90.9966 1681.51,90.9966 1681.51,332.917 
  "/>
<polyline clip-path="url(#clip020)" style="stroke:#009af9; stroke-width:4; stroke-opacity:1; fill:none" points="
  1704.09,151.477 1839.56,151.477 
  "/>
<path clip-path="url(#clip020)" d="M 0 0 M1863.71 134.197 L1868.73 134.197 L1877.32 147.044 L1885.95 134.197 L1890.98 134.197 L1879.86 150.794 L1891.72 168.757 L1886.69 168.757 L1876.97 154.058 L1867.18 168.757 L1862.13 168.757 L1874.47 150.308 L1863.71 134.197 Z" fill="#000000" fill-rule="evenodd" fill-opacity="1" /><path clip-path="url(#clip020)" d="M 0 0 M1929.91 143.826 L1929.91 147.808 Q1928.1 146.812 1926.28 146.326 Q1924.47 145.817 1922.62 145.817 Q1918.48 145.817 1916.18 148.456 Q1913.89 151.072 1913.89 155.817 Q1913.89 160.562 1916.18 163.201 Q1918.48 165.817 1922.62 165.817 Q1924.47 165.817 1926.28 165.331 Q1928.1 164.821 1929.91 163.826 L1929.91 167.761 Q1928.13 168.595 1926.21 169.011 Q1924.31 169.428 1922.16 169.428 Q1916.3 169.428 1912.85 165.747 Q1909.4 162.067 1909.4 155.817 Q1909.4 149.474 1912.87 145.84 Q1916.37 142.206 1922.43 142.206 Q1924.4 142.206 1926.28 142.623 Q1928.15 143.016 1929.91 143.826 Z" fill="#000000" fill-rule="evenodd" fill-opacity="1" /><path clip-path="url(#clip020)" d="M 0 0 M1944.42 145.817 Q1941 145.817 1939.01 148.502 Q1937.02 151.164 1937.02 155.817 Q1937.02 160.47 1938.98 163.155 Q1940.97 165.817 1944.42 165.817 Q1947.83 165.817 1949.82 163.132 Q1951.81 160.446 1951.81 155.817 Q1951.81 151.21 1949.82 148.525 Q1947.83 145.817 1944.42 145.817 M1944.42 142.206 Q1949.98 142.206 1953.15 145.817 Q1956.32 149.428 1956.32 155.817 Q1956.32 162.183 1953.15 165.817 Q1949.98 169.428 1944.42 169.428 Q1938.85 169.428 1935.67 165.817 Q1932.53 162.183 1932.53 155.817 Q1932.53 149.428 1935.67 145.817 Q1938.85 142.206 1944.42 142.206 Z" fill="#000000" fill-rule="evenodd" fill-opacity="1" /><path clip-path="url(#clip020)" d="M 0 0 M1960.35 158.525 L1960.35 142.831 L1964.61 142.831 L1964.61 158.363 Q1964.61 162.044 1966.04 163.896 Q1967.48 165.724 1970.35 165.724 Q1973.8 165.724 1975.79 163.525 Q1977.8 161.326 1977.8 157.53 L1977.8 142.831 L1982.06 142.831 L1982.06 168.757 L1977.8 168.757 L1977.8 164.775 Q1976.25 167.136 1974.19 168.294 Q1972.16 169.428 1969.45 169.428 Q1964.98 169.428 1962.66 166.65 Q1960.35 163.872 1960.35 158.525 M1971.07 142.206 L1971.07 142.206 Z" fill="#000000" fill-rule="evenodd" fill-opacity="1" /><path clip-path="url(#clip020)" d="M 0 0 M1990.65 164.868 L1990.65 178.618 L1986.37 178.618 L1986.37 142.831 L1990.65 142.831 L1990.65 146.766 Q1991.99 144.451 1994.03 143.34 Q1996.09 142.206 1998.94 142.206 Q2003.66 142.206 2006.6 145.956 Q2009.56 149.706 2009.56 155.817 Q2009.56 161.928 2006.6 165.678 Q2003.66 169.428 1998.94 169.428 Q1996.09 169.428 1994.03 168.317 Q1991.99 167.183 1990.65 164.868 M2005.14 155.817 Q2005.14 151.118 2003.2 148.456 Q2001.28 145.771 1997.9 145.771 Q1994.52 145.771 1992.57 148.456 Q1990.65 151.118 1990.65 155.817 Q1990.65 160.516 1992.57 163.201 Q1994.52 165.863 1997.9 165.863 Q2001.28 165.863 2003.2 163.201 Q2005.14 160.516 2005.14 155.817 Z" fill="#000000" fill-rule="evenodd" fill-opacity="1" /><path clip-path="url(#clip020)" d="M 0 0 M2014.03 132.738 L2018.29 132.738 L2018.29 168.757 L2014.03 168.757 L2014.03 132.738 Z" fill="#000000" fill-rule="evenodd" fill-opacity="1" /><path clip-path="url(#clip020)" d="M 0 0 M2022.76 142.831 L2027.02 142.831 L2027.02 168.757 L2022.76 168.757 L2022.76 142.831 M2022.76 132.738 L2027.02 132.738 L2027.02 138.132 L2022.76 138.132 L2022.76 132.738 Z" fill="#000000" fill-rule="evenodd" fill-opacity="1" /><path clip-path="url(#clip020)" d="M 0 0 M2053.03 153.109 L2053.03 168.757 L2048.78 168.757 L2048.78 153.247 Q2048.78 149.567 2047.34 147.738 Q2045.9 145.91 2043.03 145.91 Q2039.59 145.91 2037.59 148.109 Q2035.6 150.308 2035.6 154.104 L2035.6 168.757 L2031.32 168.757 L2031.32 142.831 L2035.6 142.831 L2035.6 146.859 Q2037.13 144.521 2039.19 143.363 Q2041.28 142.206 2043.98 142.206 Q2048.45 142.206 2050.74 144.984 Q2053.03 147.738 2053.03 153.109 Z" fill="#000000" fill-rule="evenodd" fill-opacity="1" /><path clip-path="url(#clip020)" d="M 0 0 M2074.56 155.493 Q2074.56 150.863 2072.64 148.317 Q2070.74 145.771 2067.29 145.771 Q2063.87 145.771 2061.95 148.317 Q2060.05 150.863 2060.05 155.493 Q2060.05 160.099 2061.95 162.646 Q2063.87 165.192 2067.29 165.192 Q2070.74 165.192 2072.64 162.646 Q2074.56 160.099 2074.56 155.493 M2078.82 165.539 Q2078.82 172.159 2075.88 175.377 Q2072.94 178.618 2066.88 178.618 Q2064.63 178.618 2062.64 178.27 Q2060.65 177.946 2058.78 177.252 L2058.78 173.108 Q2060.65 174.127 2062.48 174.613 Q2064.31 175.099 2066.21 175.099 Q2070.4 175.099 2072.48 172.9 Q2074.56 170.724 2074.56 166.303 L2074.56 164.196 Q2073.24 166.488 2071.18 167.622 Q2069.12 168.757 2066.25 168.757 Q2061.48 168.757 2058.57 165.122 Q2055.65 161.488 2055.65 155.493 Q2055.65 149.474 2058.57 145.84 Q2061.48 142.206 2066.25 142.206 Q2069.12 142.206 2071.18 143.34 Q2073.24 144.474 2074.56 146.766 L2074.56 142.831 L2078.82 142.831 L2078.82 165.539 Z" fill="#000000" fill-rule="evenodd" fill-opacity="1" /><polyline clip-path="url(#clip020)" style="stroke:#e26f46; stroke-width:4; stroke-opacity:1; fill:none" points="
  1704.09,211.957 1839.56,211.957 
  "/>
<path clip-path="url(#clip020)" d="M 0 0 M1862.67 194.677 L1889.82 194.677 L1889.82 198.241 L1867.97 225.301 L1890.35 225.301 L1890.35 229.237 L1862.13 229.237 L1862.13 225.672 L1883.98 198.612 L1862.67 198.612 L1862.67 194.677 Z" fill="#000000" fill-rule="evenodd" fill-opacity="1" /><path clip-path="url(#clip020)" d="M 0 0 M1928.54 204.306 L1928.54 208.288 Q1926.74 207.292 1924.91 206.806 Q1923.1 206.297 1921.25 206.297 Q1917.11 206.297 1914.82 208.936 Q1912.53 211.552 1912.53 216.297 Q1912.53 221.042 1914.82 223.681 Q1917.11 226.297 1921.25 226.297 Q1923.1 226.297 1924.91 225.811 Q1926.74 225.301 1928.54 224.306 L1928.54 228.241 Q1926.76 229.075 1924.84 229.491 Q1922.94 229.908 1920.79 229.908 Q1914.93 229.908 1911.48 226.227 Q1908.04 222.547 1908.04 216.297 Q1908.04 209.954 1911.51 206.32 Q1915 202.686 1921.07 202.686 Q1923.04 202.686 1924.91 203.103 Q1926.79 203.496 1928.54 204.306 Z" fill="#000000" fill-rule="evenodd" fill-opacity="1" /><path clip-path="url(#clip020)" d="M 0 0 M1943.06 206.297 Q1939.63 206.297 1937.64 208.982 Q1935.65 211.644 1935.65 216.297 Q1935.65 220.95 1937.62 223.635 Q1939.61 226.297 1943.06 226.297 Q1946.46 226.297 1948.45 223.612 Q1950.44 220.926 1950.44 216.297 Q1950.44 211.69 1948.45 209.005 Q1946.46 206.297 1943.06 206.297 M1943.06 202.686 Q1948.61 202.686 1951.79 206.297 Q1954.96 209.908 1954.96 216.297 Q1954.96 222.663 1951.79 226.297 Q1948.61 229.908 1943.06 229.908 Q1937.48 229.908 1934.31 226.297 Q1931.16 222.663 1931.16 216.297 Q1931.16 209.908 1934.31 206.297 Q1937.48 202.686 1943.06 202.686 Z" fill="#000000" fill-rule="evenodd" fill-opacity="1" /><path clip-path="url(#clip020)" d="M 0 0 M1958.98 219.005 L1958.98 203.311 L1963.24 203.311 L1963.24 218.843 Q1963.24 222.524 1964.68 224.376 Q1966.11 226.204 1968.98 226.204 Q1972.43 226.204 1974.42 224.005 Q1976.44 221.806 1976.44 218.01 L1976.44 203.311 L1980.7 203.311 L1980.7 229.237 L1976.44 229.237 L1976.44 225.255 Q1974.89 227.616 1972.83 228.774 Q1970.79 229.908 1968.08 229.908 Q1963.61 229.908 1961.3 227.13 Q1958.98 224.352 1958.98 219.005 M1969.7 202.686 L1969.7 202.686 Z" fill="#000000" fill-rule="evenodd" fill-opacity="1" /><path clip-path="url(#clip020)" d="M 0 0 M1989.28 225.348 L1989.28 239.098 L1985 239.098 L1985 203.311 L1989.28 203.311 L1989.28 207.246 Q1990.63 204.931 1992.66 203.82 Q1994.72 202.686 1997.57 202.686 Q2002.29 202.686 2005.23 206.436 Q2008.2 210.186 2008.2 216.297 Q2008.2 222.408 2005.23 226.158 Q2002.29 229.908 1997.57 229.908 Q1994.72 229.908 1992.66 228.797 Q1990.63 227.663 1989.28 225.348 M2003.78 216.297 Q2003.78 211.598 2001.83 208.936 Q1999.91 206.251 1996.53 206.251 Q1993.15 206.251 1991.21 208.936 Q1989.28 211.598 1989.28 216.297 Q1989.28 220.996 1991.21 223.681 Q1993.15 226.343 1996.53 226.343 Q1999.91 226.343 2001.83 223.681 Q2003.78 220.996 2003.78 216.297 Z" fill="#000000" fill-rule="evenodd" fill-opacity="1" /><path clip-path="url(#clip020)" d="M 0 0 M2012.66 193.218 L2016.92 193.218 L2016.92 229.237 L2012.66 229.237 L2012.66 193.218 Z" fill="#000000" fill-rule="evenodd" fill-opacity="1" /><path clip-path="url(#clip020)" d="M 0 0 M2021.39 203.311 L2025.65 203.311 L2025.65 229.237 L2021.39 229.237 L2021.39 203.311 M2021.39 193.218 L2025.65 193.218 L2025.65 198.612 L2021.39 198.612 L2021.39 193.218 Z" fill="#000000" fill-rule="evenodd" fill-opacity="1" /><path clip-path="url(#clip020)" d="M 0 0 M2051.67 213.589 L2051.67 229.237 L2047.41 229.237 L2047.41 213.727 Q2047.41 210.047 2045.97 208.218 Q2044.54 206.39 2041.67 206.39 Q2038.22 206.39 2036.23 208.589 Q2034.24 210.788 2034.24 214.584 L2034.24 229.237 L2029.96 229.237 L2029.96 203.311 L2034.24 203.311 L2034.24 207.339 Q2035.77 205.001 2037.83 203.843 Q2039.91 202.686 2042.62 202.686 Q2047.09 202.686 2049.38 205.464 Q2051.67 208.218 2051.67 213.589 Z" fill="#000000" fill-rule="evenodd" fill-opacity="1" /><path clip-path="url(#clip020)" d="M 0 0 M2073.2 215.973 Q2073.2 211.343 2071.28 208.797 Q2069.38 206.251 2065.93 206.251 Q2062.5 206.251 2060.58 208.797 Q2058.68 211.343 2058.68 215.973 Q2058.68 220.579 2060.58 223.126 Q2062.5 225.672 2065.93 225.672 Q2069.38 225.672 2071.28 223.126 Q2073.2 220.579 2073.2 215.973 M2077.46 226.019 Q2077.46 232.639 2074.52 235.857 Q2071.58 239.098 2065.51 239.098 Q2063.27 239.098 2061.28 238.75 Q2059.28 238.426 2057.41 237.732 L2057.41 233.588 Q2059.28 234.607 2061.11 235.093 Q2062.94 235.579 2064.84 235.579 Q2069.03 235.579 2071.11 233.38 Q2073.2 231.204 2073.2 226.783 L2073.2 224.676 Q2071.88 226.968 2069.82 228.102 Q2067.76 229.237 2064.89 229.237 Q2060.12 229.237 2057.2 225.602 Q2054.28 221.968 2054.28 215.973 Q2054.28 209.954 2057.2 206.32 Q2060.12 202.686 2064.89 202.686 Q2067.76 202.686 2069.82 203.82 Q2071.88 204.954 2073.2 207.246 L2073.2 203.311 L2077.46 203.311 L2077.46 226.019 Z" fill="#000000" fill-rule="evenodd" fill-opacity="1" /><polyline clip-path="url(#clip020)" style="stroke:#3da44d; stroke-width:4; stroke-opacity:1; fill:none" points="
  1704.09,272.437 1839.56,272.437 
  "/>
<path clip-path="url(#clip020)" d="M 0 0 M1863.71 255.157 L1868.73 255.157 L1877.32 268.004 L1885.95 255.157 L1890.98 255.157 L1879.86 271.754 L1891.72 289.717 L1886.69 289.717 L1876.97 275.018 L1867.18 289.717 L1862.13 289.717 L1874.47 271.268 L1863.71 255.157 Z" fill="#000000" fill-rule="evenodd" fill-opacity="1" /><path clip-path="url(#clip020)" d="M 0 0 M1913.52 259.995 L1913.52 272.888 L1926.41 272.888 L1926.41 276.823 L1913.52 276.823 L1913.52 289.717 L1909.63 289.717 L1909.63 276.823 L1896.74 276.823 L1896.74 272.888 L1909.63 272.888 L1909.63 259.995 L1913.52 259.995 Z" fill="#000000" fill-rule="evenodd" fill-opacity="1" /><path clip-path="url(#clip020)" d="M 0 0 M1929.08 255.157 L1956.23 255.157 L1956.23 258.721 L1934.38 285.781 L1956.76 285.781 L1956.76 289.717 L1928.54 289.717 L1928.54 286.152 L1950.4 259.092 L1929.08 259.092 L1929.08 255.157 Z" fill="#000000" fill-rule="evenodd" fill-opacity="1" /><path clip-path="url(#clip020)" d="M 0 0 M1994.96 264.786 L1994.96 268.768 Q1993.15 267.772 1991.32 267.286 Q1989.52 266.777 1987.66 266.777 Q1983.52 266.777 1981.23 269.416 Q1978.94 272.032 1978.94 276.777 Q1978.94 281.522 1981.23 284.161 Q1983.52 286.777 1987.66 286.777 Q1989.52 286.777 1991.32 286.291 Q1993.15 285.781 1994.96 284.786 L1994.96 288.721 Q1993.17 289.555 1991.25 289.971 Q1989.35 290.388 1987.2 290.388 Q1981.35 290.388 1977.9 286.707 Q1974.45 283.027 1974.45 276.777 Q1974.45 270.434 1977.92 266.8 Q1981.41 263.166 1987.48 263.166 Q1989.45 263.166 1991.32 263.583 Q1993.2 263.976 1994.96 264.786 Z" fill="#000000" fill-rule="evenodd" fill-opacity="1" /><path clip-path="url(#clip020)" d="M 0 0 M2009.47 266.777 Q2006.04 266.777 2004.05 269.462 Q2002.06 272.124 2002.06 276.777 Q2002.06 281.43 2004.03 284.115 Q2006.02 286.777 2009.47 286.777 Q2012.87 286.777 2014.86 284.092 Q2016.85 281.406 2016.85 276.777 Q2016.85 272.17 2014.86 269.485 Q2012.87 266.777 2009.47 266.777 M2009.47 263.166 Q2015.03 263.166 2018.2 266.777 Q2021.37 270.388 2021.37 276.777 Q2021.37 283.143 2018.2 286.777 Q2015.03 290.388 2009.47 290.388 Q2003.89 290.388 2000.72 286.777 Q1997.57 283.143 1997.57 276.777 Q1997.57 270.388 2000.72 266.777 Q2003.89 263.166 2009.47 263.166 Z" fill="#000000" fill-rule="evenodd" fill-opacity="1" /><path clip-path="url(#clip020)" d="M 0 0 M2025.4 279.485 L2025.4 263.791 L2029.66 263.791 L2029.66 279.323 Q2029.66 283.004 2031.09 284.856 Q2032.53 286.684 2035.4 286.684 Q2038.84 286.684 2040.84 284.485 Q2042.85 282.286 2042.85 278.49 L2042.85 263.791 L2047.11 263.791 L2047.11 289.717 L2042.85 289.717 L2042.85 285.735 Q2041.3 288.096 2039.24 289.254 Q2037.2 290.388 2034.49 290.388 Q2030.03 290.388 2027.71 287.61 Q2025.4 284.832 2025.4 279.485 M2036.11 263.166 L2036.11 263.166 Z" fill="#000000" fill-rule="evenodd" fill-opacity="1" /><path clip-path="url(#clip020)" d="M 0 0 M2055.7 285.828 L2055.7 299.578 L2051.41 299.578 L2051.41 263.791 L2055.7 263.791 L2055.7 267.726 Q2057.04 265.411 2059.08 264.3 Q2061.14 263.166 2063.98 263.166 Q2068.71 263.166 2071.65 266.916 Q2074.61 270.666 2074.61 276.777 Q2074.61 282.888 2071.65 286.638 Q2068.71 290.388 2063.98 290.388 Q2061.14 290.388 2059.08 289.277 Q2057.04 288.143 2055.7 285.828 M2070.19 276.777 Q2070.19 272.078 2068.24 269.416 Q2066.32 266.731 2062.94 266.731 Q2059.56 266.731 2057.62 269.416 Q2055.7 272.078 2055.7 276.777 Q2055.7 281.476 2057.62 284.161 Q2059.56 286.823 2062.94 286.823 Q2066.32 286.823 2068.24 284.161 Q2070.19 281.476 2070.19 276.777 Z" fill="#000000" fill-rule="evenodd" fill-opacity="1" /><path clip-path="url(#clip020)" d="M 0 0 M2079.08 253.698 L2083.34 253.698 L2083.34 289.717 L2079.08 289.717 L2079.08 253.698 Z" fill="#000000" fill-rule="evenodd" fill-opacity="1" /><path clip-path="url(#clip020)" d="M 0 0 M2087.8 263.791 L2092.06 263.791 L2092.06 289.717 L2087.8 289.717 L2087.8 263.791 M2087.8 253.698 L2092.06 253.698 L2092.06 259.092 L2087.8 259.092 L2087.8 253.698 Z" fill="#000000" fill-rule="evenodd" fill-opacity="1" /><path clip-path="url(#clip020)" d="M 0 0 M2118.08 274.069 L2118.08 289.717 L2113.82 289.717 L2113.82 274.207 Q2113.82 270.527 2112.39 268.698 Q2110.95 266.87 2108.08 266.87 Q2104.63 266.87 2102.64 269.069 Q2100.65 271.268 2100.65 275.064 L2100.65 289.717 L2096.37 289.717 L2096.37 263.791 L2100.65 263.791 L2100.65 267.819 Q2102.18 265.481 2104.24 264.323 Q2106.32 263.166 2109.03 263.166 Q2113.5 263.166 2115.79 265.944 Q2118.08 268.698 2118.08 274.069 Z" fill="#000000" fill-rule="evenodd" fill-opacity="1" /><path clip-path="url(#clip020)" d="M 0 0 M2139.61 276.453 Q2139.61 271.823 2137.69 269.277 Q2135.79 266.731 2132.34 266.731 Q2128.91 266.731 2126.99 269.277 Q2125.09 271.823 2125.09 276.453 Q2125.09 281.059 2126.99 283.606 Q2128.91 286.152 2132.34 286.152 Q2135.79 286.152 2137.69 283.606 Q2139.61 281.059 2139.61 276.453 M2143.87 286.499 Q2143.87 293.119 2140.93 296.337 Q2137.99 299.578 2131.92 299.578 Q2129.68 299.578 2127.69 299.23 Q2125.7 298.906 2123.82 298.212 L2123.82 294.068 Q2125.7 295.087 2127.52 295.573 Q2129.35 296.059 2131.25 296.059 Q2135.44 296.059 2137.52 293.86 Q2139.61 291.684 2139.61 287.263 L2139.61 285.156 Q2138.29 287.448 2136.23 288.582 Q2134.17 289.717 2131.3 289.717 Q2126.53 289.717 2123.61 286.082 Q2120.7 282.448 2120.7 276.453 Q2120.7 270.434 2123.61 266.8 Q2126.53 263.166 2131.3 263.166 Q2134.17 263.166 2136.23 264.3 Q2138.29 265.434 2139.61 267.726 L2139.61 263.791 L2143.87 263.791 L2143.87 286.499 Z" fill="#000000" fill-rule="evenodd" fill-opacity="1" /></svg>
