<?xml version="1.0" encoding="utf-8"?>
<svg xmlns="http://www.w3.org/2000/svg" xmlns:xlink="http://www.w3.org/1999/xlink" width="576" height="384" viewBox="0 0 2304 1536">
<defs>
  <clipPath id="clip060">
    <rect x="0" y="0" width="2304" height="1536"/>
  </clipPath>
</defs>
<path clip-path="url(#clip060)" d="
M0 1536 L2304 1536 L2304 0 L0 0  Z
  " fill="#ffffff" fill-rule="evenodd" fill-opacity="1"/>
<defs>
  <clipPath id="clip061">
    <rect x="460" y="0" width="1614" height="1536"/>
  </clipPath>
</defs>
<path clip-path="url(#clip060)" d="
M224.763 1359.82 L2256.76 1359.82 L2256.76 47.2441 L224.763 47.2441  Z
  " fill="#ffffff" fill-rule="evenodd" fill-opacity="1"/>
<defs>
  <clipPath id="clip062">
    <rect x="224" y="47" width="2033" height="1314"/>
  </clipPath>
</defs>
<polyline clip-path="url(#clip062)" style="stroke:#000000; stroke-width:2; stroke-opacity:0.1; fill:none" points="
  282.272,1359.82 282.272,47.2441 
  "/>
<polyline clip-path="url(#clip062)" style="stroke:#000000; stroke-width:2; stroke-opacity:0.1; fill:none" points="
  761.516,1359.82 761.516,47.2441 
  "/>
<polyline clip-path="url(#clip062)" style="stroke:#000000; stroke-width:2; stroke-opacity:0.1; fill:none" points="
  1240.76,1359.82 1240.76,47.2441 
  "/>
<polyline clip-path="url(#clip062)" style="stroke:#000000; stroke-width:2; stroke-opacity:0.1; fill:none" points="
  1720,1359.82 1720,47.2441 
  "/>
<polyline clip-path="url(#clip062)" style="stroke:#000000; stroke-width:2; stroke-opacity:0.1; fill:none" points="
  2199.25,1359.82 2199.25,47.2441 
  "/>
<polyline clip-path="url(#clip062)" style="stroke:#000000; stroke-width:2; stroke-opacity:0.1; fill:none" points="
  224.763,1334.67 2256.76,1334.67 
  "/>
<polyline clip-path="url(#clip062)" style="stroke:#000000; stroke-width:2; stroke-opacity:0.1; fill:none" points="
  224.763,1022.1 2256.76,1022.1 
  "/>
<polyline clip-path="url(#clip062)" style="stroke:#000000; stroke-width:2; stroke-opacity:0.1; fill:none" points="
  224.763,709.53 2256.76,709.53 
  "/>
<polyline clip-path="url(#clip062)" style="stroke:#000000; stroke-width:2; stroke-opacity:0.1; fill:none" points="
  224.763,396.961 2256.76,396.961 
  "/>
<polyline clip-path="url(#clip062)" style="stroke:#000000; stroke-width:2; stroke-opacity:0.1; fill:none" points="
  224.763,84.3925 2256.76,84.3925 
  "/>
<polyline clip-path="url(#clip060)" style="stroke:#000000; stroke-width:4; stroke-opacity:1; fill:none" points="
  224.763,1359.82 2256.76,1359.82 
  "/>
<polyline clip-path="url(#clip060)" style="stroke:#000000; stroke-width:4; stroke-opacity:1; fill:none" points="
  224.763,1359.82 224.763,47.2441 
  "/>
<polyline clip-path="url(#clip060)" style="stroke:#000000; stroke-width:4; stroke-opacity:1; fill:none" points="
  282.272,1359.82 282.272,1344.07 
  "/>
<polyline clip-path="url(#clip060)" style="stroke:#000000; stroke-width:4; stroke-opacity:1; fill:none" points="
  761.516,1359.82 761.516,1344.07 
  "/>
<polyline clip-path="url(#clip060)" style="stroke:#000000; stroke-width:4; stroke-opacity:1; fill:none" points="
  1240.76,1359.82 1240.76,1344.07 
  "/>
<polyline clip-path="url(#clip060)" style="stroke:#000000; stroke-width:4; stroke-opacity:1; fill:none" points="
  1720,1359.82 1720,1344.07 
  "/>
<polyline clip-path="url(#clip060)" style="stroke:#000000; stroke-width:4; stroke-opacity:1; fill:none" points="
  2199.25,1359.82 2199.25,1344.07 
  "/>
<polyline clip-path="url(#clip060)" style="stroke:#000000; stroke-width:4; stroke-opacity:1; fill:none" points="
  224.763,1334.67 249.147,1334.67 
  "/>
<polyline clip-path="url(#clip060)" style="stroke:#000000; stroke-width:4; stroke-opacity:1; fill:none" points="
  224.763,1022.1 249.147,1022.1 
  "/>
<polyline clip-path="url(#clip060)" style="stroke:#000000; stroke-width:4; stroke-opacity:1; fill:none" points="
  224.763,709.53 249.147,709.53 
  "/>
<polyline clip-path="url(#clip060)" style="stroke:#000000; stroke-width:4; stroke-opacity:1; fill:none" points="
  224.763,396.961 249.147,396.961 
  "/>
<polyline clip-path="url(#clip060)" style="stroke:#000000; stroke-width:4; stroke-opacity:1; fill:none" points="
  224.763,84.3925 249.147,84.3925 
  "/>
<path clip-path="url(#clip060)" d="M 0 0 M263.788 1381.33 Q260.177 1381.33 258.348 1384.9 Q256.543 1388.44 256.543 1395.57 Q256.543 1402.67 258.348 1406.24 Q260.177 1409.78 263.788 1409.78 Q267.422 1409.78 269.228 1406.24 Q271.057 1402.67 271.057 1395.57 Q271.057 1388.44 269.228 1384.9 Q267.422 1381.33 263.788 1381.33 M263.788 1377.63 Q269.598 1377.63 272.654 1382.23 Q275.733 1386.82 275.733 1395.57 Q275.733 1404.29 272.654 1408.9 Q269.598 1413.48 263.788 1413.48 Q257.978 1413.48 254.899 1408.9 Q251.844 1404.29 251.844 1395.57 Q251.844 1386.82 254.899 1382.23 Q257.978 1377.63 263.788 1377.63 Z" fill="#000000" fill-rule="evenodd" fill-opacity="1" /><path clip-path="url(#clip060)" d="M 0 0 M280.802 1406.93 L285.686 1406.93 L285.686 1412.81 L280.802 1412.81 L280.802 1406.93 Z" fill="#000000" fill-rule="evenodd" fill-opacity="1" /><path clip-path="url(#clip060)" d="M 0 0 M300.756 1381.33 Q297.145 1381.33 295.316 1384.9 Q293.51 1388.44 293.51 1395.57 Q293.51 1402.67 295.316 1406.24 Q297.145 1409.78 300.756 1409.78 Q304.39 1409.78 306.195 1406.24 Q308.024 1402.67 308.024 1395.57 Q308.024 1388.44 306.195 1384.9 Q304.39 1381.33 300.756 1381.33 M300.756 1377.63 Q306.566 1377.63 309.621 1382.23 Q312.7 1386.82 312.7 1395.57 Q312.7 1404.29 309.621 1408.9 Q306.566 1413.48 300.756 1413.48 Q294.946 1413.48 291.867 1408.9 Q288.811 1404.29 288.811 1395.57 Q288.811 1386.82 291.867 1382.23 Q294.946 1377.63 300.756 1377.63 Z" fill="#000000" fill-rule="evenodd" fill-opacity="1" /><path clip-path="url(#clip060)" d="M 0 0 M738.182 1408.88 L754.502 1408.88 L754.502 1412.81 L732.557 1412.81 L732.557 1408.88 Q735.219 1406.12 739.803 1401.49 Q744.409 1396.84 745.59 1395.5 Q747.835 1392.97 748.715 1391.24 Q749.618 1389.48 749.618 1387.79 Q749.618 1385.03 747.673 1383.3 Q745.752 1381.56 742.65 1381.56 Q740.451 1381.56 737.997 1382.33 Q735.567 1383.09 732.789 1384.64 L732.789 1379.92 Q735.613 1378.78 738.067 1378.21 Q740.52 1377.63 742.557 1377.63 Q747.928 1377.63 751.122 1380.31 Q754.317 1383 754.317 1387.49 Q754.317 1389.62 753.506 1391.54 Q752.719 1393.44 750.613 1396.03 Q750.034 1396.7 746.932 1399.92 Q743.831 1403.11 738.182 1408.88 Z" fill="#000000" fill-rule="evenodd" fill-opacity="1" /><path clip-path="url(#clip060)" d="M 0 0 M759.571 1406.93 L764.455 1406.93 L764.455 1412.81 L759.571 1412.81 L759.571 1406.93 Z" fill="#000000" fill-rule="evenodd" fill-opacity="1" /><path clip-path="url(#clip060)" d="M 0 0 M769.571 1378.25 L787.928 1378.25 L787.928 1382.19 L773.854 1382.19 L773.854 1390.66 Q774.872 1390.31 775.891 1390.15 Q776.909 1389.96 777.928 1389.96 Q783.715 1389.96 787.094 1393.14 Q790.474 1396.31 790.474 1401.72 Q790.474 1407.3 787.002 1410.4 Q783.529 1413.48 777.21 1413.48 Q775.034 1413.48 772.766 1413.11 Q770.52 1412.74 768.113 1412 L768.113 1407.3 Q770.196 1408.44 772.418 1408.99 Q774.641 1409.55 777.117 1409.55 Q781.122 1409.55 783.46 1407.44 Q785.798 1405.34 785.798 1401.72 Q785.798 1398.11 783.46 1396.01 Q781.122 1393.9 777.117 1393.9 Q775.242 1393.9 773.367 1394.32 Q771.516 1394.73 769.571 1395.61 L769.571 1378.25 Z" fill="#000000" fill-rule="evenodd" fill-opacity="1" /><path clip-path="url(#clip060)" d="M 0 0 M1212.55 1378.25 L1230.91 1378.25 L1230.91 1382.19 L1216.84 1382.19 L1216.84 1390.66 Q1217.85 1390.31 1218.87 1390.15 Q1219.89 1389.96 1220.91 1389.96 Q1226.7 1389.96 1230.08 1393.14 Q1233.46 1396.31 1233.46 1401.72 Q1233.46 1407.3 1229.98 1410.4 Q1226.51 1413.48 1220.19 1413.48 Q1218.02 1413.48 1215.75 1413.11 Q1213.5 1412.74 1211.1 1412 L1211.1 1407.3 Q1213.18 1408.44 1215.4 1408.99 Q1217.62 1409.55 1220.1 1409.55 Q1224.1 1409.55 1226.44 1407.44 Q1228.78 1405.34 1228.78 1401.72 Q1228.78 1398.11 1226.44 1396.01 Q1224.1 1393.9 1220.1 1393.9 Q1218.22 1393.9 1216.35 1394.32 Q1214.5 1394.73 1212.55 1395.61 L1212.55 1378.25 Z" fill="#000000" fill-rule="evenodd" fill-opacity="1" /><path clip-path="url(#clip060)" d="M 0 0 M1238.53 1406.93 L1243.41 1406.93 L1243.41 1412.81 L1238.53 1412.81 L1238.53 1406.93 Z" fill="#000000" fill-rule="evenodd" fill-opacity="1" /><path clip-path="url(#clip060)" d="M 0 0 M1258.48 1381.33 Q1254.87 1381.33 1253.04 1384.9 Q1251.23 1388.44 1251.23 1395.57 Q1251.23 1402.67 1253.04 1406.24 Q1254.87 1409.78 1258.48 1409.78 Q1262.11 1409.78 1263.92 1406.24 Q1265.75 1402.67 1265.75 1395.57 Q1265.75 1388.44 1263.92 1384.9 Q1262.11 1381.33 1258.48 1381.33 M1258.48 1377.63 Q1264.29 1377.63 1267.34 1382.23 Q1270.42 1386.82 1270.42 1395.57 Q1270.42 1404.29 1267.34 1408.9 Q1264.29 1413.48 1258.48 1413.48 Q1252.67 1413.48 1249.59 1408.9 Q1246.53 1404.29 1246.53 1395.57 Q1246.53 1386.82 1249.59 1382.23 Q1252.67 1377.63 1258.48 1377.63 Z" fill="#000000" fill-rule="evenodd" fill-opacity="1" /><path clip-path="url(#clip060)" d="M 0 0 M1690.91 1378.25 L1713.13 1378.25 L1713.13 1380.24 L1700.58 1412.81 L1695.7 1412.81 L1707.5 1382.19 L1690.91 1382.19 L1690.91 1378.25 Z" fill="#000000" fill-rule="evenodd" fill-opacity="1" /><path clip-path="url(#clip060)" d="M 0 0 M1718.2 1406.93 L1723.08 1406.93 L1723.08 1412.81 L1718.2 1412.81 L1718.2 1406.93 Z" fill="#000000" fill-rule="evenodd" fill-opacity="1" /><path clip-path="url(#clip060)" d="M 0 0 M1728.2 1378.25 L1746.55 1378.25 L1746.55 1382.19 L1732.48 1382.19 L1732.48 1390.66 Q1733.5 1390.31 1734.52 1390.15 Q1735.54 1389.96 1736.55 1389.96 Q1742.34 1389.96 1745.72 1393.14 Q1749.1 1396.31 1749.1 1401.72 Q1749.1 1407.3 1745.63 1410.4 Q1742.16 1413.48 1735.84 1413.48 Q1733.66 1413.48 1731.39 1413.11 Q1729.15 1412.74 1726.74 1412 L1726.74 1407.3 Q1728.82 1408.44 1731.04 1408.99 Q1733.27 1409.55 1735.74 1409.55 Q1739.75 1409.55 1742.09 1407.44 Q1744.42 1405.34 1744.42 1401.72 Q1744.42 1398.11 1742.09 1396.01 Q1739.75 1393.9 1735.74 1393.9 Q1733.87 1393.9 1731.99 1394.32 Q1730.14 1394.73 1728.2 1395.61 L1728.2 1378.25 Z" fill="#000000" fill-rule="evenodd" fill-opacity="1" /><path clip-path="url(#clip060)" d="M 0 0 M2157.64 1408.88 L2165.28 1408.88 L2165.28 1382.51 L2156.97 1384.18 L2156.97 1379.92 L2165.23 1378.25 L2169.91 1378.25 L2169.91 1408.88 L2177.55 1408.88 L2177.55 1412.81 L2157.64 1412.81 L2157.64 1408.88 Z" fill="#000000" fill-rule="evenodd" fill-opacity="1" /><path clip-path="url(#clip060)" d="M 0 0 M2192.61 1381.33 Q2189 1381.33 2187.17 1384.9 Q2185.37 1388.44 2185.37 1395.57 Q2185.37 1402.67 2187.17 1406.24 Q2189 1409.78 2192.61 1409.78 Q2196.25 1409.78 2198.05 1406.24 Q2199.88 1402.67 2199.88 1395.57 Q2199.88 1388.44 2198.05 1384.9 Q2196.25 1381.33 2192.61 1381.33 M2192.61 1377.63 Q2198.42 1377.63 2201.48 1382.23 Q2204.56 1386.82 2204.56 1395.57 Q2204.56 1404.29 2201.48 1408.9 Q2198.42 1413.48 2192.61 1413.48 Q2186.8 1413.48 2183.73 1408.9 Q2180.67 1404.29 2180.67 1395.57 Q2180.67 1386.82 2183.73 1382.23 Q2186.8 1377.63 2192.61 1377.63 Z" fill="#000000" fill-rule="evenodd" fill-opacity="1" /><path clip-path="url(#clip060)" d="M 0 0 M2209.63 1406.93 L2214.51 1406.93 L2214.51 1412.81 L2209.63 1412.81 L2209.63 1406.93 Z" fill="#000000" fill-rule="evenodd" fill-opacity="1" /><path clip-path="url(#clip060)" d="M 0 0 M2229.58 1381.33 Q2225.97 1381.33 2224.14 1384.9 Q2222.34 1388.44 2222.34 1395.57 Q2222.34 1402.67 2224.14 1406.24 Q2225.97 1409.78 2229.58 1409.78 Q2233.22 1409.78 2235.02 1406.24 Q2236.85 1402.67 2236.85 1395.57 Q2236.85 1388.44 2235.02 1384.9 Q2233.22 1381.33 2229.58 1381.33 M2229.58 1377.63 Q2235.39 1377.63 2238.45 1382.23 Q2241.53 1386.82 2241.53 1395.57 Q2241.53 1404.29 2238.45 1408.9 Q2235.39 1413.48 2229.58 1413.48 Q2223.77 1413.48 2220.69 1408.9 Q2217.64 1404.29 2217.64 1395.57 Q2217.64 1386.82 2220.69 1382.23 Q2223.77 1377.63 2229.58 1377.63 Z" fill="#000000" fill-rule="evenodd" fill-opacity="1" /><path clip-path="url(#clip060)" d="M 0 0 M126.492 1337.06 L138.968 1337.06 L138.968 1340.86 L126.492 1340.86 L126.492 1337.06 Z" fill="#000000" fill-rule="evenodd" fill-opacity="1" /><path clip-path="url(#clip060)" d="M 0 0 M144.848 1348.01 L152.487 1348.01 L152.487 1321.65 L144.177 1323.31 L144.177 1319.05 L152.441 1317.39 L157.116 1317.39 L157.116 1348.01 L164.755 1348.01 L164.755 1351.95 L144.848 1351.95 L144.848 1348.01 Z" fill="#000000" fill-rule="evenodd" fill-opacity="1" /><path clip-path="url(#clip060)" d="M 0 0 M169.825 1346.07 L174.709 1346.07 L174.709 1351.95 L169.825 1351.95 L169.825 1346.07 Z" fill="#000000" fill-rule="evenodd" fill-opacity="1" /><path clip-path="url(#clip060)" d="M 0 0 M189.778 1320.47 Q186.167 1320.47 184.339 1324.03 Q182.533 1327.57 182.533 1334.7 Q182.533 1341.81 184.339 1345.37 Q186.167 1348.92 189.778 1348.92 Q193.413 1348.92 195.218 1345.37 Q197.047 1341.81 197.047 1334.7 Q197.047 1327.57 195.218 1324.03 Q193.413 1320.47 189.778 1320.47 M189.778 1316.76 Q195.588 1316.76 198.644 1321.37 Q201.723 1325.95 201.723 1334.7 Q201.723 1343.43 198.644 1348.04 Q195.588 1352.62 189.778 1352.62 Q183.968 1352.62 180.889 1348.04 Q177.834 1343.43 177.834 1334.7 Q177.834 1325.95 180.889 1321.37 Q183.968 1316.76 189.778 1316.76 Z" fill="#000000" fill-rule="evenodd" fill-opacity="1" /><path clip-path="url(#clip060)" d="M 0 0 M126.26 1024.5 L138.737 1024.5 L138.737 1028.29 L126.26 1028.29 L126.26 1024.5 Z" fill="#000000" fill-rule="evenodd" fill-opacity="1" /><path clip-path="url(#clip060)" d="M 0 0 M153.806 1007.9 Q150.195 1007.9 148.367 1011.46 Q146.561 1015 146.561 1022.13 Q146.561 1029.24 148.367 1032.81 Q150.195 1036.35 153.806 1036.35 Q157.441 1036.35 159.246 1032.81 Q161.075 1029.24 161.075 1022.13 Q161.075 1015 159.246 1011.46 Q157.441 1007.9 153.806 1007.9 M153.806 1004.19 Q159.616 1004.19 162.672 1008.8 Q165.751 1013.38 165.751 1022.13 Q165.751 1030.86 162.672 1035.47 Q159.616 1040.05 153.806 1040.05 Q147.996 1040.05 144.917 1035.47 Q141.862 1030.86 141.862 1022.13 Q141.862 1013.38 144.917 1008.8 Q147.996 1004.19 153.806 1004.19 Z" fill="#000000" fill-rule="evenodd" fill-opacity="1" /><path clip-path="url(#clip060)" d="M 0 0 M170.82 1033.5 L175.704 1033.5 L175.704 1039.38 L170.82 1039.38 L170.82 1033.5 Z" fill="#000000" fill-rule="evenodd" fill-opacity="1" /><path clip-path="url(#clip060)" d="M 0 0 M180.82 1004.82 L199.176 1004.82 L199.176 1008.75 L185.102 1008.75 L185.102 1017.23 Q186.121 1016.88 187.139 1016.72 Q188.158 1016.53 189.176 1016.53 Q194.963 1016.53 198.343 1019.7 Q201.723 1022.87 201.723 1028.29 Q201.723 1033.87 198.251 1036.97 Q194.778 1040.05 188.459 1040.05 Q186.283 1040.05 184.014 1039.68 Q181.769 1039.31 179.362 1038.57 L179.362 1033.87 Q181.445 1035 183.667 1035.56 Q185.889 1036.12 188.366 1036.12 Q192.371 1036.12 194.709 1034.01 Q197.047 1031.9 197.047 1028.29 Q197.047 1024.68 194.709 1022.57 Q192.371 1020.47 188.366 1020.47 Q186.491 1020.47 184.616 1020.88 Q182.764 1021.3 180.82 1022.18 L180.82 1004.82 Z" fill="#000000" fill-rule="evenodd" fill-opacity="1" /><path clip-path="url(#clip060)" d="M 0 0 M152.811 695.329 Q149.2 695.329 147.371 698.894 Q145.566 702.435 145.566 709.565 Q145.566 716.672 147.371 720.236 Q149.2 723.778 152.811 723.778 Q156.445 723.778 158.251 720.236 Q160.079 716.672 160.079 709.565 Q160.079 702.435 158.251 698.894 Q156.445 695.329 152.811 695.329 M152.811 691.625 Q158.621 691.625 161.677 696.232 Q164.755 700.815 164.755 709.565 Q164.755 718.292 161.677 722.898 Q158.621 727.482 152.811 727.482 Q147.001 727.482 143.922 722.898 Q140.867 718.292 140.867 709.565 Q140.867 700.815 143.922 696.232 Q147.001 691.625 152.811 691.625 Z" fill="#000000" fill-rule="evenodd" fill-opacity="1" /><path clip-path="url(#clip060)" d="M 0 0 M169.825 720.931 L174.709 720.931 L174.709 726.81 L169.825 726.81 L169.825 720.931 Z" fill="#000000" fill-rule="evenodd" fill-opacity="1" /><path clip-path="url(#clip060)" d="M 0 0 M189.778 695.329 Q186.167 695.329 184.339 698.894 Q182.533 702.435 182.533 709.565 Q182.533 716.672 184.339 720.236 Q186.167 723.778 189.778 723.778 Q193.413 723.778 195.218 720.236 Q197.047 716.672 197.047 709.565 Q197.047 702.435 195.218 698.894 Q193.413 695.329 189.778 695.329 M189.778 691.625 Q195.588 691.625 198.644 696.232 Q201.723 700.815 201.723 709.565 Q201.723 718.292 198.644 722.898 Q195.588 727.482 189.778 727.482 Q183.968 727.482 180.889 722.898 Q177.834 718.292 177.834 709.565 Q177.834 700.815 180.889 696.232 Q183.968 691.625 189.778 691.625 Z" fill="#000000" fill-rule="evenodd" fill-opacity="1" /><path clip-path="url(#clip060)" d="M 0 0 M153.806 382.76 Q150.195 382.76 148.367 386.325 Q146.561 389.867 146.561 396.996 Q146.561 404.103 148.367 407.667 Q150.195 411.209 153.806 411.209 Q157.441 411.209 159.246 407.667 Q161.075 404.103 161.075 396.996 Q161.075 389.867 159.246 386.325 Q157.441 382.76 153.806 382.76 M153.806 379.056 Q159.616 379.056 162.672 383.663 Q165.751 388.246 165.751 396.996 Q165.751 405.723 162.672 410.329 Q159.616 414.913 153.806 414.913 Q147.996 414.913 144.917 410.329 Q141.862 405.723 141.862 396.996 Q141.862 388.246 144.917 383.663 Q147.996 379.056 153.806 379.056 Z" fill="#000000" fill-rule="evenodd" fill-opacity="1" /><path clip-path="url(#clip060)" d="M 0 0 M170.82 408.362 L175.704 408.362 L175.704 414.241 L170.82 414.241 L170.82 408.362 Z" fill="#000000" fill-rule="evenodd" fill-opacity="1" /><path clip-path="url(#clip060)" d="M 0 0 M180.82 379.681 L199.176 379.681 L199.176 383.617 L185.102 383.617 L185.102 392.089 Q186.121 391.742 187.139 391.579 Q188.158 391.394 189.176 391.394 Q194.963 391.394 198.343 394.566 Q201.723 397.737 201.723 403.154 Q201.723 408.732 198.251 411.834 Q194.778 414.913 188.459 414.913 Q186.283 414.913 184.014 414.542 Q181.769 414.172 179.362 413.431 L179.362 408.732 Q181.445 409.866 183.667 410.422 Q185.889 410.978 188.366 410.978 Q192.371 410.978 194.709 408.871 Q197.047 406.765 197.047 403.154 Q197.047 399.542 194.709 397.436 Q192.371 395.329 188.366 395.329 Q186.491 395.329 184.616 395.746 Q182.764 396.163 180.82 397.042 L180.82 379.681 Z" fill="#000000" fill-rule="evenodd" fill-opacity="1" /><path clip-path="url(#clip060)" d="M 0 0 M144.848 97.7373 L152.487 97.7373 L152.487 71.3717 L144.177 73.0384 L144.177 68.7791 L152.441 67.1125 L157.116 67.1125 L157.116 97.7373 L164.755 97.7373 L164.755 101.672 L144.848 101.672 L144.848 97.7373 Z" fill="#000000" fill-rule="evenodd" fill-opacity="1" /><path clip-path="url(#clip060)" d="M 0 0 M169.825 95.7929 L174.709 95.7929 L174.709 101.672 L169.825 101.672 L169.825 95.7929 Z" fill="#000000" fill-rule="evenodd" fill-opacity="1" /><path clip-path="url(#clip060)" d="M 0 0 M189.778 70.1912 Q186.167 70.1912 184.339 73.7559 Q182.533 77.2976 182.533 84.4272 Q182.533 91.5336 184.339 95.0984 Q186.167 98.6401 189.778 98.6401 Q193.413 98.6401 195.218 95.0984 Q197.047 91.5336 197.047 84.4272 Q197.047 77.2976 195.218 73.7559 Q193.413 70.1912 189.778 70.1912 M189.778 66.4875 Q195.588 66.4875 198.644 71.0939 Q201.723 75.6772 201.723 84.4272 Q201.723 93.154 198.644 97.7604 Q195.588 102.344 189.778 102.344 Q183.968 102.344 180.889 97.7604 Q177.834 93.154 177.834 84.4272 Q177.834 75.6772 180.889 71.0939 Q183.968 66.4875 189.778 66.4875 Z" fill="#000000" fill-rule="evenodd" fill-opacity="1" /><path clip-path="url(#clip060)" d="M 0 0 M1252.47 1457.13 L1252.47 1462.66 Q1249.99 1461.39 1247.32 1460.75 Q1244.64 1460.12 1241.78 1460.12 Q1237.42 1460.12 1235.22 1461.45 Q1233.06 1462.79 1233.06 1465.47 Q1233.06 1467.5 1234.62 1468.68 Q1236.18 1469.83 1240.89 1470.88 L1242.89 1471.32 Q1249.13 1472.66 1251.74 1475.11 Q1254.38 1477.53 1254.38 1481.89 Q1254.38 1486.85 1250.44 1489.75 Q1246.52 1492.65 1239.65 1492.65 Q1236.78 1492.65 1233.66 1492.07 Q1230.57 1491.53 1227.14 1490.42 L1227.14 1484.37 Q1230.38 1486.06 1233.53 1486.92 Q1236.69 1487.75 1239.77 1487.75 Q1243.91 1487.75 1246.14 1486.34 Q1248.37 1484.91 1248.37 1482.33 Q1248.37 1479.95 1246.74 1478.67 Q1245.15 1477.4 1239.71 1476.22 L1237.67 1475.75 Q1232.23 1474.6 1229.81 1472.24 Q1227.39 1469.86 1227.39 1465.72 Q1227.39 1460.69 1230.96 1457.95 Q1234.52 1455.22 1241.08 1455.22 Q1244.32 1455.22 1247.19 1455.69 Q1250.05 1456.17 1252.47 1457.13 Z" fill="#000000" fill-rule="evenodd" fill-opacity="1" /><path clip-path="url(#clip060)" d="M 0 0 M56.881 728.295 L68.5621 761.142 L80.1795 728.295 L85.9723 728.295 L71.172 769.099 L65.8885 769.099 L51.0882 728.295 L56.881 728.295 Z" fill="#000000" fill-rule="evenodd" fill-opacity="1" /><path clip-path="url(#clip060)" d="M 0 0 M41.4442 724.189 L41.4442 717.282 L59.109 705.474 L41.4442 693.601 L41.4442 686.695 L64.2652 701.972 L88.9642 685.676 L88.9642 692.583 L68.753 705.951 L88.9642 719.414 L88.9642 726.353 L63.5968 709.388 L41.4442 724.189 Z" fill="#000000" fill-rule="evenodd" fill-opacity="1" /><path clip-path="url(#clip060)" d="M 0 0 M56.881 678.769 L51.0882 678.769 L65.8885 637.965 L71.172 637.965 L85.9723 678.769 L80.1795 678.769 L68.5621 645.986 L56.881 678.769 Z" fill="#000000" fill-rule="evenodd" fill-opacity="1" /><polyline clip-path="url(#clip062)" style="stroke:#009af9; stroke-width:8; stroke-opacity:1; fill:none" points="
  282.272,84.3925 291.905,87.547 301.538,96.9783 311.171,112.59 320.804,134.224 330.437,161.658 340.07,194.613 349.703,232.753 359.336,275.69 368.969,322.984 
  378.602,374.155 388.235,428.68 397.868,486.004 407.501,545.542 417.134,606.688 426.768,668.818 436.401,731.3 446.034,793.497 455.667,854.775 465.3,914.511 
  474.933,972.097 484.566,1026.95 494.199,1078.5 503.832,1126.23 513.465,1169.67 523.098,1208.35 532.731,1241.9 542.364,1269.97 551.997,1292.27 561.63,1308.59 
  571.263,1318.76 580.896,1322.67 590.529,1320.29 600.162,1311.65 609.795,1296.83 619.428,1276 629.061,1249.36 638.694,1217.18 648.327,1179.81 657.96,1137.62 
  667.594,1091.05 677.227,1040.56 686.86,986.692 696.493,929.982 706.126,871.014 715.759,810.391 725.392,748.732 735.025,686.67 744.658,624.837 754.291,563.865 
  763.924,504.379 773.557,446.984 783.19,392.268 792.823,340.788 802.456,293.07 812.089,249.601 821.722,210.825 831.355,177.135 840.988,148.877 850.621,126.336 
  860.254,109.743 869.887,99.2663 879.52,95.0108 889.153,97.0194 898.786,105.27 908.419,119.678 918.053,140.095 927.686,166.31 937.319,198.056 946.952,235.007 
  956.585,276.784 966.218,322.96 975.851,373.064 985.484,426.582 995.117,482.967 1004.75,541.644 1014.38,602.012 1024.02,663.455 1033.65,725.346 1043.28,787.052 
  1052.92,847.944 1062.55,907.401 1072.18,964.815 1081.81,1019.6 1091.45,1071.2 1101.08,1119.09 1110.71,1162.77 1120.35,1201.81 1129.98,1235.81 1139.61,1264.42 
  1149.25,1287.35 1158.88,1304.36 1168.51,1315.3 1178.14,1320.03 1187.78,1318.53 1197.41,1310.8 1207.04,1296.93 1216.68,1277.05 1226.31,1251.38 1235.94,1220.18 
  1245.58,235.292 1255.21,276.449 1264.84,321.917 1274.47,371.233 1284.11,423.897 1293.74,479.372 1303.37,537.096 1313.01,596.48 1322.64,656.922 1332.27,717.807 
  1341.91,778.515 1351.54,838.43 1361.17,896.943 1370.81,953.458 1380.44,1007.4 1390.07,1058.23 1399.7,1105.42 1409.34,1148.49 1418.97,1187.02 1428.6,1220.61 
  1438.24,1248.91 1447.87,1271.65 1457.5,1288.59 1467.14,1299.56 1476.77,1304.47 1486.4,1303.24 1496.03,1295.92 1505.67,1282.56 1515.3,1263.32 1524.93,1238.38 
  1534.57,1208.01 1544.2,1172.52 1553.83,1132.27 1563.47,1087.68 1573.1,1039.2 1582.73,987.337 1592.37,932.613 1602,875.592 1611.63,816.858 1621.26,757.011 
  1630.9,696.663 1640.53,636.432 1650.16,576.933 1659.8,518.775 1669.43,462.551 1679.06,408.836 1688.7,358.18 1698.33,311.097 1707.96,268.07 1717.59,229.538 
  1727.23,195.892 1736.86,167.478 1746.49,144.583 1756.13,127.44 1765.76,116.225 1775.39,111.051 1785.03,111.969 1794.66,118.97 1804.29,131.98 1813.93,150.866 
  1823.56,175.434 1833.19,205.433 1842.82,240.555 1852.46,280.441 1862.09,324.682 1871.72,372.826 1881.36,424.381 1890.99,478.82 1900.62,535.587 1910.26,594.102 
  1919.89,653.767 1929.52,713.972 1939.15,774.104 1948.79,833.549 1958.42,891.699 1968.05,947.963 1977.69,1001.77 1987.32,1052.56 1996.95,1099.82 2006.59,1143.08 
  2016.22,1181.89 2025.85,1215.85 2035.49,1244.62 2045.12,1267.91 2054.75,1285.48 2064.38,1297.15 2074.02,1302.82 2083.65,1302.41 2093.28,1295.93 2102.92,1283.46 
  2112.55,1265.12 2122.18,1241.1 2131.82,1211.65 2141.45,1177.07 2151.08,1137.71 2160.71,1093.98 2170.35,1046.33 2179.98,995.236 2189.61,941.229 2199.25,884.861 
  
  "/>
<polyline clip-path="url(#clip062)" style="stroke:#e26f46; stroke-width:8; stroke-opacity:1; fill:none" points="
  282.272,84.3925 291.905,92.3703 301.538,107.181 311.171,126.64 320.804,151.123 330.437,180.668 340.07,215.091 349.703,254.077 359.336,297.228 368.969,344.087 
  378.602,394.155 388.235,446.898 397.868,501.76 407.501,558.165 417.134,615.529 426.768,673.264 436.401,730.784 446.034,787.508 455.667,842.875 465.3,896.338 
  474.933,947.378 484.566,995.504 494.199,1040.26 503.832,1081.23 513.465,1118.05 523.098,1150.37 532.731,1177.92 542.364,1200.48 551.997,1217.86 561.63,1229.95 
  571.263,1236.67 580.896,1238.02 590.529,1234.03 600.162,1224.8 609.795,1210.47 619.428,1191.25 629.061,1167.38 638.694,1139.13 648.327,1106.86 657.96,1070.91 
  667.594,1031.7 677.227,989.641 686.86,945.195 696.493,898.833 706.126,851.041 715.759,802.316 725.392,753.157 735.025,704.064 744.658,655.531 754.291,608.04 
  763.924,562.059 773.557,518.037 783.19,476.394 792.823,437.528 802.456,401.8 812.089,369.538 821.722,341.032 831.355,316.528 840.988,296.234 850.621,280.309 
  860.254,268.87 869.887,261.985 879.52,259.676 889.153,261.921 898.786,268.648 908.419,279.745 918.053,295.054 927.686,314.378 937.319,337.48 946.952,364.09 
  956.585,393.904 966.218,426.587 975.851,461.782 985.484,499.107 995.117,538.166 1004.75,578.547 1014.38,619.83 1024.02,661.589 1033.65,703.401 1043.28,744.842 
  1052.92,785.5 1062.55,824.974 1072.18,862.877 1081.81,898.846 1091.45,932.537 1101.08,963.635 1110.71,991.854 1120.35,1016.94 1129.98,1038.67 1139.61,1056.86 
  1149.25,1071.37 1158.88,1082.09 1168.51,1088.94 1178.14,1091.91 1187.78,1090.99 1197.41,1086.25 1207.04,1077.76 1216.68,1065.65 1226.31,1050.08 1235.94,1031.24 
  1245.58,409.7 1255.21,434.372 1264.84,461.56 1274.47,490.963 1284.11,522.262 1293.74,555.122 1303.37,589.198 1313.01,624.132 1322.64,659.565 1332.27,695.134 
  1341.91,730.481 1351.54,765.251 1361.17,799.1 1370.81,831.698 1380.44,862.728 1390.07,891.896 1399.7,918.925 1409.34,943.568 1418.97,965.599 1428.6,984.824 
  1438.24,1001.08 1447.87,1014.23 1457.5,1024.18 1467.14,1030.86 1476.77,1034.23 1486.4,1034.3 1496.03,1031.1 1505.67,1024.7 1515.3,1015.19 1524.93,1002.7 
  1534.57,987.387 1544.2,969.437 1553.83,949.056 1563.47,926.475 1573.1,901.944 1582.73,875.73 1592.37,848.114 1602,819.389 1611.63,789.855 1621.26,759.818 
  1630.9,729.586 1640.53,699.465 1650.16,669.757 1659.8,640.757 1669.43,612.75 1679.06,586.007 1688.7,560.784 1698.33,537.32 1707.96,515.833 1717.59,496.518 
  1727.23,479.547 1736.86,465.068 1746.49,453.199 1756.13,444.034 1765.76,437.636 1775.39,434.042 1785.03,433.258 1794.66,435.263 1804.29,440.009 1813.93,447.419 
  1823.56,457.391 1833.19,469.798 1842.82,484.49 1852.46,501.294 1862.09,520.022 1871.72,540.463 1881.36,562.394 1890.99,585.579 1900.62,609.772 1910.26,634.719 
  1919.89,660.16 1929.52,685.835 1939.15,711.482 1948.79,736.844 1958.42,761.668 1968.05,785.711 1977.69,808.737 1987.32,830.526 1996.95,850.871 2006.59,869.582 
  2016.22,886.489 2025.85,901.439 2035.49,914.302 2045.12,924.97 2054.75,933.359 2064.38,939.408 2074.02,943.08 2083.65,944.363 2093.28,943.268 2102.92,939.832 
  2112.55,934.113 2122.18,926.192 2131.82,916.173 2141.45,904.177 2151.08,890.346 2160.71,874.838 2170.35,857.826 2179.98,839.498 2189.61,820.051 2199.25,799.694 
  
  "/>
<polyline clip-path="url(#clip062)" style="stroke:#3da44d; stroke-width:8; stroke-opacity:1; fill:none" points="
  282.272,84.3925 291.905,92.3703 301.538,107.18 311.171,126.638 320.804,151.116 330.437,180.651 340.07,215.057 349.703,254.015 359.336,297.124 368.969,343.924 
  378.602,393.911 388.235,446.548 397.868,501.275 407.501,557.513 417.134,614.675 426.768,672.17 436.401,729.407 446.034,785.808 455.667,840.806 465.3,893.857 
  474.933,944.441 484.566,992.068 494.199,1036.29 503.832,1076.68 513.465,1112.88 523.098,1144.56 532.731,1171.44 542.364,1193.31 551.997,1209.99 561.63,1221.37 
  571.263,1227.39 580.896,1228.05 590.529,1223.39 600.162,1213.52 609.795,1198.6 619.428,1178.82 629.061,1154.46 638.694,1125.79 648.327,1093.16 657.96,1056.95 
  667.594,1017.56 677.227,975.427 686.86,931.01 696.493,884.786 706.126,837.246 715.759,788.889 725.392,740.216 735.025,691.728 744.658,643.917 754.291,597.263 
  763.924,552.23 773.557,509.261 783.19,468.772 792.823,431.149 802.456,396.747 812.089,365.882 821.722,338.833 831.355,315.834 840.988,297.077 850.621,282.711 
  860.254,272.834 869.887,267.501 879.52,266.718 889.153,270.446 898.786,278.599 908.419,291.048 918.053,307.621 927.686,328.106 937.319,352.253 946.952,379.778 
  956.585,410.364 966.218,443.669 975.851,479.324 985.484,516.942 995.117,556.118 1004.75,596.438 1014.38,637.478 1024.02,678.813 1033.65,720.02 1043.28,760.678 
  1052.92,800.382 1062.55,838.735 1072.18,875.362 1081.81,909.909 1091.45,942.044 1101.08,971.466 1110.71,997.905 1120.35,1021.12 1129.98,1040.92 1139.61,1057.12 
  1149.25,1069.61 1158.88,1078.29 1168.51,1083.12 1178.14,1084.1 1187.78,1081.24 1197.41,1074.62 1207.04,1064.35 1216.68,1050.57 1226.31,1033.45 1235.94,1013.22 
  1245.58,428.959 1255.21,454.639 1264.84,482.585 1274.47,512.489 1284.11,544.029 1293.74,576.868 1303.37,610.66 1313.01,645.053 1322.64,679.691 1332.27,714.222 
  1341.91,748.297 1351.54,781.575 1361.17,813.727 1370.81,844.438 1380.44,873.414 1390.07,900.379 1399.7,925.08 1409.34,947.292 1418.97,966.816 1428.6,983.481 
  1438.24,997.152 1447.87,1007.72 1457.5,1015.11 1467.14,1019.29 1476.77,1020.24 1486.4,1017.99 1496.03,1012.6 1505.67,1004.16 1515.3,992.786 1524.93,978.626 
  1534.57,961.855 1544.2,942.671 1553.83,921.298 1563.47,897.976 1573.1,872.963 1582.73,846.534 1592.37,818.973 1602,790.572 1611.63,761.632 1621.26,732.453 
  1630.9,703.334 1640.53,674.573 1650.16,646.46 1659.8,619.273 1669.43,593.28 1679.06,568.735 1688.7,545.873 1698.33,524.907 1707.96,506.033 1717.59,489.422 
  1727.23,475.217 1736.86,463.54 1746.49,454.482 1756.13,448.109 1765.76,444.456 1775.39,443.534 1785.03,445.322 1794.66,449.774 1804.29,456.817 1813.93,466.351 
  1823.56,478.254 1833.19,492.379 1842.82,508.559 1852.46,526.607 1862.09,546.321 1871.72,567.481 1881.36,589.858 1890.99,613.21 1900.62,637.29 1910.26,661.845 
  1919.89,686.619 1929.52,711.358 1939.15,735.81 1948.79,759.731 1958.42,782.881 1968.05,805.033 1977.69,825.973 1987.32,845.499 1996.95,863.429 2006.59,879.596 
  2016.22,893.854 2025.85,906.079 2035.49,916.168 2045.12,924.041 2054.75,929.641 2064.38,932.935 2074.02,933.914 2083.65,932.593 2093.28,929.01 2102.92,923.226 
  2112.55,915.321 2122.18,905.401 2131.82,893.587 2141.45,880.019 2151.08,864.855 2160.71,848.266 2170.35,830.436 2179.98,811.56 2189.61,791.842 2199.25,771.491 
  
  "/>
<path clip-path="url(#clip060)" d="
M292.496 332.917 L800.007 332.917 L800.007 90.9966 L292.496 90.9966  Z
  " fill="#ffffff" fill-rule="evenodd" fill-opacity="1"/>
<polyline clip-path="url(#clip060)" style="stroke:#000000; stroke-width:4; stroke-opacity:1; fill:none" points="
  292.496,332.917 800.007,332.917 800.007,90.9966 292.496,90.9966 292.496,332.917 
  "/>
<polyline clip-path="url(#clip060)" style="stroke:#009af9; stroke-width:4; stroke-opacity:1; fill:none" points="
  315.074,151.477 450.54,151.477 
  "/>
<path clip-path="url(#clip060)" d="M 0 0 M474.692 134.197 L479.715 134.197 L488.303 147.044 L496.937 134.197 L501.96 134.197 L490.849 150.794 L502.701 168.757 L497.677 168.757 L487.955 154.058 L478.164 168.757 L473.117 168.757 L485.455 150.308 L474.692 134.197 Z" fill="#000000" fill-rule="evenodd" fill-opacity="1" /><path clip-path="url(#clip060)" d="M 0 0 M540.895 143.826 L540.895 147.808 Q539.089 146.812 537.261 146.326 Q535.455 145.817 533.603 145.817 Q529.46 145.817 527.168 148.456 Q524.876 151.072 524.876 155.817 Q524.876 160.562 527.168 163.201 Q529.46 165.817 533.603 165.817 Q535.455 165.817 537.261 165.331 Q539.089 164.821 540.895 163.826 L540.895 167.761 Q539.112 168.595 537.191 169.011 Q535.293 169.428 533.14 169.428 Q527.284 169.428 523.835 165.747 Q520.386 162.067 520.386 155.817 Q520.386 149.474 523.858 145.84 Q527.353 142.206 533.418 142.206 Q535.386 142.206 537.261 142.623 Q539.136 143.016 540.895 143.826 Z" fill="#000000" fill-rule="evenodd" fill-opacity="1" /><path clip-path="url(#clip060)" d="M 0 0 M555.409 145.817 Q551.983 145.817 549.992 148.502 Q548.001 151.164 548.001 155.817 Q548.001 160.47 549.969 163.155 Q551.96 165.817 555.409 165.817 Q558.811 165.817 560.802 163.132 Q562.793 160.446 562.793 155.817 Q562.793 151.21 560.802 148.525 Q558.811 145.817 555.409 145.817 M555.409 142.206 Q560.964 142.206 564.135 145.817 Q567.307 149.428 567.307 155.817 Q567.307 162.183 564.135 165.817 Q560.964 169.428 555.409 169.428 Q549.83 169.428 546.659 165.817 Q543.511 162.183 543.511 155.817 Q543.511 149.428 546.659 145.817 Q549.83 142.206 555.409 142.206 Z" fill="#000000" fill-rule="evenodd" fill-opacity="1" /><path clip-path="url(#clip060)" d="M 0 0 M571.335 158.525 L571.335 142.831 L575.594 142.831 L575.594 158.363 Q575.594 162.044 577.029 163.896 Q578.464 165.724 581.334 165.724 Q584.784 165.724 586.774 163.525 Q588.788 161.326 588.788 157.53 L588.788 142.831 L593.047 142.831 L593.047 168.757 L588.788 168.757 L588.788 164.775 Q587.237 167.136 585.177 168.294 Q583.14 169.428 580.432 169.428 Q575.964 169.428 573.649 166.65 Q571.335 163.872 571.335 158.525 M582.052 142.206 L582.052 142.206 Z" fill="#000000" fill-rule="evenodd" fill-opacity="1" /><path clip-path="url(#clip060)" d="M 0 0 M601.635 164.868 L601.635 178.618 L597.353 178.618 L597.353 142.831 L601.635 142.831 L601.635 146.766 Q602.978 144.451 605.015 143.34 Q607.075 142.206 609.922 142.206 Q614.644 142.206 617.584 145.956 Q620.547 149.706 620.547 155.817 Q620.547 161.928 617.584 165.678 Q614.644 169.428 609.922 169.428 Q607.075 169.428 605.015 168.317 Q602.978 167.183 601.635 164.868 M616.126 155.817 Q616.126 151.118 614.181 148.456 Q612.26 145.771 608.881 145.771 Q605.501 145.771 603.557 148.456 Q601.635 151.118 601.635 155.817 Q601.635 160.516 603.557 163.201 Q605.501 165.863 608.881 165.863 Q612.26 165.863 614.181 163.201 Q616.126 160.516 616.126 155.817 Z" fill="#000000" fill-rule="evenodd" fill-opacity="1" /><path clip-path="url(#clip060)" d="M 0 0 M625.015 132.738 L629.274 132.738 L629.274 168.757 L625.015 168.757 L625.015 132.738 Z" fill="#000000" fill-rule="evenodd" fill-opacity="1" /><path clip-path="url(#clip060)" d="M 0 0 M633.742 142.831 L638.001 142.831 L638.001 168.757 L633.742 168.757 L633.742 142.831 M633.742 132.738 L638.001 132.738 L638.001 138.132 L633.742 138.132 L633.742 132.738 Z" fill="#000000" fill-rule="evenodd" fill-opacity="1" /><path clip-path="url(#clip060)" d="M 0 0 M664.019 153.109 L664.019 168.757 L659.76 168.757 L659.76 153.247 Q659.76 149.567 658.325 147.738 Q656.89 145.91 654.019 145.91 Q650.57 145.91 648.579 148.109 Q646.589 150.308 646.589 154.104 L646.589 168.757 L642.306 168.757 L642.306 142.831 L646.589 142.831 L646.589 146.859 Q648.117 144.521 650.177 143.363 Q652.26 142.206 654.968 142.206 Q659.436 142.206 661.728 144.984 Q664.019 147.738 664.019 153.109 Z" fill="#000000" fill-rule="evenodd" fill-opacity="1" /><path clip-path="url(#clip060)" d="M 0 0 M685.547 155.493 Q685.547 150.863 683.626 148.317 Q681.727 145.771 678.278 145.771 Q674.852 145.771 672.931 148.317 Q671.033 150.863 671.033 155.493 Q671.033 160.099 672.931 162.646 Q674.852 165.192 678.278 165.192 Q681.727 165.192 683.626 162.646 Q685.547 160.099 685.547 155.493 M689.806 165.539 Q689.806 172.159 686.866 175.377 Q683.926 178.618 677.862 178.618 Q675.616 178.618 673.626 178.27 Q671.635 177.946 669.76 177.252 L669.76 173.108 Q671.635 174.127 673.464 174.613 Q675.292 175.099 677.19 175.099 Q681.38 175.099 683.464 172.9 Q685.547 170.724 685.547 166.303 L685.547 164.196 Q684.227 166.488 682.167 167.622 Q680.107 168.757 677.237 168.757 Q672.468 168.757 669.552 165.122 Q666.635 161.488 666.635 155.493 Q666.635 149.474 669.552 145.84 Q672.468 142.206 677.237 142.206 Q680.107 142.206 682.167 143.34 Q684.227 144.474 685.547 146.766 L685.547 142.831 L689.806 142.831 L689.806 165.539 Z" fill="#000000" fill-rule="evenodd" fill-opacity="1" /><polyline clip-path="url(#clip060)" style="stroke:#e26f46; stroke-width:4; stroke-opacity:1; fill:none" points="
  315.074,211.957 450.54,211.957 
  "/>
<path clip-path="url(#clip060)" d="M 0 0 M473.65 194.677 L500.802 194.677 L500.802 198.241 L478.951 225.301 L501.335 225.301 L501.335 229.237 L473.117 229.237 L473.117 225.672 L494.969 198.612 L473.65 198.612 L473.65 194.677 Z" fill="#000000" fill-rule="evenodd" fill-opacity="1" /><path clip-path="url(#clip060)" d="M 0 0 M539.529 204.306 L539.529 208.288 Q537.724 207.292 535.895 206.806 Q534.089 206.297 532.237 206.297 Q528.094 206.297 525.802 208.936 Q523.511 211.552 523.511 216.297 Q523.511 221.042 525.802 223.681 Q528.094 226.297 532.237 226.297 Q534.089 226.297 535.895 225.811 Q537.724 225.301 539.529 224.306 L539.529 228.241 Q537.747 229.075 535.825 229.491 Q533.927 229.908 531.775 229.908 Q525.918 229.908 522.469 226.227 Q519.02 222.547 519.02 216.297 Q519.02 209.954 522.492 206.32 Q525.988 202.686 532.052 202.686 Q534.02 202.686 535.895 203.103 Q537.77 203.496 539.529 204.306 Z" fill="#000000" fill-rule="evenodd" fill-opacity="1" /><path clip-path="url(#clip060)" d="M 0 0 M554.043 206.297 Q550.617 206.297 548.626 208.982 Q546.636 211.644 546.636 216.297 Q546.636 220.95 548.603 223.635 Q550.594 226.297 554.043 226.297 Q557.446 226.297 559.436 223.612 Q561.427 220.926 561.427 216.297 Q561.427 211.69 559.436 209.005 Q557.446 206.297 554.043 206.297 M554.043 202.686 Q559.598 202.686 562.77 206.297 Q565.941 209.908 565.941 216.297 Q565.941 222.663 562.77 226.297 Q559.598 229.908 554.043 229.908 Q548.464 229.908 545.293 226.297 Q542.145 222.663 542.145 216.297 Q542.145 209.908 545.293 206.297 Q548.464 202.686 554.043 202.686 Z" fill="#000000" fill-rule="evenodd" fill-opacity="1" /><path clip-path="url(#clip060)" d="M 0 0 M569.969 219.005 L569.969 203.311 L574.228 203.311 L574.228 218.843 Q574.228 222.524 575.663 224.376 Q577.098 226.204 579.969 226.204 Q583.418 226.204 585.409 224.005 Q587.422 221.806 587.422 218.01 L587.422 203.311 L591.682 203.311 L591.682 229.237 L587.422 229.237 L587.422 225.255 Q585.871 227.616 583.811 228.774 Q581.774 229.908 579.066 229.908 Q574.598 229.908 572.284 227.13 Q569.969 224.352 569.969 219.005 M580.686 202.686 L580.686 202.686 Z" fill="#000000" fill-rule="evenodd" fill-opacity="1" /><path clip-path="url(#clip060)" d="M 0 0 M600.27 225.348 L600.27 239.098 L595.987 239.098 L595.987 203.311 L600.27 203.311 L600.27 207.246 Q601.612 204.931 603.649 203.82 Q605.709 202.686 608.557 202.686 Q613.279 202.686 616.219 206.436 Q619.181 210.186 619.181 216.297 Q619.181 222.408 616.219 226.158 Q613.279 229.908 608.557 229.908 Q605.709 229.908 603.649 228.797 Q601.612 227.663 600.27 225.348 M614.76 216.297 Q614.76 211.598 612.816 208.936 Q610.894 206.251 607.515 206.251 Q604.135 206.251 602.191 208.936 Q600.27 211.598 600.27 216.297 Q600.27 220.996 602.191 223.681 Q604.135 226.343 607.515 226.343 Q610.894 226.343 612.816 223.681 Q614.76 220.996 614.76 216.297 Z" fill="#000000" fill-rule="evenodd" fill-opacity="1" /><path clip-path="url(#clip060)" d="M 0 0 M623.649 193.218 L627.908 193.218 L627.908 229.237 L623.649 229.237 L623.649 193.218 Z" fill="#000000" fill-rule="evenodd" fill-opacity="1" /><path clip-path="url(#clip060)" d="M 0 0 M632.376 203.311 L636.635 203.311 L636.635 229.237 L632.376 229.237 L632.376 203.311 M632.376 193.218 L636.635 193.218 L636.635 198.612 L632.376 198.612 L632.376 193.218 Z" fill="#000000" fill-rule="evenodd" fill-opacity="1" /><path clip-path="url(#clip060)" d="M 0 0 M662.653 213.589 L662.653 229.237 L658.394 229.237 L658.394 213.727 Q658.394 210.047 656.959 208.218 Q655.524 206.39 652.654 206.39 Q649.204 206.39 647.214 208.589 Q645.223 210.788 645.223 214.584 L645.223 229.237 L640.941 229.237 L640.941 203.311 L645.223 203.311 L645.223 207.339 Q646.751 205.001 648.811 203.843 Q650.894 202.686 653.603 202.686 Q658.07 202.686 660.362 205.464 Q662.653 208.218 662.653 213.589 Z" fill="#000000" fill-rule="evenodd" fill-opacity="1" /><path clip-path="url(#clip060)" d="M 0 0 M684.181 215.973 Q684.181 211.343 682.26 208.797 Q680.362 206.251 676.913 206.251 Q673.487 206.251 671.565 208.797 Q669.667 211.343 669.667 215.973 Q669.667 220.579 671.565 223.126 Q673.487 225.672 676.913 225.672 Q680.362 225.672 682.26 223.126 Q684.181 220.579 684.181 215.973 M688.44 226.019 Q688.44 232.639 685.501 235.857 Q682.561 239.098 676.496 239.098 Q674.251 239.098 672.26 238.75 Q670.269 238.426 668.394 237.732 L668.394 233.588 Q670.269 234.607 672.098 235.093 Q673.927 235.579 675.825 235.579 Q680.014 235.579 682.098 233.38 Q684.181 231.204 684.181 226.783 L684.181 224.676 Q682.862 226.968 680.802 228.102 Q678.741 229.237 675.871 229.237 Q671.102 229.237 668.186 225.602 Q665.269 221.968 665.269 215.973 Q665.269 209.954 668.186 206.32 Q671.102 202.686 675.871 202.686 Q678.741 202.686 680.802 203.82 Q682.862 204.954 684.181 207.246 L684.181 203.311 L688.44 203.311 L688.44 226.019 Z" fill="#000000" fill-rule="evenodd" fill-opacity="1" /><polyline clip-path="url(#clip060)" style="stroke:#3da44d; stroke-width:4; stroke-opacity:1; fill:none" points="
  315.074,272.437 450.54,272.437 
  "/>
<path clip-path="url(#clip060)" d="M 0 0 M474.692 255.157 L479.715 255.157 L488.303 268.004 L496.937 255.157 L501.96 255.157 L490.849 271.754 L502.701 289.717 L497.677 289.717 L487.955 275.018 L478.164 289.717 L473.117 289.717 L485.455 271.268 L474.692 255.157 Z" fill="#000000" fill-rule="evenodd" fill-opacity="1" /><path clip-path="url(#clip060)" d="M 0 0 M524.506 259.995 L524.506 272.888 L537.4 272.888 L537.4 276.823 L524.506 276.823 L524.506 289.717 L520.617 289.717 L520.617 276.823 L507.724 276.823 L507.724 272.888 L520.617 272.888 L520.617 259.995 L524.506 259.995 Z" fill="#000000" fill-rule="evenodd" fill-opacity="1" /><path clip-path="url(#clip060)" d="M 0 0 M540.062 255.157 L567.214 255.157 L567.214 258.721 L545.362 285.781 L567.747 285.781 L567.747 289.717 L539.529 289.717 L539.529 286.152 L561.381 259.092 L540.062 259.092 L540.062 255.157 Z" fill="#000000" fill-rule="evenodd" fill-opacity="1" /><path clip-path="url(#clip060)" d="M 0 0 M605.941 264.786 L605.941 268.768 Q604.135 267.772 602.307 267.286 Q600.501 266.777 598.649 266.777 Q594.506 266.777 592.214 269.416 Q589.922 272.032 589.922 276.777 Q589.922 281.522 592.214 284.161 Q594.506 286.777 598.649 286.777 Q600.501 286.777 602.307 286.291 Q604.135 285.781 605.941 284.786 L605.941 288.721 Q604.158 289.555 602.237 289.971 Q600.339 290.388 598.186 290.388 Q592.33 290.388 588.881 286.707 Q585.432 283.027 585.432 276.777 Q585.432 270.434 588.904 266.8 Q592.399 263.166 598.464 263.166 Q600.432 263.166 602.307 263.583 Q604.182 263.976 605.941 264.786 Z" fill="#000000" fill-rule="evenodd" fill-opacity="1" /><path clip-path="url(#clip060)" d="M 0 0 M620.455 266.777 Q617.029 266.777 615.038 269.462 Q613.047 272.124 613.047 276.777 Q613.047 281.43 615.015 284.115 Q617.006 286.777 620.455 286.777 Q623.857 286.777 625.848 284.092 Q627.839 281.406 627.839 276.777 Q627.839 272.17 625.848 269.485 Q623.857 266.777 620.455 266.777 M620.455 263.166 Q626.01 263.166 629.181 266.777 Q632.353 270.388 632.353 276.777 Q632.353 283.143 629.181 286.777 Q626.01 290.388 620.455 290.388 Q614.876 290.388 611.705 286.777 Q608.557 283.143 608.557 276.777 Q608.557 270.388 611.705 266.777 Q614.876 263.166 620.455 263.166 Z" fill="#000000" fill-rule="evenodd" fill-opacity="1" /><path clip-path="url(#clip060)" d="M 0 0 M636.38 279.485 L636.38 263.791 L640.64 263.791 L640.64 279.323 Q640.64 283.004 642.075 284.856 Q643.51 286.684 646.38 286.684 Q649.829 286.684 651.82 284.485 Q653.834 282.286 653.834 278.49 L653.834 263.791 L658.093 263.791 L658.093 289.717 L653.834 289.717 L653.834 285.735 Q652.283 288.096 650.223 289.254 Q648.186 290.388 645.478 290.388 Q641.01 290.388 638.695 287.61 Q636.38 284.832 636.38 279.485 M647.098 263.166 L647.098 263.166 Z" fill="#000000" fill-rule="evenodd" fill-opacity="1" /><path clip-path="url(#clip060)" d="M 0 0 M666.681 285.828 L666.681 299.578 L662.399 299.578 L662.399 263.791 L666.681 263.791 L666.681 267.726 Q668.024 265.411 670.061 264.3 Q672.121 263.166 674.968 263.166 Q679.69 263.166 682.63 266.916 Q685.593 270.666 685.593 276.777 Q685.593 282.888 682.63 286.638 Q679.69 290.388 674.968 290.388 Q672.121 290.388 670.061 289.277 Q668.024 288.143 666.681 285.828 M681.172 276.777 Q681.172 272.078 679.227 269.416 Q677.306 266.731 673.927 266.731 Q670.547 266.731 668.603 269.416 Q666.681 272.078 666.681 276.777 Q666.681 281.476 668.603 284.161 Q670.547 286.823 673.927 286.823 Q677.306 286.823 679.227 284.161 Q681.172 281.476 681.172 276.777 Z" fill="#000000" fill-rule="evenodd" fill-opacity="1" /><path clip-path="url(#clip060)" d="M 0 0 M690.061 253.698 L694.32 253.698 L694.32 289.717 L690.061 289.717 L690.061 253.698 Z" fill="#000000" fill-rule="evenodd" fill-opacity="1" /><path clip-path="url(#clip060)" d="M 0 0 M698.788 263.791 L703.047 263.791 L703.047 289.717 L698.788 289.717 L698.788 263.791 M698.788 253.698 L703.047 253.698 L703.047 259.092 L698.788 259.092 L698.788 253.698 Z" fill="#000000" fill-rule="evenodd" fill-opacity="1" /><path clip-path="url(#clip060)" d="M 0 0 M729.065 274.069 L729.065 289.717 L724.806 289.717 L724.806 274.207 Q724.806 270.527 723.371 268.698 Q721.936 266.87 719.065 266.87 Q715.616 266.87 713.625 269.069 Q711.635 271.268 711.635 275.064 L711.635 289.717 L707.352 289.717 L707.352 263.791 L711.635 263.791 L711.635 267.819 Q713.162 265.481 715.223 264.323 Q717.306 263.166 720.014 263.166 Q724.482 263.166 726.773 265.944 Q729.065 268.698 729.065 274.069 Z" fill="#000000" fill-rule="evenodd" fill-opacity="1" /><path clip-path="url(#clip060)" d="M 0 0 M750.593 276.453 Q750.593 271.823 748.672 269.277 Q746.773 266.731 743.324 266.731 Q739.898 266.731 737.977 269.277 Q736.079 271.823 736.079 276.453 Q736.079 281.059 737.977 283.606 Q739.898 286.152 743.324 286.152 Q746.773 286.152 748.672 283.606 Q750.593 281.059 750.593 276.453 M754.852 286.499 Q754.852 293.119 751.912 296.337 Q748.972 299.578 742.908 299.578 Q740.662 299.578 738.672 299.23 Q736.681 298.906 734.806 298.212 L734.806 294.068 Q736.681 295.087 738.51 295.573 Q740.338 296.059 742.236 296.059 Q746.426 296.059 748.509 293.86 Q750.593 291.684 750.593 287.263 L750.593 285.156 Q749.273 287.448 747.213 288.582 Q745.153 289.717 742.283 289.717 Q737.514 289.717 734.598 286.082 Q731.681 282.448 731.681 276.453 Q731.681 270.434 734.598 266.8 Q737.514 263.166 742.283 263.166 Q745.153 263.166 747.213 264.3 Q749.273 265.434 750.593 267.726 L750.593 263.791 L754.852 263.791 L754.852 286.499 Z" fill="#000000" fill-rule="evenodd" fill-opacity="1" /></svg>
